0
SECTION
2
HEADER
9
$INSUNITS
70
4
0
ENDSEC
0
SECTION
2
TABLES
0
TABLE
2
LTYPE
0
LTYPE
72
65
70
64
2
CONTINUOUS
3
______
73
0
40
0
0
ENDTAB
0
TABLE
2
LAYER
0
ENDTAB
0
ENDSEC
0
SECTION
2
ENTITIES
0
LINE
8
0
10
379.6499908
20
-90.9590849
11
379.6499908
21
-24.263841
0
LINE
8
0
10
377.8999832
20
-22.2795266
11
316.2744953
21
-14.5156856
0
LINE
8
0
10
316.0245029
20
-14.5
11
296.3155156
21
-14.5
0
LINE
8
0
10
295.9867176
20
-14.5272122
11
260.313264
21
-20.4727878
0
LINE
8
0
10
259.984466
20
-20.5
11
242.1346286
21
-20.5
0
LINE
8
0
10
240.1346881
20
-22.4845788
11
239.4768099
21
-107.803574
0
LINE
8
0
10
239.7280016
20
-108.789499
11
252.8111793
21
-132.3640493
0
LINE
8
0
10
255.5448587
20
-133.1342097
11
305.6916676
21
-104.7593358
0
LINE
8
0
10
306.6765982
20
-104.5
11
333.8906878
21
-104.5
0
LINE
8
0
10
334.4007204
20
-104.4338735
11
378.1600234
21
-92.8929584
0
ARC
8
0
10
377.6499908
20
-24.263841
40
2
50
0
51
82.8194635
0
ARC
8
0
10
316.0245029
20
-16.5
40
2
50
82.8194635
51
90
0
ARC
8
0
10
296.3155156
20
-16.5
40
2
50
90
51
99.4623231
0
ARC
8
0
10
259.984466
20
-18.5
40
2
50
270
51
279.4623231
0
ARC
8
0
10
242.1346286
20
-22.5
40
2
50
90
51
179.5582108
0
ARC
8
0
10
241.4767504
20
-107.8189952
40
2
50
179.5582108
51
209.0289776
0
ARC
8
0
10
254.5599281
20
-131.3935455
40
2
50
209.0289776
51
299.5027472
0
ARC
8
0
10
306.6765982
20
-106.5
40
2
50
90
51
119.5027472
0
ARC
8
0
10
333.8906878
20
-102.5
40
2
50
270
51
284.7745503
0
ARC
8
0
10
377.6499908
20
-90.9590849
40
2
50
284.7745503
51
0
0
LINE
8
0
10
355.8999908
20
-91.25
11
373.3999908
21
-91.25
0
LINE
8
0
10
373.3999908
20
-91.25
11
373.3999908
21
-74.75
0
LINE
8
0
10
373.3999908
20
-74.75
11
355.8999908
21
-74.75
0
LINE
8
0
10
355.8999908
20
-74.75
11
355.8999908
21
-91.25
0
LINE
8
0
10
355.8999908
20
-74.25
11
373.3999908
21
-74.25
0
LINE
8
0
10
373.3999908
20
-74.25
11
373.3999908
21
-57.75
0
LINE
8
0
10
373.3999908
20
-57.75
11
355.8999908
21
-57.75
0
LINE
8
0
10
355.8999908
20
-57.75
11
355.8999908
21
-74.25
0
LINE
8
0
10
355.8999908
20
-57.25
11
373.3999908
21
-57.25
0
LINE
8
0
10
373.3999908
20
-57.25
11
373.3999908
21
-40.75
0
LINE
8
0
10
373.3999908
20
-40.75
11
355.8999908
21
-40.75
0
LINE
8
0
10
355.8999908
20
-40.75
11
355.8999908
21
-57.25
0
LINE
8
0
10
355.8999908
20
-40.25
11
373.3999908
21
-40.25
0
LINE
8
0
10
373.3999908
20
-40.25
11
373.3999908
21
-23.75
0
LINE
8
0
10
373.3999908
20
-23.75
11
355.8999908
21
-23.75
0
LINE
8
0
10
355.8999908
20
-23.75
11
355.8999908
21
-40.25
0
LINE
8
0
10
333.3999908
20
-91.25
11
350.8999908
21
-91.25
0
LINE
8
0
10
350.8999908
20
-91.25
11
350.8999908
21
-74.75
0
LINE
8
0
10
350.8999908
20
-74.75
11
333.3999908
21
-74.75
0
LINE
8
0
10
333.3999908
20
-74.75
11
333.3999908
21
-91.25
0
LINE
8
0
10
333.3999908
20
-74.25
11
350.8999908
21
-74.25
0
LINE
8
0
10
350.8999908
20
-74.25
11
350.8999908
21
-57.75
0
LINE
8
0
10
350.8999908
20
-57.75
11
333.3999908
21
-57.75
0
LINE
8
0
10
333.3999908
20
-57.75
11
333.3999908
21
-74.25
0
LINE
8
0
10
333.3999908
20
-57.25
11
350.8999908
21
-57.25
0
LINE
8
0
10
350.8999908
20
-57.25
11
350.8999908
21
-40.75
0
LINE
8
0
10
350.8999908
20
-40.75
11
333.3999908
21
-40.75
0
LINE
8
0
10
333.3999908
20
-40.75
11
333.3999908
21
-57.25
0
LINE
8
0
10
333.3999908
20
-40.25
11
350.8999908
21
-40.25
0
LINE
8
0
10
350.8999908
20
-40.25
11
350.8999908
21
-23.75
0
LINE
8
0
10
350.8999908
20
-23.75
11
333.3999908
21
-23.75
0
LINE
8
0
10
333.3999908
20
-23.75
11
333.3999908
21
-40.25
0
LINE
8
0
10
315.3999908
20
-103.25
11
332.8999908
21
-103.25
0
LINE
8
0
10
332.8999908
20
-103.25
11
332.8999908
21
-86.75
0
LINE
8
0
10
332.8999908
20
-86.75
11
315.3999908
21
-86.75
0
LINE
8
0
10
315.3999908
20
-86.75
11
315.3999908
21
-103.25
0
LINE
8
0
10
315.3999908
20
-86.25
11
332.8999908
21
-86.25
0
LINE
8
0
10
332.8999908
20
-86.25
11
332.8999908
21
-69.75
0
LINE
8
0
10
332.8999908
20
-69.75
11
315.3999908
21
-69.75
0
LINE
8
0
10
315.3999908
20
-69.75
11
315.3999908
21
-86.25
0
LINE
8
0
10
315.3999908
20
-69.25
11
332.8999908
21
-69.25
0
LINE
8
0
10
332.8999908
20
-69.25
11
332.8999908
21
-52.75
0
LINE
8
0
10
332.8999908
20
-52.75
11
315.3999908
21
-52.75
0
LINE
8
0
10
315.3999908
20
-52.75
11
315.3999908
21
-69.25
0
LINE
8
0
10
315.3999908
20
-52.25
11
332.8999908
21
-52.25
0
LINE
8
0
10
332.8999908
20
-52.25
11
332.8999908
21
-35.75
0
LINE
8
0
10
332.8999908
20
-35.75
11
315.3999908
21
-35.75
0
LINE
8
0
10
315.3999908
20
-35.75
11
315.3999908
21
-52.25
0
LINE
8
0
10
315.3999908
20
-35.25
11
332.8999908
21
-35.25
0
LINE
8
0
10
332.8999908
20
-35.25
11
332.8999908
21
-18.75
0
LINE
8
0
10
332.8999908
20
-18.75
11
315.3999908
21
-18.75
0
LINE
8
0
10
315.3999908
20
-18.75
11
315.3999908
21
-35.25
0
LINE
8
0
10
297.3999908
20
-100.25
11
314.8999908
21
-100.25
0
LINE
8
0
10
314.8999908
20
-100.25
11
314.8999908
21
-83.75
0
LINE
8
0
10
314.8999908
20
-83.75
11
297.3999908
21
-83.75
0
LINE
8
0
10
297.3999908
20
-83.75
11
297.3999908
21
-100.25
0
LINE
8
0
10
297.3999908
20
-83.25
11
314.8999908
21
-83.25
0
LINE
8
0
10
314.8999908
20
-83.25
11
314.8999908
21
-66.75
0
LINE
8
0
10
314.8999908
20
-66.75
11
297.3999908
21
-66.75
0
LINE
8
0
10
297.3999908
20
-66.75
11
297.3999908
21
-83.25
0
LINE
8
0
10
297.3999908
20
-66.25
11
314.8999908
21
-66.25
0
LINE
8
0
10
314.8999908
20
-66.25
11
314.8999908
21
-49.75
0
LINE
8
0
10
314.8999908
20
-49.75
11
297.3999908
21
-49.75
0
LINE
8
0
10
297.3999908
20
-49.75
11
297.3999908
21
-66.25
0
LINE
8
0
10
297.3999908
20
-49.25
11
314.8999908
21
-49.25
0
LINE
8
0
10
314.8999908
20
-49.25
11
314.8999908
21
-32.75
0
LINE
8
0
10
314.8999908
20
-32.75
11
297.3999908
21
-32.75
0
LINE
8
0
10
297.3999908
20
-32.75
11
297.3999908
21
-49.25
0
LINE
8
0
10
297.3999908
20
-32.25
11
314.8999908
21
-32.25
0
LINE
8
0
10
314.8999908
20
-32.25
11
314.8999908
21
-15.75
0
LINE
8
0
10
314.8999908
20
-15.75
11
297.3999908
21
-15.75
0
LINE
8
0
10
297.3999908
20
-15.75
11
297.3999908
21
-32.25
0
LINE
8
0
10
279.3999908
20
-103.25
11
296.8999908
21
-103.25
0
LINE
8
0
10
296.8999908
20
-103.25
11
296.8999908
21
-86.75
0
LINE
8
0
10
296.8999908
20
-86.75
11
279.3999908
21
-86.75
0
LINE
8
0
10
279.3999908
20
-86.75
11
279.3999908
21
-103.25
0
LINE
8
0
10
279.3999908
20
-86.25
11
296.8999908
21
-86.25
0
LINE
8
0
10
296.8999908
20
-86.25
11
296.8999908
21
-69.75
0
LINE
8
0
10
296.8999908
20
-69.75
11
279.3999908
21
-69.75
0
LINE
8
0
10
279.3999908
20
-69.75
11
279.3999908
21
-86.25
0
LINE
8
0
10
279.3999908
20
-69.25
11
296.8999908
21
-69.25
0
LINE
8
0
10
296.8999908
20
-69.25
11
296.8999908
21
-52.75
0
LINE
8
0
10
296.8999908
20
-52.75
11
279.3999908
21
-52.75
0
LINE
8
0
10
279.3999908
20
-52.75
11
279.3999908
21
-69.25
0
LINE
8
0
10
279.3999908
20
-52.25
11
296.8999908
21
-52.25
0
LINE
8
0
10
296.8999908
20
-52.25
11
296.8999908
21
-35.75
0
LINE
8
0
10
296.8999908
20
-35.75
11
279.3999908
21
-35.75
0
LINE
8
0
10
279.3999908
20
-35.75
11
279.3999908
21
-52.25
0
LINE
8
0
10
279.3999908
20
-35.25
11
296.8999908
21
-35.25
0
LINE
8
0
10
296.8999908
20
-35.25
11
296.8999908
21
-18.75
0
LINE
8
0
10
296.8999908
20
-18.75
11
279.3999908
21
-18.75
0
LINE
8
0
10
279.3999908
20
-18.75
11
279.3999908
21
-35.25
0
LINE
8
0
10
261.3999908
20
-89.25
11
278.8999908
21
-89.25
0
LINE
8
0
10
278.8999908
20
-89.25
11
278.8999908
21
-72.75
0
LINE
8
0
10
278.8999908
20
-72.75
11
261.3999908
21
-72.75
0
LINE
8
0
10
261.3999908
20
-72.75
11
261.3999908
21
-89.25
0
LINE
8
0
10
261.3999908
20
-72.25
11
278.8999908
21
-72.25
0
LINE
8
0
10
278.8999908
20
-72.25
11
278.8999908
21
-55.75
0
LINE
8
0
10
278.8999908
20
-55.75
11
261.3999908
21
-55.75
0
LINE
8
0
10
261.3999908
20
-55.75
11
261.3999908
21
-72.25
0
LINE
8
0
10
261.3999908
20
-55.25
11
278.8999908
21
-55.25
0
LINE
8
0
10
278.8999908
20
-55.25
11
278.8999908
21
-38.75
0
LINE
8
0
10
278.8999908
20
-38.75
11
261.3999908
21
-38.75
0
LINE
8
0
10
261.3999908
20
-38.75
11
261.3999908
21
-55.25
0
LINE
8
0
10
261.3999908
20
-38.25
11
278.8999908
21
-38.25
0
LINE
8
0
10
278.8999908
20
-38.25
11
278.8999908
21
-21.75
0
LINE
8
0
10
278.8999908
20
-21.75
11
261.3999908
21
-21.75
0
LINE
8
0
10
261.3999908
20
-21.75
11
261.3999908
21
-38.25
0
LINE
8
0
10
258.0277177
20
-103.9677087
11
266.7777177
21
-119.1231533
0
LINE
8
0
10
266.7777177
20
-119.1231533
11
281.0671369
21
-110.8731533
0
LINE
8
0
10
281.0671369
20
-110.8731533
11
272.3171369
21
-95.7177087
0
LINE
8
0
10
272.3171369
20
-95.7177087
11
258.0277177
21
-103.9677087
0
LINE
8
0
10
243.3052858
20
-112.4677087
11
252.0552858
21
-127.6231533
0
LINE
8
0
10
252.0552858
20
-127.6231533
11
266.344705
21
-119.3731533
0
LINE
8
0
10
266.344705
20
-119.3731533
11
257.594705
21
-104.2177087
0
LINE
8
0
10
257.594705
20
-104.2177087
11
243.3052858
21
-112.4677087
0
ENDSEC
0
EOF