0
SECTION
2
HEADER
9
$INSUNITS
70
4
0
ENDSEC
0
SECTION
2
TABLES
0
TABLE
2
LTYPE
0
LTYPE
72
65
70
64
2
CONTINUOUS
3
______
73
0
40
0
0
ENDTAB
0
TABLE
2
LAYER
0
ENDTAB
0
ENDSEC
0
SECTION
2
ENTITIES
0
LINE
8
0
10
25
20
-100.2267458
11
25
21
-31.2689371
0
LINE
8
0
10
26.7556896
20
-29.2839151
11
89.8783038
21
-21.514978
0
LINE
8
0
10
90.1226142
20
-21.5
11
172.0012053
21
-21.5
0
LINE
8
0
10
174.0012049
20
-23.4987944
11
174.0519211
21
-107.6301981
0
LINE
8
0
10
173.7959654
20
-108.6103372
11
154.8251931
21
-142.4081985
0
LINE
8
0
10
152.1274191
20
-143.1872181
11
99.6961505
21
-114.7420469
0
LINE
8
0
10
98.7424205
20
-114.5
11
71.5206279
21
-114.5
0
LINE
8
0
10
70.989104
20
-114.4280773
11
26.468476
21
-102.1548231
0
ARC
8
0
10
27
20
-31.2689371
40
2
50
97.0165017
51
180
0
ARC
8
0
10
90.1226142
20
-23.5
40
2
50
90
51
97.0165017
0
ARC
8
0
10
172.0012053
20
-23.5
40
2
50
0.0345379
51
90
0
ARC
8
0
10
172.0519215
20
-107.6314037
40
2
50
330.69446
51
0.0345379
0
ARC
8
0
10
153.0811492
20
-141.429265
40
2
50
241.5191491
51
330.69446
0
ARC
8
0
10
98.7424205
20
-116.5
40
2
50
61.5191491
51
90
0
ARC
8
0
10
71.5206279
20
-112.5
40
2
50
254.5877646
51
270
0
ARC
8
0
10
27
20
-100.2267458
40
2
50
180
51
254.5877646
0
LINE
8
0
10
31.25
20
-100.5
11
48.75
21
-100.5
0
LINE
8
0
10
48.75
20
-100.5
11
48.75
21
-84
0
LINE
8
0
10
48.75
20
-84
11
31.25
21
-84
0
LINE
8
0
10
31.25
20
-84
11
31.25
21
-100.5
0
LINE
8
0
10
31.25
20
-82.75
11
48.75
21
-82.75
0
LINE
8
0
10
48.75
20
-82.75
11
48.75
21
-66.25
0
LINE
8
0
10
48.75
20
-66.25
11
31.25
21
-66.25
0
LINE
8
0
10
31.25
20
-66.25
11
31.25
21
-82.75
0
LINE
8
0
10
31.25
20
-65
11
48.75
21
-65
0
LINE
8
0
10
48.75
20
-65
11
48.75
21
-48.5
0
LINE
8
0
10
48.75
20
-48.5
11
31.25
21
-48.5
0
LINE
8
0
10
31.25
20
-48.5
11
31.25
21
-65
0
LINE
8
0
10
31.25
20
-47.25
11
48.75
21
-47.25
0
LINE
8
0
10
48.75
20
-47.25
11
48.75
21
-30.75
0
LINE
8
0
10
48.75
20
-30.75
11
31.25
21
-30.75
0
LINE
8
0
10
31.25
20
-30.75
11
31.25
21
-47.25
0
LINE
8
0
10
53.75
20
-100.5
11
71.25
21
-100.5
0
LINE
8
0
10
71.25
20
-100.5
11
71.25
21
-84
0
LINE
8
0
10
71.25
20
-84
11
53.75
21
-84
0
LINE
8
0
10
53.75
20
-84
11
53.75
21
-100.5
0
LINE
8
0
10
53.75
20
-82.75
11
71.25
21
-82.75
0
LINE
8
0
10
71.25
20
-82.75
11
71.25
21
-66.25
0
LINE
8
0
10
71.25
20
-66.25
11
53.75
21
-66.25
0
LINE
8
0
10
53.75
20
-66.25
11
53.75
21
-82.75
0
LINE
8
0
10
53.75
20
-65
11
71.25
21
-65
0
LINE
8
0
10
71.25
20
-65
11
71.25
21
-48.5
0
LINE
8
0
10
71.25
20
-48.5
11
53.75
21
-48.5
0
LINE
8
0
10
53.75
20
-48.5
11
53.75
21
-65
0
LINE
8
0
10
53.75
20
-47.25
11
71.25
21
-47.25
0
LINE
8
0
10
71.25
20
-47.25
11
71.25
21
-30.75
0
LINE
8
0
10
71.25
20
-30.75
11
53.75
21
-30.75
0
LINE
8
0
10
53.75
20
-30.75
11
53.75
21
-47.25
0
LINE
8
0
10
72.5
20
-113.25
11
90
21
-113.25
0
LINE
8
0
10
90
20
-113.25
11
90
21
-96.75
0
LINE
8
0
10
90
20
-96.75
11
72.5
21
-96.75
0
LINE
8
0
10
72.5
20
-96.75
11
72.5
21
-113.25
0
LINE
8
0
10
72.5
20
-95.5
11
90
21
-95.5
0
LINE
8
0
10
90
20
-95.5
11
90
21
-79
0
LINE
8
0
10
90
20
-79
11
72.5
21
-79
0
LINE
8
0
10
72.5
20
-79
11
72.5
21
-95.5
0
LINE
8
0
10
72.5
20
-77.75
11
90
21
-77.75
0
LINE
8
0
10
90
20
-77.75
11
90
21
-61.25
0
LINE
8
0
10
90
20
-61.25
11
72.5
21
-61.25
0
LINE
8
0
10
72.5
20
-61.25
11
72.5
21
-77.75
0
LINE
8
0
10
72.5
20
-60
11
90
21
-60
0
LINE
8
0
10
90
20
-60
11
90
21
-43.5
0
LINE
8
0
10
90
20
-43.5
11
72.5
21
-43.5
0
LINE
8
0
10
72.5
20
-43.5
11
72.5
21
-60
0
LINE
8
0
10
72.5
20
-42.25
11
90
21
-42.25
0
LINE
8
0
10
90
20
-42.25
11
90
21
-25.75
0
LINE
8
0
10
90
20
-25.75
11
72.5
21
-25.75
0
LINE
8
0
10
72.5
20
-25.75
11
72.5
21
-42.25
0
LINE
8
0
10
91.25
20
-110.25
11
108.75
21
-110.25
0
LINE
8
0
10
108.75
20
-110.25
11
108.75
21
-93.75
0
LINE
8
0
10
108.75
20
-93.75
11
91.25
21
-93.75
0
LINE
8
0
10
91.25
20
-93.75
11
91.25
21
-110.25
0
LINE
8
0
10
91.25
20
-92.5
11
108.75
21
-92.5
0
LINE
8
0
10
108.75
20
-92.5
11
108.75
21
-76
0
LINE
8
0
10
108.75
20
-76
11
91.25
21
-76
0
LINE
8
0
10
91.25
20
-76
11
91.25
21
-92.5
0
LINE
8
0
10
91.25
20
-74.75
11
108.75
21
-74.75
0
LINE
8
0
10
108.75
20
-74.75
11
108.75
21
-58.25
0
LINE
8
0
10
108.75
20
-58.25
11
91.25
21
-58.25
0
LINE
8
0
10
91.25
20
-58.25
11
91.25
21
-74.75
0
LINE
8
0
10
91.25
20
-57
11
108.75
21
-57
0
LINE
8
0
10
108.75
20
-57
11
108.75
21
-40.5
0
LINE
8
0
10
108.75
20
-40.5
11
91.25
21
-40.5
0
LINE
8
0
10
91.25
20
-40.5
11
91.25
21
-57
0
LINE
8
0
10
91.25
20
-39.25
11
108.75
21
-39.25
0
LINE
8
0
10
108.75
20
-39.25
11
108.75
21
-22.75
0
LINE
8
0
10
108.75
20
-22.75
11
91.25
21
-22.75
0
LINE
8
0
10
91.25
20
-22.75
11
91.25
21
-39.25
0
LINE
8
0
10
110
20
-113.25
11
127.5
21
-113.25
0
LINE
8
0
10
127.5
20
-113.25
11
127.5
21
-96.75
0
LINE
8
0
10
127.5
20
-96.75
11
110
21
-96.75
0
LINE
8
0
10
110
20
-96.75
11
110
21
-113.25
0
LINE
8
0
10
110
20
-95.5
11
127.5
21
-95.5
0
LINE
8
0
10
127.5
20
-95.5
11
127.5
21
-79
0
LINE
8
0
10
127.5
20
-79
11
110
21
-79
0
LINE
8
0
10
110
20
-79
11
110
21
-95.5
0
LINE
8
0
10
110
20
-77.75
11
127.5
21
-77.75
0
LINE
8
0
10
127.5
20
-77.75
11
127.5
21
-61.25
0
LINE
8
0
10
127.5
20
-61.25
11
110
21
-61.25
0
LINE
8
0
10
110
20
-61.25
11
110
21
-77.75
0
LINE
8
0
10
110
20
-60
11
127.5
21
-60
0
LINE
8
0
10
127.5
20
-60
11
127.5
21
-43.5
0
LINE
8
0
10
127.5
20
-43.5
11
110
21
-43.5
0
LINE
8
0
10
110
20
-43.5
11
110
21
-60
0
LINE
8
0
10
110
20
-42.25
11
127.5
21
-42.25
0
LINE
8
0
10
127.5
20
-42.25
11
127.5
21
-25.75
0
LINE
8
0
10
127.5
20
-25.75
11
110
21
-25.75
0
LINE
8
0
10
110
20
-25.75
11
110
21
-42.25
0
LINE
8
0
10
128.75
20
-98.5
11
146.25
21
-98.5
0
LINE
8
0
10
146.25
20
-98.5
11
146.25
21
-82
0
LINE
8
0
10
146.25
20
-82
11
128.75
21
-82
0
LINE
8
0
10
128.75
20
-82
11
128.75
21
-98.5
0
LINE
8
0
10
128.75
20
-80.75
11
146.25
21
-80.75
0
LINE
8
0
10
146.25
20
-80.75
11
146.25
21
-64.25
0
LINE
8
0
10
146.25
20
-64.25
11
128.75
21
-64.25
0
LINE
8
0
10
128.75
20
-64.25
11
128.75
21
-80.75
0
LINE
8
0
10
128.75
20
-63
11
146.25
21
-63
0
LINE
8
0
10
146.25
20
-63
11
146.25
21
-46.5
0
LINE
8
0
10
146.25
20
-46.5
11
128.75
21
-46.5
0
LINE
8
0
10
128.75
20
-46.5
11
128.75
21
-63
0
LINE
8
0
10
128.75
20
-45.25
11
146.25
21
-45.25
0
LINE
8
0
10
146.25
20
-45.25
11
146.25
21
-28.75
0
LINE
8
0
10
146.25
20
-28.75
11
128.75
21
-28.75
0
LINE
8
0
10
128.75
20
-28.75
11
128.75
21
-45.25
0
LINE
8
0
10
140.8722731
20
-129.1231533
11
149.6222731
21
-113.9677087
0
LINE
8
0
10
149.6222731
20
-113.9677087
11
135.3328539
21
-105.7177087
0
LINE
8
0
10
135.3328539
20
-105.7177087
11
126.5828539
21
-120.8731533
0
LINE
8
0
10
126.5828539
20
-120.8731533
11
140.8722731
21
-129.1231533
0
LINE
8
0
10
155.594705
20
-137.6231533
11
164.344705
21
-122.4677087
0
LINE
8
0
10
164.344705
20
-122.4677087
11
150.0552858
21
-114.2177087
0
LINE
8
0
10
150.0552858
20
-114.2177087
11
141.3052858
21
-129.3731533
0
LINE
8
0
10
141.3052858
20
-129.3731533
11
155.594705
21
-137.6231533
0
ENDSEC
0
EOF