0
SECTION
2
HEADER
9
$INSUNITS
70
4
0
ENDSEC
0
SECTION
2
TABLES
0
TABLE
2
LTYPE
0
LTYPE
72
65
70
64
2
CONTINUOUS
3
______
73
0
40
0
0
ENDTAB
0
TABLE
2
LAYER
0
ENDTAB
0
ENDSEC
0
SECTION
2
ENTITIES
0
LINE
8
0
10
325.6499908
20
-100.2267458
11
325.6499908
21
-31.2689371
0
LINE
8
0
10
323.8943012
20
-29.2839151
11
260.771687
21
-21.514978
0
LINE
8
0
10
260.5273766
20
-21.5
11
177.9161603
21
-21.5
0
LINE
8
0
10
175.9162251
20
-23.5161042
11
176.5936127
21
-107.6394525
0
LINE
8
0
10
176.849504
20
-108.6022819
11
195.8247977
21
-142.4081985
0
LINE
8
0
10
198.5225717
20
-143.1872181
11
250.9538403
21
-114.7420469
0
LINE
8
0
10
251.9075703
20
-114.5
11
279.1293629
21
-114.5
0
LINE
8
0
10
279.6608868
20
-114.4280773
11
324.1815148
21
-102.1548231
0
ARC
8
0
10
323.6499908
20
-31.2689371
40
2
50
0
51
82.9834983
0
ARC
8
0
10
260.5273766
20
-23.5
40
2
50
82.9834983
51
90
0
ARC
8
0
10
177.9161603
20
-23.5
40
2
50
90
51
180.4613563
0
ARC
8
0
10
178.5935478
20
-107.6233483
40
2
50
180.4613563
51
209.30554
0
ARC
8
0
10
197.5688416
20
-141.429265
40
2
50
209.30554
51
298.4808509
0
ARC
8
0
10
251.9075703
20
-116.5
40
2
50
90
51
118.4808509
0
ARC
8
0
10
279.1293629
20
-112.5
40
2
50
270
51
285.4122354
0
ARC
8
0
10
323.6499908
20
-100.2267458
40
2
50
285.4122354
51
0
0
LINE
8
0
10
297.3999908
20
-100.5
11
323.8999908
21
-100.5
0
LINE
8
0
10
297.3999908
20
-84
11
323.8999908
21
-84
0
LINE
8
0
10
297.3999908
20
-82.75
11
323.8999908
21
-82.75
0
LINE
8
0
10
297.3999908
20
-66.25
11
323.8999908
21
-66.25
0
LINE
8
0
10
297.3999908
20
-65
11
323.8999908
21
-65
0
LINE
8
0
10
297.3999908
20
-48.5
11
323.8999908
21
-48.5
0
LINE
8
0
10
297.3999908
20
-47.25
11
323.8999908
21
-47.25
0
LINE
8
0
10
297.3999908
20
-30.75
11
323.8999908
21
-30.75
0
LINE
8
0
10
279.3999908
20
-100.5
11
296.8999908
21
-100.5
0
LINE
8
0
10
296.8999908
20
-100.5
11
296.8999908
21
-84
0
LINE
8
0
10
296.8999908
20
-84
11
279.3999908
21
-84
0
LINE
8
0
10
279.3999908
20
-84
11
279.3999908
21
-100.5
0
LINE
8
0
10
279.3999908
20
-82.75
11
296.8999908
21
-82.75
0
LINE
8
0
10
296.8999908
20
-82.75
11
296.8999908
21
-66.25
0
LINE
8
0
10
296.8999908
20
-66.25
11
279.3999908
21
-66.25
0
LINE
8
0
10
279.3999908
20
-66.25
11
279.3999908
21
-82.75
0
LINE
8
0
10
279.3999908
20
-65
11
296.8999908
21
-65
0
LINE
8
0
10
296.8999908
20
-65
11
296.8999908
21
-48.5
0
LINE
8
0
10
296.8999908
20
-48.5
11
279.3999908
21
-48.5
0
LINE
8
0
10
279.3999908
20
-48.5
11
279.3999908
21
-65
0
LINE
8
0
10
279.3999908
20
-47.25
11
296.8999908
21
-47.25
0
LINE
8
0
10
296.8999908
20
-47.25
11
296.8999908
21
-30.75
0
LINE
8
0
10
296.8999908
20
-30.75
11
279.3999908
21
-30.75
0
LINE
8
0
10
279.3999908
20
-30.75
11
279.3999908
21
-47.25
0
LINE
8
0
10
260.6499908
20
-113.25
11
278.1499908
21
-113.25
0
LINE
8
0
10
278.1499908
20
-113.25
11
278.1499908
21
-96.75
0
LINE
8
0
10
278.1499908
20
-96.75
11
260.6499908
21
-96.75
0
LINE
8
0
10
260.6499908
20
-96.75
11
260.6499908
21
-113.25
0
LINE
8
0
10
260.6499908
20
-95.5
11
278.1499908
21
-95.5
0
LINE
8
0
10
278.1499908
20
-95.5
11
278.1499908
21
-79
0
LINE
8
0
10
278.1499908
20
-79
11
260.6499908
21
-79
0
LINE
8
0
10
260.6499908
20
-79
11
260.6499908
21
-95.5
0
LINE
8
0
10
260.6499908
20
-77.75
11
278.1499908
21
-77.75
0
LINE
8
0
10
278.1499908
20
-77.75
11
278.1499908
21
-61.25
0
LINE
8
0
10
278.1499908
20
-61.25
11
260.6499908
21
-61.25
0
LINE
8
0
10
260.6499908
20
-61.25
11
260.6499908
21
-77.75
0
LINE
8
0
10
260.6499908
20
-60
11
278.1499908
21
-60
0
LINE
8
0
10
278.1499908
20
-60
11
278.1499908
21
-43.5
0
LINE
8
0
10
278.1499908
20
-43.5
11
260.6499908
21
-43.5
0
LINE
8
0
10
260.6499908
20
-43.5
11
260.6499908
21
-60
0
LINE
8
0
10
260.6499908
20
-42.25
11
278.1499908
21
-42.25
0
LINE
8
0
10
278.1499908
20
-42.25
11
278.1499908
21
-25.75
0
LINE
8
0
10
278.1499908
20
-25.75
11
260.6499908
21
-25.75
0
LINE
8
0
10
260.6499908
20
-25.75
11
260.6499908
21
-42.25
0
LINE
8
0
10
241.8999908
20
-110.25
11
259.3999908
21
-110.25
0
LINE
8
0
10
259.3999908
20
-110.25
11
259.3999908
21
-93.75
0
LINE
8
0
10
259.3999908
20
-93.75
11
241.8999908
21
-93.75
0
LINE
8
0
10
241.8999908
20
-93.75
11
241.8999908
21
-110.25
0
LINE
8
0
10
241.8999908
20
-92.5
11
259.3999908
21
-92.5
0
LINE
8
0
10
259.3999908
20
-92.5
11
259.3999908
21
-76
0
LINE
8
0
10
259.3999908
20
-76
11
241.8999908
21
-76
0
LINE
8
0
10
241.8999908
20
-76
11
241.8999908
21
-92.5
0
LINE
8
0
10
241.8999908
20
-74.75
11
259.3999908
21
-74.75
0
LINE
8
0
10
259.3999908
20
-74.75
11
259.3999908
21
-58.25
0
LINE
8
0
10
259.3999908
20
-58.25
11
241.8999908
21
-58.25
0
LINE
8
0
10
241.8999908
20
-58.25
11
241.8999908
21
-74.75
0
LINE
8
0
10
241.8999908
20
-57
11
259.3999908
21
-57
0
LINE
8
0
10
259.3999908
20
-57
11
259.3999908
21
-40.5
0
LINE
8
0
10
259.3999908
20
-40.5
11
241.8999908
21
-40.5
0
LINE
8
0
10
241.8999908
20
-40.5
11
241.8999908
21
-57
0
LINE
8
0
10
241.8999908
20
-39.25
11
259.3999908
21
-39.25
0
LINE
8
0
10
259.3999908
20
-39.25
11
259.3999908
21
-22.75
0
LINE
8
0
10
259.3999908
20
-22.75
11
241.8999908
21
-22.75
0
LINE
8
0
10
241.8999908
20
-22.75
11
241.8999908
21
-39.25
0
LINE
8
0
10
223.1499908
20
-113.25
11
240.6499908
21
-113.25
0
LINE
8
0
10
240.6499908
20
-113.25
11
240.6499908
21
-96.75
0
LINE
8
0
10
240.6499908
20
-96.75
11
223.1499908
21
-96.75
0
LINE
8
0
10
223.1499908
20
-96.75
11
223.1499908
21
-113.25
0
LINE
8
0
10
223.1499908
20
-95.5
11
240.6499908
21
-95.5
0
LINE
8
0
10
240.6499908
20
-95.5
11
240.6499908
21
-79
0
LINE
8
0
10
240.6499908
20
-79
11
223.1499908
21
-79
0
LINE
8
0
10
223.1499908
20
-79
11
223.1499908
21
-95.5
0
LINE
8
0
10
223.1499908
20
-77.75
11
240.6499908
21
-77.75
0
LINE
8
0
10
240.6499908
20
-77.75
11
240.6499908
21
-61.25
0
LINE
8
0
10
240.6499908
20
-61.25
11
223.1499908
21
-61.25
0
LINE
8
0
10
223.1499908
20
-61.25
11
223.1499908
21
-77.75
0
LINE
8
0
10
223.1499908
20
-60
11
240.6499908
21
-60
0
LINE
8
0
10
240.6499908
20
-60
11
240.6499908
21
-43.5
0
LINE
8
0
10
240.6499908
20
-43.5
11
223.1499908
21
-43.5
0
LINE
8
0
10
223.1499908
20
-43.5
11
223.1499908
21
-60
0
LINE
8
0
10
223.1499908
20
-42.25
11
240.6499908
21
-42.25
0
LINE
8
0
10
240.6499908
20
-42.25
11
240.6499908
21
-25.75
0
LINE
8
0
10
240.6499908
20
-25.75
11
223.1499908
21
-25.75
0
LINE
8
0
10
223.1499908
20
-25.75
11
223.1499908
21
-42.25
0
LINE
8
0
10
204.3999908
20
-98.5
11
221.8999908
21
-98.5
0
LINE
8
0
10
221.8999908
20
-98.5
11
221.8999908
21
-82
0
LINE
8
0
10
221.8999908
20
-82
11
204.3999908
21
-82
0
LINE
8
0
10
204.3999908
20
-82
11
204.3999908
21
-98.5
0
LINE
8
0
10
204.3999908
20
-80.75
11
221.8999908
21
-80.75
0
LINE
8
0
10
221.8999908
20
-80.75
11
221.8999908
21
-64.25
0
LINE
8
0
10
221.8999908
20
-64.25
11
204.3999908
21
-64.25
0
LINE
8
0
10
204.3999908
20
-64.25
11
204.3999908
21
-80.75
0
LINE
8
0
10
204.3999908
20
-63
11
221.8999908
21
-63
0
LINE
8
0
10
221.8999908
20
-63
11
221.8999908
21
-46.5
0
LINE
8
0
10
221.8999908
20
-46.5
11
204.3999908
21
-46.5
0
LINE
8
0
10
204.3999908
20
-46.5
11
204.3999908
21
-63
0
LINE
8
0
10
204.3999908
20
-45.25
11
221.8999908
21
-45.25
0
LINE
8
0
10
221.8999908
20
-45.25
11
221.8999908
21
-28.75
0
LINE
8
0
10
221.8999908
20
-28.75
11
204.3999908
21
-28.75
0
LINE
8
0
10
204.3999908
20
-28.75
11
204.3999908
21
-45.25
0
LINE
8
0
10
323.8999908
20
-100.5
11
323.8999908
21
-84
0
LINE
8
0
10
297.3999908
20
-84
11
297.3999908
21
-100.5
0
LINE
8
0
10
323.8999908
20
-82.75
11
323.8999908
21
-66.25
0
LINE
8
0
10
297.3999908
20
-66.25
11
297.3999908
21
-82.75
0
LINE
8
0
10
323.8999908
20
-65
11
323.8999908
21
-48.5
0
LINE
8
0
10
297.3999908
20
-48.5
11
297.3999908
21
-65
0
LINE
8
0
10
323.8999908
20
-47.25
11
323.8999908
21
-30.75
0
LINE
8
0
10
297.3999908
20
-30.75
11
297.3999908
21
-47.25
0
LINE
8
0
10
198.7777177
20
-110.0705944
11
212.0277177
21
-133.0202676
0
LINE
8
0
10
212.0277177
20
-133.0202676
11
226.3171369
21
-124.7702676
0
LINE
8
0
10
226.3171369
20
-124.7702676
11
213.0671369
21
-101.8205944
0
LINE
8
0
10
213.0671369
20
-101.8205944
11
198.7777177
21
-110.0705944
0
LINE
8
0
10
184.0552858
20
-118.5705944
11
197.3052858
21
-141.5202676
0
LINE
8
0
10
197.3052858
20
-141.5202676
11
211.594705
21
-133.2702676
0
LINE
8
0
10
211.594705
20
-133.2702676
11
198.344705
21
-110.3205944
0
LINE
8
0
10
198.344705
20
-110.3205944
11
184.0552858
21
-118.5705944
0
ENDSEC
0
EOF