0
SECTION
2
HEADER
9
$INSUNITS
70
4
0
ENDSEC
0
SECTION
2
TABLES
0
TABLE
2
LTYPE
0
LTYPE
72
65
70
64
2
CONTINUOUS
3
______
73
0
40
0
0
ENDTAB
0
TABLE
2
LAYER
0
ENDTAB
0
ENDSEC
0
SECTION
2
ENTITIES
0
LINE
8
0
10
386.3820416
20
-90.9195579
11
386.3820416
21
-24.2800166
0
LINE
8
0
10
384.6140414
20
-22.2935182
11
317.9976491
21
-14.5135016
0
LINE
8
0
10
317.7656493
20
-14.5
11
298.0475664
21
-14.5
0
LINE
8
0
10
297.7187684
20
-14.5272122
11
262.0453148
21
-20.4727878
0
LINE
8
0
10
261.7165168
20
-20.5
11
233.8567033
21
-20.5
0
LINE
8
0
10
231.8568659
20
-22.4745012
11
230.8326466
21
-102.8027852
0
LINE
8
0
10
231.1004332
20
-103.828284
11
251.2006397
21
-138.6428629
0
LINE
8
0
10
253.9326905
20
-139.3749137
11
291.1479794
21
-117.8886567
0
LINE
8
0
10
291.1959529
20
-117.8618312
11
315.4365636
21
-104.7411237
0
LINE
8
0
10
316.3885901
20
-104.5
11
335.6476809
21
-104.5
0
LINE
8
0
10
336.1100537
20
-104.4458189
11
384.8444144
21
-92.8653768
0
ARC
8
0
10
384.3820416
20
-24.2800166
40
2
50
0
51
83.3386987
0
ARC
8
0
10
317.7656493
20
-16.5
40
2
50
83.3386987
51
90
0
ARC
8
0
10
298.0475664
20
-16.5
40
2
50
90
51
99.4623231
0
ARC
8
0
10
261.7165168
20
-18.5
40
2
50
270
51
279.4623231
0
ARC
8
0
10
233.8567033
20
-22.5
40
2
50
90
51
179.2694934
0
ARC
8
0
10
232.832484
20
-102.828284
40
2
50
179.2694934
51
210.0000001
0
ARC
8
0
10
252.9326905
20
-137.6428629
40
2
50
210.0000001
51
300.0000001
0
ARC
8
0
10
292.1479794
20
-119.6207075
40
2
50
118.4253409
51
120.0000001
0
ARC
8
0
10
316.3885901
20
-106.5
40
2
50
90
51
118.4253409
0
ARC
8
0
10
335.6476809
20
-102.5
40
2
50
270
51
283.3669298
0
ARC
8
0
10
384.3820416
20
-90.9195579
40
2
50
283.3669298
51
0
0
LINE
8
0
10
357.6320416
20
-91.25
11
375.1320416
21
-91.25
0
LINE
8
0
10
375.1320416
20
-91.25
11
375.1320416
21
-74.75
0
LINE
8
0
10
375.1320416
20
-74.75
11
357.6320416
21
-74.75
0
LINE
8
0
10
357.6320416
20
-74.75
11
357.6320416
21
-91.25
0
LINE
8
0
10
357.6320416
20
-74.25
11
375.1320416
21
-74.25
0
LINE
8
0
10
375.1320416
20
-74.25
11
375.1320416
21
-57.75
0
LINE
8
0
10
375.1320416
20
-57.75
11
357.6320416
21
-57.75
0
LINE
8
0
10
357.6320416
20
-57.75
11
357.6320416
21
-74.25
0
LINE
8
0
10
357.6320416
20
-57.25
11
375.1320416
21
-57.25
0
LINE
8
0
10
375.1320416
20
-57.25
11
375.1320416
21
-40.75
0
LINE
8
0
10
375.1320416
20
-40.75
11
357.6320416
21
-40.75
0
LINE
8
0
10
357.6320416
20
-40.75
11
357.6320416
21
-57.25
0
LINE
8
0
10
357.6320416
20
-40.25
11
375.1320416
21
-40.25
0
LINE
8
0
10
375.1320416
20
-40.25
11
375.1320416
21
-23.75
0
LINE
8
0
10
375.1320416
20
-23.75
11
357.6320416
21
-23.75
0
LINE
8
0
10
357.6320416
20
-23.75
11
357.6320416
21
-40.25
0
LINE
8
0
10
335.1320416
20
-91.25
11
352.6320416
21
-91.25
0
LINE
8
0
10
352.6320416
20
-91.25
11
352.6320416
21
-74.75
0
LINE
8
0
10
352.6320416
20
-74.75
11
335.1320416
21
-74.75
0
LINE
8
0
10
335.1320416
20
-74.75
11
335.1320416
21
-91.25
0
LINE
8
0
10
335.1320416
20
-74.25
11
352.6320416
21
-74.25
0
LINE
8
0
10
352.6320416
20
-74.25
11
352.6320416
21
-57.75
0
LINE
8
0
10
352.6320416
20
-57.75
11
335.1320416
21
-57.75
0
LINE
8
0
10
335.1320416
20
-57.75
11
335.1320416
21
-74.25
0
LINE
8
0
10
335.1320416
20
-57.25
11
352.6320416
21
-57.25
0
LINE
8
0
10
352.6320416
20
-57.25
11
352.6320416
21
-40.75
0
LINE
8
0
10
352.6320416
20
-40.75
11
335.1320416
21
-40.75
0
LINE
8
0
10
335.1320416
20
-40.75
11
335.1320416
21
-57.25
0
LINE
8
0
10
335.1320416
20
-40.25
11
352.6320416
21
-40.25
0
LINE
8
0
10
352.6320416
20
-40.25
11
352.6320416
21
-23.75
0
LINE
8
0
10
352.6320416
20
-23.75
11
335.1320416
21
-23.75
0
LINE
8
0
10
335.1320416
20
-23.75
11
335.1320416
21
-40.25
0
LINE
8
0
10
317.1320416
20
-103.25
11
334.6320416
21
-103.25
0
LINE
8
0
10
334.6320416
20
-103.25
11
334.6320416
21
-86.75
0
LINE
8
0
10
334.6320416
20
-86.75
11
317.1320416
21
-86.75
0
LINE
8
0
10
317.1320416
20
-86.75
11
317.1320416
21
-103.25
0
LINE
8
0
10
317.1320416
20
-86.25
11
334.6320416
21
-86.25
0
LINE
8
0
10
334.6320416
20
-86.25
11
334.6320416
21
-69.75
0
LINE
8
0
10
334.6320416
20
-69.75
11
317.1320416
21
-69.75
0
LINE
8
0
10
317.1320416
20
-69.75
11
317.1320416
21
-86.25
0
LINE
8
0
10
317.1320416
20
-69.25
11
334.6320416
21
-69.25
0
LINE
8
0
10
334.6320416
20
-69.25
11
334.6320416
21
-52.75
0
LINE
8
0
10
334.6320416
20
-52.75
11
317.1320416
21
-52.75
0
LINE
8
0
10
317.1320416
20
-52.75
11
317.1320416
21
-69.25
0
LINE
8
0
10
317.1320416
20
-52.25
11
334.6320416
21
-52.25
0
LINE
8
0
10
334.6320416
20
-52.25
11
334.6320416
21
-35.75
0
LINE
8
0
10
334.6320416
20
-35.75
11
317.1320416
21
-35.75
0
LINE
8
0
10
317.1320416
20
-35.75
11
317.1320416
21
-52.25
0
LINE
8
0
10
317.1320416
20
-35.25
11
334.6320416
21
-35.25
0
LINE
8
0
10
334.6320416
20
-35.25
11
334.6320416
21
-18.75
0
LINE
8
0
10
334.6320416
20
-18.75
11
317.1320416
21
-18.75
0
LINE
8
0
10
317.1320416
20
-18.75
11
317.1320416
21
-35.25
0
LINE
8
0
10
299.1320416
20
-100.25
11
316.6320416
21
-100.25
0
LINE
8
0
10
316.6320416
20
-100.25
11
316.6320416
21
-83.75
0
LINE
8
0
10
316.6320416
20
-83.75
11
299.1320416
21
-83.75
0
LINE
8
0
10
299.1320416
20
-83.75
11
299.1320416
21
-100.25
0
LINE
8
0
10
299.1320416
20
-83.25
11
316.6320416
21
-83.25
0
LINE
8
0
10
316.6320416
20
-83.25
11
316.6320416
21
-66.75
0
LINE
8
0
10
316.6320416
20
-66.75
11
299.1320416
21
-66.75
0
LINE
8
0
10
299.1320416
20
-66.75
11
299.1320416
21
-83.25
0
LINE
8
0
10
299.1320416
20
-66.25
11
316.6320416
21
-66.25
0
LINE
8
0
10
316.6320416
20
-66.25
11
316.6320416
21
-49.75
0
LINE
8
0
10
316.6320416
20
-49.75
11
299.1320416
21
-49.75
0
LINE
8
0
10
299.1320416
20
-49.75
11
299.1320416
21
-66.25
0
LINE
8
0
10
299.1320416
20
-49.25
11
316.6320416
21
-49.25
0
LINE
8
0
10
316.6320416
20
-49.25
11
316.6320416
21
-32.75
0
LINE
8
0
10
316.6320416
20
-32.75
11
299.1320416
21
-32.75
0
LINE
8
0
10
299.1320416
20
-32.75
11
299.1320416
21
-49.25
0
LINE
8
0
10
299.1320416
20
-32.25
11
316.6320416
21
-32.25
0
LINE
8
0
10
316.6320416
20
-32.25
11
316.6320416
21
-15.75
0
LINE
8
0
10
316.6320416
20
-15.75
11
299.1320416
21
-15.75
0
LINE
8
0
10
299.1320416
20
-15.75
11
299.1320416
21
-32.25
0
LINE
8
0
10
281.1320416
20
-103.25
11
298.6320416
21
-103.25
0
LINE
8
0
10
298.6320416
20
-103.25
11
298.6320416
21
-86.75
0
LINE
8
0
10
298.6320416
20
-86.75
11
281.1320416
21
-86.75
0
LINE
8
0
10
281.1320416
20
-86.75
11
281.1320416
21
-103.25
0
LINE
8
0
10
281.1320416
20
-86.25
11
298.6320416
21
-86.25
0
LINE
8
0
10
298.6320416
20
-86.25
11
298.6320416
21
-69.75
0
LINE
8
0
10
298.6320416
20
-69.75
11
281.1320416
21
-69.75
0
LINE
8
0
10
281.1320416
20
-69.75
11
281.1320416
21
-86.25
0
LINE
8
0
10
281.1320416
20
-69.25
11
298.6320416
21
-69.25
0
LINE
8
0
10
298.6320416
20
-69.25
11
298.6320416
21
-52.75
0
LINE
8
0
10
298.6320416
20
-52.75
11
281.1320416
21
-52.75
0
LINE
8
0
10
281.1320416
20
-52.75
11
281.1320416
21
-69.25
0
LINE
8
0
10
281.1320416
20
-52.25
11
298.6320416
21
-52.25
0
LINE
8
0
10
298.6320416
20
-52.25
11
298.6320416
21
-35.75
0
LINE
8
0
10
298.6320416
20
-35.75
11
281.1320416
21
-35.75
0
LINE
8
0
10
281.1320416
20
-35.75
11
281.1320416
21
-52.25
0
LINE
8
0
10
281.1320416
20
-35.25
11
298.6320416
21
-35.25
0
LINE
8
0
10
298.6320416
20
-35.25
11
298.6320416
21
-18.75
0
LINE
8
0
10
298.6320416
20
-18.75
11
281.1320416
21
-18.75
0
LINE
8
0
10
281.1320416
20
-18.75
11
281.1320416
21
-35.25
0
LINE
8
0
10
263.1320416
20
-89.25
11
280.6320416
21
-89.25
0
LINE
8
0
10
280.6320416
20
-89.25
11
280.6320416
21
-72.75
0
LINE
8
0
10
280.6320416
20
-72.75
11
263.1320416
21
-72.75
0
LINE
8
0
10
263.1320416
20
-72.75
11
263.1320416
21
-89.25
0
LINE
8
0
10
263.1320416
20
-72.25
11
280.6320416
21
-72.25
0
LINE
8
0
10
280.6320416
20
-72.25
11
280.6320416
21
-55.75
0
LINE
8
0
10
280.6320416
20
-55.75
11
263.1320416
21
-55.75
0
LINE
8
0
10
263.1320416
20
-55.75
11
263.1320416
21
-72.25
0
LINE
8
0
10
263.1320416
20
-55.25
11
280.6320416
21
-55.25
0
LINE
8
0
10
280.6320416
20
-55.25
11
280.6320416
21
-38.75
0
LINE
8
0
10
280.6320416
20
-38.75
11
263.1320416
21
-38.75
0
LINE
8
0
10
263.1320416
20
-38.75
11
263.1320416
21
-55.25
0
LINE
8
0
10
263.1320416
20
-38.25
11
280.6320416
21
-38.25
0
LINE
8
0
10
280.6320416
20
-38.25
11
280.6320416
21
-21.75
0
LINE
8
0
10
280.6320416
20
-21.75
11
263.1320416
21
-21.75
0
LINE
8
0
10
263.1320416
20
-21.75
11
263.1320416
21
-38.25
0
LINE
8
0
10
267.8267558
20
-118.9401406
11
282.9822004
21
-110.1901406
0
LINE
8
0
10
282.9822004
20
-110.1901406
11
274.7322004
21
-95.9007214
0
LINE
8
0
10
274.7322004
20
-95.9007214
11
259.5767558
21
-104.6507214
0
LINE
8
0
10
259.5767558
20
-104.6507214
11
267.8267558
21
-118.9401406
0
LINE
8
0
10
252.2382985
20
-127.9401406
11
267.3937431
21
-119.1901406
0
LINE
8
0
10
267.3937431
20
-119.1901406
11
259.1437431
21
-104.9007214
0
LINE
8
0
10
259.1437431
20
-104.9007214
11
243.9882985
21
-113.6507214
0
LINE
8
0
10
243.9882985
20
-113.6507214
11
252.2382985
21
-127.9401406
0
ENDSEC
0
EOF