0
SECTION
2
HEADER
9
$INSUNITS
70
4
0
ENDSEC
0
SECTION
2
TABLES
0
TABLE
2
LTYPE
0
LTYPE
72
65
70
64
2
CONTINUOUS
3
______
73
0
40
0
0
ENDTAB
0
TABLE
2
LAYER
0
ENDTAB
0
ENDSEC
0
SECTION
2
ENTITIES
0
LINE
8
0
10
287.6499908
20
-90.9590849
11
287.6499908
21
-24.263841
0
LINE
8
0
10
285.8999832
20
-22.2795266
11
224.2744953
21
-14.5156856
0
LINE
8
0
10
224.0245029
20
-14.5
11
146.1488037
21
-14.5
0
LINE
8
0
10
144.1488041
20
-16.4988126
11
144.0980639
21
-101.9621204
0
LINE
8
0
10
144.3523856
20
-102.9393247
11
160.8087209
21
-132.372691
0
LINE
8
0
10
163.5393294
20
-133.1373384
11
213.6916676
21
-104.7593358
0
LINE
8
0
10
214.6765982
20
-104.5
11
241.8906878
21
-104.5
0
LINE
8
0
10
242.4007204
20
-104.4338735
11
286.1600234
21
-92.8929584
0
ARC
8
0
10
285.6499908
20
-24.263841
40
2
50
0
51
82.8194635
0
ARC
8
0
10
224.0245029
20
-16.5
40
2
50
82.8194635
51
90
0
ARC
8
0
10
146.1488037
20
-16.5
40
2
50
90
51
179.9659835
0
ARC
8
0
10
146.0980635
20
-101.9633078
40
2
50
179.9659835
51
209.2097642
0
ARC
8
0
10
162.5543988
20
-131.3966742
40
2
50
209.2097642
51
299.5027472
0
ARC
8
0
10
214.6765982
20
-106.5
40
2
50
90
51
119.5027472
0
ARC
8
0
10
241.8906878
20
-102.5
40
2
50
270
51
284.7745503
0
ARC
8
0
10
285.6499908
20
-90.9590849
40
2
50
284.7745503
51
0
0
LINE
8
0
10
263.8999908
20
-91.25
11
281.3999908
21
-91.25
0
LINE
8
0
10
281.3999908
20
-91.25
11
281.3999908
21
-74.75
0
LINE
8
0
10
281.3999908
20
-74.75
11
263.8999908
21
-74.75
0
LINE
8
0
10
263.8999908
20
-74.75
11
263.8999908
21
-91.25
0
LINE
8
0
10
263.8999908
20
-74.25
11
281.3999908
21
-74.25
0
LINE
8
0
10
281.3999908
20
-74.25
11
281.3999908
21
-57.75
0
LINE
8
0
10
281.3999908
20
-57.75
11
263.8999908
21
-57.75
0
LINE
8
0
10
263.8999908
20
-57.75
11
263.8999908
21
-74.25
0
LINE
8
0
10
263.8999908
20
-57.25
11
281.3999908
21
-57.25
0
LINE
8
0
10
281.3999908
20
-57.25
11
281.3999908
21
-40.75
0
LINE
8
0
10
281.3999908
20
-40.75
11
263.8999908
21
-40.75
0
LINE
8
0
10
263.8999908
20
-40.75
11
263.8999908
21
-57.25
0
LINE
8
0
10
263.8999908
20
-40.25
11
281.3999908
21
-40.25
0
LINE
8
0
10
281.3999908
20
-40.25
11
281.3999908
21
-23.75
0
LINE
8
0
10
281.3999908
20
-23.75
11
263.8999908
21
-23.75
0
LINE
8
0
10
263.8999908
20
-23.75
11
263.8999908
21
-40.25
0
LINE
8
0
10
241.3999908
20
-91.25
11
258.8999908
21
-91.25
0
LINE
8
0
10
258.8999908
20
-91.25
11
258.8999908
21
-74.75
0
LINE
8
0
10
258.8999908
20
-74.75
11
241.3999908
21
-74.75
0
LINE
8
0
10
241.3999908
20
-74.75
11
241.3999908
21
-91.25
0
LINE
8
0
10
241.3999908
20
-74.25
11
258.8999908
21
-74.25
0
LINE
8
0
10
258.8999908
20
-74.25
11
258.8999908
21
-57.75
0
LINE
8
0
10
258.8999908
20
-57.75
11
241.3999908
21
-57.75
0
LINE
8
0
10
241.3999908
20
-57.75
11
241.3999908
21
-74.25
0
LINE
8
0
10
241.3999908
20
-57.25
11
258.8999908
21
-57.25
0
LINE
8
0
10
258.8999908
20
-57.25
11
258.8999908
21
-40.75
0
LINE
8
0
10
258.8999908
20
-40.75
11
241.3999908
21
-40.75
0
LINE
8
0
10
241.3999908
20
-40.75
11
241.3999908
21
-57.25
0
LINE
8
0
10
241.3999908
20
-40.25
11
258.8999908
21
-40.25
0
LINE
8
0
10
258.8999908
20
-40.25
11
258.8999908
21
-23.75
0
LINE
8
0
10
258.8999908
20
-23.75
11
241.3999908
21
-23.75
0
LINE
8
0
10
241.3999908
20
-23.75
11
241.3999908
21
-40.25
0
LINE
8
0
10
223.3999908
20
-103.25
11
240.8999908
21
-103.25
0
LINE
8
0
10
240.8999908
20
-103.25
11
240.8999908
21
-86.75
0
LINE
8
0
10
240.8999908
20
-86.75
11
223.3999908
21
-86.75
0
LINE
8
0
10
223.3999908
20
-86.75
11
223.3999908
21
-103.25
0
LINE
8
0
10
223.3999908
20
-86.25
11
240.8999908
21
-86.25
0
LINE
8
0
10
240.8999908
20
-86.25
11
240.8999908
21
-69.75
0
LINE
8
0
10
240.8999908
20
-69.75
11
223.3999908
21
-69.75
0
LINE
8
0
10
223.3999908
20
-69.75
11
223.3999908
21
-86.25
0
LINE
8
0
10
223.3999908
20
-69.25
11
240.8999908
21
-69.25
0
LINE
8
0
10
240.8999908
20
-69.25
11
240.8999908
21
-52.75
0
LINE
8
0
10
240.8999908
20
-52.75
11
223.3999908
21
-52.75
0
LINE
8
0
10
223.3999908
20
-52.75
11
223.3999908
21
-69.25
0
LINE
8
0
10
223.3999908
20
-52.25
11
240.8999908
21
-52.25
0
LINE
8
0
10
240.8999908
20
-52.25
11
240.8999908
21
-35.75
0
LINE
8
0
10
240.8999908
20
-35.75
11
223.3999908
21
-35.75
0
LINE
8
0
10
223.3999908
20
-35.75
11
223.3999908
21
-52.25
0
LINE
8
0
10
223.3999908
20
-35.25
11
240.8999908
21
-35.25
0
LINE
8
0
10
240.8999908
20
-35.25
11
240.8999908
21
-18.75
0
LINE
8
0
10
240.8999908
20
-18.75
11
223.3999908
21
-18.75
0
LINE
8
0
10
223.3999908
20
-18.75
11
223.3999908
21
-35.25
0
LINE
8
0
10
205.3999908
20
-100.25
11
222.8999908
21
-100.25
0
LINE
8
0
10
222.8999908
20
-100.25
11
222.8999908
21
-83.75
0
LINE
8
0
10
222.8999908
20
-83.75
11
205.3999908
21
-83.75
0
LINE
8
0
10
205.3999908
20
-83.75
11
205.3999908
21
-100.25
0
LINE
8
0
10
205.3999908
20
-83.25
11
222.8999908
21
-83.25
0
LINE
8
0
10
222.8999908
20
-83.25
11
222.8999908
21
-66.75
0
LINE
8
0
10
222.8999908
20
-66.75
11
205.3999908
21
-66.75
0
LINE
8
0
10
205.3999908
20
-66.75
11
205.3999908
21
-83.25
0
LINE
8
0
10
205.3999908
20
-66.25
11
222.8999908
21
-66.25
0
LINE
8
0
10
222.8999908
20
-66.25
11
222.8999908
21
-49.75
0
LINE
8
0
10
222.8999908
20
-49.75
11
205.3999908
21
-49.75
0
LINE
8
0
10
205.3999908
20
-49.75
11
205.3999908
21
-66.25
0
LINE
8
0
10
205.3999908
20
-49.25
11
222.8999908
21
-49.25
0
LINE
8
0
10
222.8999908
20
-49.25
11
222.8999908
21
-32.75
0
LINE
8
0
10
222.8999908
20
-32.75
11
205.3999908
21
-32.75
0
LINE
8
0
10
205.3999908
20
-32.75
11
205.3999908
21
-49.25
0
LINE
8
0
10
205.3999908
20
-32.25
11
222.8999908
21
-32.25
0
LINE
8
0
10
222.8999908
20
-32.25
11
222.8999908
21
-15.75
0
LINE
8
0
10
222.8999908
20
-15.75
11
205.3999908
21
-15.75
0
LINE
8
0
10
205.3999908
20
-15.75
11
205.3999908
21
-32.25
0
LINE
8
0
10
187.3999908
20
-103.25
11
204.8999908
21
-103.25
0
LINE
8
0
10
204.8999908
20
-103.25
11
204.8999908
21
-86.75
0
LINE
8
0
10
204.8999908
20
-86.75
11
187.3999908
21
-86.75
0
LINE
8
0
10
187.3999908
20
-86.75
11
187.3999908
21
-103.25
0
LINE
8
0
10
187.3999908
20
-86.25
11
204.8999908
21
-86.25
0
LINE
8
0
10
204.8999908
20
-86.25
11
204.8999908
21
-69.75
0
LINE
8
0
10
204.8999908
20
-69.75
11
187.3999908
21
-69.75
0
LINE
8
0
10
187.3999908
20
-69.75
11
187.3999908
21
-86.25
0
LINE
8
0
10
187.3999908
20
-69.25
11
204.8999908
21
-69.25
0
LINE
8
0
10
204.8999908
20
-69.25
11
204.8999908
21
-52.75
0
LINE
8
0
10
204.8999908
20
-52.75
11
187.3999908
21
-52.75
0
LINE
8
0
10
187.3999908
20
-52.75
11
187.3999908
21
-69.25
0
LINE
8
0
10
187.3999908
20
-52.25
11
204.8999908
21
-52.25
0
LINE
8
0
10
204.8999908
20
-52.25
11
204.8999908
21
-35.75
0
LINE
8
0
10
204.8999908
20
-35.75
11
187.3999908
21
-35.75
0
LINE
8
0
10
187.3999908
20
-35.75
11
187.3999908
21
-52.25
0
LINE
8
0
10
187.3999908
20
-35.25
11
204.8999908
21
-35.25
0
LINE
8
0
10
204.8999908
20
-35.25
11
204.8999908
21
-18.75
0
LINE
8
0
10
204.8999908
20
-18.75
11
187.3999908
21
-18.75
0
LINE
8
0
10
187.3999908
20
-18.75
11
187.3999908
21
-35.25
0
LINE
8
0
10
169.3999908
20
-89.25
11
186.8999908
21
-89.25
0
LINE
8
0
10
186.8999908
20
-89.25
11
186.8999908
21
-72.75
0
LINE
8
0
10
186.8999908
20
-72.75
11
169.3999908
21
-72.75
0
LINE
8
0
10
169.3999908
20
-72.75
11
169.3999908
21
-89.25
0
LINE
8
0
10
169.3999908
20
-72.25
11
186.8999908
21
-72.25
0
LINE
8
0
10
186.8999908
20
-72.25
11
186.8999908
21
-55.75
0
LINE
8
0
10
186.8999908
20
-55.75
11
169.3999908
21
-55.75
0
LINE
8
0
10
169.3999908
20
-55.75
11
169.3999908
21
-72.25
0
LINE
8
0
10
169.3999908
20
-55.25
11
186.8999908
21
-55.25
0
LINE
8
0
10
186.8999908
20
-55.25
11
186.8999908
21
-38.75
0
LINE
8
0
10
186.8999908
20
-38.75
11
169.3999908
21
-38.75
0
LINE
8
0
10
169.3999908
20
-38.75
11
169.3999908
21
-55.25
0
LINE
8
0
10
169.3999908
20
-38.25
11
186.8999908
21
-38.25
0
LINE
8
0
10
186.8999908
20
-38.25
11
186.8999908
21
-21.75
0
LINE
8
0
10
186.8999908
20
-21.75
11
169.3999908
21
-21.75
0
LINE
8
0
10
169.3999908
20
-21.75
11
169.3999908
21
-38.25
0
LINE
8
0
10
166.0277177
20
-103.9677087
11
174.7777177
21
-119.1231533
0
LINE
8
0
10
174.7777177
20
-119.1231533
11
189.0671369
21
-110.8731533
0
LINE
8
0
10
189.0671369
20
-110.8731533
11
180.3171369
21
-95.7177087
0
LINE
8
0
10
180.3171369
20
-95.7177087
11
166.0277177
21
-103.9677087
0
LINE
8
0
10
151.3052858
20
-112.4677087
11
160.0552858
21
-127.6231533
0
LINE
8
0
10
160.0552858
20
-127.6231533
11
174.344705
21
-119.3731533
0
LINE
8
0
10
174.344705
20
-119.3731533
11
165.594705
21
-104.2177087
0
LINE
8
0
10
165.594705
20
-104.2177087
11
151.3052858
21
-112.4677087
0
ENDSEC
0
EOF