0
SECTION
2
HEADER
9
$INSUNITS
70
4
0
ENDSEC
0
SECTION
2
TABLES
0
TABLE
2
LTYPE
0
LTYPE
72
65
70
64
2
CONTINUOUS
3
______
73
0
40
0
0
ENDTAB
0
TABLE
2
LAYER
0
ENDTAB
0
ENDSEC
0
SECTION
2
ENTITIES
0
LINE
8
0
10
80
20
-90.9195579
11
80
21
-24.2800166
0
LINE
8
0
10
81.7680002
20
-22.2935182
11
148.3843925
21
-14.5135016
0
LINE
8
0
10
148.6163923
20
-14.5
11
168.3344752
21
-14.5
0
LINE
8
0
10
168.6632732
20
-14.5272122
11
204.3367268
21
-20.4727878
0
LINE
8
0
10
204.6655248
20
-20.5
11
232.5253383
21
-20.5
0
LINE
8
0
10
234.5251757
20
-22.4745012
11
235.549395
21
-102.8027852
0
LINE
8
0
10
235.2816084
20
-103.828284
11
215.1814019
21
-138.6428629
0
LINE
8
0
10
212.4493511
20
-139.3749137
11
175.2340622
21
-117.8886567
0
LINE
8
0
10
175.1860887
20
-117.8618312
11
150.945478
21
-104.7411237
0
LINE
8
0
10
149.9934515
20
-104.5
11
130.7343607
21
-104.5
0
LINE
8
0
10
130.2719879
20
-104.4458189
11
81.5376272
21
-92.8653768
0
ARC
8
0
10
82
20
-24.2800166
40
2
50
96.6613013
51
180
0
ARC
8
0
10
148.6163923
20
-16.5
40
2
50
90
51
96.6613013
0
ARC
8
0
10
168.3344752
20
-16.5
40
2
50
80.5376769
51
90
0
ARC
8
0
10
204.6655248
20
-18.5
40
2
50
260.5376769
51
270
0
ARC
8
0
10
232.5253383
20
-22.5
40
2
50
0.7305066
51
90
0
ARC
8
0
10
233.5495576
20
-102.828284
40
2
50
329.9999999
51
0.7305066
0
ARC
8
0
10
213.4493511
20
-137.6428629
40
2
50
239.9999999
51
329.9999999
0
ARC
8
0
10
174.2340622
20
-119.6207075
40
2
50
59.9999999
51
61.5746591
0
ARC
8
0
10
149.9934515
20
-106.5
40
2
50
61.5746591
51
90
0
ARC
8
0
10
130.7343607
20
-102.5
40
2
50
256.6330702
51
270
0
ARC
8
0
10
82
20
-90.9195579
40
2
50
180
51
256.6330702
0
LINE
8
0
10
91.25
20
-91.25
11
108.75
21
-91.25
0
LINE
8
0
10
108.75
20
-91.25
11
108.75
21
-74.75
0
LINE
8
0
10
108.75
20
-74.75
11
91.25
21
-74.75
0
LINE
8
0
10
91.25
20
-74.75
11
91.25
21
-91.25
0
LINE
8
0
10
91.25
20
-74.25
11
108.75
21
-74.25
0
LINE
8
0
10
108.75
20
-74.25
11
108.75
21
-57.75
0
LINE
8
0
10
108.75
20
-57.75
11
91.25
21
-57.75
0
LINE
8
0
10
91.25
20
-57.75
11
91.25
21
-74.25
0
LINE
8
0
10
91.25
20
-57.25
11
108.75
21
-57.25
0
LINE
8
0
10
108.75
20
-57.25
11
108.75
21
-40.75
0
LINE
8
0
10
108.75
20
-40.75
11
91.25
21
-40.75
0
LINE
8
0
10
91.25
20
-40.75
11
91.25
21
-57.25
0
LINE
8
0
10
91.25
20
-40.25
11
108.75
21
-40.25
0
LINE
8
0
10
108.75
20
-40.25
11
108.75
21
-23.75
0
LINE
8
0
10
108.75
20
-23.75
11
91.25
21
-23.75
0
LINE
8
0
10
91.25
20
-23.75
11
91.25
21
-40.25
0
LINE
8
0
10
113.75
20
-91.25
11
131.25
21
-91.25
0
LINE
8
0
10
131.25
20
-91.25
11
131.25
21
-74.75
0
LINE
8
0
10
131.25
20
-74.75
11
113.75
21
-74.75
0
LINE
8
0
10
113.75
20
-74.75
11
113.75
21
-91.25
0
LINE
8
0
10
113.75
20
-74.25
11
131.25
21
-74.25
0
LINE
8
0
10
131.25
20
-74.25
11
131.25
21
-57.75
0
LINE
8
0
10
131.25
20
-57.75
11
113.75
21
-57.75
0
LINE
8
0
10
113.75
20
-57.75
11
113.75
21
-74.25
0
LINE
8
0
10
113.75
20
-57.25
11
131.25
21
-57.25
0
LINE
8
0
10
131.25
20
-57.25
11
131.25
21
-40.75
0
LINE
8
0
10
131.25
20
-40.75
11
113.75
21
-40.75
0
LINE
8
0
10
113.75
20
-40.75
11
113.75
21
-57.25
0
LINE
8
0
10
113.75
20
-40.25
11
131.25
21
-40.25
0
LINE
8
0
10
131.25
20
-40.25
11
131.25
21
-23.75
0
LINE
8
0
10
131.25
20
-23.75
11
113.75
21
-23.75
0
LINE
8
0
10
113.75
20
-23.75
11
113.75
21
-40.25
0
LINE
8
0
10
131.75
20
-103.25
11
149.25
21
-103.25
0
LINE
8
0
10
149.25
20
-103.25
11
149.25
21
-86.75
0
LINE
8
0
10
149.25
20
-86.75
11
131.75
21
-86.75
0
LINE
8
0
10
131.75
20
-86.75
11
131.75
21
-103.25
0
LINE
8
0
10
131.75
20
-86.25
11
149.25
21
-86.25
0
LINE
8
0
10
149.25
20
-86.25
11
149.25
21
-69.75
0
LINE
8
0
10
149.25
20
-69.75
11
131.75
21
-69.75
0
LINE
8
0
10
131.75
20
-69.75
11
131.75
21
-86.25
0
LINE
8
0
10
131.75
20
-69.25
11
149.25
21
-69.25
0
LINE
8
0
10
149.25
20
-69.25
11
149.25
21
-52.75
0
LINE
8
0
10
149.25
20
-52.75
11
131.75
21
-52.75
0
LINE
8
0
10
131.75
20
-52.75
11
131.75
21
-69.25
0
LINE
8
0
10
131.75
20
-52.25
11
149.25
21
-52.25
0
LINE
8
0
10
149.25
20
-52.25
11
149.25
21
-35.75
0
LINE
8
0
10
149.25
20
-35.75
11
131.75
21
-35.75
0
LINE
8
0
10
131.75
20
-35.75
11
131.75
21
-52.25
0
LINE
8
0
10
131.75
20
-35.25
11
149.25
21
-35.25
0
LINE
8
0
10
149.25
20
-35.25
11
149.25
21
-18.75
0
LINE
8
0
10
149.25
20
-18.75
11
131.75
21
-18.75
0
LINE
8
0
10
131.75
20
-18.75
11
131.75
21
-35.25
0
LINE
8
0
10
149.75
20
-100.25
11
167.25
21
-100.25
0
LINE
8
0
10
167.25
20
-100.25
11
167.25
21
-83.75
0
LINE
8
0
10
167.25
20
-83.75
11
149.75
21
-83.75
0
LINE
8
0
10
149.75
20
-83.75
11
149.75
21
-100.25
0
LINE
8
0
10
149.75
20
-83.25
11
167.25
21
-83.25
0
LINE
8
0
10
167.25
20
-83.25
11
167.25
21
-66.75
0
LINE
8
0
10
167.25
20
-66.75
11
149.75
21
-66.75
0
LINE
8
0
10
149.75
20
-66.75
11
149.75
21
-83.25
0
LINE
8
0
10
149.75
20
-66.25
11
167.25
21
-66.25
0
LINE
8
0
10
167.25
20
-66.25
11
167.25
21
-49.75
0
LINE
8
0
10
167.25
20
-49.75
11
149.75
21
-49.75
0
LINE
8
0
10
149.75
20
-49.75
11
149.75
21
-66.25
0
LINE
8
0
10
149.75
20
-49.25
11
167.25
21
-49.25
0
LINE
8
0
10
167.25
20
-49.25
11
167.25
21
-32.75
0
LINE
8
0
10
167.25
20
-32.75
11
149.75
21
-32.75
0
LINE
8
0
10
149.75
20
-32.75
11
149.75
21
-49.25
0
LINE
8
0
10
149.75
20
-32.25
11
167.25
21
-32.25
0
LINE
8
0
10
167.25
20
-32.25
11
167.25
21
-15.75
0
LINE
8
0
10
167.25
20
-15.75
11
149.75
21
-15.75
0
LINE
8
0
10
149.75
20
-15.75
11
149.75
21
-32.25
0
LINE
8
0
10
167.75
20
-103.25
11
185.25
21
-103.25
0
LINE
8
0
10
185.25
20
-103.25
11
185.25
21
-86.75
0
LINE
8
0
10
185.25
20
-86.75
11
167.75
21
-86.75
0
LINE
8
0
10
167.75
20
-86.75
11
167.75
21
-103.25
0
LINE
8
0
10
167.75
20
-86.25
11
185.25
21
-86.25
0
LINE
8
0
10
185.25
20
-86.25
11
185.25
21
-69.75
0
LINE
8
0
10
185.25
20
-69.75
11
167.75
21
-69.75
0
LINE
8
0
10
167.75
20
-69.75
11
167.75
21
-86.25
0
LINE
8
0
10
167.75
20
-69.25
11
185.25
21
-69.25
0
LINE
8
0
10
185.25
20
-69.25
11
185.25
21
-52.75
0
LINE
8
0
10
185.25
20
-52.75
11
167.75
21
-52.75
0
LINE
8
0
10
167.75
20
-52.75
11
167.75
21
-69.25
0
LINE
8
0
10
167.75
20
-52.25
11
185.25
21
-52.25
0
LINE
8
0
10
185.25
20
-52.25
11
185.25
21
-35.75
0
LINE
8
0
10
185.25
20
-35.75
11
167.75
21
-35.75
0
LINE
8
0
10
167.75
20
-35.75
11
167.75
21
-52.25
0
LINE
8
0
10
167.75
20
-35.25
11
185.25
21
-35.25
0
LINE
8
0
10
185.25
20
-35.25
11
185.25
21
-18.75
0
LINE
8
0
10
185.25
20
-18.75
11
167.75
21
-18.75
0
LINE
8
0
10
167.75
20
-18.75
11
167.75
21
-35.25
0
LINE
8
0
10
185.75
20
-89.25
11
203.25
21
-89.25
0
LINE
8
0
10
203.25
20
-89.25
11
203.25
21
-72.75
0
LINE
8
0
10
203.25
20
-72.75
11
185.75
21
-72.75
0
LINE
8
0
10
185.75
20
-72.75
11
185.75
21
-89.25
0
LINE
8
0
10
185.75
20
-72.25
11
203.25
21
-72.25
0
LINE
8
0
10
203.25
20
-72.25
11
203.25
21
-55.75
0
LINE
8
0
10
203.25
20
-55.75
11
185.75
21
-55.75
0
LINE
8
0
10
185.75
20
-55.75
11
185.75
21
-72.25
0
LINE
8
0
10
185.75
20
-55.25
11
203.25
21
-55.25
0
LINE
8
0
10
203.25
20
-55.25
11
203.25
21
-38.75
0
LINE
8
0
10
203.25
20
-38.75
11
185.75
21
-38.75
0
LINE
8
0
10
185.75
20
-38.75
11
185.75
21
-55.25
0
LINE
8
0
10
185.75
20
-38.25
11
203.25
21
-38.25
0
LINE
8
0
10
203.25
20
-38.25
11
203.25
21
-21.75
0
LINE
8
0
10
203.25
20
-21.75
11
185.75
21
-21.75
0
LINE
8
0
10
185.75
20
-21.75
11
185.75
21
-38.25
0
LINE
8
0
10
183.3998412
20
-110.1901406
11
198.5552858
21
-118.9401406
0
LINE
8
0
10
198.5552858
20
-118.9401406
11
206.8052858
21
-104.6507214
0
LINE
8
0
10
206.8052858
20
-104.6507214
11
191.6498412
21
-95.9007214
0
LINE
8
0
10
191.6498412
20
-95.9007214
11
183.3998412
21
-110.1901406
0
LINE
8
0
10
198.9882985
20
-119.1901406
11
214.1437431
21
-127.9401406
0
LINE
8
0
10
214.1437431
20
-127.9401406
11
222.3937431
21
-113.6507214
0
LINE
8
0
10
222.3937431
20
-113.6507214
11
207.2382985
21
-104.9007214
0
LINE
8
0
10
207.2382985
20
-104.9007214
11
198.9882985
21
-119.1901406
0
ENDSEC
0
EOF