0
SECTION
2
HEADER
9
$INSUNITS
70
4
0
ENDSEC
0
SECTION
2
TABLES
0
TABLE
2
LTYPE
0
LTYPE
72
65
70
64
2
CONTINUOUS
3
______
73
0
40
0
0
ENDTAB
0
TABLE
2
LAYER
0
ENDTAB
0
ENDSEC
0
SECTION
2
ENTITIES
0
LINE
8
0
10
-7
20
-90.9590849
11
-7
21
-24.263841
0
LINE
8
0
10
-5.2499924
20
-22.2795266
11
56.3754955
21
-14.5156856
0
LINE
8
0
10
56.625488
20
-14.5
11
134.5011871
21
-14.5
0
LINE
8
0
10
136.5011867
20
-16.4988126
11
136.5519269
21
-101.9621204
0
LINE
8
0
10
136.2976052
20
-102.9393247
11
119.8412699
21
-132.372691
0
LINE
8
0
10
117.1106614
20
-133.1373384
11
66.9583232
21
-104.7593358
0
LINE
8
0
10
65.9733926
20
-104.5
11
38.759303
21
-104.5
0
LINE
8
0
10
38.2492704
20
-104.4338735
11
-5.5100326
21
-92.8929584
0
ARC
8
0
10
-5
20
-24.263841
40
2
50
97.1805365
51
180
0
ARC
8
0
10
56.625488
20
-16.5
40
2
50
90
51
97.1805365
0
ARC
8
0
10
134.5011871
20
-16.5
40
2
50
0.0340165
51
90
0
ARC
8
0
10
134.5519273
20
-101.9633078
40
2
50
330.7902358
51
0.0340165
0
ARC
8
0
10
118.095592
20
-131.3966742
40
2
50
240.4972528
51
330.7902358
0
ARC
8
0
10
65.9733926
20
-106.5
40
2
50
60.4972528
51
90
0
ARC
8
0
10
38.759303
20
-102.5
40
2
50
255.2254497
51
270
0
ARC
8
0
10
-5
20
-90.9590849
40
2
50
180
51
255.2254497
0
LINE
8
0
10
-0.75
20
-91.25
11
16.75
21
-91.25
0
LINE
8
0
10
16.75
20
-91.25
11
16.75
21
-74.75
0
LINE
8
0
10
16.75
20
-74.75
11
-0.75
21
-74.75
0
LINE
8
0
10
-0.75
20
-74.75
11
-0.75
21
-91.25
0
LINE
8
0
10
-0.75
20
-74.25
11
16.75
21
-74.25
0
LINE
8
0
10
16.75
20
-74.25
11
16.75
21
-57.75
0
LINE
8
0
10
16.75
20
-57.75
11
-0.75
21
-57.75
0
LINE
8
0
10
-0.75
20
-57.75
11
-0.75
21
-74.25
0
LINE
8
0
10
-0.75
20
-57.25
11
16.75
21
-57.25
0
LINE
8
0
10
16.75
20
-57.25
11
16.75
21
-40.75
0
LINE
8
0
10
16.75
20
-40.75
11
-0.75
21
-40.75
0
LINE
8
0
10
-0.75
20
-40.75
11
-0.75
21
-57.25
0
LINE
8
0
10
-0.75
20
-40.25
11
16.75
21
-40.25
0
LINE
8
0
10
16.75
20
-40.25
11
16.75
21
-23.75
0
LINE
8
0
10
16.75
20
-23.75
11
-0.75
21
-23.75
0
LINE
8
0
10
-0.75
20
-23.75
11
-0.75
21
-40.25
0
LINE
8
0
10
21.75
20
-91.25
11
39.25
21
-91.25
0
LINE
8
0
10
39.25
20
-91.25
11
39.25
21
-74.75
0
LINE
8
0
10
39.25
20
-74.75
11
21.75
21
-74.75
0
LINE
8
0
10
21.75
20
-74.75
11
21.75
21
-91.25
0
LINE
8
0
10
21.75
20
-74.25
11
39.25
21
-74.25
0
LINE
8
0
10
39.25
20
-74.25
11
39.25
21
-57.75
0
LINE
8
0
10
39.25
20
-57.75
11
21.75
21
-57.75
0
LINE
8
0
10
21.75
20
-57.75
11
21.75
21
-74.25
0
LINE
8
0
10
21.75
20
-57.25
11
39.25
21
-57.25
0
LINE
8
0
10
39.25
20
-57.25
11
39.25
21
-40.75
0
LINE
8
0
10
39.25
20
-40.75
11
21.75
21
-40.75
0
LINE
8
0
10
21.75
20
-40.75
11
21.75
21
-57.25
0
LINE
8
0
10
21.75
20
-40.25
11
39.25
21
-40.25
0
LINE
8
0
10
39.25
20
-40.25
11
39.25
21
-23.75
0
LINE
8
0
10
39.25
20
-23.75
11
21.75
21
-23.75
0
LINE
8
0
10
21.75
20
-23.75
11
21.75
21
-40.25
0
LINE
8
0
10
39.75
20
-103.25
11
57.25
21
-103.25
0
LINE
8
0
10
57.25
20
-103.25
11
57.25
21
-86.75
0
LINE
8
0
10
57.25
20
-86.75
11
39.75
21
-86.75
0
LINE
8
0
10
39.75
20
-86.75
11
39.75
21
-103.25
0
LINE
8
0
10
39.75
20
-86.25
11
57.25
21
-86.25
0
LINE
8
0
10
57.25
20
-86.25
11
57.25
21
-69.75
0
LINE
8
0
10
57.25
20
-69.75
11
39.75
21
-69.75
0
LINE
8
0
10
39.75
20
-69.75
11
39.75
21
-86.25
0
LINE
8
0
10
39.75
20
-69.25
11
57.25
21
-69.25
0
LINE
8
0
10
57.25
20
-69.25
11
57.25
21
-52.75
0
LINE
8
0
10
57.25
20
-52.75
11
39.75
21
-52.75
0
LINE
8
0
10
39.75
20
-52.75
11
39.75
21
-69.25
0
LINE
8
0
10
39.75
20
-52.25
11
57.25
21
-52.25
0
LINE
8
0
10
57.25
20
-52.25
11
57.25
21
-35.75
0
LINE
8
0
10
57.25
20
-35.75
11
39.75
21
-35.75
0
LINE
8
0
10
39.75
20
-35.75
11
39.75
21
-52.25
0
LINE
8
0
10
39.75
20
-35.25
11
57.25
21
-35.25
0
LINE
8
0
10
57.25
20
-35.25
11
57.25
21
-18.75
0
LINE
8
0
10
57.25
20
-18.75
11
39.75
21
-18.75
0
LINE
8
0
10
39.75
20
-18.75
11
39.75
21
-35.25
0
LINE
8
0
10
57.75
20
-100.25
11
75.25
21
-100.25
0
LINE
8
0
10
75.25
20
-100.25
11
75.25
21
-83.75
0
LINE
8
0
10
75.25
20
-83.75
11
57.75
21
-83.75
0
LINE
8
0
10
57.75
20
-83.75
11
57.75
21
-100.25
0
LINE
8
0
10
57.75
20
-83.25
11
75.25
21
-83.25
0
LINE
8
0
10
75.25
20
-83.25
11
75.25
21
-66.75
0
LINE
8
0
10
75.25
20
-66.75
11
57.75
21
-66.75
0
LINE
8
0
10
57.75
20
-66.75
11
57.75
21
-83.25
0
LINE
8
0
10
57.75
20
-66.25
11
75.25
21
-66.25
0
LINE
8
0
10
75.25
20
-66.25
11
75.25
21
-49.75
0
LINE
8
0
10
75.25
20
-49.75
11
57.75
21
-49.75
0
LINE
8
0
10
57.75
20
-49.75
11
57.75
21
-66.25
0
LINE
8
0
10
57.75
20
-49.25
11
75.25
21
-49.25
0
LINE
8
0
10
75.25
20
-49.25
11
75.25
21
-32.75
0
LINE
8
0
10
75.25
20
-32.75
11
57.75
21
-32.75
0
LINE
8
0
10
57.75
20
-32.75
11
57.75
21
-49.25
0
LINE
8
0
10
57.75
20
-32.25
11
75.25
21
-32.25
0
LINE
8
0
10
75.25
20
-32.25
11
75.25
21
-15.75
0
LINE
8
0
10
75.25
20
-15.75
11
57.75
21
-15.75
0
LINE
8
0
10
57.75
20
-15.75
11
57.75
21
-32.25
0
LINE
8
0
10
75.75
20
-103.25
11
93.25
21
-103.25
0
LINE
8
0
10
93.25
20
-103.25
11
93.25
21
-86.75
0
LINE
8
0
10
93.25
20
-86.75
11
75.75
21
-86.75
0
LINE
8
0
10
75.75
20
-86.75
11
75.75
21
-103.25
0
LINE
8
0
10
75.75
20
-86.25
11
93.25
21
-86.25
0
LINE
8
0
10
93.25
20
-86.25
11
93.25
21
-69.75
0
LINE
8
0
10
93.25
20
-69.75
11
75.75
21
-69.75
0
LINE
8
0
10
75.75
20
-69.75
11
75.75
21
-86.25
0
LINE
8
0
10
75.75
20
-69.25
11
93.25
21
-69.25
0
LINE
8
0
10
93.25
20
-69.25
11
93.25
21
-52.75
0
LINE
8
0
10
93.25
20
-52.75
11
75.75
21
-52.75
0
LINE
8
0
10
75.75
20
-52.75
11
75.75
21
-69.25
0
LINE
8
0
10
75.75
20
-52.25
11
93.25
21
-52.25
0
LINE
8
0
10
93.25
20
-52.25
11
93.25
21
-35.75
0
LINE
8
0
10
93.25
20
-35.75
11
75.75
21
-35.75
0
LINE
8
0
10
75.75
20
-35.75
11
75.75
21
-52.25
0
LINE
8
0
10
75.75
20
-35.25
11
93.25
21
-35.25
0
LINE
8
0
10
93.25
20
-35.25
11
93.25
21
-18.75
0
LINE
8
0
10
93.25
20
-18.75
11
75.75
21
-18.75
0
LINE
8
0
10
75.75
20
-18.75
11
75.75
21
-35.25
0
LINE
8
0
10
93.75
20
-89.25
11
111.25
21
-89.25
0
LINE
8
0
10
111.25
20
-89.25
11
111.25
21
-72.75
0
LINE
8
0
10
111.25
20
-72.75
11
93.75
21
-72.75
0
LINE
8
0
10
93.75
20
-72.75
11
93.75
21
-89.25
0
LINE
8
0
10
93.75
20
-72.25
11
111.25
21
-72.25
0
LINE
8
0
10
111.25
20
-72.25
11
111.25
21
-55.75
0
LINE
8
0
10
111.25
20
-55.75
11
93.75
21
-55.75
0
LINE
8
0
10
93.75
20
-55.75
11
93.75
21
-72.25
0
LINE
8
0
10
93.75
20
-55.25
11
111.25
21
-55.25
0
LINE
8
0
10
111.25
20
-55.25
11
111.25
21
-38.75
0
LINE
8
0
10
111.25
20
-38.75
11
93.75
21
-38.75
0
LINE
8
0
10
93.75
20
-38.75
11
93.75
21
-55.25
0
LINE
8
0
10
93.75
20
-38.25
11
111.25
21
-38.25
0
LINE
8
0
10
111.25
20
-38.25
11
111.25
21
-21.75
0
LINE
8
0
10
111.25
20
-21.75
11
93.75
21
-21.75
0
LINE
8
0
10
93.75
20
-21.75
11
93.75
21
-38.25
0
LINE
8
0
10
105.8722731
20
-119.1231533
11
114.6222731
21
-103.9677087
0
LINE
8
0
10
114.6222731
20
-103.9677087
11
100.3328539
21
-95.7177087
0
LINE
8
0
10
100.3328539
20
-95.7177087
11
91.5828539
21
-110.8731533
0
LINE
8
0
10
91.5828539
20
-110.8731533
11
105.8722731
21
-119.1231533
0
LINE
8
0
10
120.594705
20
-127.6231533
11
129.344705
21
-112.4677087
0
LINE
8
0
10
129.344705
20
-112.4677087
11
115.0552858
21
-104.2177087
0
LINE
8
0
10
115.0552858
20
-104.2177087
11
106.3052858
21
-119.3731533
0
LINE
8
0
10
106.3052858
20
-119.3731533
11
120.594705
21
-127.6231533
0
ENDSEC
0
EOF