<svg width="159.498mm" height="127.297mm" viewBox="0 0 159.498 127.297" xmlns="http://www.w3.org/2000/svg"><g id="svgGroup" stroke-linecap="round" fill-rule="evenodd" font-size="9pt" stroke="#000" stroke-width="0.25mm" fill="none" style="stroke:#000;stroke-width:0.25mm;fill:none"><path d="M 0 80.985 L 0 9.777 A 2 2 0 0 1 1.765 7.791 L 67.383 0.014 A 2 2 0 0 1 67.618 0 L 157.498 0 A 2 2 0 0 1 159.498 2.002 L 159.375 101.009 A 2 2 0 0 1 159.188 101.851 L 147.861 126.142 A 2 2 0 0 1 145.198 127.107 L 79.404 96.19 A 2 2 0 0 0 78.554 96 L 48.276 96 A 2 2 0 0 1 47.734 95.925 L 1.459 82.91 A 2 2 0 0 1 0 80.985 Z" vector-effect="non-scaling-stroke"/></g></svg>