0
SECTION
2
HEADER
9
$INSUNITS
70
4
0
ENDSEC
0
SECTION
2
TABLES
0
TABLE
2
LTYPE
0
LTYPE
72
65
70
64
2
CONTINUOUS
3
______
73
0
40
0
0
ENDTAB
0
TABLE
2
LAYER
0
ENDTAB
0
ENDSEC
0
SECTION
2
ENTITIES
0
LINE
8
0
10
25
20
-99.4849037
11
25
21
-28.2769606
0
LINE
8
0
10
26.7646104
20
-26.290861
11
92.3827154
21
-18.5139004
0
LINE
8
0
10
92.618105
20
-18.5
11
182.4975289
21
-18.5
0
LINE
8
0
10
184.4975274
20
-20.5024696
11
184.4524603
21
-57
0
LINE
8
0
10
184.4462863
20
-62
11
184.3752747
21
-119.5086767
0
LINE
8
0
10
184.1878918
20
-120.3514437
11
172.8608846
21
-144.642289
0
LINE
8
0
10
170.1976754
20
-145.6071603
11
104.4041004
21
-114.6898921
0
LINE
8
0
10
103.5535068
20
-114.5
11
73.275898
21
-114.5
0
LINE
8
0
10
72.7344067
20
-114.4253019
11
26.4585088
21
-101.4102056
0
ARC
8
0
10
27
20
-28.2769606
40
2
50
96.7590816
51
180
0
ARC
8
0
10
92.618105
20
-20.5
40
2
50
90
51
96.7590816
0
ARC
8
0
10
182.4975289
20
-20.5
40
2
50
359.9292512
51
90
0
ARC
8
0
10
182.3752762
20
-119.5062071
40
2
50
334.9999983
51
359.9292512
0
ARC
8
0
10
171.048269
20
-143.7970524
40
2
50
244.8305477
51
334.9999983
0
ARC
8
0
10
103.5535068
20
-116.5
40
2
50
64.8305477
51
90
0
ARC
8
0
10
73.275898
20
-112.5
40
2
50
254.2913603
51
270
0
ARC
8
0
10
27
20
-99.4849037
40
2
50
180
51
254.2913603
0
LINE
8
0
10
179.5
20
-62
11
184.4462863
21
-62
0
LINE
8
0
10
184.4524603
20
-57
11
179.5
21
-57
0
ARC
8
0
10
179.5
20
-59.5
40
2.5
50
450
51
630
0
LINE
8
0
10
31.25
20
-99.75
11
48.75
21
-99.75
0
LINE
8
0
10
48.75
20
-99.75
11
48.75
21
-83.25
0
LINE
8
0
10
48.75
20
-83.25
11
31.25
21
-83.25
0
LINE
8
0
10
31.25
20
-83.25
11
31.25
21
-99.75
0
LINE
8
0
10
31.25
20
-81.25
11
48.75
21
-81.25
0
LINE
8
0
10
48.75
20
-81.25
11
48.75
21
-64.75
0
LINE
8
0
10
48.75
20
-64.75
11
31.25
21
-64.75
0
LINE
8
0
10
31.25
20
-64.75
11
31.25
21
-81.25
0
LINE
8
0
10
31.25
20
-62.75
11
48.75
21
-62.75
0
LINE
8
0
10
48.75
20
-62.75
11
48.75
21
-46.25
0
LINE
8
0
10
48.75
20
-46.25
11
31.25
21
-46.25
0
LINE
8
0
10
31.25
20
-46.25
11
31.25
21
-62.75
0
LINE
8
0
10
31.25
20
-44.25
11
48.75
21
-44.25
0
LINE
8
0
10
48.75
20
-44.25
11
48.75
21
-27.75
0
LINE
8
0
10
48.75
20
-27.75
11
31.25
21
-27.75
0
LINE
8
0
10
31.25
20
-27.75
11
31.25
21
-44.25
0
LINE
8
0
10
54.75
20
-99.75
11
72.25
21
-99.75
0
LINE
8
0
10
72.25
20
-99.75
11
72.25
21
-83.25
0
LINE
8
0
10
72.25
20
-83.25
11
54.75
21
-83.25
0
LINE
8
0
10
54.75
20
-83.25
11
54.75
21
-99.75
0
LINE
8
0
10
54.75
20
-81.25
11
72.25
21
-81.25
0
LINE
8
0
10
72.25
20
-81.25
11
72.25
21
-64.75
0
LINE
8
0
10
72.25
20
-64.75
11
54.75
21
-64.75
0
LINE
8
0
10
54.75
20
-64.75
11
54.75
21
-81.25
0
LINE
8
0
10
54.75
20
-62.75
11
72.25
21
-62.75
0
LINE
8
0
10
72.25
20
-62.75
11
72.25
21
-46.25
0
LINE
8
0
10
72.25
20
-46.25
11
54.75
21
-46.25
0
LINE
8
0
10
54.75
20
-46.25
11
54.75
21
-62.75
0
LINE
8
0
10
54.75
20
-44.25
11
72.25
21
-44.25
0
LINE
8
0
10
72.25
20
-44.25
11
72.25
21
-27.75
0
LINE
8
0
10
72.25
20
-27.75
11
54.75
21
-27.75
0
LINE
8
0
10
54.75
20
-27.75
11
54.75
21
-44.25
0
LINE
8
0
10
74.25
20
-113.25
11
91.75
21
-113.25
0
LINE
8
0
10
91.75
20
-113.25
11
91.75
21
-96.75
0
LINE
8
0
10
91.75
20
-96.75
11
74.25
21
-96.75
0
LINE
8
0
10
74.25
20
-96.75
11
74.25
21
-113.25
0
LINE
8
0
10
74.25
20
-94.75
11
91.75
21
-94.75
0
LINE
8
0
10
91.75
20
-94.75
11
91.75
21
-78.25
0
LINE
8
0
10
91.75
20
-78.25
11
74.25
21
-78.25
0
LINE
8
0
10
74.25
20
-78.25
11
74.25
21
-94.75
0
LINE
8
0
10
74.25
20
-76.25
11
91.75
21
-76.25
0
LINE
8
0
10
91.75
20
-76.25
11
91.75
21
-59.75
0
LINE
8
0
10
91.75
20
-59.75
11
74.25
21
-59.75
0
LINE
8
0
10
74.25
20
-59.75
11
74.25
21
-76.25
0
LINE
8
0
10
74.25
20
-57.75
11
91.75
21
-57.75
0
LINE
8
0
10
91.75
20
-57.75
11
91.75
21
-41.25
0
LINE
8
0
10
91.75
20
-41.25
11
74.25
21
-41.25
0
LINE
8
0
10
74.25
20
-41.25
11
74.25
21
-57.75
0
LINE
8
0
10
74.25
20
-39.25
11
91.75
21
-39.25
0
LINE
8
0
10
91.75
20
-39.25
11
91.75
21
-22.75
0
LINE
8
0
10
91.75
20
-22.75
11
74.25
21
-22.75
0
LINE
8
0
10
74.25
20
-22.75
11
74.25
21
-39.25
0
LINE
8
0
10
93.75
20
-110.25
11
111.25
21
-110.25
0
LINE
8
0
10
111.25
20
-110.25
11
111.25
21
-93.75
0
LINE
8
0
10
111.25
20
-93.75
11
93.75
21
-93.75
0
LINE
8
0
10
93.75
20
-93.75
11
93.75
21
-110.25
0
LINE
8
0
10
93.75
20
-91.75
11
111.25
21
-91.75
0
LINE
8
0
10
111.25
20
-91.75
11
111.25
21
-75.25
0
LINE
8
0
10
111.25
20
-75.25
11
93.75
21
-75.25
0
LINE
8
0
10
93.75
20
-75.25
11
93.75
21
-91.75
0
LINE
8
0
10
93.75
20
-73.25
11
111.25
21
-73.25
0
LINE
8
0
10
111.25
20
-73.25
11
111.25
21
-56.75
0
LINE
8
0
10
111.25
20
-56.75
11
93.75
21
-56.75
0
LINE
8
0
10
93.75
20
-56.75
11
93.75
21
-73.25
0
LINE
8
0
10
93.75
20
-54.75
11
111.25
21
-54.75
0
LINE
8
0
10
111.25
20
-54.75
11
111.25
21
-38.25
0
LINE
8
0
10
111.25
20
-38.25
11
93.75
21
-38.25
0
LINE
8
0
10
93.75
20
-38.25
11
93.75
21
-54.75
0
LINE
8
0
10
93.75
20
-36.25
11
111.25
21
-36.25
0
LINE
8
0
10
111.25
20
-36.25
11
111.25
21
-19.75
0
LINE
8
0
10
111.25
20
-19.75
11
93.75
21
-19.75
0
LINE
8
0
10
93.75
20
-19.75
11
93.75
21
-36.25
0
LINE
8
0
10
113.25
20
-113.25
11
130.75
21
-113.25
0
LINE
8
0
10
130.75
20
-113.25
11
130.75
21
-96.75
0
LINE
8
0
10
130.75
20
-96.75
11
113.25
21
-96.75
0
LINE
8
0
10
113.25
20
-96.75
11
113.25
21
-113.25
0
LINE
8
0
10
113.25
20
-94.75
11
130.75
21
-94.75
0
LINE
8
0
10
130.75
20
-94.75
11
130.75
21
-78.25
0
LINE
8
0
10
130.75
20
-78.25
11
113.25
21
-78.25
0
LINE
8
0
10
113.25
20
-78.25
11
113.25
21
-94.75
0
LINE
8
0
10
113.25
20
-76.25
11
130.75
21
-76.25
0
LINE
8
0
10
130.75
20
-76.25
11
130.75
21
-59.75
0
LINE
8
0
10
130.75
20
-59.75
11
113.25
21
-59.75
0
LINE
8
0
10
113.25
20
-59.75
11
113.25
21
-76.25
0
LINE
8
0
10
113.25
20
-57.75
11
130.75
21
-57.75
0
LINE
8
0
10
130.75
20
-57.75
11
130.75
21
-41.25
0
LINE
8
0
10
130.75
20
-41.25
11
113.25
21
-41.25
0
LINE
8
0
10
113.25
20
-41.25
11
113.25
21
-57.75
0
LINE
8
0
10
113.25
20
-39.25
11
130.75
21
-39.25
0
LINE
8
0
10
130.75
20
-39.25
11
130.75
21
-22.75
0
LINE
8
0
10
130.75
20
-22.75
11
113.25
21
-22.75
0
LINE
8
0
10
113.25
20
-22.75
11
113.25
21
-39.25
0
LINE
8
0
10
132.75
20
-97.75
11
143.5
21
-97.75
0
LINE
8
0
10
143.5
20
-81.25
11
132.75
21
-81.25
0
LINE
8
0
10
132.75
20
-81.25
11
132.75
21
-97.75
0
LINE
8
0
10
132.75
20
-79.25
11
143.5
21
-79.25
0
LINE
8
0
10
150.25
20
-63
11
150.25
21
-62.75
0
LINE
8
0
10
150.25
20
-62.75
11
132.75
21
-62.75
0
LINE
8
0
10
132.75
20
-62.75
11
132.75
21
-79.25
0
LINE
8
0
10
132.75
20
-60.75
11
150.25
21
-60.75
0
LINE
8
0
10
150.25
20
-60.75
11
150.25
21
-44.25
0
LINE
8
0
10
150.25
20
-44.25
11
132.75
21
-44.25
0
LINE
8
0
10
132.75
20
-44.25
11
132.75
21
-60.75
0
LINE
8
0
10
132.75
20
-42.25
11
150.25
21
-42.25
0
LINE
8
0
10
150.25
20
-42.25
11
150.25
21
-25.75
0
LINE
8
0
10
150.25
20
-25.75
11
132.75
21
-25.75
0
LINE
8
0
10
132.75
20
-25.75
11
132.75
21
-42.25
0
LINE
8
0
10
154.5337439
20
-128.9307824
11
159.6308514
21
-118
0
LINE
8
0
10
143.5
20
-113.5503963
11
139.5796654
21
-121.9575811
0
LINE
8
0
10
139.5796654
20
-121.9575811
11
154.5337439
21
-128.9307824
0
LINE
8
0
10
172.2067457
20
-137.1718385
11
179.6025652
21
-121.3114522
0
LINE
8
0
10
179.6025652
20
-121.3114522
11
172.501133
21
-118
0
LINE
8
0
10
162.9409851
20
-118
11
157.2526672
21
-130.1986372
0
LINE
8
0
10
157.2526672
20
-130.1986372
11
172.2067457
21
-137.1718385
0
LINE
8
0
10
159.6308514
20
-118
11
162.9409851
21
-118
0
LINE
8
0
10
172.501133
20
-118
11
179.5
21
-118
0
LINE
8
0
10
179.5
20
-118
11
179.5
21
-63
0
LINE
8
0
10
179.5
20
-63
11
150.25
21
-63
0
LINE
8
0
10
143.5
20
-97.75
11
143.5
21
-113.5503963
0
LINE
8
0
10
143.5
20
-79.25
11
143.5
21
-81.25
0
ENDSEC
0
EOF