0
SECTION
2
HEADER
9
$INSUNITS
70
4
0
ENDSEC
0
SECTION
2
TABLES
0
TABLE
2
LTYPE
0
LTYPE
72
65
70
64
2
CONTINUOUS
3
______
73
0
40
0
0
ENDTAB
0
TABLE
2
LAYER
0
ENDTAB
0
ENDSEC
0
SECTION
2
ENTITIES
0
LINE
8
0
10
85
20
-90.9590849
11
85
21
-24.263841
0
LINE
8
0
10
86.7500076
20
-22.2795266
11
148.3754956
21
-14.5156856
0
LINE
8
0
10
148.625488
20
-14.5
11
168.3344752
21
-14.5
0
LINE
8
0
10
168.6632732
20
-14.5272122
11
204.3367268
21
-20.4727878
0
LINE
8
0
10
204.6655248
20
-20.5
11
222.5153622
21
-20.5
0
LINE
8
0
10
224.5153027
20
-22.4845788
11
225.1731809
21
-107.803574
0
LINE
8
0
10
224.9219892
20
-108.789499
11
211.8388115
21
-132.3640493
0
LINE
8
0
10
209.1051321
20
-133.1342097
11
158.9583232
21
-104.7593358
0
LINE
8
0
10
157.9733926
20
-104.5
11
130.759303
21
-104.5
0
LINE
8
0
10
130.2492704
20
-104.4338735
11
86.4899674
21
-92.8929584
0
ARC
8
0
10
87
20
-24.263841
40
2
50
97.1805365
51
180
0
ARC
8
0
10
148.625488
20
-16.5
40
2
50
90
51
97.1805365
0
ARC
8
0
10
168.3344752
20
-16.5
40
2
50
80.5376769
51
90
0
ARC
8
0
10
204.6655248
20
-18.5
40
2
50
260.5376769
51
270
0
ARC
8
0
10
222.5153622
20
-22.5
40
2
50
0.4417892
51
90
0
ARC
8
0
10
223.1732404
20
-107.8189952
40
2
50
330.9710224
51
0.4417892
0
ARC
8
0
10
210.0900627
20
-131.3935455
40
2
50
240.4972528
51
330.9710224
0
ARC
8
0
10
157.9733926
20
-106.5
40
2
50
60.4972528
51
90
0
ARC
8
0
10
130.759303
20
-102.5
40
2
50
255.2254497
51
270
0
ARC
8
0
10
87
20
-90.9590849
40
2
50
180
51
255.2254497
0
LINE
8
0
10
86.75
20
-91.25
11
113.25
21
-91.25
0
LINE
8
0
10
86.75
20
-74.75
11
113.25
21
-74.75
0
LINE
8
0
10
86.75
20
-74.25
11
113.25
21
-74.25
0
LINE
8
0
10
86.75
20
-57.75
11
113.25
21
-57.75
0
LINE
8
0
10
86.75
20
-57.25
11
113.25
21
-57.25
0
LINE
8
0
10
86.75
20
-40.75
11
113.25
21
-40.75
0
LINE
8
0
10
86.75
20
-40.25
11
113.25
21
-40.25
0
LINE
8
0
10
86.75
20
-23.75
11
113.25
21
-23.75
0
LINE
8
0
10
113.75
20
-91.25
11
131.25
21
-91.25
0
LINE
8
0
10
131.25
20
-91.25
11
131.25
21
-74.75
0
LINE
8
0
10
131.25
20
-74.75
11
113.75
21
-74.75
0
LINE
8
0
10
113.75
20
-74.75
11
113.75
21
-91.25
0
LINE
8
0
10
113.75
20
-74.25
11
131.25
21
-74.25
0
LINE
8
0
10
131.25
20
-74.25
11
131.25
21
-57.75
0
LINE
8
0
10
131.25
20
-57.75
11
113.75
21
-57.75
0
LINE
8
0
10
113.75
20
-57.75
11
113.75
21
-74.25
0
LINE
8
0
10
113.75
20
-57.25
11
131.25
21
-57.25
0
LINE
8
0
10
131.25
20
-57.25
11
131.25
21
-40.75
0
LINE
8
0
10
131.25
20
-40.75
11
113.75
21
-40.75
0
LINE
8
0
10
113.75
20
-40.75
11
113.75
21
-57.25
0
LINE
8
0
10
113.75
20
-40.25
11
131.25
21
-40.25
0
LINE
8
0
10
131.25
20
-40.25
11
131.25
21
-23.75
0
LINE
8
0
10
131.25
20
-23.75
11
113.75
21
-23.75
0
LINE
8
0
10
113.75
20
-23.75
11
113.75
21
-40.25
0
LINE
8
0
10
131.75
20
-103.25
11
149.25
21
-103.25
0
LINE
8
0
10
149.25
20
-103.25
11
149.25
21
-86.75
0
LINE
8
0
10
149.25
20
-86.75
11
131.75
21
-86.75
0
LINE
8
0
10
131.75
20
-86.75
11
131.75
21
-103.25
0
LINE
8
0
10
131.75
20
-86.25
11
149.25
21
-86.25
0
LINE
8
0
10
149.25
20
-86.25
11
149.25
21
-69.75
0
LINE
8
0
10
149.25
20
-69.75
11
131.75
21
-69.75
0
LINE
8
0
10
131.75
20
-69.75
11
131.75
21
-86.25
0
LINE
8
0
10
131.75
20
-69.25
11
149.25
21
-69.25
0
LINE
8
0
10
149.25
20
-69.25
11
149.25
21
-52.75
0
LINE
8
0
10
149.25
20
-52.75
11
131.75
21
-52.75
0
LINE
8
0
10
131.75
20
-52.75
11
131.75
21
-69.25
0
LINE
8
0
10
131.75
20
-52.25
11
149.25
21
-52.25
0
LINE
8
0
10
149.25
20
-52.25
11
149.25
21
-35.75
0
LINE
8
0
10
149.25
20
-35.75
11
131.75
21
-35.75
0
LINE
8
0
10
131.75
20
-35.75
11
131.75
21
-52.25
0
LINE
8
0
10
131.75
20
-35.25
11
149.25
21
-35.25
0
LINE
8
0
10
149.25
20
-35.25
11
149.25
21
-18.75
0
LINE
8
0
10
149.25
20
-18.75
11
131.75
21
-18.75
0
LINE
8
0
10
131.75
20
-18.75
11
131.75
21
-35.25
0
LINE
8
0
10
149.75
20
-100.25
11
167.25
21
-100.25
0
LINE
8
0
10
167.25
20
-100.25
11
167.25
21
-83.75
0
LINE
8
0
10
167.25
20
-83.75
11
149.75
21
-83.75
0
LINE
8
0
10
149.75
20
-83.75
11
149.75
21
-100.25
0
LINE
8
0
10
149.75
20
-83.25
11
167.25
21
-83.25
0
LINE
8
0
10
167.25
20
-83.25
11
167.25
21
-66.75
0
LINE
8
0
10
167.25
20
-66.75
11
149.75
21
-66.75
0
LINE
8
0
10
149.75
20
-66.75
11
149.75
21
-83.25
0
LINE
8
0
10
149.75
20
-66.25
11
167.25
21
-66.25
0
LINE
8
0
10
167.25
20
-66.25
11
167.25
21
-49.75
0
LINE
8
0
10
167.25
20
-49.75
11
149.75
21
-49.75
0
LINE
8
0
10
149.75
20
-49.75
11
149.75
21
-66.25
0
LINE
8
0
10
149.75
20
-49.25
11
167.25
21
-49.25
0
LINE
8
0
10
167.25
20
-49.25
11
167.25
21
-32.75
0
LINE
8
0
10
167.25
20
-32.75
11
149.75
21
-32.75
0
LINE
8
0
10
149.75
20
-32.75
11
149.75
21
-49.25
0
LINE
8
0
10
149.75
20
-32.25
11
167.25
21
-32.25
0
LINE
8
0
10
167.25
20
-32.25
11
167.25
21
-15.75
0
LINE
8
0
10
167.25
20
-15.75
11
149.75
21
-15.75
0
LINE
8
0
10
149.75
20
-15.75
11
149.75
21
-32.25
0
LINE
8
0
10
167.75
20
-103.25
11
185.25
21
-103.25
0
LINE
8
0
10
185.25
20
-103.25
11
185.25
21
-86.75
0
LINE
8
0
10
185.25
20
-86.75
11
167.75
21
-86.75
0
LINE
8
0
10
167.75
20
-86.75
11
167.75
21
-103.25
0
LINE
8
0
10
167.75
20
-86.25
11
185.25
21
-86.25
0
LINE
8
0
10
185.25
20
-86.25
11
185.25
21
-69.75
0
LINE
8
0
10
185.25
20
-69.75
11
167.75
21
-69.75
0
LINE
8
0
10
167.75
20
-69.75
11
167.75
21
-86.25
0
LINE
8
0
10
167.75
20
-69.25
11
185.25
21
-69.25
0
LINE
8
0
10
185.25
20
-69.25
11
185.25
21
-52.75
0
LINE
8
0
10
185.25
20
-52.75
11
167.75
21
-52.75
0
LINE
8
0
10
167.75
20
-52.75
11
167.75
21
-69.25
0
LINE
8
0
10
167.75
20
-52.25
11
185.25
21
-52.25
0
LINE
8
0
10
185.25
20
-52.25
11
185.25
21
-35.75
0
LINE
8
0
10
185.25
20
-35.75
11
167.75
21
-35.75
0
LINE
8
0
10
167.75
20
-35.75
11
167.75
21
-52.25
0
LINE
8
0
10
167.75
20
-35.25
11
185.25
21
-35.25
0
LINE
8
0
10
185.25
20
-35.25
11
185.25
21
-18.75
0
LINE
8
0
10
185.25
20
-18.75
11
167.75
21
-18.75
0
LINE
8
0
10
167.75
20
-18.75
11
167.75
21
-35.25
0
LINE
8
0
10
185.75
20
-89.25
11
203.25
21
-89.25
0
LINE
8
0
10
203.25
20
-89.25
11
203.25
21
-72.75
0
LINE
8
0
10
203.25
20
-72.75
11
185.75
21
-72.75
0
LINE
8
0
10
185.75
20
-72.75
11
185.75
21
-89.25
0
LINE
8
0
10
185.75
20
-72.25
11
203.25
21
-72.25
0
LINE
8
0
10
203.25
20
-72.25
11
203.25
21
-55.75
0
LINE
8
0
10
203.25
20
-55.75
11
185.75
21
-55.75
0
LINE
8
0
10
185.75
20
-55.75
11
185.75
21
-72.25
0
LINE
8
0
10
185.75
20
-55.25
11
203.25
21
-55.25
0
LINE
8
0
10
203.25
20
-55.25
11
203.25
21
-38.75
0
LINE
8
0
10
203.25
20
-38.75
11
185.75
21
-38.75
0
LINE
8
0
10
185.75
20
-38.75
11
185.75
21
-55.25
0
LINE
8
0
10
185.75
20
-38.25
11
203.25
21
-38.25
0
LINE
8
0
10
203.25
20
-38.25
11
203.25
21
-21.75
0
LINE
8
0
10
203.25
20
-21.75
11
185.75
21
-21.75
0
LINE
8
0
10
185.75
20
-21.75
11
185.75
21
-38.25
0
LINE
8
0
10
113.25
20
-91.25
11
113.25
21
-74.75
0
LINE
8
0
10
86.75
20
-74.75
11
86.75
21
-91.25
0
LINE
8
0
10
113.25
20
-74.25
11
113.25
21
-57.75
0
LINE
8
0
10
86.75
20
-57.75
11
86.75
21
-74.25
0
LINE
8
0
10
113.25
20
-57.25
11
113.25
21
-40.75
0
LINE
8
0
10
86.75
20
-40.75
11
86.75
21
-57.25
0
LINE
8
0
10
113.25
20
-40.25
11
113.25
21
-23.75
0
LINE
8
0
10
86.75
20
-23.75
11
86.75
21
-40.25
0
LINE
8
0
10
195.6222731
20
-123.0202676
11
208.8722731
21
-100.0705944
0
LINE
8
0
10
208.8722731
20
-100.0705944
11
194.5828539
21
-91.8205944
0
LINE
8
0
10
194.5828539
20
-91.8205944
11
181.3328539
21
-114.7702676
0
LINE
8
0
10
181.3328539
20
-114.7702676
11
195.6222731
21
-123.0202676
0
LINE
8
0
10
210.344705
20
-131.5202676
11
223.594705
21
-108.5705944
0
LINE
8
0
10
223.594705
20
-108.5705944
11
209.3052858
21
-100.3205944
0
LINE
8
0
10
209.3052858
20
-100.3205944
11
196.0552858
21
-123.2702676
0
LINE
8
0
10
196.0552858
20
-123.2702676
11
210.344705
21
-131.5202676
0
ENDSEC
0
EOF