0
SECTION
2
HEADER
9
$INSUNITS
70
4
0
ENDSEC
0
SECTION
2
TABLES
0
TABLE
2
LTYPE
0
LTYPE
72
65
70
64
2
CONTINUOUS
3
______
73
0
40
0
0
ENDTAB
0
TABLE
2
LAYER
0
ENDTAB
0
ENDSEC
0
SECTION
2
ENTITIES
0
LINE
8
0
10
91.25
20
-91.25
11
108.75
21
-91.25
0
LINE
8
0
10
108.75
20
-91.25
11
108.75
21
-74.75
0
LINE
8
0
10
108.75
20
-74.75
11
91.25
21
-74.75
0
LINE
8
0
10
91.25
20
-74.75
11
91.25
21
-91.25
0
LINE
8
0
10
91.25
20
-74.25
11
108.75
21
-74.25
0
LINE
8
0
10
108.75
20
-74.25
11
108.75
21
-57.75
0
LINE
8
0
10
108.75
20
-57.75
11
91.25
21
-57.75
0
LINE
8
0
10
91.25
20
-57.75
11
91.25
21
-74.25
0
LINE
8
0
10
91.25
20
-57.25
11
108.75
21
-57.25
0
LINE
8
0
10
108.75
20
-57.25
11
108.75
21
-40.75
0
LINE
8
0
10
108.75
20
-40.75
11
91.25
21
-40.75
0
LINE
8
0
10
91.25
20
-40.75
11
91.25
21
-57.25
0
LINE
8
0
10
91.25
20
-40.25
11
108.75
21
-40.25
0
LINE
8
0
10
108.75
20
-40.25
11
108.75
21
-23.75
0
LINE
8
0
10
108.75
20
-23.75
11
91.25
21
-23.75
0
LINE
8
0
10
91.25
20
-23.75
11
91.25
21
-40.25
0
LINE
8
0
10
113.75
20
-91.25
11
131.25
21
-91.25
0
LINE
8
0
10
131.25
20
-91.25
11
131.25
21
-74.75
0
LINE
8
0
10
131.25
20
-74.75
11
113.75
21
-74.75
0
LINE
8
0
10
113.75
20
-74.75
11
113.75
21
-91.25
0
LINE
8
0
10
113.75
20
-74.25
11
131.25
21
-74.25
0
LINE
8
0
10
131.25
20
-74.25
11
131.25
21
-57.75
0
LINE
8
0
10
131.25
20
-57.75
11
113.75
21
-57.75
0
LINE
8
0
10
113.75
20
-57.75
11
113.75
21
-74.25
0
LINE
8
0
10
113.75
20
-57.25
11
131.25
21
-57.25
0
LINE
8
0
10
131.25
20
-57.25
11
131.25
21
-40.75
0
LINE
8
0
10
131.25
20
-40.75
11
113.75
21
-40.75
0
LINE
8
0
10
113.75
20
-40.75
11
113.75
21
-57.25
0
LINE
8
0
10
113.75
20
-40.25
11
131.25
21
-40.25
0
LINE
8
0
10
131.25
20
-40.25
11
131.25
21
-23.75
0
LINE
8
0
10
131.25
20
-23.75
11
113.75
21
-23.75
0
LINE
8
0
10
113.75
20
-23.75
11
113.75
21
-40.25
0
LINE
8
0
10
131.75
20
-103.25
11
149.25
21
-103.25
0
LINE
8
0
10
149.25
20
-103.25
11
149.25
21
-86.75
0
LINE
8
0
10
149.25
20
-86.75
11
131.75
21
-86.75
0
LINE
8
0
10
131.75
20
-86.75
11
131.75
21
-103.25
0
LINE
8
0
10
131.75
20
-86.25
11
149.25
21
-86.25
0
LINE
8
0
10
149.25
20
-86.25
11
149.25
21
-69.75
0
LINE
8
0
10
149.25
20
-69.75
11
131.75
21
-69.75
0
LINE
8
0
10
131.75
20
-69.75
11
131.75
21
-86.25
0
LINE
8
0
10
131.75
20
-69.25
11
149.25
21
-69.25
0
LINE
8
0
10
149.25
20
-69.25
11
149.25
21
-52.75
0
LINE
8
0
10
149.25
20
-52.75
11
131.75
21
-52.75
0
LINE
8
0
10
131.75
20
-52.75
11
131.75
21
-69.25
0
LINE
8
0
10
131.75
20
-52.25
11
149.25
21
-52.25
0
LINE
8
0
10
149.25
20
-52.25
11
149.25
21
-35.75
0
LINE
8
0
10
149.25
20
-35.75
11
131.75
21
-35.75
0
LINE
8
0
10
131.75
20
-35.75
11
131.75
21
-52.25
0
LINE
8
0
10
131.75
20
-35.25
11
149.25
21
-35.25
0
LINE
8
0
10
149.25
20
-35.25
11
149.25
21
-18.75
0
LINE
8
0
10
149.25
20
-18.75
11
131.75
21
-18.75
0
LINE
8
0
10
131.75
20
-18.75
11
131.75
21
-35.25
0
LINE
8
0
10
149.75
20
-100.25
11
167.25
21
-100.25
0
LINE
8
0
10
167.25
20
-100.25
11
167.25
21
-83.75
0
LINE
8
0
10
167.25
20
-83.75
11
149.75
21
-83.75
0
LINE
8
0
10
149.75
20
-83.75
11
149.75
21
-100.25
0
LINE
8
0
10
149.75
20
-83.25
11
167.25
21
-83.25
0
LINE
8
0
10
167.25
20
-83.25
11
167.25
21
-66.75
0
LINE
8
0
10
167.25
20
-66.75
11
149.75
21
-66.75
0
LINE
8
0
10
149.75
20
-66.75
11
149.75
21
-83.25
0
LINE
8
0
10
149.75
20
-66.25
11
167.25
21
-66.25
0
LINE
8
0
10
167.25
20
-66.25
11
167.25
21
-49.75
0
LINE
8
0
10
167.25
20
-49.75
11
149.75
21
-49.75
0
LINE
8
0
10
149.75
20
-49.75
11
149.75
21
-66.25
0
LINE
8
0
10
149.75
20
-49.25
11
167.25
21
-49.25
0
LINE
8
0
10
167.25
20
-49.25
11
167.25
21
-32.75
0
LINE
8
0
10
167.25
20
-32.75
11
149.75
21
-32.75
0
LINE
8
0
10
149.75
20
-32.75
11
149.75
21
-49.25
0
LINE
8
0
10
149.75
20
-32.25
11
167.25
21
-32.25
0
LINE
8
0
10
167.25
20
-32.25
11
167.25
21
-15.75
0
LINE
8
0
10
167.25
20
-15.75
11
149.75
21
-15.75
0
LINE
8
0
10
149.75
20
-15.75
11
149.75
21
-32.25
0
LINE
8
0
10
167.75
20
-103.25
11
185.25
21
-103.25
0
LINE
8
0
10
185.25
20
-103.25
11
185.25
21
-86.75
0
LINE
8
0
10
185.25
20
-86.75
11
167.75
21
-86.75
0
LINE
8
0
10
167.75
20
-86.75
11
167.75
21
-103.25
0
LINE
8
0
10
167.75
20
-86.25
11
185.25
21
-86.25
0
LINE
8
0
10
185.25
20
-86.25
11
185.25
21
-69.75
0
LINE
8
0
10
185.25
20
-69.75
11
167.75
21
-69.75
0
LINE
8
0
10
167.75
20
-69.75
11
167.75
21
-86.25
0
LINE
8
0
10
167.75
20
-69.25
11
185.25
21
-69.25
0
LINE
8
0
10
185.25
20
-69.25
11
185.25
21
-52.75
0
LINE
8
0
10
185.25
20
-52.75
11
167.75
21
-52.75
0
LINE
8
0
10
167.75
20
-52.75
11
167.75
21
-69.25
0
LINE
8
0
10
167.75
20
-52.25
11
185.25
21
-52.25
0
LINE
8
0
10
185.25
20
-52.25
11
185.25
21
-35.75
0
LINE
8
0
10
185.25
20
-35.75
11
167.75
21
-35.75
0
LINE
8
0
10
167.75
20
-35.75
11
167.75
21
-52.25
0
LINE
8
0
10
167.75
20
-35.25
11
185.25
21
-35.25
0
LINE
8
0
10
185.25
20
-35.25
11
185.25
21
-18.75
0
LINE
8
0
10
185.25
20
-18.75
11
167.75
21
-18.75
0
LINE
8
0
10
167.75
20
-18.75
11
167.75
21
-35.25
0
LINE
8
0
10
185.75
20
-89.25
11
203.25
21
-89.25
0
LINE
8
0
10
203.25
20
-89.25
11
203.25
21
-72.75
0
LINE
8
0
10
203.25
20
-72.75
11
185.75
21
-72.75
0
LINE
8
0
10
185.75
20
-72.75
11
185.75
21
-89.25
0
LINE
8
0
10
185.75
20
-72.25
11
203.25
21
-72.25
0
LINE
8
0
10
203.25
20
-72.25
11
203.25
21
-55.75
0
LINE
8
0
10
203.25
20
-55.75
11
185.75
21
-55.75
0
LINE
8
0
10
185.75
20
-55.75
11
185.75
21
-72.25
0
LINE
8
0
10
185.75
20
-55.25
11
203.25
21
-55.25
0
LINE
8
0
10
203.25
20
-55.25
11
203.25
21
-38.75
0
LINE
8
0
10
203.25
20
-38.75
11
185.75
21
-38.75
0
LINE
8
0
10
185.75
20
-38.75
11
185.75
21
-55.25
0
LINE
8
0
10
185.75
20
-38.25
11
203.25
21
-38.25
0
LINE
8
0
10
203.25
20
-38.25
11
203.25
21
-21.75
0
LINE
8
0
10
203.25
20
-21.75
11
185.75
21
-21.75
0
LINE
8
0
10
185.75
20
-21.75
11
185.75
21
-38.25
0
LINE
8
0
10
183.3998412
20
-110.1901406
11
198.5552858
21
-118.9401406
0
LINE
8
0
10
198.5552858
20
-118.9401406
11
206.8052858
21
-104.6507214
0
LINE
8
0
10
206.8052858
20
-104.6507214
11
191.6498412
21
-95.9007214
0
LINE
8
0
10
191.6498412
20
-95.9007214
11
183.3998412
21
-110.1901406
0
LINE
8
0
10
198.9882985
20
-119.1901406
11
214.1437431
21
-127.9401406
0
LINE
8
0
10
214.1437431
20
-127.9401406
11
222.3937431
21
-113.6507214
0
LINE
8
0
10
222.3937431
20
-113.6507214
11
207.2382985
21
-104.9007214
0
LINE
8
0
10
207.2382985
20
-104.9007214
11
198.9882985
21
-119.1901406
0
LINE
8
0
10
357.6320416
20
-91.25
11
375.1320416
21
-91.25
0
LINE
8
0
10
375.1320416
20
-91.25
11
375.1320416
21
-74.75
0
LINE
8
0
10
375.1320416
20
-74.75
11
357.6320416
21
-74.75
0
LINE
8
0
10
357.6320416
20
-74.75
11
357.6320416
21
-91.25
0
LINE
8
0
10
357.6320416
20
-74.25
11
375.1320416
21
-74.25
0
LINE
8
0
10
375.1320416
20
-74.25
11
375.1320416
21
-57.75
0
LINE
8
0
10
375.1320416
20
-57.75
11
357.6320416
21
-57.75
0
LINE
8
0
10
357.6320416
20
-57.75
11
357.6320416
21
-74.25
0
LINE
8
0
10
357.6320416
20
-57.25
11
375.1320416
21
-57.25
0
LINE
8
0
10
375.1320416
20
-57.25
11
375.1320416
21
-40.75
0
LINE
8
0
10
375.1320416
20
-40.75
11
357.6320416
21
-40.75
0
LINE
8
0
10
357.6320416
20
-40.75
11
357.6320416
21
-57.25
0
LINE
8
0
10
357.6320416
20
-40.25
11
375.1320416
21
-40.25
0
LINE
8
0
10
375.1320416
20
-40.25
11
375.1320416
21
-23.75
0
LINE
8
0
10
375.1320416
20
-23.75
11
357.6320416
21
-23.75
0
LINE
8
0
10
357.6320416
20
-23.75
11
357.6320416
21
-40.25
0
LINE
8
0
10
335.1320416
20
-91.25
11
352.6320416
21
-91.25
0
LINE
8
0
10
352.6320416
20
-91.25
11
352.6320416
21
-74.75
0
LINE
8
0
10
352.6320416
20
-74.75
11
335.1320416
21
-74.75
0
LINE
8
0
10
335.1320416
20
-74.75
11
335.1320416
21
-91.25
0
LINE
8
0
10
335.1320416
20
-74.25
11
352.6320416
21
-74.25
0
LINE
8
0
10
352.6320416
20
-74.25
11
352.6320416
21
-57.75
0
LINE
8
0
10
352.6320416
20
-57.75
11
335.1320416
21
-57.75
0
LINE
8
0
10
335.1320416
20
-57.75
11
335.1320416
21
-74.25
0
LINE
8
0
10
335.1320416
20
-57.25
11
352.6320416
21
-57.25
0
LINE
8
0
10
352.6320416
20
-57.25
11
352.6320416
21
-40.75
0
LINE
8
0
10
352.6320416
20
-40.75
11
335.1320416
21
-40.75
0
LINE
8
0
10
335.1320416
20
-40.75
11
335.1320416
21
-57.25
0
LINE
8
0
10
335.1320416
20
-40.25
11
352.6320416
21
-40.25
0
LINE
8
0
10
352.6320416
20
-40.25
11
352.6320416
21
-23.75
0
LINE
8
0
10
352.6320416
20
-23.75
11
335.1320416
21
-23.75
0
LINE
8
0
10
335.1320416
20
-23.75
11
335.1320416
21
-40.25
0
LINE
8
0
10
317.1320416
20
-103.25
11
334.6320416
21
-103.25
0
LINE
8
0
10
334.6320416
20
-103.25
11
334.6320416
21
-86.75
0
LINE
8
0
10
334.6320416
20
-86.75
11
317.1320416
21
-86.75
0
LINE
8
0
10
317.1320416
20
-86.75
11
317.1320416
21
-103.25
0
LINE
8
0
10
317.1320416
20
-86.25
11
334.6320416
21
-86.25
0
LINE
8
0
10
334.6320416
20
-86.25
11
334.6320416
21
-69.75
0
LINE
8
0
10
334.6320416
20
-69.75
11
317.1320416
21
-69.75
0
LINE
8
0
10
317.1320416
20
-69.75
11
317.1320416
21
-86.25
0
LINE
8
0
10
317.1320416
20
-69.25
11
334.6320416
21
-69.25
0
LINE
8
0
10
334.6320416
20
-69.25
11
334.6320416
21
-52.75
0
LINE
8
0
10
334.6320416
20
-52.75
11
317.1320416
21
-52.75
0
LINE
8
0
10
317.1320416
20
-52.75
11
317.1320416
21
-69.25
0
LINE
8
0
10
317.1320416
20
-52.25
11
334.6320416
21
-52.25
0
LINE
8
0
10
334.6320416
20
-52.25
11
334.6320416
21
-35.75
0
LINE
8
0
10
334.6320416
20
-35.75
11
317.1320416
21
-35.75
0
LINE
8
0
10
317.1320416
20
-35.75
11
317.1320416
21
-52.25
0
LINE
8
0
10
317.1320416
20
-35.25
11
334.6320416
21
-35.25
0
LINE
8
0
10
334.6320416
20
-35.25
11
334.6320416
21
-18.75
0
LINE
8
0
10
334.6320416
20
-18.75
11
317.1320416
21
-18.75
0
LINE
8
0
10
317.1320416
20
-18.75
11
317.1320416
21
-35.25
0
LINE
8
0
10
299.1320416
20
-100.25
11
316.6320416
21
-100.25
0
LINE
8
0
10
316.6320416
20
-100.25
11
316.6320416
21
-83.75
0
LINE
8
0
10
316.6320416
20
-83.75
11
299.1320416
21
-83.75
0
LINE
8
0
10
299.1320416
20
-83.75
11
299.1320416
21
-100.25
0
LINE
8
0
10
299.1320416
20
-83.25
11
316.6320416
21
-83.25
0
LINE
8
0
10
316.6320416
20
-83.25
11
316.6320416
21
-66.75
0
LINE
8
0
10
316.6320416
20
-66.75
11
299.1320416
21
-66.75
0
LINE
8
0
10
299.1320416
20
-66.75
11
299.1320416
21
-83.25
0
LINE
8
0
10
299.1320416
20
-66.25
11
316.6320416
21
-66.25
0
LINE
8
0
10
316.6320416
20
-66.25
11
316.6320416
21
-49.75
0
LINE
8
0
10
316.6320416
20
-49.75
11
299.1320416
21
-49.75
0
LINE
8
0
10
299.1320416
20
-49.75
11
299.1320416
21
-66.25
0
LINE
8
0
10
299.1320416
20
-49.25
11
316.6320416
21
-49.25
0
LINE
8
0
10
316.6320416
20
-49.25
11
316.6320416
21
-32.75
0
LINE
8
0
10
316.6320416
20
-32.75
11
299.1320416
21
-32.75
0
LINE
8
0
10
299.1320416
20
-32.75
11
299.1320416
21
-49.25
0
LINE
8
0
10
299.1320416
20
-32.25
11
316.6320416
21
-32.25
0
LINE
8
0
10
316.6320416
20
-32.25
11
316.6320416
21
-15.75
0
LINE
8
0
10
316.6320416
20
-15.75
11
299.1320416
21
-15.75
0
LINE
8
0
10
299.1320416
20
-15.75
11
299.1320416
21
-32.25
0
LINE
8
0
10
281.1320416
20
-103.25
11
298.6320416
21
-103.25
0
LINE
8
0
10
298.6320416
20
-103.25
11
298.6320416
21
-86.75
0
LINE
8
0
10
298.6320416
20
-86.75
11
281.1320416
21
-86.75
0
LINE
8
0
10
281.1320416
20
-86.75
11
281.1320416
21
-103.25
0
LINE
8
0
10
281.1320416
20
-86.25
11
298.6320416
21
-86.25
0
LINE
8
0
10
298.6320416
20
-86.25
11
298.6320416
21
-69.75
0
LINE
8
0
10
298.6320416
20
-69.75
11
281.1320416
21
-69.75
0
LINE
8
0
10
281.1320416
20
-69.75
11
281.1320416
21
-86.25
0
LINE
8
0
10
281.1320416
20
-69.25
11
298.6320416
21
-69.25
0
LINE
8
0
10
298.6320416
20
-69.25
11
298.6320416
21
-52.75
0
LINE
8
0
10
298.6320416
20
-52.75
11
281.1320416
21
-52.75
0
LINE
8
0
10
281.1320416
20
-52.75
11
281.1320416
21
-69.25
0
LINE
8
0
10
281.1320416
20
-52.25
11
298.6320416
21
-52.25
0
LINE
8
0
10
298.6320416
20
-52.25
11
298.6320416
21
-35.75
0
LINE
8
0
10
298.6320416
20
-35.75
11
281.1320416
21
-35.75
0
LINE
8
0
10
281.1320416
20
-35.75
11
281.1320416
21
-52.25
0
LINE
8
0
10
281.1320416
20
-35.25
11
298.6320416
21
-35.25
0
LINE
8
0
10
298.6320416
20
-35.25
11
298.6320416
21
-18.75
0
LINE
8
0
10
298.6320416
20
-18.75
11
281.1320416
21
-18.75
0
LINE
8
0
10
281.1320416
20
-18.75
11
281.1320416
21
-35.25
0
LINE
8
0
10
263.1320416
20
-89.25
11
280.6320416
21
-89.25
0
LINE
8
0
10
280.6320416
20
-89.25
11
280.6320416
21
-72.75
0
LINE
8
0
10
280.6320416
20
-72.75
11
263.1320416
21
-72.75
0
LINE
8
0
10
263.1320416
20
-72.75
11
263.1320416
21
-89.25
0
LINE
8
0
10
263.1320416
20
-72.25
11
280.6320416
21
-72.25
0
LINE
8
0
10
280.6320416
20
-72.25
11
280.6320416
21
-55.75
0
LINE
8
0
10
280.6320416
20
-55.75
11
263.1320416
21
-55.75
0
LINE
8
0
10
263.1320416
20
-55.75
11
263.1320416
21
-72.25
0
LINE
8
0
10
263.1320416
20
-55.25
11
280.6320416
21
-55.25
0
LINE
8
0
10
280.6320416
20
-55.25
11
280.6320416
21
-38.75
0
LINE
8
0
10
280.6320416
20
-38.75
11
263.1320416
21
-38.75
0
LINE
8
0
10
263.1320416
20
-38.75
11
263.1320416
21
-55.25
0
LINE
8
0
10
263.1320416
20
-38.25
11
280.6320416
21
-38.25
0
LINE
8
0
10
280.6320416
20
-38.25
11
280.6320416
21
-21.75
0
LINE
8
0
10
280.6320416
20
-21.75
11
263.1320416
21
-21.75
0
LINE
8
0
10
263.1320416
20
-21.75
11
263.1320416
21
-38.25
0
LINE
8
0
10
267.8267558
20
-118.9401406
11
282.9822004
21
-110.1901406
0
LINE
8
0
10
282.9822004
20
-110.1901406
11
274.7322004
21
-95.9007214
0
LINE
8
0
10
274.7322004
20
-95.9007214
11
259.5767558
21
-104.6507214
0
LINE
8
0
10
259.5767558
20
-104.6507214
11
267.8267558
21
-118.9401406
0
LINE
8
0
10
252.2382985
20
-127.9401406
11
267.3937431
21
-119.1901406
0
LINE
8
0
10
267.3937431
20
-119.1901406
11
259.1437431
21
-104.9007214
0
LINE
8
0
10
259.1437431
20
-104.9007214
11
243.9882985
21
-113.6507214
0
LINE
8
0
10
243.9882985
20
-113.6507214
11
252.2382985
21
-127.9401406
0
ENDSEC
0
EOF