<svg width="154.754mm" height="113.5mm" viewBox="0 0 154.754 113.5" xmlns="http://www.w3.org/2000/svg"><g id="svgGroup" stroke-linecap="round" fill-rule="evenodd" font-size="9pt" stroke="#000" stroke-width="0.25mm" fill="none" style="stroke:#000;stroke-width:0.25mm;fill:none"><path d="M 0 72 L 26.5 72 L 26.5 55.5 L 0 55.5 L 0 72 Z M 0 53.5 L 26.5 53.5 L 26.5 37 L 0 37 L 0 53.5 Z M 0 35 L 26.5 35 L 26.5 18.5 L 0 18.5 L 0 35 Z M 0 16.5 L 26.5 16.5 L 26.5 0 L 0 0 L 0 16.5 Z M 125.882 105.259 L 137.081 81.242 L 122.127 74.269 L 110.928 98.286 L 125.882 105.259 Z M 143.555 113.5 L 154.754 89.483 L 139.8 82.51 L 128.601 106.527 L 143.555 113.5 Z" vector-effect="non-scaling-stroke"/></g></svg>