0
SECTION
2
HEADER
9
$INSUNITS
70
4
0
ENDSEC
0
SECTION
2
TABLES
0
TABLE
2
LTYPE
0
LTYPE
72
65
70
64
2
CONTINUOUS
3
______
73
0
40
0
0
ENDTAB
0
TABLE
2
LAYER
0
ENDTAB
0
ENDSEC
0
SECTION
2
ENTITIES
0
LINE
8
0
10
91.25
20
-91.25
11
108.75
21
-91.25
0
LINE
8
0
10
108.75
20
-91.25
11
108.75
21
-74.75
0
LINE
8
0
10
108.75
20
-74.75
11
91.25
21
-74.75
0
LINE
8
0
10
91.25
20
-74.75
11
91.25
21
-91.25
0
LINE
8
0
10
91.25
20
-74.25
11
108.75
21
-74.25
0
LINE
8
0
10
108.75
20
-74.25
11
108.75
21
-57.75
0
LINE
8
0
10
108.75
20
-57.75
11
91.25
21
-57.75
0
LINE
8
0
10
91.25
20
-57.75
11
91.25
21
-74.25
0
LINE
8
0
10
91.25
20
-57.25
11
108.75
21
-57.25
0
LINE
8
0
10
108.75
20
-57.25
11
108.75
21
-40.75
0
LINE
8
0
10
108.75
20
-40.75
11
91.25
21
-40.75
0
LINE
8
0
10
91.25
20
-40.75
11
91.25
21
-57.25
0
LINE
8
0
10
91.25
20
-40.25
11
108.75
21
-40.25
0
LINE
8
0
10
108.75
20
-40.25
11
108.75
21
-23.75
0
LINE
8
0
10
108.75
20
-23.75
11
91.25
21
-23.75
0
LINE
8
0
10
91.25
20
-23.75
11
91.25
21
-40.25
0
LINE
8
0
10
113.75
20
-91.25
11
131.25
21
-91.25
0
LINE
8
0
10
131.25
20
-91.25
11
131.25
21
-74.75
0
LINE
8
0
10
131.25
20
-74.75
11
113.75
21
-74.75
0
LINE
8
0
10
113.75
20
-74.75
11
113.75
21
-91.25
0
LINE
8
0
10
113.75
20
-74.25
11
131.25
21
-74.25
0
LINE
8
0
10
131.25
20
-74.25
11
131.25
21
-57.75
0
LINE
8
0
10
131.25
20
-57.75
11
113.75
21
-57.75
0
LINE
8
0
10
113.75
20
-57.75
11
113.75
21
-74.25
0
LINE
8
0
10
113.75
20
-57.25
11
131.25
21
-57.25
0
LINE
8
0
10
131.25
20
-57.25
11
131.25
21
-40.75
0
LINE
8
0
10
131.25
20
-40.75
11
113.75
21
-40.75
0
LINE
8
0
10
113.75
20
-40.75
11
113.75
21
-57.25
0
LINE
8
0
10
113.75
20
-40.25
11
131.25
21
-40.25
0
LINE
8
0
10
131.25
20
-40.25
11
131.25
21
-23.75
0
LINE
8
0
10
131.25
20
-23.75
11
113.75
21
-23.75
0
LINE
8
0
10
113.75
20
-23.75
11
113.75
21
-40.25
0
LINE
8
0
10
131.75
20
-103.25
11
149.25
21
-103.25
0
LINE
8
0
10
149.25
20
-103.25
11
149.25
21
-86.75
0
LINE
8
0
10
149.25
20
-86.75
11
131.75
21
-86.75
0
LINE
8
0
10
131.75
20
-86.75
11
131.75
21
-103.25
0
LINE
8
0
10
131.75
20
-86.25
11
149.25
21
-86.25
0
LINE
8
0
10
149.25
20
-86.25
11
149.25
21
-69.75
0
LINE
8
0
10
149.25
20
-69.75
11
131.75
21
-69.75
0
LINE
8
0
10
131.75
20
-69.75
11
131.75
21
-86.25
0
LINE
8
0
10
131.75
20
-69.25
11
149.25
21
-69.25
0
LINE
8
0
10
149.25
20
-69.25
11
149.25
21
-52.75
0
LINE
8
0
10
149.25
20
-52.75
11
131.75
21
-52.75
0
LINE
8
0
10
131.75
20
-52.75
11
131.75
21
-69.25
0
LINE
8
0
10
131.75
20
-52.25
11
149.25
21
-52.25
0
LINE
8
0
10
149.25
20
-52.25
11
149.25
21
-35.75
0
LINE
8
0
10
149.25
20
-35.75
11
131.75
21
-35.75
0
LINE
8
0
10
131.75
20
-35.75
11
131.75
21
-52.25
0
LINE
8
0
10
131.75
20
-35.25
11
149.25
21
-35.25
0
LINE
8
0
10
149.25
20
-35.25
11
149.25
21
-18.75
0
LINE
8
0
10
149.25
20
-18.75
11
131.75
21
-18.75
0
LINE
8
0
10
131.75
20
-18.75
11
131.75
21
-35.25
0
LINE
8
0
10
149.75
20
-100.25
11
167.25
21
-100.25
0
LINE
8
0
10
167.25
20
-100.25
11
167.25
21
-83.75
0
LINE
8
0
10
167.25
20
-83.75
11
149.75
21
-83.75
0
LINE
8
0
10
149.75
20
-83.75
11
149.75
21
-100.25
0
LINE
8
0
10
149.75
20
-83.25
11
167.25
21
-83.25
0
LINE
8
0
10
167.25
20
-83.25
11
167.25
21
-66.75
0
LINE
8
0
10
167.25
20
-66.75
11
149.75
21
-66.75
0
LINE
8
0
10
149.75
20
-66.75
11
149.75
21
-83.25
0
LINE
8
0
10
149.75
20
-66.25
11
167.25
21
-66.25
0
LINE
8
0
10
167.25
20
-66.25
11
167.25
21
-49.75
0
LINE
8
0
10
167.25
20
-49.75
11
149.75
21
-49.75
0
LINE
8
0
10
149.75
20
-49.75
11
149.75
21
-66.25
0
LINE
8
0
10
149.75
20
-49.25
11
167.25
21
-49.25
0
LINE
8
0
10
167.25
20
-49.25
11
167.25
21
-32.75
0
LINE
8
0
10
167.25
20
-32.75
11
149.75
21
-32.75
0
LINE
8
0
10
149.75
20
-32.75
11
149.75
21
-49.25
0
LINE
8
0
10
149.75
20
-32.25
11
167.25
21
-32.25
0
LINE
8
0
10
167.25
20
-32.25
11
167.25
21
-15.75
0
LINE
8
0
10
167.25
20
-15.75
11
149.75
21
-15.75
0
LINE
8
0
10
149.75
20
-15.75
11
149.75
21
-32.25
0
LINE
8
0
10
167.75
20
-103.25
11
185.25
21
-103.25
0
LINE
8
0
10
185.25
20
-103.25
11
185.25
21
-86.75
0
LINE
8
0
10
185.25
20
-86.75
11
167.75
21
-86.75
0
LINE
8
0
10
167.75
20
-86.75
11
167.75
21
-103.25
0
LINE
8
0
10
167.75
20
-86.25
11
185.25
21
-86.25
0
LINE
8
0
10
185.25
20
-86.25
11
185.25
21
-69.75
0
LINE
8
0
10
185.25
20
-69.75
11
167.75
21
-69.75
0
LINE
8
0
10
167.75
20
-69.75
11
167.75
21
-86.25
0
LINE
8
0
10
167.75
20
-69.25
11
185.25
21
-69.25
0
LINE
8
0
10
185.25
20
-69.25
11
185.25
21
-52.75
0
LINE
8
0
10
185.25
20
-52.75
11
167.75
21
-52.75
0
LINE
8
0
10
167.75
20
-52.75
11
167.75
21
-69.25
0
LINE
8
0
10
167.75
20
-52.25
11
185.25
21
-52.25
0
LINE
8
0
10
185.25
20
-52.25
11
185.25
21
-35.75
0
LINE
8
0
10
185.25
20
-35.75
11
167.75
21
-35.75
0
LINE
8
0
10
167.75
20
-35.75
11
167.75
21
-52.25
0
LINE
8
0
10
167.75
20
-35.25
11
185.25
21
-35.25
0
LINE
8
0
10
185.25
20
-35.25
11
185.25
21
-18.75
0
LINE
8
0
10
185.25
20
-18.75
11
167.75
21
-18.75
0
LINE
8
0
10
167.75
20
-18.75
11
167.75
21
-35.25
0
LINE
8
0
10
185.75
20
-89.25
11
203.25
21
-89.25
0
LINE
8
0
10
203.25
20
-89.25
11
203.25
21
-72.75
0
LINE
8
0
10
203.25
20
-72.75
11
185.75
21
-72.75
0
LINE
8
0
10
185.75
20
-72.75
11
185.75
21
-89.25
0
LINE
8
0
10
185.75
20
-72.25
11
203.25
21
-72.25
0
LINE
8
0
10
203.25
20
-72.25
11
203.25
21
-55.75
0
LINE
8
0
10
203.25
20
-55.75
11
185.75
21
-55.75
0
LINE
8
0
10
185.75
20
-55.75
11
185.75
21
-72.25
0
LINE
8
0
10
185.75
20
-55.25
11
203.25
21
-55.25
0
LINE
8
0
10
203.25
20
-55.25
11
203.25
21
-38.75
0
LINE
8
0
10
203.25
20
-38.75
11
185.75
21
-38.75
0
LINE
8
0
10
185.75
20
-38.75
11
185.75
21
-55.25
0
LINE
8
0
10
185.75
20
-38.25
11
203.25
21
-38.25
0
LINE
8
0
10
203.25
20
-38.25
11
203.25
21
-21.75
0
LINE
8
0
10
203.25
20
-21.75
11
185.75
21
-21.75
0
LINE
8
0
10
185.75
20
-21.75
11
185.75
21
-38.25
0
LINE
8
0
10
355.8999908
20
-91.25
11
373.3999908
21
-91.25
0
LINE
8
0
10
373.3999908
20
-91.25
11
373.3999908
21
-74.75
0
LINE
8
0
10
373.3999908
20
-74.75
11
355.8999908
21
-74.75
0
LINE
8
0
10
355.8999908
20
-74.75
11
355.8999908
21
-91.25
0
LINE
8
0
10
355.8999908
20
-74.25
11
373.3999908
21
-74.25
0
LINE
8
0
10
373.3999908
20
-74.25
11
373.3999908
21
-57.75
0
LINE
8
0
10
373.3999908
20
-57.75
11
355.8999908
21
-57.75
0
LINE
8
0
10
355.8999908
20
-57.75
11
355.8999908
21
-74.25
0
LINE
8
0
10
355.8999908
20
-57.25
11
373.3999908
21
-57.25
0
LINE
8
0
10
373.3999908
20
-57.25
11
373.3999908
21
-40.75
0
LINE
8
0
10
373.3999908
20
-40.75
11
355.8999908
21
-40.75
0
LINE
8
0
10
355.8999908
20
-40.75
11
355.8999908
21
-57.25
0
LINE
8
0
10
355.8999908
20
-40.25
11
373.3999908
21
-40.25
0
LINE
8
0
10
373.3999908
20
-40.25
11
373.3999908
21
-23.75
0
LINE
8
0
10
373.3999908
20
-23.75
11
355.8999908
21
-23.75
0
LINE
8
0
10
355.8999908
20
-23.75
11
355.8999908
21
-40.25
0
LINE
8
0
10
333.3999908
20
-91.25
11
350.8999908
21
-91.25
0
LINE
8
0
10
350.8999908
20
-91.25
11
350.8999908
21
-74.75
0
LINE
8
0
10
350.8999908
20
-74.75
11
333.3999908
21
-74.75
0
LINE
8
0
10
333.3999908
20
-74.75
11
333.3999908
21
-91.25
0
LINE
8
0
10
333.3999908
20
-74.25
11
350.8999908
21
-74.25
0
LINE
8
0
10
350.8999908
20
-74.25
11
350.8999908
21
-57.75
0
LINE
8
0
10
350.8999908
20
-57.75
11
333.3999908
21
-57.75
0
LINE
8
0
10
333.3999908
20
-57.75
11
333.3999908
21
-74.25
0
LINE
8
0
10
333.3999908
20
-57.25
11
350.8999908
21
-57.25
0
LINE
8
0
10
350.8999908
20
-57.25
11
350.8999908
21
-40.75
0
LINE
8
0
10
350.8999908
20
-40.75
11
333.3999908
21
-40.75
0
LINE
8
0
10
333.3999908
20
-40.75
11
333.3999908
21
-57.25
0
LINE
8
0
10
333.3999908
20
-40.25
11
350.8999908
21
-40.25
0
LINE
8
0
10
350.8999908
20
-40.25
11
350.8999908
21
-23.75
0
LINE
8
0
10
350.8999908
20
-23.75
11
333.3999908
21
-23.75
0
LINE
8
0
10
333.3999908
20
-23.75
11
333.3999908
21
-40.25
0
LINE
8
0
10
315.3999908
20
-103.25
11
332.8999908
21
-103.25
0
LINE
8
0
10
332.8999908
20
-103.25
11
332.8999908
21
-86.75
0
LINE
8
0
10
332.8999908
20
-86.75
11
315.3999908
21
-86.75
0
LINE
8
0
10
315.3999908
20
-86.75
11
315.3999908
21
-103.25
0
LINE
8
0
10
315.3999908
20
-86.25
11
332.8999908
21
-86.25
0
LINE
8
0
10
332.8999908
20
-86.25
11
332.8999908
21
-69.75
0
LINE
8
0
10
332.8999908
20
-69.75
11
315.3999908
21
-69.75
0
LINE
8
0
10
315.3999908
20
-69.75
11
315.3999908
21
-86.25
0
LINE
8
0
10
315.3999908
20
-69.25
11
332.8999908
21
-69.25
0
LINE
8
0
10
332.8999908
20
-69.25
11
332.8999908
21
-52.75
0
LINE
8
0
10
332.8999908
20
-52.75
11
315.3999908
21
-52.75
0
LINE
8
0
10
315.3999908
20
-52.75
11
315.3999908
21
-69.25
0
LINE
8
0
10
315.3999908
20
-52.25
11
332.8999908
21
-52.25
0
LINE
8
0
10
332.8999908
20
-52.25
11
332.8999908
21
-35.75
0
LINE
8
0
10
332.8999908
20
-35.75
11
315.3999908
21
-35.75
0
LINE
8
0
10
315.3999908
20
-35.75
11
315.3999908
21
-52.25
0
LINE
8
0
10
315.3999908
20
-35.25
11
332.8999908
21
-35.25
0
LINE
8
0
10
332.8999908
20
-35.25
11
332.8999908
21
-18.75
0
LINE
8
0
10
332.8999908
20
-18.75
11
315.3999908
21
-18.75
0
LINE
8
0
10
315.3999908
20
-18.75
11
315.3999908
21
-35.25
0
LINE
8
0
10
297.3999908
20
-100.25
11
314.8999908
21
-100.25
0
LINE
8
0
10
314.8999908
20
-100.25
11
314.8999908
21
-83.75
0
LINE
8
0
10
314.8999908
20
-83.75
11
297.3999908
21
-83.75
0
LINE
8
0
10
297.3999908
20
-83.75
11
297.3999908
21
-100.25
0
LINE
8
0
10
297.3999908
20
-83.25
11
314.8999908
21
-83.25
0
LINE
8
0
10
314.8999908
20
-83.25
11
314.8999908
21
-66.75
0
LINE
8
0
10
314.8999908
20
-66.75
11
297.3999908
21
-66.75
0
LINE
8
0
10
297.3999908
20
-66.75
11
297.3999908
21
-83.25
0
LINE
8
0
10
297.3999908
20
-66.25
11
314.8999908
21
-66.25
0
LINE
8
0
10
314.8999908
20
-66.25
11
314.8999908
21
-49.75
0
LINE
8
0
10
314.8999908
20
-49.75
11
297.3999908
21
-49.75
0
LINE
8
0
10
297.3999908
20
-49.75
11
297.3999908
21
-66.25
0
LINE
8
0
10
297.3999908
20
-49.25
11
314.8999908
21
-49.25
0
LINE
8
0
10
314.8999908
20
-49.25
11
314.8999908
21
-32.75
0
LINE
8
0
10
314.8999908
20
-32.75
11
297.3999908
21
-32.75
0
LINE
8
0
10
297.3999908
20
-32.75
11
297.3999908
21
-49.25
0
LINE
8
0
10
297.3999908
20
-32.25
11
314.8999908
21
-32.25
0
LINE
8
0
10
314.8999908
20
-32.25
11
314.8999908
21
-15.75
0
LINE
8
0
10
314.8999908
20
-15.75
11
297.3999908
21
-15.75
0
LINE
8
0
10
297.3999908
20
-15.75
11
297.3999908
21
-32.25
0
LINE
8
0
10
279.3999908
20
-103.25
11
296.8999908
21
-103.25
0
LINE
8
0
10
296.8999908
20
-103.25
11
296.8999908
21
-86.75
0
LINE
8
0
10
296.8999908
20
-86.75
11
279.3999908
21
-86.75
0
LINE
8
0
10
279.3999908
20
-86.75
11
279.3999908
21
-103.25
0
LINE
8
0
10
279.3999908
20
-86.25
11
296.8999908
21
-86.25
0
LINE
8
0
10
296.8999908
20
-86.25
11
296.8999908
21
-69.75
0
LINE
8
0
10
296.8999908
20
-69.75
11
279.3999908
21
-69.75
0
LINE
8
0
10
279.3999908
20
-69.75
11
279.3999908
21
-86.25
0
LINE
8
0
10
279.3999908
20
-69.25
11
296.8999908
21
-69.25
0
LINE
8
0
10
296.8999908
20
-69.25
11
296.8999908
21
-52.75
0
LINE
8
0
10
296.8999908
20
-52.75
11
279.3999908
21
-52.75
0
LINE
8
0
10
279.3999908
20
-52.75
11
279.3999908
21
-69.25
0
LINE
8
0
10
279.3999908
20
-52.25
11
296.8999908
21
-52.25
0
LINE
8
0
10
296.8999908
20
-52.25
11
296.8999908
21
-35.75
0
LINE
8
0
10
296.8999908
20
-35.75
11
279.3999908
21
-35.75
0
LINE
8
0
10
279.3999908
20
-35.75
11
279.3999908
21
-52.25
0
LINE
8
0
10
279.3999908
20
-35.25
11
296.8999908
21
-35.25
0
LINE
8
0
10
296.8999908
20
-35.25
11
296.8999908
21
-18.75
0
LINE
8
0
10
296.8999908
20
-18.75
11
279.3999908
21
-18.75
0
LINE
8
0
10
279.3999908
20
-18.75
11
279.3999908
21
-35.25
0
LINE
8
0
10
261.3999908
20
-89.25
11
278.8999908
21
-89.25
0
LINE
8
0
10
278.8999908
20
-89.25
11
278.8999908
21
-72.75
0
LINE
8
0
10
278.8999908
20
-72.75
11
261.3999908
21
-72.75
0
LINE
8
0
10
261.3999908
20
-72.75
11
261.3999908
21
-89.25
0
LINE
8
0
10
261.3999908
20
-72.25
11
278.8999908
21
-72.25
0
LINE
8
0
10
278.8999908
20
-72.25
11
278.8999908
21
-55.75
0
LINE
8
0
10
278.8999908
20
-55.75
11
261.3999908
21
-55.75
0
LINE
8
0
10
261.3999908
20
-55.75
11
261.3999908
21
-72.25
0
LINE
8
0
10
261.3999908
20
-55.25
11
278.8999908
21
-55.25
0
LINE
8
0
10
278.8999908
20
-55.25
11
278.8999908
21
-38.75
0
LINE
8
0
10
278.8999908
20
-38.75
11
261.3999908
21
-38.75
0
LINE
8
0
10
261.3999908
20
-38.75
11
261.3999908
21
-55.25
0
LINE
8
0
10
261.3999908
20
-38.25
11
278.8999908
21
-38.25
0
LINE
8
0
10
278.8999908
20
-38.25
11
278.8999908
21
-21.75
0
LINE
8
0
10
278.8999908
20
-21.75
11
261.3999908
21
-21.75
0
LINE
8
0
10
261.3999908
20
-21.75
11
261.3999908
21
-38.25
0
ENDSEC
0
EOF