0
SECTION
2
HEADER
9
$INSUNITS
70
4
0
ENDSEC
0
SECTION
2
TABLES
0
TABLE
2
LTYPE
0
LTYPE
72
65
70
64
2
CONTINUOUS
3
______
73
0
40
0
0
ENDTAB
0
TABLE
2
LAYER
0
ENDTAB
0
ENDSEC
0
SECTION
2
ENTITIES
0
LINE
8
0
10
26.75
20
-100.5
11
53.25
21
-100.5
0
LINE
8
0
10
53.25
20
-100.5
11
53.25
21
-84
0
LINE
8
0
10
53.25
20
-84
11
26.75
21
-84
0
LINE
8
0
10
26.75
20
-84
11
26.75
21
-100.5
0
LINE
8
0
10
26.75
20
-82.75
11
53.25
21
-82.75
0
LINE
8
0
10
53.25
20
-82.75
11
53.25
21
-66.25
0
LINE
8
0
10
53.25
20
-66.25
11
26.75
21
-66.25
0
LINE
8
0
10
26.75
20
-66.25
11
26.75
21
-82.75
0
LINE
8
0
10
26.75
20
-65
11
53.25
21
-65
0
LINE
8
0
10
53.25
20
-65
11
53.25
21
-48.5
0
LINE
8
0
10
53.25
20
-48.5
11
26.75
21
-48.5
0
LINE
8
0
10
26.75
20
-48.5
11
26.75
21
-65
0
LINE
8
0
10
26.75
20
-47.25
11
53.25
21
-47.25
0
LINE
8
0
10
53.25
20
-47.25
11
53.25
21
-30.75
0
LINE
8
0
10
53.25
20
-30.75
11
26.75
21
-30.75
0
LINE
8
0
10
26.75
20
-30.75
11
26.75
21
-47.25
0
LINE
8
0
10
138.6222731
20
-133.0202676
11
151.8722731
21
-110.0705944
0
LINE
8
0
10
151.8722731
20
-110.0705944
11
137.5828539
21
-101.8205944
0
LINE
8
0
10
137.5828539
20
-101.8205944
11
124.3328539
21
-124.7702676
0
LINE
8
0
10
124.3328539
20
-124.7702676
11
138.6222731
21
-133.0202676
0
LINE
8
0
10
153.344705
20
-141.5202676
11
166.594705
21
-118.5705944
0
LINE
8
0
10
166.594705
20
-118.5705944
11
152.3052858
21
-110.3205944
0
LINE
8
0
10
152.3052858
20
-110.3205944
11
139.0552858
21
-133.2702676
0
LINE
8
0
10
139.0552858
20
-133.2702676
11
153.344705
21
-141.5202676
0
LINE
8
0
10
297.3999908
20
-100.5
11
323.8999908
21
-100.5
0
LINE
8
0
10
323.8999908
20
-100.5
11
323.8999908
21
-84
0
LINE
8
0
10
323.8999908
20
-84
11
297.3999908
21
-84
0
LINE
8
0
10
297.3999908
20
-84
11
297.3999908
21
-100.5
0
LINE
8
0
10
297.3999908
20
-82.75
11
323.8999908
21
-82.75
0
LINE
8
0
10
323.8999908
20
-82.75
11
323.8999908
21
-66.25
0
LINE
8
0
10
323.8999908
20
-66.25
11
297.3999908
21
-66.25
0
LINE
8
0
10
297.3999908
20
-66.25
11
297.3999908
21
-82.75
0
LINE
8
0
10
297.3999908
20
-65
11
323.8999908
21
-65
0
LINE
8
0
10
323.8999908
20
-65
11
323.8999908
21
-48.5
0
LINE
8
0
10
323.8999908
20
-48.5
11
297.3999908
21
-48.5
0
LINE
8
0
10
297.3999908
20
-48.5
11
297.3999908
21
-65
0
LINE
8
0
10
297.3999908
20
-47.25
11
323.8999908
21
-47.25
0
LINE
8
0
10
323.8999908
20
-47.25
11
323.8999908
21
-30.75
0
LINE
8
0
10
323.8999908
20
-30.75
11
297.3999908
21
-30.75
0
LINE
8
0
10
297.3999908
20
-30.75
11
297.3999908
21
-47.25
0
LINE
8
0
10
198.7777177
20
-110.0705944
11
212.0277177
21
-133.0202676
0
LINE
8
0
10
212.0277177
20
-133.0202676
11
226.3171369
21
-124.7702676
0
LINE
8
0
10
226.3171369
20
-124.7702676
11
213.0671369
21
-101.8205944
0
LINE
8
0
10
213.0671369
20
-101.8205944
11
198.7777177
21
-110.0705944
0
LINE
8
0
10
184.0552858
20
-118.5705944
11
197.3052858
21
-141.5202676
0
LINE
8
0
10
197.3052858
20
-141.5202676
11
211.594705
21
-133.2702676
0
LINE
8
0
10
211.594705
20
-133.2702676
11
198.344705
21
-110.3205944
0
LINE
8
0
10
198.344705
20
-110.3205944
11
184.0552858
21
-118.5705944
0
ENDSEC
0
EOF