0
SECTION
2
HEADER
9
$INSUNITS
70
4
0
ENDSEC
0
SECTION
2
TABLES
0
TABLE
2
LTYPE
0
LTYPE
72
65
70
64
2
CONTINUOUS
3
______
73
0
40
0
0
ENDTAB
0
TABLE
2
LAYER
0
ENDTAB
0
ENDSEC
0
SECTION
2
ENTITIES
0
LINE
8
0
10
31.25
20
-99.75
11
48.75
21
-99.75
0
LINE
8
0
10
48.75
20
-99.75
11
48.75
21
-83.25
0
LINE
8
0
10
48.75
20
-83.25
11
31.25
21
-83.25
0
LINE
8
0
10
31.25
20
-83.25
11
31.25
21
-99.75
0
LINE
8
0
10
31.25
20
-81.25
11
48.75
21
-81.25
0
LINE
8
0
10
48.75
20
-81.25
11
48.75
21
-64.75
0
LINE
8
0
10
48.75
20
-64.75
11
31.25
21
-64.75
0
LINE
8
0
10
31.25
20
-64.75
11
31.25
21
-81.25
0
LINE
8
0
10
31.25
20
-62.75
11
48.75
21
-62.75
0
LINE
8
0
10
48.75
20
-62.75
11
48.75
21
-46.25
0
LINE
8
0
10
48.75
20
-46.25
11
31.25
21
-46.25
0
LINE
8
0
10
31.25
20
-46.25
11
31.25
21
-62.75
0
LINE
8
0
10
31.25
20
-44.25
11
48.75
21
-44.25
0
LINE
8
0
10
48.75
20
-44.25
11
48.75
21
-27.75
0
LINE
8
0
10
48.75
20
-27.75
11
31.25
21
-27.75
0
LINE
8
0
10
31.25
20
-27.75
11
31.25
21
-44.25
0
LINE
8
0
10
54.75
20
-99.75
11
72.25
21
-99.75
0
LINE
8
0
10
72.25
20
-99.75
11
72.25
21
-83.25
0
LINE
8
0
10
72.25
20
-83.25
11
54.75
21
-83.25
0
LINE
8
0
10
54.75
20
-83.25
11
54.75
21
-99.75
0
LINE
8
0
10
54.75
20
-81.25
11
72.25
21
-81.25
0
LINE
8
0
10
72.25
20
-81.25
11
72.25
21
-64.75
0
LINE
8
0
10
72.25
20
-64.75
11
54.75
21
-64.75
0
LINE
8
0
10
54.75
20
-64.75
11
54.75
21
-81.25
0
LINE
8
0
10
54.75
20
-62.75
11
72.25
21
-62.75
0
LINE
8
0
10
72.25
20
-62.75
11
72.25
21
-46.25
0
LINE
8
0
10
72.25
20
-46.25
11
54.75
21
-46.25
0
LINE
8
0
10
54.75
20
-46.25
11
54.75
21
-62.75
0
LINE
8
0
10
54.75
20
-44.25
11
72.25
21
-44.25
0
LINE
8
0
10
72.25
20
-44.25
11
72.25
21
-27.75
0
LINE
8
0
10
72.25
20
-27.75
11
54.75
21
-27.75
0
LINE
8
0
10
54.75
20
-27.75
11
54.75
21
-44.25
0
LINE
8
0
10
74.25
20
-113.25
11
91.75
21
-113.25
0
LINE
8
0
10
91.75
20
-113.25
11
91.75
21
-96.75
0
LINE
8
0
10
91.75
20
-96.75
11
74.25
21
-96.75
0
LINE
8
0
10
74.25
20
-96.75
11
74.25
21
-113.25
0
LINE
8
0
10
74.25
20
-94.75
11
91.75
21
-94.75
0
LINE
8
0
10
91.75
20
-94.75
11
91.75
21
-78.25
0
LINE
8
0
10
91.75
20
-78.25
11
74.25
21
-78.25
0
LINE
8
0
10
74.25
20
-78.25
11
74.25
21
-94.75
0
LINE
8
0
10
74.25
20
-76.25
11
91.75
21
-76.25
0
LINE
8
0
10
91.75
20
-76.25
11
91.75
21
-59.75
0
LINE
8
0
10
91.75
20
-59.75
11
74.25
21
-59.75
0
LINE
8
0
10
74.25
20
-59.75
11
74.25
21
-76.25
0
LINE
8
0
10
74.25
20
-57.75
11
91.75
21
-57.75
0
LINE
8
0
10
91.75
20
-57.75
11
91.75
21
-41.25
0
LINE
8
0
10
91.75
20
-41.25
11
74.25
21
-41.25
0
LINE
8
0
10
74.25
20
-41.25
11
74.25
21
-57.75
0
LINE
8
0
10
74.25
20
-39.25
11
91.75
21
-39.25
0
LINE
8
0
10
91.75
20
-39.25
11
91.75
21
-22.75
0
LINE
8
0
10
91.75
20
-22.75
11
74.25
21
-22.75
0
LINE
8
0
10
74.25
20
-22.75
11
74.25
21
-39.25
0
LINE
8
0
10
93.75
20
-110.25
11
111.25
21
-110.25
0
LINE
8
0
10
111.25
20
-110.25
11
111.25
21
-93.75
0
LINE
8
0
10
111.25
20
-93.75
11
93.75
21
-93.75
0
LINE
8
0
10
93.75
20
-93.75
11
93.75
21
-110.25
0
LINE
8
0
10
93.75
20
-91.75
11
111.25
21
-91.75
0
LINE
8
0
10
111.25
20
-91.75
11
111.25
21
-75.25
0
LINE
8
0
10
111.25
20
-75.25
11
93.75
21
-75.25
0
LINE
8
0
10
93.75
20
-75.25
11
93.75
21
-91.75
0
LINE
8
0
10
93.75
20
-73.25
11
111.25
21
-73.25
0
LINE
8
0
10
111.25
20
-73.25
11
111.25
21
-56.75
0
LINE
8
0
10
111.25
20
-56.75
11
93.75
21
-56.75
0
LINE
8
0
10
93.75
20
-56.75
11
93.75
21
-73.25
0
LINE
8
0
10
93.75
20
-54.75
11
111.25
21
-54.75
0
LINE
8
0
10
111.25
20
-54.75
11
111.25
21
-38.25
0
LINE
8
0
10
111.25
20
-38.25
11
93.75
21
-38.25
0
LINE
8
0
10
93.75
20
-38.25
11
93.75
21
-54.75
0
LINE
8
0
10
93.75
20
-36.25
11
111.25
21
-36.25
0
LINE
8
0
10
111.25
20
-36.25
11
111.25
21
-19.75
0
LINE
8
0
10
111.25
20
-19.75
11
93.75
21
-19.75
0
LINE
8
0
10
93.75
20
-19.75
11
93.75
21
-36.25
0
LINE
8
0
10
113.25
20
-113.25
11
130.75
21
-113.25
0
LINE
8
0
10
130.75
20
-113.25
11
130.75
21
-96.75
0
LINE
8
0
10
130.75
20
-96.75
11
113.25
21
-96.75
0
LINE
8
0
10
113.25
20
-96.75
11
113.25
21
-113.25
0
LINE
8
0
10
113.25
20
-94.75
11
130.75
21
-94.75
0
LINE
8
0
10
130.75
20
-94.75
11
130.75
21
-78.25
0
LINE
8
0
10
130.75
20
-78.25
11
113.25
21
-78.25
0
LINE
8
0
10
113.25
20
-78.25
11
113.25
21
-94.75
0
LINE
8
0
10
113.25
20
-76.25
11
130.75
21
-76.25
0
LINE
8
0
10
130.75
20
-76.25
11
130.75
21
-59.75
0
LINE
8
0
10
130.75
20
-59.75
11
113.25
21
-59.75
0
LINE
8
0
10
113.25
20
-59.75
11
113.25
21
-76.25
0
LINE
8
0
10
113.25
20
-57.75
11
130.75
21
-57.75
0
LINE
8
0
10
130.75
20
-57.75
11
130.75
21
-41.25
0
LINE
8
0
10
130.75
20
-41.25
11
113.25
21
-41.25
0
LINE
8
0
10
113.25
20
-41.25
11
113.25
21
-57.75
0
LINE
8
0
10
113.25
20
-39.25
11
130.75
21
-39.25
0
LINE
8
0
10
130.75
20
-39.25
11
130.75
21
-22.75
0
LINE
8
0
10
130.75
20
-22.75
11
113.25
21
-22.75
0
LINE
8
0
10
113.25
20
-22.75
11
113.25
21
-39.25
0
LINE
8
0
10
132.75
20
-97.75
11
150.25
21
-97.75
0
LINE
8
0
10
150.25
20
-97.75
11
150.25
21
-81.25
0
LINE
8
0
10
150.25
20
-81.25
11
132.75
21
-81.25
0
LINE
8
0
10
132.75
20
-81.25
11
132.75
21
-97.75
0
LINE
8
0
10
132.75
20
-79.25
11
150.25
21
-79.25
0
LINE
8
0
10
150.25
20
-79.25
11
150.25
21
-62.75
0
LINE
8
0
10
150.25
20
-62.75
11
132.75
21
-62.75
0
LINE
8
0
10
132.75
20
-62.75
11
132.75
21
-79.25
0
LINE
8
0
10
132.75
20
-60.75
11
150.25
21
-60.75
0
LINE
8
0
10
150.25
20
-60.75
11
150.25
21
-44.25
0
LINE
8
0
10
150.25
20
-44.25
11
132.75
21
-44.25
0
LINE
8
0
10
132.75
20
-44.25
11
132.75
21
-60.75
0
LINE
8
0
10
132.75
20
-42.25
11
150.25
21
-42.25
0
LINE
8
0
10
150.25
20
-42.25
11
150.25
21
-25.75
0
LINE
8
0
10
150.25
20
-25.75
11
132.75
21
-25.75
0
LINE
8
0
10
132.75
20
-25.75
11
132.75
21
-42.25
0
ENDSEC
0
EOF