0
SECTION
2
HEADER
9
$INSUNITS
70
4
0
ENDSEC
0
SECTION
2
TABLES
0
TABLE
2
LTYPE
0
LTYPE
72
65
70
64
2
CONTINUOUS
3
______
73
0
40
0
0
ENDTAB
0
TABLE
2
LAYER
0
ENDTAB
0
ENDSEC
0
SECTION
2
ENTITIES
0
LINE
8
0
10
86.75
20
-91.25
11
113.25
21
-91.25
0
LINE
8
0
10
113.25
20
-91.25
11
113.25
21
-74.75
0
LINE
8
0
10
113.25
20
-74.75
11
86.75
21
-74.75
0
LINE
8
0
10
86.75
20
-74.75
11
86.75
21
-91.25
0
LINE
8
0
10
86.75
20
-74.25
11
113.25
21
-74.25
0
LINE
8
0
10
113.25
20
-74.25
11
113.25
21
-57.75
0
LINE
8
0
10
113.25
20
-57.75
11
86.75
21
-57.75
0
LINE
8
0
10
86.75
20
-57.75
11
86.75
21
-74.25
0
LINE
8
0
10
86.75
20
-57.25
11
113.25
21
-57.25
0
LINE
8
0
10
113.25
20
-57.25
11
113.25
21
-40.75
0
LINE
8
0
10
113.25
20
-40.75
11
86.75
21
-40.75
0
LINE
8
0
10
86.75
20
-40.75
11
86.75
21
-57.25
0
LINE
8
0
10
86.75
20
-40.25
11
113.25
21
-40.25
0
LINE
8
0
10
113.25
20
-40.25
11
113.25
21
-23.75
0
LINE
8
0
10
113.25
20
-23.75
11
86.75
21
-23.75
0
LINE
8
0
10
86.75
20
-23.75
11
86.75
21
-40.25
0
LINE
8
0
10
195.6222731
20
-123.0202676
11
208.8722731
21
-100.0705944
0
LINE
8
0
10
208.8722731
20
-100.0705944
11
194.5828539
21
-91.8205944
0
LINE
8
0
10
194.5828539
20
-91.8205944
11
181.3328539
21
-114.7702676
0
LINE
8
0
10
181.3328539
20
-114.7702676
11
195.6222731
21
-123.0202676
0
LINE
8
0
10
210.344705
20
-131.5202676
11
223.594705
21
-108.5705944
0
LINE
8
0
10
223.594705
20
-108.5705944
11
209.3052858
21
-100.3205944
0
LINE
8
0
10
209.3052858
20
-100.3205944
11
196.0552858
21
-123.2702676
0
LINE
8
0
10
196.0552858
20
-123.2702676
11
210.344705
21
-131.5202676
0
LINE
8
0
10
351.3999908
20
-91.25
11
377.8999908
21
-91.25
0
LINE
8
0
10
377.8999908
20
-91.25
11
377.8999908
21
-74.75
0
LINE
8
0
10
377.8999908
20
-74.75
11
351.3999908
21
-74.75
0
LINE
8
0
10
351.3999908
20
-74.75
11
351.3999908
21
-91.25
0
LINE
8
0
10
351.3999908
20
-74.25
11
377.8999908
21
-74.25
0
LINE
8
0
10
377.8999908
20
-74.25
11
377.8999908
21
-57.75
0
LINE
8
0
10
377.8999908
20
-57.75
11
351.3999908
21
-57.75
0
LINE
8
0
10
351.3999908
20
-57.75
11
351.3999908
21
-74.25
0
LINE
8
0
10
351.3999908
20
-57.25
11
377.8999908
21
-57.25
0
LINE
8
0
10
377.8999908
20
-57.25
11
377.8999908
21
-40.75
0
LINE
8
0
10
377.8999908
20
-40.75
11
351.3999908
21
-40.75
0
LINE
8
0
10
351.3999908
20
-40.75
11
351.3999908
21
-57.25
0
LINE
8
0
10
351.3999908
20
-40.25
11
377.8999908
21
-40.25
0
LINE
8
0
10
377.8999908
20
-40.25
11
377.8999908
21
-23.75
0
LINE
8
0
10
377.8999908
20
-23.75
11
351.3999908
21
-23.75
0
LINE
8
0
10
351.3999908
20
-23.75
11
351.3999908
21
-40.25
0
LINE
8
0
10
255.7777177
20
-100.0705944
11
269.0277177
21
-123.0202676
0
LINE
8
0
10
269.0277177
20
-123.0202676
11
283.3171369
21
-114.7702676
0
LINE
8
0
10
283.3171369
20
-114.7702676
11
270.0671369
21
-91.8205944
0
LINE
8
0
10
270.0671369
20
-91.8205944
11
255.7777177
21
-100.0705944
0
LINE
8
0
10
241.0552858
20
-108.5705944
11
254.3052858
21
-131.5202676
0
LINE
8
0
10
254.3052858
20
-131.5202676
11
268.594705
21
-123.2702676
0
LINE
8
0
10
268.594705
20
-123.2702676
11
255.344705
21
-100.3205944
0
LINE
8
0
10
255.344705
20
-100.3205944
11
241.0552858
21
-108.5705944
0
ENDSEC
0
EOF