0
SECTION
2
HEADER
9
$INSUNITS
70
4
0
ENDSEC
0
SECTION
2
TABLES
0
TABLE
2
LTYPE
0
LTYPE
72
65
70
64
2
CONTINUOUS
3
______
73
0
40
0
0
ENDTAB
0
TABLE
2
LAYER
0
ENDTAB
0
ENDSEC
0
SECTION
2
ENTITIES
0
LINE
8
0
10
-5.25
20
-91.25
11
21.25
21
-91.25
0
LINE
8
0
10
-5.25
20
-74.75
11
21.25
21
-74.75
0
LINE
8
0
10
-5.25
20
-74.25
11
21.25
21
-74.25
0
LINE
8
0
10
-5.25
20
-57.75
11
21.25
21
-57.75
0
LINE
8
0
10
-5.25
20
-57.25
11
21.25
21
-57.25
0
LINE
8
0
10
-5.25
20
-40.75
11
21.25
21
-40.75
0
LINE
8
0
10
-5.25
20
-40.25
11
21.25
21
-40.25
0
LINE
8
0
10
-5.25
20
-23.75
11
21.25
21
-23.75
0
LINE
8
0
10
21.75
20
-91.25
11
39.25
21
-91.25
0
LINE
8
0
10
39.25
20
-91.25
11
39.25
21
-74.75
0
LINE
8
0
10
39.25
20
-74.75
11
21.75
21
-74.75
0
LINE
8
0
10
21.75
20
-74.75
11
21.75
21
-91.25
0
LINE
8
0
10
21.75
20
-74.25
11
39.25
21
-74.25
0
LINE
8
0
10
39.25
20
-74.25
11
39.25
21
-57.75
0
LINE
8
0
10
39.25
20
-57.75
11
21.75
21
-57.75
0
LINE
8
0
10
21.75
20
-57.75
11
21.75
21
-74.25
0
LINE
8
0
10
21.75
20
-57.25
11
39.25
21
-57.25
0
LINE
8
0
10
39.25
20
-57.25
11
39.25
21
-40.75
0
LINE
8
0
10
39.25
20
-40.75
11
21.75
21
-40.75
0
LINE
8
0
10
21.75
20
-40.75
11
21.75
21
-57.25
0
LINE
8
0
10
21.75
20
-40.25
11
39.25
21
-40.25
0
LINE
8
0
10
39.25
20
-40.25
11
39.25
21
-23.75
0
LINE
8
0
10
39.25
20
-23.75
11
21.75
21
-23.75
0
LINE
8
0
10
21.75
20
-23.75
11
21.75
21
-40.25
0
LINE
8
0
10
39.75
20
-103.25
11
57.25
21
-103.25
0
LINE
8
0
10
57.25
20
-103.25
11
57.25
21
-86.75
0
LINE
8
0
10
57.25
20
-86.75
11
39.75
21
-86.75
0
LINE
8
0
10
39.75
20
-86.75
11
39.75
21
-103.25
0
LINE
8
0
10
39.75
20
-86.25
11
57.25
21
-86.25
0
LINE
8
0
10
57.25
20
-86.25
11
57.25
21
-69.75
0
LINE
8
0
10
57.25
20
-69.75
11
39.75
21
-69.75
0
LINE
8
0
10
39.75
20
-69.75
11
39.75
21
-86.25
0
LINE
8
0
10
39.75
20
-69.25
11
57.25
21
-69.25
0
LINE
8
0
10
57.25
20
-69.25
11
57.25
21
-52.75
0
LINE
8
0
10
57.25
20
-52.75
11
39.75
21
-52.75
0
LINE
8
0
10
39.75
20
-52.75
11
39.75
21
-69.25
0
LINE
8
0
10
39.75
20
-52.25
11
57.25
21
-52.25
0
LINE
8
0
10
57.25
20
-52.25
11
57.25
21
-35.75
0
LINE
8
0
10
57.25
20
-35.75
11
39.75
21
-35.75
0
LINE
8
0
10
39.75
20
-35.75
11
39.75
21
-52.25
0
LINE
8
0
10
39.75
20
-35.25
11
57.25
21
-35.25
0
LINE
8
0
10
57.25
20
-35.25
11
57.25
21
-18.75
0
LINE
8
0
10
57.25
20
-18.75
11
39.75
21
-18.75
0
LINE
8
0
10
39.75
20
-18.75
11
39.75
21
-35.25
0
LINE
8
0
10
57.75
20
-100.25
11
75.25
21
-100.25
0
LINE
8
0
10
75.25
20
-100.25
11
75.25
21
-83.75
0
LINE
8
0
10
75.25
20
-83.75
11
57.75
21
-83.75
0
LINE
8
0
10
57.75
20
-83.75
11
57.75
21
-100.25
0
LINE
8
0
10
57.75
20
-83.25
11
75.25
21
-83.25
0
LINE
8
0
10
75.25
20
-83.25
11
75.25
21
-66.75
0
LINE
8
0
10
75.25
20
-66.75
11
57.75
21
-66.75
0
LINE
8
0
10
57.75
20
-66.75
11
57.75
21
-83.25
0
LINE
8
0
10
57.75
20
-66.25
11
75.25
21
-66.25
0
LINE
8
0
10
75.25
20
-66.25
11
75.25
21
-49.75
0
LINE
8
0
10
75.25
20
-49.75
11
57.75
21
-49.75
0
LINE
8
0
10
57.75
20
-49.75
11
57.75
21
-66.25
0
LINE
8
0
10
57.75
20
-49.25
11
75.25
21
-49.25
0
LINE
8
0
10
75.25
20
-49.25
11
75.25
21
-32.75
0
LINE
8
0
10
75.25
20
-32.75
11
57.75
21
-32.75
0
LINE
8
0
10
57.75
20
-32.75
11
57.75
21
-49.25
0
LINE
8
0
10
57.75
20
-32.25
11
75.25
21
-32.25
0
LINE
8
0
10
75.25
20
-32.25
11
75.25
21
-15.75
0
LINE
8
0
10
75.25
20
-15.75
11
57.75
21
-15.75
0
LINE
8
0
10
57.75
20
-15.75
11
57.75
21
-32.25
0
LINE
8
0
10
75.75
20
-103.25
11
93.25
21
-103.25
0
LINE
8
0
10
93.25
20
-103.25
11
93.25
21
-86.75
0
LINE
8
0
10
93.25
20
-86.75
11
75.75
21
-86.75
0
LINE
8
0
10
75.75
20
-86.75
11
75.75
21
-103.25
0
LINE
8
0
10
75.75
20
-86.25
11
93.25
21
-86.25
0
LINE
8
0
10
93.25
20
-86.25
11
93.25
21
-69.75
0
LINE
8
0
10
93.25
20
-69.75
11
75.75
21
-69.75
0
LINE
8
0
10
75.75
20
-69.75
11
75.75
21
-86.25
0
LINE
8
0
10
75.75
20
-69.25
11
93.25
21
-69.25
0
LINE
8
0
10
93.25
20
-69.25
11
93.25
21
-52.75
0
LINE
8
0
10
93.25
20
-52.75
11
75.75
21
-52.75
0
LINE
8
0
10
75.75
20
-52.75
11
75.75
21
-69.25
0
LINE
8
0
10
75.75
20
-52.25
11
93.25
21
-52.25
0
LINE
8
0
10
93.25
20
-52.25
11
93.25
21
-35.75
0
LINE
8
0
10
93.25
20
-35.75
11
75.75
21
-35.75
0
LINE
8
0
10
75.75
20
-35.75
11
75.75
21
-52.25
0
LINE
8
0
10
75.75
20
-35.25
11
93.25
21
-35.25
0
LINE
8
0
10
93.25
20
-35.25
11
93.25
21
-18.75
0
LINE
8
0
10
93.25
20
-18.75
11
75.75
21
-18.75
0
LINE
8
0
10
75.75
20
-18.75
11
75.75
21
-35.25
0
LINE
8
0
10
93.75
20
-89.25
11
111.25
21
-89.25
0
LINE
8
0
10
111.25
20
-89.25
11
111.25
21
-72.75
0
LINE
8
0
10
111.25
20
-72.75
11
93.75
21
-72.75
0
LINE
8
0
10
93.75
20
-72.75
11
93.75
21
-89.25
0
LINE
8
0
10
93.75
20
-72.25
11
111.25
21
-72.25
0
LINE
8
0
10
111.25
20
-72.25
11
111.25
21
-55.75
0
LINE
8
0
10
111.25
20
-55.75
11
93.75
21
-55.75
0
LINE
8
0
10
93.75
20
-55.75
11
93.75
21
-72.25
0
LINE
8
0
10
93.75
20
-55.25
11
111.25
21
-55.25
0
LINE
8
0
10
111.25
20
-55.25
11
111.25
21
-38.75
0
LINE
8
0
10
111.25
20
-38.75
11
93.75
21
-38.75
0
LINE
8
0
10
93.75
20
-38.75
11
93.75
21
-55.25
0
LINE
8
0
10
93.75
20
-38.25
11
111.25
21
-38.25
0
LINE
8
0
10
111.25
20
-38.25
11
111.25
21
-21.75
0
LINE
8
0
10
111.25
20
-21.75
11
93.75
21
-21.75
0
LINE
8
0
10
93.75
20
-21.75
11
93.75
21
-38.25
0
LINE
8
0
10
259.3999908
20
-91.25
11
285.8999908
21
-91.25
0
LINE
8
0
10
259.3999908
20
-74.75
11
285.8999908
21
-74.75
0
LINE
8
0
10
259.3999908
20
-74.25
11
285.8999908
21
-74.25
0
LINE
8
0
10
259.3999908
20
-57.75
11
285.8999908
21
-57.75
0
LINE
8
0
10
259.3999908
20
-57.25
11
285.8999908
21
-57.25
0
LINE
8
0
10
259.3999908
20
-40.75
11
285.8999908
21
-40.75
0
LINE
8
0
10
259.3999908
20
-40.25
11
285.8999908
21
-40.25
0
LINE
8
0
10
259.3999908
20
-23.75
11
285.8999908
21
-23.75
0
LINE
8
0
10
241.3999908
20
-91.25
11
258.8999908
21
-91.25
0
LINE
8
0
10
258.8999908
20
-91.25
11
258.8999908
21
-74.75
0
LINE
8
0
10
258.8999908
20
-74.75
11
241.3999908
21
-74.75
0
LINE
8
0
10
241.3999908
20
-74.75
11
241.3999908
21
-91.25
0
LINE
8
0
10
241.3999908
20
-74.25
11
258.8999908
21
-74.25
0
LINE
8
0
10
258.8999908
20
-74.25
11
258.8999908
21
-57.75
0
LINE
8
0
10
258.8999908
20
-57.75
11
241.3999908
21
-57.75
0
LINE
8
0
10
241.3999908
20
-57.75
11
241.3999908
21
-74.25
0
LINE
8
0
10
241.3999908
20
-57.25
11
258.8999908
21
-57.25
0
LINE
8
0
10
258.8999908
20
-57.25
11
258.8999908
21
-40.75
0
LINE
8
0
10
258.8999908
20
-40.75
11
241.3999908
21
-40.75
0
LINE
8
0
10
241.3999908
20
-40.75
11
241.3999908
21
-57.25
0
LINE
8
0
10
241.3999908
20
-40.25
11
258.8999908
21
-40.25
0
LINE
8
0
10
258.8999908
20
-40.25
11
258.8999908
21
-23.75
0
LINE
8
0
10
258.8999908
20
-23.75
11
241.3999908
21
-23.75
0
LINE
8
0
10
241.3999908
20
-23.75
11
241.3999908
21
-40.25
0
LINE
8
0
10
223.3999908
20
-103.25
11
240.8999908
21
-103.25
0
LINE
8
0
10
240.8999908
20
-103.25
11
240.8999908
21
-86.75
0
LINE
8
0
10
240.8999908
20
-86.75
11
223.3999908
21
-86.75
0
LINE
8
0
10
223.3999908
20
-86.75
11
223.3999908
21
-103.25
0
LINE
8
0
10
223.3999908
20
-86.25
11
240.8999908
21
-86.25
0
LINE
8
0
10
240.8999908
20
-86.25
11
240.8999908
21
-69.75
0
LINE
8
0
10
240.8999908
20
-69.75
11
223.3999908
21
-69.75
0
LINE
8
0
10
223.3999908
20
-69.75
11
223.3999908
21
-86.25
0
LINE
8
0
10
223.3999908
20
-69.25
11
240.8999908
21
-69.25
0
LINE
8
0
10
240.8999908
20
-69.25
11
240.8999908
21
-52.75
0
LINE
8
0
10
240.8999908
20
-52.75
11
223.3999908
21
-52.75
0
LINE
8
0
10
223.3999908
20
-52.75
11
223.3999908
21
-69.25
0
LINE
8
0
10
223.3999908
20
-52.25
11
240.8999908
21
-52.25
0
LINE
8
0
10
240.8999908
20
-52.25
11
240.8999908
21
-35.75
0
LINE
8
0
10
240.8999908
20
-35.75
11
223.3999908
21
-35.75
0
LINE
8
0
10
223.3999908
20
-35.75
11
223.3999908
21
-52.25
0
LINE
8
0
10
223.3999908
20
-35.25
11
240.8999908
21
-35.25
0
LINE
8
0
10
240.8999908
20
-35.25
11
240.8999908
21
-18.75
0
LINE
8
0
10
240.8999908
20
-18.75
11
223.3999908
21
-18.75
0
LINE
8
0
10
223.3999908
20
-18.75
11
223.3999908
21
-35.25
0
LINE
8
0
10
205.3999908
20
-100.25
11
222.8999908
21
-100.25
0
LINE
8
0
10
222.8999908
20
-100.25
11
222.8999908
21
-83.75
0
LINE
8
0
10
222.8999908
20
-83.75
11
205.3999908
21
-83.75
0
LINE
8
0
10
205.3999908
20
-83.75
11
205.3999908
21
-100.25
0
LINE
8
0
10
205.3999908
20
-83.25
11
222.8999908
21
-83.25
0
LINE
8
0
10
222.8999908
20
-83.25
11
222.8999908
21
-66.75
0
LINE
8
0
10
222.8999908
20
-66.75
11
205.3999908
21
-66.75
0
LINE
8
0
10
205.3999908
20
-66.75
11
205.3999908
21
-83.25
0
LINE
8
0
10
205.3999908
20
-66.25
11
222.8999908
21
-66.25
0
LINE
8
0
10
222.8999908
20
-66.25
11
222.8999908
21
-49.75
0
LINE
8
0
10
222.8999908
20
-49.75
11
205.3999908
21
-49.75
0
LINE
8
0
10
205.3999908
20
-49.75
11
205.3999908
21
-66.25
0
LINE
8
0
10
205.3999908
20
-49.25
11
222.8999908
21
-49.25
0
LINE
8
0
10
222.8999908
20
-49.25
11
222.8999908
21
-32.75
0
LINE
8
0
10
222.8999908
20
-32.75
11
205.3999908
21
-32.75
0
LINE
8
0
10
205.3999908
20
-32.75
11
205.3999908
21
-49.25
0
LINE
8
0
10
205.3999908
20
-32.25
11
222.8999908
21
-32.25
0
LINE
8
0
10
222.8999908
20
-32.25
11
222.8999908
21
-15.75
0
LINE
8
0
10
222.8999908
20
-15.75
11
205.3999908
21
-15.75
0
LINE
8
0
10
205.3999908
20
-15.75
11
205.3999908
21
-32.25
0
LINE
8
0
10
187.3999908
20
-103.25
11
204.8999908
21
-103.25
0
LINE
8
0
10
204.8999908
20
-103.25
11
204.8999908
21
-86.75
0
LINE
8
0
10
204.8999908
20
-86.75
11
187.3999908
21
-86.75
0
LINE
8
0
10
187.3999908
20
-86.75
11
187.3999908
21
-103.25
0
LINE
8
0
10
187.3999908
20
-86.25
11
204.8999908
21
-86.25
0
LINE
8
0
10
204.8999908
20
-86.25
11
204.8999908
21
-69.75
0
LINE
8
0
10
204.8999908
20
-69.75
11
187.3999908
21
-69.75
0
LINE
8
0
10
187.3999908
20
-69.75
11
187.3999908
21
-86.25
0
LINE
8
0
10
187.3999908
20
-69.25
11
204.8999908
21
-69.25
0
LINE
8
0
10
204.8999908
20
-69.25
11
204.8999908
21
-52.75
0
LINE
8
0
10
204.8999908
20
-52.75
11
187.3999908
21
-52.75
0
LINE
8
0
10
187.3999908
20
-52.75
11
187.3999908
21
-69.25
0
LINE
8
0
10
187.3999908
20
-52.25
11
204.8999908
21
-52.25
0
LINE
8
0
10
204.8999908
20
-52.25
11
204.8999908
21
-35.75
0
LINE
8
0
10
204.8999908
20
-35.75
11
187.3999908
21
-35.75
0
LINE
8
0
10
187.3999908
20
-35.75
11
187.3999908
21
-52.25
0
LINE
8
0
10
187.3999908
20
-35.25
11
204.8999908
21
-35.25
0
LINE
8
0
10
204.8999908
20
-35.25
11
204.8999908
21
-18.75
0
LINE
8
0
10
204.8999908
20
-18.75
11
187.3999908
21
-18.75
0
LINE
8
0
10
187.3999908
20
-18.75
11
187.3999908
21
-35.25
0
LINE
8
0
10
169.3999908
20
-89.25
11
186.8999908
21
-89.25
0
LINE
8
0
10
186.8999908
20
-89.25
11
186.8999908
21
-72.75
0
LINE
8
0
10
186.8999908
20
-72.75
11
169.3999908
21
-72.75
0
LINE
8
0
10
169.3999908
20
-72.75
11
169.3999908
21
-89.25
0
LINE
8
0
10
169.3999908
20
-72.25
11
186.8999908
21
-72.25
0
LINE
8
0
10
186.8999908
20
-72.25
11
186.8999908
21
-55.75
0
LINE
8
0
10
186.8999908
20
-55.75
11
169.3999908
21
-55.75
0
LINE
8
0
10
169.3999908
20
-55.75
11
169.3999908
21
-72.25
0
LINE
8
0
10
169.3999908
20
-55.25
11
186.8999908
21
-55.25
0
LINE
8
0
10
186.8999908
20
-55.25
11
186.8999908
21
-38.75
0
LINE
8
0
10
186.8999908
20
-38.75
11
169.3999908
21
-38.75
0
LINE
8
0
10
169.3999908
20
-38.75
11
169.3999908
21
-55.25
0
LINE
8
0
10
169.3999908
20
-38.25
11
186.8999908
21
-38.25
0
LINE
8
0
10
186.8999908
20
-38.25
11
186.8999908
21
-21.75
0
LINE
8
0
10
186.8999908
20
-21.75
11
169.3999908
21
-21.75
0
LINE
8
0
10
169.3999908
20
-21.75
11
169.3999908
21
-38.25
0
LINE
8
0
10
21.25
20
-91.25
11
21.25
21
-74.75
0
LINE
8
0
10
-5.25
20
-74.75
11
-5.25
21
-91.25
0
LINE
8
0
10
21.25
20
-74.25
11
21.25
21
-57.75
0
LINE
8
0
10
-5.25
20
-57.75
11
-5.25
21
-74.25
0
LINE
8
0
10
21.25
20
-57.25
11
21.25
21
-40.75
0
LINE
8
0
10
-5.25
20
-40.75
11
-5.25
21
-57.25
0
LINE
8
0
10
21.25
20
-40.25
11
21.25
21
-23.75
0
LINE
8
0
10
-5.25
20
-23.75
11
-5.25
21
-40.25
0
LINE
8
0
10
103.6222731
20
-123.0202676
11
116.8722731
21
-100.0705944
0
LINE
8
0
10
116.8722731
20
-100.0705944
11
102.5828539
21
-91.8205944
0
LINE
8
0
10
102.5828539
20
-91.8205944
11
89.3328539
21
-114.7702676
0
LINE
8
0
10
89.3328539
20
-114.7702676
11
103.6222731
21
-123.0202676
0
LINE
8
0
10
118.344705
20
-131.5202676
11
131.594705
21
-108.5705944
0
LINE
8
0
10
131.594705
20
-108.5705944
11
117.3052858
21
-100.3205944
0
LINE
8
0
10
117.3052858
20
-100.3205944
11
104.0552858
21
-123.2702676
0
LINE
8
0
10
104.0552858
20
-123.2702676
11
118.344705
21
-131.5202676
0
LINE
8
0
10
285.8999908
20
-91.25
11
285.8999908
21
-74.75
0
LINE
8
0
10
259.3999908
20
-74.75
11
259.3999908
21
-91.25
0
LINE
8
0
10
285.8999908
20
-74.25
11
285.8999908
21
-57.75
0
LINE
8
0
10
259.3999908
20
-57.75
11
259.3999908
21
-74.25
0
LINE
8
0
10
285.8999908
20
-57.25
11
285.8999908
21
-40.75
0
LINE
8
0
10
259.3999908
20
-40.75
11
259.3999908
21
-57.25
0
LINE
8
0
10
285.8999908
20
-40.25
11
285.8999908
21
-23.75
0
LINE
8
0
10
259.3999908
20
-23.75
11
259.3999908
21
-40.25
0
LINE
8
0
10
163.7777177
20
-100.0705944
11
177.0277177
21
-123.0202676
0
LINE
8
0
10
177.0277177
20
-123.0202676
11
191.3171369
21
-114.7702676
0
LINE
8
0
10
191.3171369
20
-114.7702676
11
178.0671369
21
-91.8205944
0
LINE
8
0
10
178.0671369
20
-91.8205944
11
163.7777177
21
-100.0705944
0
LINE
8
0
10
149.0552858
20
-108.5705944
11
162.3052858
21
-131.5202676
0
LINE
8
0
10
162.3052858
20
-131.5202676
11
176.594705
21
-123.2702676
0
LINE
8
0
10
176.594705
20
-123.2702676
11
163.344705
21
-100.3205944
0
LINE
8
0
10
163.344705
20
-100.3205944
11
149.0552858
21
-108.5705944
0
ENDSEC
0
EOF