0
SECTION
2
HEADER
9
$INSUNITS
70
4
0
ENDSEC
0
SECTION
2
TABLES
0
TABLE
2
LTYPE
0
LTYPE
72
65
70
64
2
CONTINUOUS
3
______
73
0
40
0
0
ENDTAB
0
TABLE
2
LAYER
0
ENDTAB
0
ENDSEC
0
SECTION
2
ENTITIES
0
LINE
8
0
10
31.25
20
-100.5
11
48.75
21
-100.5
0
LINE
8
0
10
48.75
20
-100.5
11
48.75
21
-84
0
LINE
8
0
10
48.75
20
-84
11
31.25
21
-84
0
LINE
8
0
10
31.25
20
-84
11
31.25
21
-100.5
0
LINE
8
0
10
31.25
20
-82.75
11
48.75
21
-82.75
0
LINE
8
0
10
48.75
20
-82.75
11
48.75
21
-66.25
0
LINE
8
0
10
48.75
20
-66.25
11
31.25
21
-66.25
0
LINE
8
0
10
31.25
20
-66.25
11
31.25
21
-82.75
0
LINE
8
0
10
31.25
20
-65
11
48.75
21
-65
0
LINE
8
0
10
48.75
20
-65
11
48.75
21
-48.5
0
LINE
8
0
10
48.75
20
-48.5
11
31.25
21
-48.5
0
LINE
8
0
10
31.25
20
-48.5
11
31.25
21
-65
0
LINE
8
0
10
31.25
20
-47.25
11
48.75
21
-47.25
0
LINE
8
0
10
48.75
20
-47.25
11
48.75
21
-30.75
0
LINE
8
0
10
48.75
20
-30.75
11
31.25
21
-30.75
0
LINE
8
0
10
31.25
20
-30.75
11
31.25
21
-47.25
0
LINE
8
0
10
53.75
20
-100.5
11
71.25
21
-100.5
0
LINE
8
0
10
71.25
20
-100.5
11
71.25
21
-84
0
LINE
8
0
10
71.25
20
-84
11
53.75
21
-84
0
LINE
8
0
10
53.75
20
-84
11
53.75
21
-100.5
0
LINE
8
0
10
53.75
20
-82.75
11
71.25
21
-82.75
0
LINE
8
0
10
71.25
20
-82.75
11
71.25
21
-66.25
0
LINE
8
0
10
71.25
20
-66.25
11
53.75
21
-66.25
0
LINE
8
0
10
53.75
20
-66.25
11
53.75
21
-82.75
0
LINE
8
0
10
53.75
20
-65
11
71.25
21
-65
0
LINE
8
0
10
71.25
20
-65
11
71.25
21
-48.5
0
LINE
8
0
10
71.25
20
-48.5
11
53.75
21
-48.5
0
LINE
8
0
10
53.75
20
-48.5
11
53.75
21
-65
0
LINE
8
0
10
53.75
20
-47.25
11
71.25
21
-47.25
0
LINE
8
0
10
71.25
20
-47.25
11
71.25
21
-30.75
0
LINE
8
0
10
71.25
20
-30.75
11
53.75
21
-30.75
0
LINE
8
0
10
53.75
20
-30.75
11
53.75
21
-47.25
0
LINE
8
0
10
72.5
20
-113.25
11
90
21
-113.25
0
LINE
8
0
10
90
20
-113.25
11
90
21
-96.75
0
LINE
8
0
10
90
20
-96.75
11
72.5
21
-96.75
0
LINE
8
0
10
72.5
20
-96.75
11
72.5
21
-113.25
0
LINE
8
0
10
72.5
20
-95.5
11
90
21
-95.5
0
LINE
8
0
10
90
20
-95.5
11
90
21
-79
0
LINE
8
0
10
90
20
-79
11
72.5
21
-79
0
LINE
8
0
10
72.5
20
-79
11
72.5
21
-95.5
0
LINE
8
0
10
72.5
20
-77.75
11
90
21
-77.75
0
LINE
8
0
10
90
20
-77.75
11
90
21
-61.25
0
LINE
8
0
10
90
20
-61.25
11
72.5
21
-61.25
0
LINE
8
0
10
72.5
20
-61.25
11
72.5
21
-77.75
0
LINE
8
0
10
72.5
20
-60
11
90
21
-60
0
LINE
8
0
10
90
20
-60
11
90
21
-43.5
0
LINE
8
0
10
90
20
-43.5
11
72.5
21
-43.5
0
LINE
8
0
10
72.5
20
-43.5
11
72.5
21
-60
0
LINE
8
0
10
72.5
20
-42.25
11
90
21
-42.25
0
LINE
8
0
10
90
20
-42.25
11
90
21
-25.75
0
LINE
8
0
10
90
20
-25.75
11
72.5
21
-25.75
0
LINE
8
0
10
72.5
20
-25.75
11
72.5
21
-42.25
0
LINE
8
0
10
91.25
20
-110.25
11
108.75
21
-110.25
0
LINE
8
0
10
108.75
20
-110.25
11
108.75
21
-93.75
0
LINE
8
0
10
108.75
20
-93.75
11
91.25
21
-93.75
0
LINE
8
0
10
91.25
20
-93.75
11
91.25
21
-110.25
0
LINE
8
0
10
91.25
20
-92.5
11
108.75
21
-92.5
0
LINE
8
0
10
108.75
20
-92.5
11
108.75
21
-76
0
LINE
8
0
10
108.75
20
-76
11
91.25
21
-76
0
LINE
8
0
10
91.25
20
-76
11
91.25
21
-92.5
0
LINE
8
0
10
91.25
20
-74.75
11
108.75
21
-74.75
0
LINE
8
0
10
108.75
20
-74.75
11
108.75
21
-58.25
0
LINE
8
0
10
108.75
20
-58.25
11
91.25
21
-58.25
0
LINE
8
0
10
91.25
20
-58.25
11
91.25
21
-74.75
0
LINE
8
0
10
91.25
20
-57
11
108.75
21
-57
0
LINE
8
0
10
108.75
20
-57
11
108.75
21
-40.5
0
LINE
8
0
10
108.75
20
-40.5
11
91.25
21
-40.5
0
LINE
8
0
10
91.25
20
-40.5
11
91.25
21
-57
0
LINE
8
0
10
91.25
20
-39.25
11
108.75
21
-39.25
0
LINE
8
0
10
108.75
20
-39.25
11
108.75
21
-22.75
0
LINE
8
0
10
108.75
20
-22.75
11
91.25
21
-22.75
0
LINE
8
0
10
91.25
20
-22.75
11
91.25
21
-39.25
0
LINE
8
0
10
110
20
-113.25
11
127.5
21
-113.25
0
LINE
8
0
10
127.5
20
-113.25
11
127.5
21
-96.75
0
LINE
8
0
10
127.5
20
-96.75
11
110
21
-96.75
0
LINE
8
0
10
110
20
-96.75
11
110
21
-113.25
0
LINE
8
0
10
110
20
-95.5
11
127.5
21
-95.5
0
LINE
8
0
10
127.5
20
-95.5
11
127.5
21
-79
0
LINE
8
0
10
127.5
20
-79
11
110
21
-79
0
LINE
8
0
10
110
20
-79
11
110
21
-95.5
0
LINE
8
0
10
110
20
-77.75
11
127.5
21
-77.75
0
LINE
8
0
10
127.5
20
-77.75
11
127.5
21
-61.25
0
LINE
8
0
10
127.5
20
-61.25
11
110
21
-61.25
0
LINE
8
0
10
110
20
-61.25
11
110
21
-77.75
0
LINE
8
0
10
110
20
-60
11
127.5
21
-60
0
LINE
8
0
10
127.5
20
-60
11
127.5
21
-43.5
0
LINE
8
0
10
127.5
20
-43.5
11
110
21
-43.5
0
LINE
8
0
10
110
20
-43.5
11
110
21
-60
0
LINE
8
0
10
110
20
-42.25
11
127.5
21
-42.25
0
LINE
8
0
10
127.5
20
-42.25
11
127.5
21
-25.75
0
LINE
8
0
10
127.5
20
-25.75
11
110
21
-25.75
0
LINE
8
0
10
110
20
-25.75
11
110
21
-42.25
0
LINE
8
0
10
128.75
20
-98.5
11
146.25
21
-98.5
0
LINE
8
0
10
146.25
20
-98.5
11
146.25
21
-82
0
LINE
8
0
10
146.25
20
-82
11
128.75
21
-82
0
LINE
8
0
10
128.75
20
-82
11
128.75
21
-98.5
0
LINE
8
0
10
128.75
20
-80.75
11
146.25
21
-80.75
0
LINE
8
0
10
146.25
20
-80.75
11
146.25
21
-64.25
0
LINE
8
0
10
146.25
20
-64.25
11
128.75
21
-64.25
0
LINE
8
0
10
128.75
20
-64.25
11
128.75
21
-80.75
0
LINE
8
0
10
128.75
20
-63
11
146.25
21
-63
0
LINE
8
0
10
146.25
20
-63
11
146.25
21
-46.5
0
LINE
8
0
10
146.25
20
-46.5
11
128.75
21
-46.5
0
LINE
8
0
10
128.75
20
-46.5
11
128.75
21
-63
0
LINE
8
0
10
128.75
20
-45.25
11
146.25
21
-45.25
0
LINE
8
0
10
146.25
20
-45.25
11
146.25
21
-28.75
0
LINE
8
0
10
146.25
20
-28.75
11
128.75
21
-28.75
0
LINE
8
0
10
128.75
20
-28.75
11
128.75
21
-45.25
0
ENDSEC
0
EOF