<svg width="154.754mm" height="121.5mm" viewBox="0 0 154.754 121.5" xmlns="http://www.w3.org/2000/svg"><g id="svgGroup" stroke-linecap="round" fill-rule="evenodd" font-size="9pt" stroke="#000" stroke-width="0.25mm" fill="none" style="stroke:#000;stroke-width:0.25mm;fill:none"><path d="M 0 80 L 26.5 80 L 26.5 63.5 L 0 63.5 L 0 80 Z M 0 61.5 L 26.5 61.5 L 26.5 45 L 0 45 L 0 61.5 Z M 0 43 L 26.5 43 L 26.5 26.5 L 0 26.5 L 0 43 Z M 0 24.5 L 26.5 24.5 L 26.5 8 L 0 8 L 0 24.5 Z M 125.882 113.259 L 137.081 89.242 L 122.127 82.269 L 110.928 106.286 L 125.882 113.259 Z M 143.555 121.5 L 154.754 97.483 L 139.8 90.51 L 128.601 114.527 L 143.555 121.5 Z M 28 80 L 45.5 80 L 45.5 63.5 L 28 63.5 L 28 80 Z M 28 61.5 L 45.5 61.5 L 45.5 45 L 28 45 L 28 61.5 Z M 28 43 L 45.5 43 L 45.5 26.5 L 28 26.5 L 28 43 Z M 28 24.5 L 45.5 24.5 L 45.5 8 L 28 8 L 28 24.5 Z M 47.5 93.5 L 65 93.5 L 65 77 L 47.5 77 L 47.5 93.5 Z M 47.5 75 L 65 75 L 65 58.5 L 47.5 58.5 L 47.5 75 Z M 47.5 56.5 L 65 56.5 L 65 40 L 47.5 40 L 47.5 56.5 Z M 47.5 38 L 65 38 L 65 21.5 L 47.5 21.5 L 47.5 38 Z M 47.5 19.5 L 65 19.5 L 65 3 L 47.5 3 L 47.5 19.5 Z M 67 90.5 L 84.5 90.5 L 84.5 74 L 67 74 L 67 90.5 Z M 67 72 L 84.5 72 L 84.5 55.5 L 67 55.5 L 67 72 Z M 67 53.5 L 84.5 53.5 L 84.5 37 L 67 37 L 67 53.5 Z M 67 35 L 84.5 35 L 84.5 18.5 L 67 18.5 L 67 35 Z M 67 16.5 L 84.5 16.5 L 84.5 0 L 67 0 L 67 16.5 Z M 86.5 93.5 L 104 93.5 L 104 77 L 86.5 77 L 86.5 93.5 Z M 86.5 75 L 104 75 L 104 58.5 L 86.5 58.5 L 86.5 75 Z M 86.5 56.5 L 104 56.5 L 104 40 L 86.5 40 L 86.5 56.5 Z M 86.5 38 L 104 38 L 104 21.5 L 86.5 21.5 L 86.5 38 Z M 86.5 19.5 L 104 19.5 L 104 3 L 86.5 3 L 86.5 19.5 Z M 106 78 L 123.5 78 L 123.5 61.5 L 106 61.5 L 106 78 Z M 106 59.5 L 123.5 59.5 L 123.5 43 L 106 43 L 106 59.5 Z M 106 41 L 123.5 41 L 123.5 24.5 L 106 24.5 L 106 41 Z M 106 22.5 L 123.5 22.5 L 123.5 6 L 106 6 L 106 22.5 Z" vector-effect="non-scaling-stroke"/></g></svg>