0
SECTION
2
HEADER
9
$INSUNITS
70
4
0
ENDSEC
0
SECTION
2
TABLES
0
TABLE
2
LTYPE
0
LTYPE
72
65
70
64
2
CONTINUOUS
3
______
73
0
40
0
0
ENDTAB
0
TABLE
2
LAYER
0
ENDTAB
0
ENDSEC
0
SECTION
2
ENTITIES
0
LINE
8
0
10
90
20
-92.5
11
110
21
-92.5
0
LINE
8
0
10
110
20
-92.5
11
110
21
-22.5
0
LINE
8
0
10
90
20
-92.5
11
90
21
-22.5
0
LINE
8
0
10
110
20
-22.5
11
90
21
-22.5
0
LINE
8
0
10
112.5
20
-92.5
11
130.5
21
-92.5
0
LINE
8
0
10
112.5
20
-92.5
11
112.5
21
-22.5
0
LINE
8
0
10
130.5
20
-22.5
11
112.5
21
-22.5
0
LINE
8
0
10
130.5
20
-104.5
11
150.5
21
-104.5
0
LINE
8
0
10
150.5
20
-104.5
11
150.5
21
-101.5
0
LINE
8
0
10
130.5
20
-92.5
11
130.5
21
-104.5
0
LINE
8
0
10
148.5
20
-17.5
11
130.5
21
-17.5
0
LINE
8
0
10
130.5
20
-17.5
11
130.5
21
-22.5
0
LINE
8
0
10
150.5
20
-101.5
11
166.5
21
-101.5
0
LINE
8
0
10
168.5
20
-17.5
11
168.5
21
-14.5
0
LINE
8
0
10
168.5
20
-14.5
11
148.5
21
-14.5
0
LINE
8
0
10
148.5
20
-14.5
11
148.5
21
-17.5
0
LINE
8
0
10
166.5
20
-104.5
11
185.2416698
21
-104.5
0
LINE
8
0
10
186.5
20
-102.3205081
11
186.5
21
-90.5
0
LINE
8
0
10
166.5
20
-101.5
11
166.5
21
-104.5
0
LINE
8
0
10
186.5
20
-20.5
11
186.5
21
-17.5
0
LINE
8
0
10
186.5
20
-17.5
11
168.5
21
-17.5
0
LINE
8
0
10
186.5
20
-90.5
11
204.5
21
-90.5
0
LINE
8
0
10
204.5
20
-90.5
11
204.5
21
-20.5
0
LINE
8
0
10
204.5
20
-20.5
11
186.5
21
-20.5
0
LINE
8
0
10
181.6923095
20
-110.6476723
11
214.6012748
21
-129.6476723
0
LINE
8
0
10
191.1923095
20
-94.1931897
11
224.1012748
21
-113.1931897
0
LINE
8
0
10
191.1923095
20
-94.1931897
11
186.5
21
-102.3205081
0
LINE
8
0
10
185.2416698
20
-104.5
11
181.6923095
21
-110.6476723
0
LINE
8
0
10
214.6012748
20
-129.6476723
11
224.1012748
21
-113.1931897
0
LINE
8
0
10
356.3820416
20
-92.5
11
376.3820416
21
-92.5
0
LINE
8
0
10
376.3820416
20
-92.5
11
376.3820416
21
-22.5
0
LINE
8
0
10
356.3820416
20
-92.5
11
356.3820416
21
-22.5
0
LINE
8
0
10
376.3820416
20
-22.5
11
356.3820416
21
-22.5
0
LINE
8
0
10
335.8820416
20
-92.5
11
353.8820416
21
-92.5
0
LINE
8
0
10
353.8820416
20
-92.5
11
353.8820416
21
-22.5
0
LINE
8
0
10
353.8820416
20
-22.5
11
335.8820416
21
-22.5
0
LINE
8
0
10
315.8820416
20
-104.5
11
335.8820416
21
-104.5
0
LINE
8
0
10
335.8820416
20
-104.5
11
335.8820416
21
-92.5
0
LINE
8
0
10
315.8820416
20
-101.5
11
315.8820416
21
-104.5
0
LINE
8
0
10
335.8820416
20
-22.5
11
335.8820416
21
-17.5
0
LINE
8
0
10
335.8820416
20
-17.5
11
317.8820416
21
-17.5
0
LINE
8
0
10
299.8820416
20
-101.5
11
315.8820416
21
-101.5
0
LINE
8
0
10
317.8820416
20
-17.5
11
317.8820416
21
-14.5
0
LINE
8
0
10
317.8820416
20
-14.5
11
297.8820416
21
-14.5
0
LINE
8
0
10
297.8820416
20
-14.5
11
297.8820416
21
-17.5
0
LINE
8
0
10
281.1403718
20
-104.5
11
299.8820416
21
-104.5
0
LINE
8
0
10
299.8820416
20
-104.5
11
299.8820416
21
-101.5
0
LINE
8
0
10
279.8820416
20
-90.5
11
279.8820416
21
-102.3205081
0
LINE
8
0
10
297.8820416
20
-17.5
11
279.8820416
21
-17.5
0
LINE
8
0
10
279.8820416
20
-17.5
11
279.8820416
21
-20.5
0
LINE
8
0
10
261.8820416
20
-90.5
11
279.8820416
21
-90.5
0
LINE
8
0
10
261.8820416
20
-90.5
11
261.8820416
21
-20.5
0
LINE
8
0
10
279.8820416
20
-20.5
11
261.8820416
21
-20.5
0
LINE
8
0
10
251.7807668
20
-129.6476723
11
284.6897321
21
-110.6476723
0
LINE
8
0
10
284.6897321
20
-110.6476723
11
281.1403718
21
-104.5
0
LINE
8
0
10
279.8820416
20
-102.3205081
11
275.1897321
21
-94.1931897
0
LINE
8
0
10
242.2807668
20
-113.1931897
11
275.1897321
21
-94.1931897
0
LINE
8
0
10
242.2807668
20
-113.1931897
11
251.7807668
21
-129.6476723
0
ENDSEC
0
EOF