<svg width="148.353mm" height="117.422mm" viewBox="0 0 148.353 117.422" xmlns="http://www.w3.org/2000/svg"><g id="svgGroup" stroke-linecap="round" fill-rule="evenodd" font-size="9pt" stroke="#000" stroke-width="0.25mm" fill="none" style="stroke:#000;stroke-width:0.25mm;fill:none"><path d="M 0 80 L 17.5 80 L 17.5 63.5 L 0 63.5 L 0 80 Z M 0 61.5 L 17.5 61.5 L 17.5 45 L 0 45 L 0 61.5 Z M 0 43 L 17.5 43 L 17.5 26.5 L 0 26.5 L 0 43 Z M 0 24.5 L 17.5 24.5 L 17.5 8 L 0 8 L 0 24.5 Z M 23.5 80 L 41 80 L 41 63.5 L 23.5 63.5 L 23.5 80 Z M 23.5 61.5 L 41 61.5 L 41 45 L 23.5 45 L 23.5 61.5 Z M 23.5 43 L 41 43 L 41 26.5 L 23.5 26.5 L 23.5 43 Z M 23.5 24.5 L 41 24.5 L 41 8 L 23.5 8 L 23.5 24.5 Z M 43 93.5 L 60.5 93.5 L 60.5 77 L 43 77 L 43 93.5 Z M 43 75 L 60.5 75 L 60.5 58.5 L 43 58.5 L 43 75 Z M 43 56.5 L 60.5 56.5 L 60.5 40 L 43 40 L 43 56.5 Z M 43 38 L 60.5 38 L 60.5 21.5 L 43 21.5 L 43 38 Z M 43 19.5 L 60.5 19.5 L 60.5 3 L 43 3 L 43 19.5 Z M 62.5 90.5 L 80 90.5 L 80 74 L 62.5 74 L 62.5 90.5 Z M 62.5 72 L 80 72 L 80 55.5 L 62.5 55.5 L 62.5 72 Z M 62.5 53.5 L 80 53.5 L 80 37 L 62.5 37 L 62.5 53.5 Z M 62.5 35 L 80 35 L 80 18.5 L 62.5 18.5 L 62.5 35 Z M 62.5 16.5 L 80 16.5 L 80 0 L 62.5 0 L 62.5 16.5 Z M 82 93.5 L 99.5 93.5 L 99.5 77 L 82 77 L 82 93.5 Z M 82 75 L 99.5 75 L 99.5 58.5 L 82 58.5 L 82 75 Z M 82 56.5 L 99.5 56.5 L 99.5 40 L 82 40 L 82 56.5 Z M 82 38 L 99.5 38 L 99.5 21.5 L 82 21.5 L 82 38 Z M 82 19.5 L 99.5 19.5 L 99.5 3 L 82 3 L 82 19.5 Z M 101.5 78 L 119 78 L 119 61.5 L 101.5 61.5 L 101.5 78 Z M 101.5 59.5 L 119 59.5 L 119 43 L 101.5 43 L 101.5 59.5 Z M 101.5 41 L 119 41 L 119 24.5 L 101.5 24.5 L 101.5 41 Z M 101.5 22.5 L 119 22.5 L 119 6 L 101.5 6 L 101.5 22.5 Z M 123.284 109.181 L 130.68 93.32 L 115.725 86.347 L 108.33 102.208 L 123.284 109.181 Z M 140.957 117.422 L 148.353 101.561 L 133.398 94.588 L 126.003 110.449 L 140.957 117.422 Z" vector-effect="non-scaling-stroke"/></g></svg>