0
SECTION
2
HEADER
9
$INSUNITS
70
4
0
ENDSEC
0
SECTION
2
TABLES
0
TABLE
2
LTYPE
0
LTYPE
72
65
70
64
2
CONTINUOUS
3
______
73
0
40
0
0
ENDTAB
0
TABLE
2
LAYER
0
ENDTAB
0
ENDSEC
0
SECTION
2
ENTITIES
0
LINE
8
0
10
31.25
20
-100.5
11
48.75
21
-100.5
0
LINE
8
0
10
48.75
20
-100.5
11
48.75
21
-84
0
LINE
8
0
10
48.75
20
-84
11
31.25
21
-84
0
LINE
8
0
10
31.25
20
-84
11
31.25
21
-100.5
0
LINE
8
0
10
31.25
20
-82.75
11
48.75
21
-82.75
0
LINE
8
0
10
48.75
20
-82.75
11
48.75
21
-66.25
0
LINE
8
0
10
48.75
20
-66.25
11
31.25
21
-66.25
0
LINE
8
0
10
31.25
20
-66.25
11
31.25
21
-82.75
0
LINE
8
0
10
31.25
20
-65
11
48.75
21
-65
0
LINE
8
0
10
48.75
20
-65
11
48.75
21
-48.5
0
LINE
8
0
10
48.75
20
-48.5
11
31.25
21
-48.5
0
LINE
8
0
10
31.25
20
-48.5
11
31.25
21
-65
0
LINE
8
0
10
31.25
20
-47.25
11
48.75
21
-47.25
0
LINE
8
0
10
48.75
20
-47.25
11
48.75
21
-30.75
0
LINE
8
0
10
48.75
20
-30.75
11
31.25
21
-30.75
0
LINE
8
0
10
31.25
20
-30.75
11
31.25
21
-47.25
0
LINE
8
0
10
53.75
20
-100.5
11
71.25
21
-100.5
0
LINE
8
0
10
71.25
20
-100.5
11
71.25
21
-84
0
LINE
8
0
10
71.25
20
-84
11
53.75
21
-84
0
LINE
8
0
10
53.75
20
-84
11
53.75
21
-100.5
0
LINE
8
0
10
53.75
20
-82.75
11
71.25
21
-82.75
0
LINE
8
0
10
71.25
20
-82.75
11
71.25
21
-66.25
0
LINE
8
0
10
71.25
20
-66.25
11
53.75
21
-66.25
0
LINE
8
0
10
53.75
20
-66.25
11
53.75
21
-82.75
0
LINE
8
0
10
53.75
20
-65
11
71.25
21
-65
0
LINE
8
0
10
71.25
20
-65
11
71.25
21
-48.5
0
LINE
8
0
10
71.25
20
-48.5
11
53.75
21
-48.5
0
LINE
8
0
10
53.75
20
-48.5
11
53.75
21
-65
0
LINE
8
0
10
53.75
20
-47.25
11
71.25
21
-47.25
0
LINE
8
0
10
71.25
20
-47.25
11
71.25
21
-30.75
0
LINE
8
0
10
71.25
20
-30.75
11
53.75
21
-30.75
0
LINE
8
0
10
53.75
20
-30.75
11
53.75
21
-47.25
0
LINE
8
0
10
72.5
20
-113.25
11
90
21
-113.25
0
LINE
8
0
10
90
20
-113.25
11
90
21
-96.75
0
LINE
8
0
10
90
20
-96.75
11
72.5
21
-96.75
0
LINE
8
0
10
72.5
20
-96.75
11
72.5
21
-113.25
0
LINE
8
0
10
72.5
20
-95.5
11
90
21
-95.5
0
LINE
8
0
10
90
20
-95.5
11
90
21
-79
0
LINE
8
0
10
90
20
-79
11
72.5
21
-79
0
LINE
8
0
10
72.5
20
-79
11
72.5
21
-95.5
0
LINE
8
0
10
72.5
20
-77.75
11
90
21
-77.75
0
LINE
8
0
10
90
20
-77.75
11
90
21
-61.25
0
LINE
8
0
10
90
20
-61.25
11
72.5
21
-61.25
0
LINE
8
0
10
72.5
20
-61.25
11
72.5
21
-77.75
0
LINE
8
0
10
72.5
20
-60
11
90
21
-60
0
LINE
8
0
10
90
20
-60
11
90
21
-43.5
0
LINE
8
0
10
90
20
-43.5
11
72.5
21
-43.5
0
LINE
8
0
10
72.5
20
-43.5
11
72.5
21
-60
0
LINE
8
0
10
72.5
20
-42.25
11
90
21
-42.25
0
LINE
8
0
10
90
20
-42.25
11
90
21
-25.75
0
LINE
8
0
10
90
20
-25.75
11
72.5
21
-25.75
0
LINE
8
0
10
72.5
20
-25.75
11
72.5
21
-42.25
0
LINE
8
0
10
91.25
20
-110.25
11
108.75
21
-110.25
0
LINE
8
0
10
108.75
20
-110.25
11
108.75
21
-93.75
0
LINE
8
0
10
108.75
20
-93.75
11
91.25
21
-93.75
0
LINE
8
0
10
91.25
20
-93.75
11
91.25
21
-110.25
0
LINE
8
0
10
91.25
20
-92.5
11
108.75
21
-92.5
0
LINE
8
0
10
108.75
20
-92.5
11
108.75
21
-76
0
LINE
8
0
10
108.75
20
-76
11
91.25
21
-76
0
LINE
8
0
10
91.25
20
-76
11
91.25
21
-92.5
0
LINE
8
0
10
91.25
20
-74.75
11
108.75
21
-74.75
0
LINE
8
0
10
108.75
20
-74.75
11
108.75
21
-58.25
0
LINE
8
0
10
108.75
20
-58.25
11
91.25
21
-58.25
0
LINE
8
0
10
91.25
20
-58.25
11
91.25
21
-74.75
0
LINE
8
0
10
91.25
20
-57
11
108.75
21
-57
0
LINE
8
0
10
108.75
20
-57
11
108.75
21
-40.5
0
LINE
8
0
10
108.75
20
-40.5
11
91.25
21
-40.5
0
LINE
8
0
10
91.25
20
-40.5
11
91.25
21
-57
0
LINE
8
0
10
91.25
20
-39.25
11
108.75
21
-39.25
0
LINE
8
0
10
108.75
20
-39.25
11
108.75
21
-22.75
0
LINE
8
0
10
108.75
20
-22.75
11
91.25
21
-22.75
0
LINE
8
0
10
91.25
20
-22.75
11
91.25
21
-39.25
0
LINE
8
0
10
110
20
-113.25
11
127.5
21
-113.25
0
LINE
8
0
10
127.5
20
-113.25
11
127.5
21
-96.75
0
LINE
8
0
10
127.5
20
-96.75
11
110
21
-96.75
0
LINE
8
0
10
110
20
-96.75
11
110
21
-113.25
0
LINE
8
0
10
110
20
-95.5
11
127.5
21
-95.5
0
LINE
8
0
10
127.5
20
-95.5
11
127.5
21
-79
0
LINE
8
0
10
127.5
20
-79
11
110
21
-79
0
LINE
8
0
10
110
20
-79
11
110
21
-95.5
0
LINE
8
0
10
110
20
-77.75
11
127.5
21
-77.75
0
LINE
8
0
10
127.5
20
-77.75
11
127.5
21
-61.25
0
LINE
8
0
10
127.5
20
-61.25
11
110
21
-61.25
0
LINE
8
0
10
110
20
-61.25
11
110
21
-77.75
0
LINE
8
0
10
110
20
-60
11
127.5
21
-60
0
LINE
8
0
10
127.5
20
-60
11
127.5
21
-43.5
0
LINE
8
0
10
127.5
20
-43.5
11
110
21
-43.5
0
LINE
8
0
10
110
20
-43.5
11
110
21
-60
0
LINE
8
0
10
110
20
-42.25
11
127.5
21
-42.25
0
LINE
8
0
10
127.5
20
-42.25
11
127.5
21
-25.75
0
LINE
8
0
10
127.5
20
-25.75
11
110
21
-25.75
0
LINE
8
0
10
110
20
-25.75
11
110
21
-42.25
0
LINE
8
0
10
128.75
20
-98.5
11
146.25
21
-98.5
0
LINE
8
0
10
146.25
20
-98.5
11
146.25
21
-82
0
LINE
8
0
10
146.25
20
-82
11
128.75
21
-82
0
LINE
8
0
10
128.75
20
-82
11
128.75
21
-98.5
0
LINE
8
0
10
128.75
20
-80.75
11
146.25
21
-80.75
0
LINE
8
0
10
146.25
20
-80.75
11
146.25
21
-64.25
0
LINE
8
0
10
146.25
20
-64.25
11
128.75
21
-64.25
0
LINE
8
0
10
128.75
20
-64.25
11
128.75
21
-80.75
0
LINE
8
0
10
128.75
20
-63
11
146.25
21
-63
0
LINE
8
0
10
146.25
20
-63
11
146.25
21
-46.5
0
LINE
8
0
10
146.25
20
-46.5
11
128.75
21
-46.5
0
LINE
8
0
10
128.75
20
-46.5
11
128.75
21
-63
0
LINE
8
0
10
128.75
20
-45.25
11
146.25
21
-45.25
0
LINE
8
0
10
146.25
20
-45.25
11
146.25
21
-28.75
0
LINE
8
0
10
146.25
20
-28.75
11
128.75
21
-28.75
0
LINE
8
0
10
128.75
20
-28.75
11
128.75
21
-45.25
0
LINE
8
0
10
140.8722731
20
-129.1231533
11
149.6222731
21
-113.9677087
0
LINE
8
0
10
149.6222731
20
-113.9677087
11
135.3328539
21
-105.7177087
0
LINE
8
0
10
135.3328539
20
-105.7177087
11
126.5828539
21
-120.8731533
0
LINE
8
0
10
126.5828539
20
-120.8731533
11
140.8722731
21
-129.1231533
0
LINE
8
0
10
155.594705
20
-137.6231533
11
164.344705
21
-122.4677087
0
LINE
8
0
10
164.344705
20
-122.4677087
11
150.0552858
21
-114.2177087
0
LINE
8
0
10
150.0552858
20
-114.2177087
11
141.3052858
21
-129.3731533
0
LINE
8
0
10
141.3052858
20
-129.3731533
11
155.594705
21
-137.6231533
0
LINE
8
0
10
301.8999908
20
-100.5
11
319.3999908
21
-100.5
0
LINE
8
0
10
319.3999908
20
-100.5
11
319.3999908
21
-84
0
LINE
8
0
10
319.3999908
20
-84
11
301.8999908
21
-84
0
LINE
8
0
10
301.8999908
20
-84
11
301.8999908
21
-100.5
0
LINE
8
0
10
301.8999908
20
-82.75
11
319.3999908
21
-82.75
0
LINE
8
0
10
319.3999908
20
-82.75
11
319.3999908
21
-66.25
0
LINE
8
0
10
319.3999908
20
-66.25
11
301.8999908
21
-66.25
0
LINE
8
0
10
301.8999908
20
-66.25
11
301.8999908
21
-82.75
0
LINE
8
0
10
301.8999908
20
-65
11
319.3999908
21
-65
0
LINE
8
0
10
319.3999908
20
-65
11
319.3999908
21
-48.5
0
LINE
8
0
10
319.3999908
20
-48.5
11
301.8999908
21
-48.5
0
LINE
8
0
10
301.8999908
20
-48.5
11
301.8999908
21
-65
0
LINE
8
0
10
301.8999908
20
-47.25
11
319.3999908
21
-47.25
0
LINE
8
0
10
319.3999908
20
-47.25
11
319.3999908
21
-30.75
0
LINE
8
0
10
319.3999908
20
-30.75
11
301.8999908
21
-30.75
0
LINE
8
0
10
301.8999908
20
-30.75
11
301.8999908
21
-47.25
0
LINE
8
0
10
279.3999908
20
-100.5
11
296.8999908
21
-100.5
0
LINE
8
0
10
296.8999908
20
-100.5
11
296.8999908
21
-84
0
LINE
8
0
10
296.8999908
20
-84
11
279.3999908
21
-84
0
LINE
8
0
10
279.3999908
20
-84
11
279.3999908
21
-100.5
0
LINE
8
0
10
279.3999908
20
-82.75
11
296.8999908
21
-82.75
0
LINE
8
0
10
296.8999908
20
-82.75
11
296.8999908
21
-66.25
0
LINE
8
0
10
296.8999908
20
-66.25
11
279.3999908
21
-66.25
0
LINE
8
0
10
279.3999908
20
-66.25
11
279.3999908
21
-82.75
0
LINE
8
0
10
279.3999908
20
-65
11
296.8999908
21
-65
0
LINE
8
0
10
296.8999908
20
-65
11
296.8999908
21
-48.5
0
LINE
8
0
10
296.8999908
20
-48.5
11
279.3999908
21
-48.5
0
LINE
8
0
10
279.3999908
20
-48.5
11
279.3999908
21
-65
0
LINE
8
0
10
279.3999908
20
-47.25
11
296.8999908
21
-47.25
0
LINE
8
0
10
296.8999908
20
-47.25
11
296.8999908
21
-30.75
0
LINE
8
0
10
296.8999908
20
-30.75
11
279.3999908
21
-30.75
0
LINE
8
0
10
279.3999908
20
-30.75
11
279.3999908
21
-47.25
0
LINE
8
0
10
260.6499908
20
-113.25
11
278.1499908
21
-113.25
0
LINE
8
0
10
278.1499908
20
-113.25
11
278.1499908
21
-96.75
0
LINE
8
0
10
278.1499908
20
-96.75
11
260.6499908
21
-96.75
0
LINE
8
0
10
260.6499908
20
-96.75
11
260.6499908
21
-113.25
0
LINE
8
0
10
260.6499908
20
-95.5
11
278.1499908
21
-95.5
0
LINE
8
0
10
278.1499908
20
-95.5
11
278.1499908
21
-79
0
LINE
8
0
10
278.1499908
20
-79
11
260.6499908
21
-79
0
LINE
8
0
10
260.6499908
20
-79
11
260.6499908
21
-95.5
0
LINE
8
0
10
260.6499908
20
-77.75
11
278.1499908
21
-77.75
0
LINE
8
0
10
278.1499908
20
-77.75
11
278.1499908
21
-61.25
0
LINE
8
0
10
278.1499908
20
-61.25
11
260.6499908
21
-61.25
0
LINE
8
0
10
260.6499908
20
-61.25
11
260.6499908
21
-77.75
0
LINE
8
0
10
260.6499908
20
-60
11
278.1499908
21
-60
0
LINE
8
0
10
278.1499908
20
-60
11
278.1499908
21
-43.5
0
LINE
8
0
10
278.1499908
20
-43.5
11
260.6499908
21
-43.5
0
LINE
8
0
10
260.6499908
20
-43.5
11
260.6499908
21
-60
0
LINE
8
0
10
260.6499908
20
-42.25
11
278.1499908
21
-42.25
0
LINE
8
0
10
278.1499908
20
-42.25
11
278.1499908
21
-25.75
0
LINE
8
0
10
278.1499908
20
-25.75
11
260.6499908
21
-25.75
0
LINE
8
0
10
260.6499908
20
-25.75
11
260.6499908
21
-42.25
0
LINE
8
0
10
241.8999908
20
-110.25
11
259.3999908
21
-110.25
0
LINE
8
0
10
259.3999908
20
-110.25
11
259.3999908
21
-93.75
0
LINE
8
0
10
259.3999908
20
-93.75
11
241.8999908
21
-93.75
0
LINE
8
0
10
241.8999908
20
-93.75
11
241.8999908
21
-110.25
0
LINE
8
0
10
241.8999908
20
-92.5
11
259.3999908
21
-92.5
0
LINE
8
0
10
259.3999908
20
-92.5
11
259.3999908
21
-76
0
LINE
8
0
10
259.3999908
20
-76
11
241.8999908
21
-76
0
LINE
8
0
10
241.8999908
20
-76
11
241.8999908
21
-92.5
0
LINE
8
0
10
241.8999908
20
-74.75
11
259.3999908
21
-74.75
0
LINE
8
0
10
259.3999908
20
-74.75
11
259.3999908
21
-58.25
0
LINE
8
0
10
259.3999908
20
-58.25
11
241.8999908
21
-58.25
0
LINE
8
0
10
241.8999908
20
-58.25
11
241.8999908
21
-74.75
0
LINE
8
0
10
241.8999908
20
-57
11
259.3999908
21
-57
0
LINE
8
0
10
259.3999908
20
-57
11
259.3999908
21
-40.5
0
LINE
8
0
10
259.3999908
20
-40.5
11
241.8999908
21
-40.5
0
LINE
8
0
10
241.8999908
20
-40.5
11
241.8999908
21
-57
0
LINE
8
0
10
241.8999908
20
-39.25
11
259.3999908
21
-39.25
0
LINE
8
0
10
259.3999908
20
-39.25
11
259.3999908
21
-22.75
0
LINE
8
0
10
259.3999908
20
-22.75
11
241.8999908
21
-22.75
0
LINE
8
0
10
241.8999908
20
-22.75
11
241.8999908
21
-39.25
0
LINE
8
0
10
223.1499908
20
-113.25
11
240.6499908
21
-113.25
0
LINE
8
0
10
240.6499908
20
-113.25
11
240.6499908
21
-96.75
0
LINE
8
0
10
240.6499908
20
-96.75
11
223.1499908
21
-96.75
0
LINE
8
0
10
223.1499908
20
-96.75
11
223.1499908
21
-113.25
0
LINE
8
0
10
223.1499908
20
-95.5
11
240.6499908
21
-95.5
0
LINE
8
0
10
240.6499908
20
-95.5
11
240.6499908
21
-79
0
LINE
8
0
10
240.6499908
20
-79
11
223.1499908
21
-79
0
LINE
8
0
10
223.1499908
20
-79
11
223.1499908
21
-95.5
0
LINE
8
0
10
223.1499908
20
-77.75
11
240.6499908
21
-77.75
0
LINE
8
0
10
240.6499908
20
-77.75
11
240.6499908
21
-61.25
0
LINE
8
0
10
240.6499908
20
-61.25
11
223.1499908
21
-61.25
0
LINE
8
0
10
223.1499908
20
-61.25
11
223.1499908
21
-77.75
0
LINE
8
0
10
223.1499908
20
-60
11
240.6499908
21
-60
0
LINE
8
0
10
240.6499908
20
-60
11
240.6499908
21
-43.5
0
LINE
8
0
10
240.6499908
20
-43.5
11
223.1499908
21
-43.5
0
LINE
8
0
10
223.1499908
20
-43.5
11
223.1499908
21
-60
0
LINE
8
0
10
223.1499908
20
-42.25
11
240.6499908
21
-42.25
0
LINE
8
0
10
240.6499908
20
-42.25
11
240.6499908
21
-25.75
0
LINE
8
0
10
240.6499908
20
-25.75
11
223.1499908
21
-25.75
0
LINE
8
0
10
223.1499908
20
-25.75
11
223.1499908
21
-42.25
0
LINE
8
0
10
204.3999908
20
-98.5
11
221.8999908
21
-98.5
0
LINE
8
0
10
221.8999908
20
-98.5
11
221.8999908
21
-82
0
LINE
8
0
10
221.8999908
20
-82
11
204.3999908
21
-82
0
LINE
8
0
10
204.3999908
20
-82
11
204.3999908
21
-98.5
0
LINE
8
0
10
204.3999908
20
-80.75
11
221.8999908
21
-80.75
0
LINE
8
0
10
221.8999908
20
-80.75
11
221.8999908
21
-64.25
0
LINE
8
0
10
221.8999908
20
-64.25
11
204.3999908
21
-64.25
0
LINE
8
0
10
204.3999908
20
-64.25
11
204.3999908
21
-80.75
0
LINE
8
0
10
204.3999908
20
-63
11
221.8999908
21
-63
0
LINE
8
0
10
221.8999908
20
-63
11
221.8999908
21
-46.5
0
LINE
8
0
10
221.8999908
20
-46.5
11
204.3999908
21
-46.5
0
LINE
8
0
10
204.3999908
20
-46.5
11
204.3999908
21
-63
0
LINE
8
0
10
204.3999908
20
-45.25
11
221.8999908
21
-45.25
0
LINE
8
0
10
221.8999908
20
-45.25
11
221.8999908
21
-28.75
0
LINE
8
0
10
221.8999908
20
-28.75
11
204.3999908
21
-28.75
0
LINE
8
0
10
204.3999908
20
-28.75
11
204.3999908
21
-45.25
0
LINE
8
0
10
201.0277177
20
-113.9677087
11
209.7777177
21
-129.1231533
0
LINE
8
0
10
209.7777177
20
-129.1231533
11
224.0671369
21
-120.8731533
0
LINE
8
0
10
224.0671369
20
-120.8731533
11
215.3171369
21
-105.7177087
0
LINE
8
0
10
215.3171369
20
-105.7177087
11
201.0277177
21
-113.9677087
0
LINE
8
0
10
186.3052858
20
-122.4677087
11
195.0552858
21
-137.6231533
0
LINE
8
0
10
195.0552858
20
-137.6231533
11
209.344705
21
-129.3731533
0
LINE
8
0
10
209.344705
20
-129.3731533
11
200.594705
21
-114.2177087
0
LINE
8
0
10
200.594705
20
-114.2177087
11
186.3052858
21
-122.4677087
0
ENDSEC
0
EOF