%TF.GenerationSoftware,KiCad,Pcbnew,8.0.4*%
%TF.CreationDate,2024-07-28T16:02:37-05:00*%
%TF.ProjectId,reversible,72657665-7273-4696-926c-652e6b696361,0.5.0*%
%TF.SameCoordinates,Original*%
%TF.FileFunction,Paste,Bot*%
%TF.FilePolarity,Positive*%
%FSLAX46Y46*%
G04 Gerber Fmt 4.6, Leading zero omitted, Abs format (unit mm)*
G04 Created by KiCad (PCBNEW 8.0.4) date 2024-07-28 16:02:37*
%MOMM*%
%LPD*%
G01*
G04 APERTURE LIST*
G04 Aperture macros list*
%AMRotRect*
0 Rectangle, with rotation*
0 The origin of the aperture is its center*
0 $1 length*
0 $2 width*
0 $3 Rotation angle, in degrees counterclockwise*
0 Add horizontal line*
21,1,$1,$2,0,0,$3*%
%AMOutline5P*
0 Free polygon, 5 corners , with rotation*
0 The origin of the aperture is its center*
0 number of corners: always 5*
0 $1 to $10 corner X, Y*
0 $11 Rotation angle, in degrees counterclockwise*
0 create outline with 5 corners*
4,1,5,$1,$2,$3,$4,$5,$6,$7,$8,$9,$10,$1,$2,$11*%
%AMOutline6P*
0 Free polygon, 6 corners , with rotation*
0 The origin of the aperture is its center*
0 number of corners: always 6*
0 $1 to $12 corner X, Y*
0 $13 Rotation angle, in degrees counterclockwise*
0 create outline with 6 corners*
4,1,6,$1,$2,$3,$4,$5,$6,$7,$8,$9,$10,$11,$12,$1,$2,$13*%
%AMOutline7P*
0 Free polygon, 7 corners , with rotation*
0 The origin of the aperture is its center*
0 number of corners: always 7*
0 $1 to $14 corner X, Y*
0 $15 Rotation angle, in degrees counterclockwise*
0 create outline with 7 corners*
4,1,7,$1,$2,$3,$4,$5,$6,$7,$8,$9,$10,$11,$12,$13,$14,$1,$2,$15*%
%AMOutline8P*
0 Free polygon, 8 corners , with rotation*
0 The origin of the aperture is its center*
0 number of corners: always 8*
0 $1 to $16 corner X, Y*
0 $17 Rotation angle, in degrees counterclockwise*
0 create outline with 8 corners*
4,1,8,$1,$2,$3,$4,$5,$6,$7,$8,$9,$10,$11,$12,$13,$14,$15,$16,$1,$2,$17*%
%AMFreePoly0*
4,1,6,0.600000,-1.000000,0.000000,-0.400000,-0.600000,-1.000000,-0.600000,0.250000,0.600000,0.250000,0.600000,-1.000000,0.600000,-1.000000,$1*%
%AMFreePoly1*
4,1,6,0.600000,-0.200000,0.600000,-0.400000,-0.600000,-0.400000,-0.600000,-0.200000,0.000000,0.400000,0.600000,-0.200000,0.600000,-0.200000,$1*%
%AMFreePoly2*
4,1,6,0.250000,0.000000,-0.250000,-0.625000,-0.500000,-0.625000,-0.500000,0.625000,-0.250000,0.625000,0.250000,0.000000,0.250000,0.000000,$1*%
%AMFreePoly3*
4,1,6,0.500000,-0.625000,-0.650000,-0.625000,-0.150000,0.000000,-0.650000,0.625000,0.500000,0.625000,0.500000,-0.625000,0.500000,-0.625000,$1*%
G04 Aperture macros list end*
%ADD10FreePoly0,180.000000*%
%ADD11FreePoly1,180.000000*%
%ADD12R,1.550000X1.000000*%
%ADD13R,1.200000X0.600000*%
%ADD14FreePoly2,180.000000*%
%ADD15FreePoly2,0.000000*%
%ADD16FreePoly3,0.000000*%
%ADD17FreePoly3,180.000000*%
%ADD18R,0.800000X1.000000*%
%ADD19R,1.500000X0.700000*%
%ADD20Outline5P,-1.300000X1.300000X1.300000X1.300000X1.300000X-1.300000X-0.117000X-1.300000X-1.300000X-0.117000X0.000000*%
%ADD21R,2.600000X2.600000*%
%ADD22R,1.200000X0.900000*%
%ADD23Outline5P,-1.300000X1.300000X1.300000X1.300000X1.300000X-1.300000X-0.117000X-1.300000X-1.300000X-0.117000X65.000000*%
%ADD24RotRect,2.600000X2.600000X65.000000*%
%ADD25RotRect,0.900000X1.200000X155.000000*%
%ADD26R,0.900000X1.200000*%
G04 APERTURE END LIST*
D10*
%TO.C,JST1*%
X168999996Y-46718381D03*
X166999996Y-46718380D03*
D11*
X166999993Y-45702381D03*
X168999997Y-45702379D03*
%TD*%
D12*
%TO.C,RST1*%
X132374994Y-18052381D03*
X132374995Y-19752380D03*
X137624995Y-18052380D03*
X137624996Y-19752379D03*
%TD*%
D13*
%TO.C,DISP1*%
X159079998Y-53250000D03*
X156539997Y-53250000D03*
X151459997Y-53249999D03*
X148919998Y-53249999D03*
X159079997Y-52350000D03*
X156539996Y-52349999D03*
X151459998Y-52349998D03*
X148919997Y-52349999D03*
%TD*%
D14*
%TO.C,MCU1*%
X159499993Y-21202381D03*
X159499997Y-23742383D03*
X159499994Y-26282381D03*
X159499995Y-28822382D03*
X159499996Y-31362383D03*
X159499995Y-33902382D03*
X159499996Y-36442382D03*
X159499995Y-38982383D03*
X159499996Y-41522383D03*
X159499997Y-44062381D03*
X159499993Y-46602382D03*
X159499995Y-49142382D03*
D15*
X148499995Y-49142380D03*
X148499997Y-46602383D03*
X148499993Y-44062381D03*
X148499996Y-41522383D03*
X148499995Y-38982382D03*
X148499994Y-36442381D03*
X148499995Y-33902382D03*
X148499994Y-31362382D03*
X148499995Y-28822381D03*
X148499994Y-26282381D03*
X148499993Y-23742383D03*
X148499997Y-21202382D03*
D16*
X149224992Y-21202382D03*
X149224996Y-23742382D03*
X149224994Y-26282382D03*
X149224994Y-28822381D03*
X149224995Y-31362380D03*
X149224995Y-33902382D03*
X149224997Y-36442383D03*
X149224994Y-38982382D03*
X149224995Y-41522382D03*
X149224995Y-44062381D03*
X149224996Y-46602383D03*
X149224994Y-49142382D03*
D17*
X158774996Y-49142382D03*
X158774998Y-46602382D03*
X158774994Y-44062382D03*
X158774996Y-41522382D03*
X158774996Y-38982383D03*
X158774995Y-36442384D03*
X158774995Y-33902382D03*
X158774993Y-31362381D03*
X158774996Y-28822382D03*
X158774995Y-26282382D03*
X158774995Y-23742383D03*
X158774994Y-21202381D03*
%TD*%
D18*
%TO.C,PWR1*%
X170914992Y-28252380D03*
X170914992Y-35552380D03*
X173124992Y-28252381D03*
X173124992Y-35552379D03*
D19*
X170264992Y-29652380D03*
X170264994Y-32652380D03*
X170264993Y-34152379D03*
%TD*%
D20*
%TO.C,S15*%
X88724997Y-75952380D03*
D21*
X100274997Y-78152380D03*
%TD*%
D22*
%TO.C,D23*%
X119999995Y-35052380D03*
X119999995Y-31752384D03*
%TD*%
D20*
%TO.C,S9*%
X69224994Y-97452381D03*
D21*
X80774994Y-99652381D03*
%TD*%
D22*
%TO.C,D5*%
X61499995Y-95552379D03*
X61499995Y-92252383D03*
%TD*%
D23*
%TO.C,S28*%
X133478009Y-116369950D03*
D24*
X140353123Y-106831852D03*
%TD*%
D25*
%TO.C,D29*%
X166640507Y-118841599D03*
X163649689Y-117446963D03*
%TD*%
D20*
%TO.C,S16*%
X88724994Y-57452380D03*
D21*
X100274994Y-59652380D03*
%TD*%
D20*
%TO.C,S22*%
X108224997Y-41952378D03*
D21*
X119774997Y-44152378D03*
%TD*%
D22*
%TO.C,D13*%
X80999996Y-35052376D03*
X80999996Y-31752380D03*
%TD*%
D20*
%TO.C,S21*%
X108224997Y-60452380D03*
D21*
X119774997Y-62652380D03*
%TD*%
D22*
%TO.C,D17*%
X100499996Y-50552377D03*
X100499996Y-47252381D03*
%TD*%
D20*
%TO.C,S10*%
X69224997Y-78952378D03*
D21*
X80774997Y-81152378D03*
%TD*%
D23*
%TO.C,S29*%
X151151010Y-124611008D03*
D24*
X158026124Y-115072910D03*
%TD*%
D22*
%TO.C,D6*%
X61499999Y-77052373D03*
X61499999Y-73752377D03*
%TD*%
%TO.C,D1*%
X37999996Y-95552379D03*
X37999996Y-92252383D03*
%TD*%
D26*
%TO.C,D30*%
X157649996Y-62902380D03*
X154350000Y-62902380D03*
%TD*%
D20*
%TO.C,S24*%
X127724995Y-81952378D03*
D21*
X139274995Y-84152378D03*
%TD*%
D20*
%TO.C,S8*%
X49724996Y-28452375D03*
D21*
X61274996Y-30652375D03*
%TD*%
D22*
%TO.C,D12*%
X80999994Y-53552375D03*
X80999994Y-50252379D03*
%TD*%
D20*
%TO.C,S11*%
X69225000Y-60452379D03*
D21*
X80775000Y-62652379D03*
%TD*%
D22*
%TO.C,D18*%
X100499996Y-32052377D03*
X100499996Y-28752381D03*
%TD*%
D20*
%TO.C,S27*%
X127724997Y-26452375D03*
D21*
X139274997Y-28652375D03*
%TD*%
D22*
%TO.C,D25*%
X139499999Y-75052375D03*
X139499999Y-71752379D03*
%TD*%
%TO.C,D19*%
X119999995Y-109052379D03*
X119999995Y-105752383D03*
%TD*%
D20*
%TO.C,S4*%
X26224998Y-28452381D03*
D21*
X37774998Y-30652381D03*
%TD*%
D22*
%TO.C,D11*%
X80999995Y-72052380D03*
X80999995Y-68752384D03*
%TD*%
D20*
%TO.C,S7*%
X49724994Y-46952380D03*
D21*
X61274994Y-49152380D03*
%TD*%
D22*
%TO.C,D24*%
X139500000Y-93552378D03*
X139500000Y-90252382D03*
%TD*%
D20*
%TO.C,S14*%
X88724998Y-94452379D03*
D21*
X100274998Y-96652379D03*
%TD*%
D22*
%TO.C,D20*%
X119999996Y-90552376D03*
X119999996Y-87252380D03*
%TD*%
%TO.C,D27*%
X139500001Y-38052378D03*
X139500001Y-34752382D03*
%TD*%
%TO.C,D9*%
X80999996Y-109052377D03*
X80999996Y-105752381D03*
%TD*%
%TO.C,D10*%
X80999995Y-90552377D03*
X80999995Y-87252381D03*
%TD*%
D20*
%TO.C,S1*%
X26224993Y-83952377D03*
D21*
X37774993Y-86152377D03*
%TD*%
D20*
%TO.C,S12*%
X69225000Y-41952380D03*
D21*
X80775000Y-44152380D03*
%TD*%
D22*
%TO.C,D3*%
X37999998Y-58552374D03*
X37999998Y-55252378D03*
%TD*%
D20*
%TO.C,S5*%
X49724997Y-83952379D03*
D21*
X61274997Y-86152379D03*
%TD*%
D20*
%TO.C,S2*%
X26224997Y-65452378D03*
D21*
X37774997Y-67652378D03*
%TD*%
D25*
%TO.C,D28*%
X148967510Y-110600539D03*
X145976692Y-109205903D03*
%TD*%
D22*
%TO.C,D16*%
X100499993Y-69052377D03*
X100499993Y-65752381D03*
%TD*%
D20*
%TO.C,S26*%
X127724995Y-44952383D03*
D21*
X139274995Y-47152383D03*
%TD*%
D22*
%TO.C,D2*%
X37999993Y-77052378D03*
X37999993Y-73752382D03*
%TD*%
D20*
%TO.C,S25*%
X127724994Y-63452379D03*
D21*
X139274994Y-65652379D03*
%TD*%
D22*
%TO.C,D7*%
X61499993Y-58552381D03*
X61499993Y-55252385D03*
%TD*%
%TO.C,D22*%
X119999990Y-53552374D03*
X119999990Y-50252378D03*
%TD*%
%TO.C,D21*%
X119999995Y-72052378D03*
X119999995Y-68752382D03*
%TD*%
%TO.C,D4*%
X37999992Y-40052379D03*
X37999992Y-36752383D03*
%TD*%
%TO.C,D14*%
X100499993Y-106052376D03*
X100499993Y-102752380D03*
%TD*%
D20*
%TO.C,S17*%
X88724999Y-38952376D03*
D21*
X100274999Y-41152376D03*
%TD*%
D20*
%TO.C,S13*%
X69224993Y-23452383D03*
D21*
X80774993Y-25652383D03*
%TD*%
D20*
%TO.C,S19*%
X108224997Y-97452381D03*
D21*
X119774997Y-99652381D03*
%TD*%
D20*
%TO.C,S20*%
X108224995Y-78952376D03*
D21*
X119774995Y-81152376D03*
%TD*%
D20*
%TO.C,S3*%
X26224995Y-46952380D03*
D21*
X37774995Y-49152380D03*
%TD*%
D22*
%TO.C,D15*%
X100499994Y-87552376D03*
X100499994Y-84252380D03*
%TD*%
%TO.C,D26*%
X139499998Y-56552378D03*
X139499998Y-53252382D03*
%TD*%
D20*
%TO.C,S18*%
X88725000Y-20452384D03*
D21*
X100275000Y-22652384D03*
%TD*%
D22*
%TO.C,D8*%
X61499995Y-40052379D03*
X61499995Y-36752383D03*
%TD*%
D20*
%TO.C,S23*%
X108224994Y-23452377D03*
D21*
X119774994Y-25652377D03*
%TD*%
D20*
%TO.C,S6*%
X49724992Y-65452378D03*
D21*
X61274992Y-67652378D03*
%TD*%
M02*
