%TF.GenerationSoftware,KiCad,Pcbnew,8.0.4*%
%TF.CreationDate,2024-07-28T16:02:37-05:00*%
%TF.ProjectId,reversible,72657665-7273-4696-926c-652e6b696361,0.5.0*%
%TF.SameCoordinates,Original*%
%TF.FileFunction,Legend,Top*%
%TF.FilePolarity,Positive*%
%FSLAX46Y46*%
G04 Gerber Fmt 4.6, Leading zero omitted, Abs format (unit mm)*
G04 Created by KiCad (PCBNEW 8.0.4) date 2024-07-28 16:02:37*
%MOMM*%
%LPD*%
G01*
G04 APERTURE LIST*
%ADD10C,0.250000*%
%ADD11C,0.150000*%
%ADD12C,0.120000*%
%ADD13C,0.100000*%
G04 APERTURE END LIST*
D10*
G36*
X121397031Y-101301330D02*
G01*
X121535761Y-101301330D01*
X121535761Y-102210891D01*
X122028643Y-102210891D01*
X122028643Y-102317381D01*
X121397031Y-102317381D01*
X121397031Y-101301330D01*
G37*
G36*
X122449717Y-101410751D02*
G01*
X122429201Y-101390723D01*
X122429201Y-101274464D01*
X122449717Y-101254436D01*
X122548147Y-101254436D01*
X122568664Y-101274464D01*
X122568664Y-101390723D01*
X122548147Y-101410751D01*
X122449717Y-101410751D01*
G37*
G36*
X122679306Y-102317381D02*
G01*
X122626076Y-102312923D01*
X122573820Y-102297252D01*
X122529639Y-102270299D01*
X122504672Y-102246062D01*
X122474801Y-102201347D01*
X122456456Y-102153879D01*
X122445835Y-102099146D01*
X122442879Y-102045294D01*
X122442879Y-101657925D01*
X122275328Y-101657925D01*
X122275328Y-101551435D01*
X122568664Y-101551435D01*
X122568664Y-102041386D01*
X122572358Y-102093524D01*
X122586249Y-102143235D01*
X122599927Y-102167415D01*
X122638639Y-102200022D01*
X122688020Y-102210848D01*
X122691762Y-102210891D01*
X122838552Y-102210891D01*
X122838552Y-102317381D01*
X122679306Y-102317381D01*
G37*
G36*
X123416186Y-102333012D02*
G01*
X123365127Y-102330593D01*
X123311268Y-102321903D01*
X123262202Y-102306894D01*
X123217929Y-102285564D01*
X123212732Y-102282454D01*
X123169621Y-102250885D01*
X123132885Y-102213056D01*
X123102524Y-102168968D01*
X123088412Y-102141770D01*
X123070033Y-102095013D01*
X123056905Y-102044867D01*
X123049028Y-101991332D01*
X123046444Y-101941709D01*
X123046403Y-101934408D01*
X123048425Y-101884152D01*
X123055687Y-101830037D01*
X123068231Y-101779463D01*
X123086057Y-101732431D01*
X123088657Y-101726801D01*
X123115730Y-101679354D01*
X123149141Y-101638127D01*
X123188889Y-101603121D01*
X123213709Y-101586362D01*
X123257581Y-101564242D01*
X123306399Y-101548443D01*
X123360163Y-101538963D01*
X123411264Y-101535853D01*
X123418873Y-101535803D01*
X123468572Y-101538262D01*
X123517405Y-101546410D01*
X123533667Y-101550702D01*
X123582235Y-101567661D01*
X123628437Y-101589299D01*
X123638447Y-101594666D01*
X123638447Y-101729244D01*
X123598916Y-101696956D01*
X123556254Y-101670749D01*
X123540994Y-101663542D01*
X123492247Y-101648290D01*
X123441424Y-101642480D01*
X123429864Y-101642293D01*
X123380888Y-101645404D01*
X123329056Y-101657654D01*
X123282585Y-101681616D01*
X123245663Y-101714772D01*
X123217327Y-101755622D01*
X123203207Y-101787129D01*
X123189440Y-101834395D01*
X123181388Y-101885182D01*
X123179027Y-101934408D01*
X123181412Y-101983294D01*
X123189545Y-102033984D01*
X123203451Y-102081442D01*
X123226177Y-102127604D01*
X123257352Y-102166072D01*
X123282830Y-102187443D01*
X123329049Y-102211257D01*
X123380529Y-102223431D01*
X123429131Y-102226522D01*
X123480282Y-102222782D01*
X123528160Y-102211562D01*
X123541239Y-102206983D01*
X123585450Y-102185538D01*
X123627044Y-102155398D01*
X123638447Y-102145189D01*
X123638447Y-102274394D01*
X123594419Y-102297234D01*
X123547820Y-102314465D01*
X123498649Y-102326085D01*
X123446907Y-102332096D01*
X123416186Y-102333012D01*
G37*
G36*
X124270355Y-101539281D02*
G01*
X124320518Y-101549714D01*
X124372921Y-101570676D01*
X124418733Y-101601105D01*
X124452753Y-101634722D01*
X124481472Y-101674487D01*
X124504250Y-101719592D01*
X124521086Y-101770039D01*
X124531979Y-101825827D01*
X124536518Y-101876396D01*
X124537261Y-101908518D01*
X124537261Y-101970556D01*
X123992355Y-101970556D01*
X123992355Y-101974464D01*
X123996278Y-102029174D01*
X124008048Y-102078023D01*
X124030667Y-102125970D01*
X124055126Y-102158134D01*
X124095324Y-102191193D01*
X124145028Y-102213432D01*
X124197189Y-102224118D01*
X124241239Y-102226522D01*
X124293926Y-102223500D01*
X124345378Y-102214432D01*
X124378992Y-102205029D01*
X124428382Y-102187638D01*
X124476536Y-102167705D01*
X124507952Y-102153005D01*
X124507952Y-102274394D01*
X124458985Y-102292884D01*
X124409537Y-102308420D01*
X124376305Y-102317136D01*
X124325884Y-102326811D01*
X124274639Y-102332020D01*
X124240017Y-102333012D01*
X124186542Y-102330442D01*
X124136787Y-102322732D01*
X124081992Y-102306695D01*
X124032556Y-102283256D01*
X123988478Y-102252416D01*
X123962069Y-102227743D01*
X123927788Y-102185471D01*
X123900600Y-102137789D01*
X123880504Y-102084698D01*
X123869176Y-102036323D01*
X123862773Y-101984191D01*
X123861197Y-101939781D01*
X123863700Y-101884582D01*
X123866634Y-101864066D01*
X123997240Y-101864066D01*
X124411476Y-101864066D01*
X124407783Y-101811860D01*
X124396703Y-101764235D01*
X124392181Y-101751470D01*
X124367390Y-101706407D01*
X124331120Y-101671847D01*
X124285779Y-101650634D01*
X124236846Y-101642755D01*
X124219990Y-101642293D01*
X124170977Y-101646484D01*
X124121870Y-101661964D01*
X124103486Y-101672091D01*
X124064205Y-101704534D01*
X124033834Y-101745993D01*
X124030457Y-101752203D01*
X124011116Y-101798378D01*
X123999255Y-101848854D01*
X123997240Y-101864066D01*
X123866634Y-101864066D01*
X123871211Y-101832070D01*
X123883728Y-101782244D01*
X123901253Y-101735106D01*
X123923708Y-101691676D01*
X123954772Y-101648474D01*
X123991980Y-101611262D01*
X124020199Y-101589781D01*
X124067531Y-101563688D01*
X124114567Y-101547664D01*
X124166274Y-101538386D01*
X124215349Y-101535803D01*
X124270355Y-101539281D01*
G37*
G36*
X124751950Y-101551435D02*
G01*
X124865279Y-101551435D01*
X124877736Y-101668671D01*
X124906630Y-101623517D01*
X124941655Y-101587705D01*
X124982810Y-101561235D01*
X125030097Y-101544108D01*
X125083515Y-101536322D01*
X125102683Y-101535803D01*
X125157638Y-101540627D01*
X125205265Y-101555099D01*
X125254495Y-101586755D01*
X125292277Y-101633485D01*
X125314259Y-101681723D01*
X125328913Y-101739609D01*
X125335096Y-101789354D01*
X125337156Y-101844526D01*
X125337156Y-102317381D01*
X125210639Y-102317381D01*
X125210639Y-101842817D01*
X125207798Y-101789030D01*
X125197981Y-101739418D01*
X125176944Y-101693989D01*
X125174735Y-101690898D01*
X125135792Y-101657672D01*
X125086153Y-101643480D01*
X125063604Y-101642293D01*
X125011636Y-101648471D01*
X124963837Y-101669537D01*
X124925851Y-101705552D01*
X124900478Y-101750193D01*
X124885677Y-101799099D01*
X124878910Y-101849512D01*
X124877736Y-101884338D01*
X124877736Y-102317381D01*
X124751950Y-102317381D01*
X124751950Y-101551435D01*
G37*
G36*
X125863500Y-102333012D02*
G01*
X125813793Y-102330698D01*
X125760417Y-102323756D01*
X125711745Y-102314121D01*
X125660376Y-102301087D01*
X125606312Y-102284652D01*
X125606312Y-102155203D01*
X125659060Y-102179441D01*
X125709592Y-102198663D01*
X125757909Y-102212871D01*
X125811479Y-102223109D01*
X125862034Y-102226522D01*
X125913162Y-102222626D01*
X125960314Y-102209488D01*
X125989773Y-102193549D01*
X126024134Y-102157525D01*
X126037598Y-102108333D01*
X126037645Y-102104889D01*
X126024971Y-102056709D01*
X125997589Y-102027464D01*
X125953591Y-102003922D01*
X125906165Y-101988377D01*
X125870094Y-101979837D01*
X125817582Y-101969090D01*
X125767207Y-101956481D01*
X125719147Y-101938136D01*
X125676443Y-101912586D01*
X125659313Y-101897771D01*
X125628653Y-101855353D01*
X125612979Y-101807599D01*
X125608999Y-101762217D01*
X125613700Y-101710895D01*
X125630230Y-101660676D01*
X125658660Y-101618417D01*
X125684225Y-101594666D01*
X125725808Y-101568914D01*
X125775328Y-101550519D01*
X125825170Y-101540460D01*
X125881089Y-101536033D01*
X125898182Y-101535803D01*
X125949313Y-101538024D01*
X125999696Y-101544686D01*
X126049330Y-101555789D01*
X126098217Y-101571333D01*
X126125816Y-101582210D01*
X126125816Y-101705796D01*
X126078439Y-101681053D01*
X126030127Y-101662386D01*
X125980879Y-101649797D01*
X125930697Y-101643286D01*
X125901602Y-101642293D01*
X125845408Y-101646217D01*
X125794542Y-101660715D01*
X125752397Y-101695051D01*
X125736411Y-101747045D01*
X125736249Y-101753912D01*
X125745601Y-101803053D01*
X125750415Y-101811554D01*
X125790923Y-101841730D01*
X125805126Y-101847457D01*
X125855195Y-101862173D01*
X125905250Y-101873610D01*
X125924316Y-101877499D01*
X125974874Y-101887025D01*
X126029617Y-101901810D01*
X126075081Y-101922965D01*
X126117390Y-101956756D01*
X126146339Y-101999718D01*
X126161926Y-102051850D01*
X126164895Y-102091700D01*
X126159843Y-102144792D01*
X126144684Y-102191962D01*
X126115552Y-102237948D01*
X126084051Y-102268532D01*
X126040041Y-102296742D01*
X125988613Y-102316892D01*
X125937527Y-102327912D01*
X125880762Y-102332760D01*
X125863500Y-102333012D01*
G37*
G36*
X126796803Y-101539281D02*
G01*
X126846966Y-101549714D01*
X126899369Y-101570676D01*
X126945181Y-101601105D01*
X126979201Y-101634722D01*
X127007920Y-101674487D01*
X127030698Y-101719592D01*
X127047534Y-101770039D01*
X127058427Y-101825827D01*
X127062966Y-101876396D01*
X127063709Y-101908518D01*
X127063709Y-101970556D01*
X126518803Y-101970556D01*
X126518803Y-101974464D01*
X126522726Y-102029174D01*
X126534496Y-102078023D01*
X126557115Y-102125970D01*
X126581574Y-102158134D01*
X126621772Y-102191193D01*
X126671476Y-102213432D01*
X126723637Y-102224118D01*
X126767687Y-102226522D01*
X126820374Y-102223500D01*
X126871826Y-102214432D01*
X126905440Y-102205029D01*
X126954830Y-102187638D01*
X127002984Y-102167705D01*
X127034400Y-102153005D01*
X127034400Y-102274394D01*
X126985433Y-102292884D01*
X126935985Y-102308420D01*
X126902753Y-102317136D01*
X126852332Y-102326811D01*
X126801087Y-102332020D01*
X126766465Y-102333012D01*
X126712990Y-102330442D01*
X126663235Y-102322732D01*
X126608440Y-102306695D01*
X126559004Y-102283256D01*
X126514926Y-102252416D01*
X126488517Y-102227743D01*
X126454236Y-102185471D01*
X126427048Y-102137789D01*
X126406952Y-102084698D01*
X126395624Y-102036323D01*
X126389221Y-101984191D01*
X126387645Y-101939781D01*
X126390148Y-101884582D01*
X126393082Y-101864066D01*
X126523688Y-101864066D01*
X126937924Y-101864066D01*
X126934231Y-101811860D01*
X126923151Y-101764235D01*
X126918629Y-101751470D01*
X126893838Y-101706407D01*
X126857568Y-101671847D01*
X126812227Y-101650634D01*
X126763294Y-101642755D01*
X126746438Y-101642293D01*
X126697425Y-101646484D01*
X126648318Y-101661964D01*
X126629934Y-101672091D01*
X126590653Y-101704534D01*
X126560282Y-101745993D01*
X126556905Y-101752203D01*
X126537564Y-101798378D01*
X126525703Y-101848854D01*
X126523688Y-101864066D01*
X126393082Y-101864066D01*
X126397659Y-101832070D01*
X126410176Y-101782244D01*
X126427701Y-101735106D01*
X126450156Y-101691676D01*
X126481220Y-101648474D01*
X126518428Y-101611262D01*
X126546647Y-101589781D01*
X126593979Y-101563688D01*
X126641015Y-101547664D01*
X126692722Y-101538386D01*
X126741797Y-101535803D01*
X126796803Y-101539281D01*
G37*
G36*
X127857254Y-102317381D02*
G01*
X127743925Y-102317381D01*
X127731469Y-102216997D01*
X127698410Y-102262202D01*
X127658433Y-102296304D01*
X127611536Y-102319303D01*
X127557721Y-102331199D01*
X127523863Y-102333012D01*
X127474255Y-102329577D01*
X127425693Y-102317865D01*
X127383423Y-102297841D01*
X127344119Y-102267982D01*
X127311203Y-102231529D01*
X127292809Y-102203563D01*
X127270140Y-102157516D01*
X127252692Y-102108034D01*
X127243960Y-102073138D01*
X127235478Y-102023823D01*
X127230516Y-101974277D01*
X127229210Y-101933675D01*
X127361685Y-101933675D01*
X127363615Y-101983979D01*
X127368524Y-102030884D01*
X127378355Y-102080221D01*
X127394170Y-102126138D01*
X127419184Y-102168560D01*
X127449613Y-102198434D01*
X127495156Y-102220350D01*
X127546333Y-102226522D01*
X127596983Y-102220458D01*
X127642320Y-102198923D01*
X127678049Y-102162421D01*
X127698252Y-102126871D01*
X127714616Y-102080770D01*
X127724630Y-102031372D01*
X127729759Y-101981424D01*
X127731469Y-101933675D01*
X127729539Y-101883578D01*
X127724630Y-101837199D01*
X127714616Y-101788045D01*
X127698252Y-101742189D01*
X127672857Y-101699714D01*
X127642320Y-101670137D01*
X127596983Y-101648411D01*
X127546333Y-101642293D01*
X127495156Y-101648411D01*
X127449613Y-101670137D01*
X127414038Y-101706519D01*
X127394170Y-101742189D01*
X127377565Y-101791021D01*
X127368524Y-101837199D01*
X127363395Y-101886597D01*
X127361685Y-101933675D01*
X127229210Y-101933675D01*
X127229061Y-101929034D01*
X127231023Y-101874102D01*
X127236909Y-101822879D01*
X127249150Y-101766308D01*
X127267042Y-101715077D01*
X127290584Y-101669187D01*
X127309417Y-101641561D01*
X127347273Y-101600352D01*
X127390528Y-101569266D01*
X127439183Y-101548300D01*
X127493237Y-101537456D01*
X127526549Y-101535803D01*
X127578666Y-101540681D01*
X127626269Y-101555313D01*
X127646717Y-101565357D01*
X127686508Y-101594491D01*
X127718964Y-101634268D01*
X127731469Y-101656215D01*
X127731469Y-101254436D01*
X127857254Y-101254436D01*
X127857254Y-102317381D01*
G37*
G36*
X129195705Y-102333012D02*
G01*
X129141094Y-102328188D01*
X129093764Y-102313717D01*
X129044841Y-102282061D01*
X129007296Y-102235330D01*
X128985452Y-102187092D01*
X128970889Y-102129207D01*
X128964745Y-102079461D01*
X128962697Y-102024289D01*
X128962697Y-101551435D01*
X129088482Y-101551435D01*
X129088482Y-102025999D01*
X129092137Y-102083767D01*
X129103103Y-102131744D01*
X129125912Y-102176391D01*
X129165828Y-102210660D01*
X129220073Y-102225739D01*
X129238203Y-102226522D01*
X129288988Y-102220345D01*
X129335926Y-102199279D01*
X129373514Y-102163263D01*
X129398758Y-102118622D01*
X129413485Y-102069717D01*
X129420216Y-102019304D01*
X129421385Y-101984477D01*
X129421385Y-101551435D01*
X129547903Y-101551435D01*
X129547903Y-102317381D01*
X129433597Y-102317381D01*
X129421385Y-102201365D01*
X129392614Y-102246105D01*
X129357592Y-102281587D01*
X129316319Y-102307814D01*
X129268794Y-102324784D01*
X129215019Y-102332498D01*
X129195705Y-102333012D01*
G37*
G36*
X129804846Y-101551435D02*
G01*
X129918175Y-101551435D01*
X129930632Y-101668671D01*
X129959526Y-101623517D01*
X129994551Y-101587705D01*
X130035707Y-101561235D01*
X130082993Y-101544108D01*
X130136411Y-101536322D01*
X130155579Y-101535803D01*
X130210534Y-101540627D01*
X130258161Y-101555099D01*
X130307391Y-101586755D01*
X130345173Y-101633485D01*
X130367155Y-101681723D01*
X130381809Y-101739609D01*
X130387992Y-101789354D01*
X130390052Y-101844526D01*
X130390052Y-102317381D01*
X130263535Y-102317381D01*
X130263535Y-101842817D01*
X130260694Y-101789030D01*
X130250877Y-101739418D01*
X130229840Y-101693989D01*
X130227631Y-101690898D01*
X130188688Y-101657672D01*
X130139049Y-101643480D01*
X130116500Y-101642293D01*
X130064532Y-101648471D01*
X130016733Y-101669537D01*
X129978747Y-101705552D01*
X129953374Y-101750193D01*
X129938573Y-101799099D01*
X129931806Y-101849512D01*
X129930632Y-101884338D01*
X129930632Y-102317381D01*
X129804846Y-102317381D01*
X129804846Y-101551435D01*
G37*
G36*
X131225851Y-102317381D02*
G01*
X131112523Y-102317381D01*
X131100066Y-102216997D01*
X131067008Y-102262202D01*
X131027030Y-102296304D01*
X130980134Y-102319303D01*
X130926318Y-102331199D01*
X130892460Y-102333012D01*
X130842853Y-102329577D01*
X130794291Y-102317865D01*
X130752020Y-102297841D01*
X130712716Y-102267982D01*
X130679801Y-102231529D01*
X130661406Y-102203563D01*
X130638737Y-102157516D01*
X130621289Y-102108034D01*
X130612558Y-102073138D01*
X130604075Y-102023823D01*
X130599114Y-101974277D01*
X130597808Y-101933675D01*
X130730283Y-101933675D01*
X130732213Y-101983979D01*
X130737121Y-102030884D01*
X130746952Y-102080221D01*
X130762767Y-102126138D01*
X130787781Y-102168560D01*
X130818210Y-102198434D01*
X130863754Y-102220350D01*
X130914930Y-102226522D01*
X130965581Y-102220458D01*
X131010918Y-102198923D01*
X131046647Y-102162421D01*
X131066849Y-102126871D01*
X131083214Y-102080770D01*
X131093227Y-102031372D01*
X131098357Y-101981424D01*
X131100066Y-101933675D01*
X131098136Y-101883578D01*
X131093227Y-101837199D01*
X131083214Y-101788045D01*
X131066849Y-101742189D01*
X131041454Y-101699714D01*
X131010918Y-101670137D01*
X130965581Y-101648411D01*
X130914930Y-101642293D01*
X130863754Y-101648411D01*
X130818210Y-101670137D01*
X130782635Y-101706519D01*
X130762767Y-101742189D01*
X130746162Y-101791021D01*
X130737121Y-101837199D01*
X130731992Y-101886597D01*
X130730283Y-101933675D01*
X130597808Y-101933675D01*
X130597659Y-101929034D01*
X130599621Y-101874102D01*
X130605506Y-101822879D01*
X130617748Y-101766308D01*
X130635639Y-101715077D01*
X130659181Y-101669187D01*
X130678015Y-101641561D01*
X130715870Y-101600352D01*
X130759125Y-101569266D01*
X130807780Y-101548300D01*
X130861834Y-101537456D01*
X130895147Y-101535803D01*
X130947264Y-101540681D01*
X130994866Y-101555313D01*
X131015314Y-101565357D01*
X131055106Y-101594491D01*
X131087561Y-101634268D01*
X131100066Y-101656215D01*
X131100066Y-101254436D01*
X131225851Y-101254436D01*
X131225851Y-102317381D01*
G37*
G36*
X131849699Y-101539281D02*
G01*
X131899862Y-101549714D01*
X131952265Y-101570676D01*
X131998077Y-101601105D01*
X132032097Y-101634722D01*
X132060817Y-101674487D01*
X132083594Y-101719592D01*
X132100430Y-101770039D01*
X132111323Y-101825827D01*
X132115862Y-101876396D01*
X132116605Y-101908518D01*
X132116605Y-101970556D01*
X131571699Y-101970556D01*
X131571699Y-101974464D01*
X131575622Y-102029174D01*
X131587392Y-102078023D01*
X131610011Y-102125970D01*
X131634470Y-102158134D01*
X131674668Y-102191193D01*
X131724372Y-102213432D01*
X131776533Y-102224118D01*
X131820583Y-102226522D01*
X131873270Y-102223500D01*
X131924722Y-102214432D01*
X131958336Y-102205029D01*
X132007726Y-102187638D01*
X132055880Y-102167705D01*
X132087296Y-102153005D01*
X132087296Y-102274394D01*
X132038329Y-102292884D01*
X131988881Y-102308420D01*
X131955649Y-102317136D01*
X131905228Y-102326811D01*
X131853983Y-102332020D01*
X131819361Y-102333012D01*
X131765886Y-102330442D01*
X131716131Y-102322732D01*
X131661336Y-102306695D01*
X131611900Y-102283256D01*
X131567822Y-102252416D01*
X131541413Y-102227743D01*
X131507132Y-102185471D01*
X131479944Y-102137789D01*
X131459848Y-102084698D01*
X131448520Y-102036323D01*
X131442117Y-101984191D01*
X131440541Y-101939781D01*
X131443044Y-101884582D01*
X131445978Y-101864066D01*
X131576584Y-101864066D01*
X131990820Y-101864066D01*
X131987127Y-101811860D01*
X131976047Y-101764235D01*
X131971525Y-101751470D01*
X131946734Y-101706407D01*
X131910464Y-101671847D01*
X131865123Y-101650634D01*
X131816190Y-101642755D01*
X131799334Y-101642293D01*
X131750321Y-101646484D01*
X131701214Y-101661964D01*
X131682830Y-101672091D01*
X131643549Y-101704534D01*
X131613178Y-101745993D01*
X131609801Y-101752203D01*
X131590460Y-101798378D01*
X131578599Y-101848854D01*
X131576584Y-101864066D01*
X131445978Y-101864066D01*
X131450555Y-101832070D01*
X131463072Y-101782244D01*
X131480597Y-101735106D01*
X131503052Y-101691676D01*
X131534116Y-101648474D01*
X131571324Y-101611262D01*
X131599543Y-101589781D01*
X131646875Y-101563688D01*
X131693911Y-101547664D01*
X131745618Y-101538386D01*
X131794693Y-101535803D01*
X131849699Y-101539281D01*
G37*
G36*
X132404323Y-101551435D02*
G01*
X132518629Y-101551435D01*
X132530841Y-101703110D01*
X132554139Y-101656255D01*
X132583735Y-101616747D01*
X132623563Y-101581773D01*
X132627561Y-101579034D01*
X132675061Y-101554421D01*
X132723451Y-101540912D01*
X132776803Y-101535846D01*
X132782411Y-101535803D01*
X132833510Y-101539262D01*
X132885755Y-101551216D01*
X132933230Y-101571710D01*
X132946542Y-101579523D01*
X132946542Y-101711414D01*
X132907845Y-101681174D01*
X132860260Y-101657481D01*
X132808386Y-101644723D01*
X132771420Y-101642293D01*
X132716664Y-101646980D01*
X132668655Y-101661039D01*
X132622710Y-101688059D01*
X132592879Y-101717276D01*
X132565737Y-101758843D01*
X132546350Y-101808562D01*
X132535748Y-101858752D01*
X132531083Y-101915184D01*
X132530841Y-101932454D01*
X132530841Y-102317381D01*
X132404323Y-102317381D01*
X132404323Y-101551435D01*
G37*
G36*
X134433981Y-102317381D02*
G01*
X134384027Y-102315406D01*
X134333061Y-102308109D01*
X134284461Y-102293188D01*
X134242084Y-102268007D01*
X134234435Y-102261205D01*
X134203652Y-102218319D01*
X134185695Y-102166426D01*
X134178113Y-102117355D01*
X134176061Y-102069230D01*
X134176061Y-101657925D01*
X133971874Y-101657925D01*
X133971874Y-101551435D01*
X134176061Y-101551435D01*
X134176061Y-101351889D01*
X134301846Y-101297178D01*
X134301846Y-101551435D01*
X134587610Y-101551435D01*
X134587610Y-101657925D01*
X134301846Y-101657925D01*
X134301846Y-102063612D01*
X134305655Y-102113953D01*
X134321524Y-102161411D01*
X134334086Y-102178162D01*
X134378233Y-102202708D01*
X134426971Y-102210379D01*
X134446193Y-102210891D01*
X134587610Y-102210891D01*
X134587610Y-102317381D01*
X134433981Y-102317381D01*
G37*
G36*
X134857742Y-101254436D02*
G01*
X134983528Y-101254436D01*
X134983528Y-101668671D01*
X135012465Y-101623517D01*
X135047618Y-101587705D01*
X135088989Y-101561235D01*
X135136576Y-101544108D01*
X135190380Y-101536322D01*
X135209696Y-101535803D01*
X135259250Y-101539262D01*
X135310370Y-101552881D01*
X135354288Y-101579523D01*
X135387627Y-101615907D01*
X135412174Y-101659848D01*
X135423653Y-101693340D01*
X135434639Y-101742831D01*
X135441064Y-101794919D01*
X135442948Y-101844526D01*
X135442948Y-102317381D01*
X135316431Y-102317381D01*
X135316431Y-101842817D01*
X135313552Y-101789030D01*
X135303601Y-101739418D01*
X135282277Y-101693989D01*
X135280038Y-101690898D01*
X135240695Y-101657672D01*
X135190349Y-101643480D01*
X135167442Y-101642293D01*
X135118498Y-101647239D01*
X135072423Y-101665512D01*
X135056312Y-101677464D01*
X135023965Y-101714891D01*
X135002030Y-101761227D01*
X134999892Y-101768078D01*
X134988705Y-101817620D01*
X134983783Y-101869218D01*
X134983528Y-101884338D01*
X134983528Y-102317381D01*
X134857742Y-102317381D01*
X134857742Y-101254436D01*
G37*
G36*
X136060446Y-101539281D02*
G01*
X136110609Y-101549714D01*
X136163012Y-101570676D01*
X136208823Y-101601105D01*
X136242844Y-101634722D01*
X136271563Y-101674487D01*
X136294341Y-101719592D01*
X136311176Y-101770039D01*
X136322070Y-101825827D01*
X136326609Y-101876396D01*
X136327352Y-101908518D01*
X136327352Y-101970556D01*
X135782446Y-101970556D01*
X135782446Y-101974464D01*
X135786369Y-102029174D01*
X135798139Y-102078023D01*
X135820758Y-102125970D01*
X135845216Y-102158134D01*
X135885415Y-102191193D01*
X135935119Y-102213432D01*
X135987280Y-102224118D01*
X136031329Y-102226522D01*
X136084017Y-102223500D01*
X136135468Y-102214432D01*
X136169082Y-102205029D01*
X136218473Y-102187638D01*
X136266627Y-102167705D01*
X136298043Y-102153005D01*
X136298043Y-102274394D01*
X136249076Y-102292884D01*
X136199628Y-102308420D01*
X136166396Y-102317136D01*
X136115975Y-102326811D01*
X136064730Y-102332020D01*
X136030108Y-102333012D01*
X135976632Y-102330442D01*
X135926877Y-102322732D01*
X135872083Y-102306695D01*
X135822647Y-102283256D01*
X135778569Y-102252416D01*
X135752160Y-102227743D01*
X135717879Y-102185471D01*
X135690691Y-102137789D01*
X135670595Y-102084698D01*
X135659267Y-102036323D01*
X135652864Y-101984191D01*
X135651287Y-101939781D01*
X135653791Y-101884582D01*
X135656725Y-101864066D01*
X135787331Y-101864066D01*
X136201567Y-101864066D01*
X136197873Y-101811860D01*
X136186794Y-101764235D01*
X136182271Y-101751470D01*
X136157481Y-101706407D01*
X136121211Y-101671847D01*
X136075870Y-101650634D01*
X136026937Y-101642755D01*
X136010080Y-101642293D01*
X135961068Y-101646484D01*
X135911960Y-101661964D01*
X135893576Y-101672091D01*
X135854296Y-101704534D01*
X135823924Y-101745993D01*
X135820548Y-101752203D01*
X135801207Y-101798378D01*
X135789346Y-101848854D01*
X135787331Y-101864066D01*
X135656725Y-101864066D01*
X135661301Y-101832070D01*
X135673819Y-101782244D01*
X135691343Y-101735106D01*
X135713798Y-101691676D01*
X135744863Y-101648474D01*
X135782071Y-101611262D01*
X135810290Y-101589781D01*
X135857621Y-101563688D01*
X135904657Y-101547664D01*
X135956364Y-101538386D01*
X136005440Y-101535803D01*
X136060446Y-101539281D01*
G37*
G36*
X137729306Y-102333012D02*
G01*
X137676090Y-102330230D01*
X137626352Y-102321884D01*
X137575166Y-102306084D01*
X137555893Y-102297841D01*
X137510966Y-102272687D01*
X137470523Y-102241188D01*
X137434564Y-102203345D01*
X137427910Y-102195015D01*
X137396950Y-102149108D01*
X137371238Y-102097943D01*
X137350773Y-102041518D01*
X137338179Y-101992591D01*
X137328944Y-101940298D01*
X137323067Y-101884639D01*
X137320548Y-101825614D01*
X137320443Y-101810332D01*
X137322153Y-101749569D01*
X137327282Y-101692333D01*
X137335830Y-101638622D01*
X137347798Y-101588438D01*
X137363186Y-101541780D01*
X137387228Y-101488416D01*
X137416614Y-101440562D01*
X137429864Y-101422963D01*
X137466079Y-101383419D01*
X137506338Y-101350578D01*
X137550639Y-101324438D01*
X137598983Y-101305002D01*
X137651370Y-101292267D01*
X137707800Y-101286235D01*
X137731504Y-101285699D01*
X137780562Y-101288069D01*
X137831151Y-101295985D01*
X137857289Y-101302551D01*
X137904978Y-101319937D01*
X137950410Y-101342725D01*
X137970618Y-101355064D01*
X137970618Y-101495503D01*
X137932255Y-101462209D01*
X137912244Y-101447876D01*
X137868768Y-101422498D01*
X137857289Y-101417101D01*
X137809221Y-101400966D01*
X137795495Y-101398050D01*
X137746945Y-101392469D01*
X137733458Y-101392189D01*
X137678258Y-101397156D01*
X137629346Y-101412057D01*
X137586722Y-101436893D01*
X137550386Y-101471663D01*
X137532446Y-101495992D01*
X137506084Y-101546548D01*
X137488642Y-101598068D01*
X137477740Y-101646774D01*
X137470142Y-101700726D01*
X137465848Y-101759927D01*
X137464791Y-101811065D01*
X137465813Y-101863104D01*
X137469409Y-101917013D01*
X137475594Y-101966015D01*
X137481155Y-101995957D01*
X137494368Y-102045792D01*
X137513259Y-102093178D01*
X137530492Y-102123940D01*
X137562317Y-102163911D01*
X137600944Y-102194065D01*
X137646373Y-102214401D01*
X137698604Y-102224919D01*
X137731504Y-102226522D01*
X137781341Y-102222475D01*
X137811371Y-102215043D01*
X137843367Y-102201365D01*
X137873653Y-102180849D01*
X137873653Y-101892398D01*
X137725154Y-101892398D01*
X137725154Y-101785908D01*
X138005544Y-101785908D01*
X138005544Y-102234582D01*
X137965509Y-102265390D01*
X137922646Y-102290310D01*
X137881225Y-102307855D01*
X137831757Y-102322178D01*
X137779404Y-102330555D01*
X137729306Y-102333012D01*
G37*
G36*
X138187994Y-101301330D02*
G01*
X138363116Y-101301330D01*
X138707498Y-102140304D01*
X138707498Y-101301330D01*
X138840855Y-101301330D01*
X138840855Y-102317381D01*
X138665733Y-102317381D01*
X138321350Y-101492817D01*
X138321350Y-102317381D01*
X138187994Y-102317381D01*
X138187994Y-101301330D01*
G37*
G36*
X139356207Y-102333012D02*
G01*
X139304722Y-102330264D01*
X139253054Y-102321086D01*
X139227003Y-102313473D01*
X139180860Y-102293399D01*
X139172048Y-102288804D01*
X139130201Y-102260897D01*
X139121734Y-102253633D01*
X139089354Y-102217028D01*
X139084121Y-102209181D01*
X139062185Y-102163065D01*
X139056033Y-102144457D01*
X139044889Y-102095551D01*
X139040401Y-102059704D01*
X139037062Y-102008654D01*
X139035688Y-101955073D01*
X139035516Y-101924882D01*
X139035516Y-101301330D01*
X139174491Y-101301330D01*
X139174491Y-101990828D01*
X139175040Y-102040470D01*
X139177700Y-102090101D01*
X139178398Y-102096341D01*
X139192174Y-102144321D01*
X139192809Y-102145434D01*
X139223721Y-102184434D01*
X139256312Y-102206006D01*
X139304941Y-102222014D01*
X139356207Y-102226522D01*
X139407999Y-102222014D01*
X139456835Y-102206006D01*
X139497725Y-102176141D01*
X139520338Y-102145434D01*
X139534749Y-102097073D01*
X139537909Y-102048095D01*
X139538653Y-101996573D01*
X139538657Y-101992049D01*
X139538657Y-101301330D01*
X139676898Y-101301330D01*
X139676898Y-101924882D01*
X139676350Y-101977018D01*
X139674243Y-102029316D01*
X139671281Y-102064345D01*
X139664308Y-102114216D01*
X139657603Y-102144457D01*
X139639605Y-102190722D01*
X139610496Y-102233633D01*
X139590680Y-102253633D01*
X139550619Y-102283264D01*
X139540366Y-102289048D01*
X139494488Y-102310365D01*
X139486144Y-102313473D01*
X139438411Y-102325876D01*
X139428503Y-102327639D01*
X139378219Y-102332587D01*
X139356207Y-102333012D01*
G37*
G36*
X141097903Y-102333012D02*
G01*
X141044687Y-102330230D01*
X140994949Y-102321884D01*
X140943763Y-102306084D01*
X140924491Y-102297841D01*
X140879563Y-102272687D01*
X140839120Y-102241188D01*
X140803161Y-102203345D01*
X140796507Y-102195015D01*
X140765548Y-102149108D01*
X140739835Y-102097943D01*
X140719370Y-102041518D01*
X140706777Y-101992591D01*
X140697541Y-101940298D01*
X140691664Y-101884639D01*
X140689145Y-101825614D01*
X140689040Y-101810332D01*
X140690750Y-101749569D01*
X140695879Y-101692333D01*
X140704428Y-101638622D01*
X140716396Y-101588438D01*
X140731783Y-101541780D01*
X140755826Y-101488416D01*
X140785211Y-101440562D01*
X140798461Y-101422963D01*
X140834677Y-101383419D01*
X140874935Y-101350578D01*
X140919236Y-101324438D01*
X140967580Y-101305002D01*
X141019967Y-101292267D01*
X141076397Y-101286235D01*
X141100101Y-101285699D01*
X141149160Y-101288069D01*
X141199748Y-101295985D01*
X141225886Y-101302551D01*
X141273576Y-101319937D01*
X141319008Y-101342725D01*
X141339215Y-101355064D01*
X141339215Y-101495503D01*
X141300852Y-101462209D01*
X141280841Y-101447876D01*
X141237365Y-101422498D01*
X141225886Y-101417101D01*
X141177819Y-101400966D01*
X141164093Y-101398050D01*
X141115542Y-101392469D01*
X141102055Y-101392189D01*
X141046856Y-101397156D01*
X140997944Y-101412057D01*
X140955320Y-101436893D01*
X140918984Y-101471663D01*
X140901043Y-101495992D01*
X140874681Y-101546548D01*
X140857239Y-101598068D01*
X140846338Y-101646774D01*
X140838740Y-101700726D01*
X140834445Y-101759927D01*
X140833388Y-101811065D01*
X140834411Y-101863104D01*
X140838006Y-101917013D01*
X140844191Y-101966015D01*
X140849752Y-101995957D01*
X140862965Y-102045792D01*
X140881856Y-102093178D01*
X140899089Y-102123940D01*
X140930914Y-102163911D01*
X140969541Y-102194065D01*
X141014970Y-102214401D01*
X141067201Y-102224919D01*
X141100101Y-102226522D01*
X141149938Y-102222475D01*
X141179969Y-102215043D01*
X141211964Y-102201365D01*
X141242251Y-102180849D01*
X141242251Y-101892398D01*
X141093751Y-101892398D01*
X141093751Y-101785908D01*
X141374142Y-101785908D01*
X141374142Y-102234582D01*
X141334107Y-102265390D01*
X141291243Y-102290310D01*
X141249822Y-102307855D01*
X141200355Y-102322178D01*
X141148001Y-102330555D01*
X141097903Y-102333012D01*
G37*
G36*
X141928296Y-101303203D02*
G01*
X141984350Y-101310393D01*
X142034771Y-101322975D01*
X142086476Y-101344470D01*
X142130514Y-101373304D01*
X142136179Y-101378023D01*
X142171589Y-101416437D01*
X142197461Y-101461584D01*
X142203102Y-101475720D01*
X142216860Y-101524733D01*
X142223334Y-101574198D01*
X142224351Y-101604924D01*
X142221277Y-101658428D01*
X142212055Y-101706831D01*
X142193525Y-101756854D01*
X142166628Y-101799936D01*
X142136912Y-101831337D01*
X142094852Y-101861220D01*
X142044542Y-101883764D01*
X141994850Y-101897245D01*
X141939097Y-101905333D01*
X141888005Y-101907955D01*
X141877282Y-101908029D01*
X141717303Y-101908029D01*
X141717303Y-102317381D01*
X141579061Y-102317381D01*
X141579061Y-101801540D01*
X141717303Y-101801540D01*
X141877282Y-101801540D01*
X141927712Y-101797610D01*
X141965454Y-101787618D01*
X142010392Y-101763522D01*
X142027003Y-101749516D01*
X142057317Y-101709011D01*
X142075048Y-101658694D01*
X142080248Y-101604436D01*
X142076036Y-101555120D01*
X142061477Y-101508075D01*
X142033450Y-101465747D01*
X142027003Y-101459111D01*
X141985840Y-101429909D01*
X141939052Y-101413881D01*
X141889316Y-101408020D01*
X141877282Y-101407820D01*
X141717303Y-101407820D01*
X141717303Y-101801540D01*
X141579061Y-101801540D01*
X141579061Y-101301330D01*
X141877282Y-101301330D01*
X141928296Y-101303203D01*
G37*
G36*
X142450764Y-101301330D02*
G01*
X142589494Y-101301330D01*
X142589494Y-102210891D01*
X143082376Y-102210891D01*
X143082376Y-102317381D01*
X142450764Y-102317381D01*
X142450764Y-101301330D01*
G37*
G36*
X143214267Y-101551435D02*
G01*
X143344693Y-101551435D01*
X143566954Y-102194526D01*
X143789703Y-101551435D01*
X143920373Y-101551435D01*
X143648287Y-102317381D01*
X143486354Y-102317381D01*
X143214267Y-101551435D01*
G37*
G36*
X144374909Y-102333012D02*
G01*
X144324030Y-102331363D01*
X144306277Y-102330081D01*
X144256448Y-102324771D01*
X144233493Y-102321288D01*
X144185046Y-102312374D01*
X144164372Y-102307855D01*
X144115320Y-102295052D01*
X144089878Y-102287339D01*
X144089878Y-102149586D01*
X144135088Y-102172371D01*
X144158266Y-102183047D01*
X144205314Y-102201224D01*
X144227387Y-102207960D01*
X144275910Y-102218904D01*
X144294553Y-102221882D01*
X144344928Y-102226232D01*
X144361964Y-102226522D01*
X144415637Y-102223149D01*
X144467990Y-102211288D01*
X144516189Y-102188095D01*
X144536354Y-102172544D01*
X144568425Y-102134210D01*
X144588618Y-102087288D01*
X144596636Y-102037718D01*
X144597170Y-102019648D01*
X144592398Y-101968803D01*
X144575902Y-101920011D01*
X144547624Y-101879330D01*
X144536842Y-101868706D01*
X144494877Y-101839984D01*
X144444087Y-101821900D01*
X144390831Y-101814719D01*
X144371490Y-101814240D01*
X144266221Y-101814240D01*
X144266221Y-101707750D01*
X144371490Y-101707750D01*
X144422280Y-101704505D01*
X144470556Y-101693285D01*
X144517153Y-101669242D01*
X144520478Y-101666718D01*
X144554636Y-101628048D01*
X144570710Y-101581835D01*
X144573234Y-101550214D01*
X144566296Y-101498156D01*
X144543122Y-101452845D01*
X144523897Y-101433221D01*
X144481296Y-101408217D01*
X144430478Y-101395434D01*
X144380527Y-101392189D01*
X144328815Y-101394807D01*
X144277365Y-101401926D01*
X144256696Y-101405866D01*
X144206767Y-101417704D01*
X144159853Y-101432297D01*
X144120652Y-101446899D01*
X144120652Y-101326732D01*
X144170870Y-101314911D01*
X144221867Y-101304222D01*
X144268419Y-101295957D01*
X144316825Y-101289315D01*
X144366700Y-101285949D01*
X144383946Y-101285699D01*
X144436073Y-101288206D01*
X144485109Y-101295728D01*
X144516082Y-101303528D01*
X144562757Y-101321038D01*
X144607343Y-101346657D01*
X144621839Y-101357506D01*
X144660414Y-101395776D01*
X144687968Y-101440243D01*
X144704500Y-101490909D01*
X144709924Y-101540325D01*
X144710010Y-101547771D01*
X144705335Y-101597669D01*
X144698043Y-101624219D01*
X144675287Y-101668661D01*
X144663360Y-101684059D01*
X144626261Y-101717225D01*
X144583518Y-101741115D01*
X144532189Y-101759042D01*
X144526584Y-101760507D01*
X144573937Y-101776551D01*
X144620129Y-101800840D01*
X144658824Y-101831737D01*
X144680457Y-101856006D01*
X144707187Y-101898870D01*
X144721246Y-101935629D01*
X144731156Y-101983545D01*
X144733946Y-102028685D01*
X144730649Y-102079530D01*
X144718467Y-102133552D01*
X144697310Y-102181872D01*
X144667176Y-102224487D01*
X144640157Y-102251435D01*
X144599227Y-102280796D01*
X144551848Y-102303788D01*
X144527805Y-102312251D01*
X144479986Y-102324071D01*
X144427202Y-102330985D01*
X144374909Y-102333012D01*
G37*
G36*
X145249299Y-102333012D02*
G01*
X145201376Y-102322734D01*
X145170408Y-102300528D01*
X145144537Y-102257603D01*
X145138412Y-102215775D01*
X145147442Y-102166015D01*
X145170408Y-102131267D01*
X145213773Y-102103940D01*
X145249299Y-102098539D01*
X145299326Y-102110077D01*
X145327701Y-102131267D01*
X145353770Y-102173995D01*
X145359941Y-102215775D01*
X145350842Y-102265605D01*
X145327701Y-102300528D01*
X145284625Y-102327651D01*
X145249299Y-102333012D01*
G37*
D11*
G36*
X122037541Y-99263644D02*
G01*
X121938302Y-99259438D01*
X121822626Y-99242353D01*
X121716251Y-99212126D01*
X121619179Y-99168756D01*
X121531409Y-99112244D01*
X121452941Y-99042589D01*
X121410325Y-98994488D01*
X121347702Y-98904147D01*
X121295694Y-98802261D01*
X121254299Y-98688831D01*
X121228825Y-98589776D01*
X121210144Y-98483332D01*
X121198256Y-98369499D01*
X121193162Y-98248278D01*
X121192949Y-98216819D01*
X121196346Y-98093201D01*
X121206535Y-97977094D01*
X121223518Y-97868498D01*
X121247293Y-97767412D01*
X121277862Y-97673836D01*
X121325625Y-97567429D01*
X121384003Y-97472756D01*
X121410325Y-97438173D01*
X121483212Y-97360633D01*
X121565401Y-97296235D01*
X121656891Y-97244980D01*
X121757685Y-97206867D01*
X121867780Y-97181896D01*
X121987177Y-97170068D01*
X122037541Y-97169017D01*
X122139402Y-97173972D01*
X122236401Y-97188839D01*
X122263222Y-97194907D01*
X122360158Y-97225218D01*
X122451298Y-97266691D01*
X122463012Y-97273064D01*
X122463012Y-97740057D01*
X122387699Y-97671695D01*
X122352614Y-97645290D01*
X122268974Y-97594547D01*
X122260779Y-97590580D01*
X122168049Y-97557544D01*
X122158686Y-97555409D01*
X122061232Y-97544185D01*
X122058058Y-97544174D01*
X121955231Y-97554737D01*
X121855317Y-97591875D01*
X121772095Y-97655751D01*
X121725887Y-97713190D01*
X121676306Y-97809330D01*
X121644543Y-97909732D01*
X121625950Y-98007883D01*
X121615325Y-98117197D01*
X121612559Y-98216819D01*
X121615325Y-98316779D01*
X121625950Y-98426185D01*
X121644543Y-98524084D01*
X121676306Y-98623758D01*
X121725887Y-98718494D01*
X121797981Y-98800668D01*
X121886767Y-98855949D01*
X121992246Y-98884336D01*
X122058058Y-98888487D01*
X122155366Y-98879041D01*
X122249454Y-98850705D01*
X122261756Y-98845500D01*
X122350657Y-98798445D01*
X122356522Y-98794697D01*
X122437714Y-98734686D01*
X122463012Y-98713609D01*
X122463012Y-99163016D01*
X122371106Y-99204604D01*
X122274907Y-99235029D01*
X122261756Y-99238242D01*
X122160183Y-99256475D01*
X122059765Y-99263420D01*
X122037541Y-99263644D01*
G37*
G36*
X123325678Y-98443476D02*
G01*
X122695043Y-97200280D01*
X123129795Y-97200280D01*
X123526446Y-98034125D01*
X123924561Y-97200280D01*
X124359314Y-97200280D01*
X123728679Y-98443476D01*
X123728679Y-99232381D01*
X123325678Y-99232381D01*
X123325678Y-98443476D01*
G37*
G36*
X125300135Y-97203381D02*
G01*
X125412609Y-97215288D01*
X125512855Y-97236125D01*
X125614355Y-97271721D01*
X125709977Y-97327286D01*
X125784776Y-97399399D01*
X125838204Y-97487265D01*
X125870261Y-97590885D01*
X125880780Y-97694476D01*
X125880947Y-97710259D01*
X125872909Y-97811947D01*
X125845127Y-97910159D01*
X125791645Y-98000231D01*
X125779342Y-98014586D01*
X125698022Y-98078961D01*
X125605363Y-98118650D01*
X125506715Y-98139035D01*
X125482831Y-98141592D01*
X125579683Y-98156609D01*
X125676861Y-98186994D01*
X125768961Y-98238037D01*
X125835517Y-98298396D01*
X125892425Y-98382223D01*
X125930709Y-98483129D01*
X125949104Y-98587161D01*
X125953242Y-98674041D01*
X125946991Y-98778467D01*
X125923897Y-98885971D01*
X125883786Y-98978047D01*
X125817108Y-99064387D01*
X125775434Y-99100001D01*
X125686983Y-99151582D01*
X125594202Y-99185712D01*
X125485758Y-99210533D01*
X125383424Y-99224107D01*
X125270214Y-99231217D01*
X125197067Y-99232381D01*
X124539565Y-99232381D01*
X124539565Y-98908026D01*
X124929376Y-98908026D01*
X125197067Y-98908026D01*
X125296483Y-98902848D01*
X125393224Y-98882457D01*
X125467688Y-98842569D01*
X125522735Y-98760058D01*
X125542508Y-98663601D01*
X125544380Y-98615423D01*
X125534856Y-98512936D01*
X125499042Y-98420243D01*
X125463780Y-98378508D01*
X125373059Y-98329086D01*
X125273442Y-98309671D01*
X125197067Y-98306212D01*
X124929376Y-98306212D01*
X124929376Y-98908026D01*
X124539565Y-98908026D01*
X124539565Y-97981857D01*
X124929376Y-97981857D01*
X125197067Y-97981857D01*
X125300198Y-97974232D01*
X125393564Y-97943256D01*
X125415908Y-97927635D01*
X125463291Y-97861201D01*
X125479835Y-97763342D01*
X125479900Y-97755200D01*
X125465517Y-97657548D01*
X125414443Y-97579833D01*
X125335797Y-97540755D01*
X125239076Y-97525642D01*
X125197067Y-97524635D01*
X124929376Y-97524635D01*
X124929376Y-97981857D01*
X124539565Y-97981857D01*
X124539565Y-97200280D01*
X125197067Y-97200280D01*
X125300135Y-97203381D01*
G37*
G36*
X126282482Y-97200280D02*
G01*
X127554010Y-97200280D01*
X127554010Y-97544174D01*
X126685971Y-97544174D01*
X126685971Y-97981857D01*
X127471944Y-97981857D01*
X127471944Y-98325751D01*
X126685971Y-98325751D01*
X126685971Y-98888487D01*
X127554010Y-98888487D01*
X127554010Y-99232381D01*
X126282482Y-99232381D01*
X126282482Y-97200280D01*
G37*
G36*
X128619295Y-97203655D02*
G01*
X128726090Y-97213780D01*
X128839949Y-97234840D01*
X128938214Y-97265621D01*
X129033150Y-97313816D01*
X129067339Y-97338521D01*
X129138630Y-97413211D01*
X129187543Y-97500352D01*
X129195810Y-97521215D01*
X129223326Y-97619019D01*
X129236275Y-97719460D01*
X129238309Y-97782555D01*
X129232727Y-97882525D01*
X129212907Y-97978438D01*
X129173680Y-98068186D01*
X129135727Y-98122053D01*
X129061295Y-98190804D01*
X129014582Y-98219261D01*
X128918870Y-98255081D01*
X128840681Y-98270064D01*
X128929511Y-98311762D01*
X128945706Y-98326240D01*
X128992600Y-98388766D01*
X129041096Y-98474594D01*
X129053661Y-98499163D01*
X129422956Y-99232381D01*
X128979900Y-99232381D01*
X128733703Y-98713120D01*
X128705371Y-98652548D01*
X128658134Y-98566261D01*
X128598890Y-98487950D01*
X128587646Y-98476693D01*
X128501633Y-98426294D01*
X128450870Y-98419540D01*
X128322398Y-98419540D01*
X128322398Y-99232381D01*
X127918909Y-99232381D01*
X127918909Y-98095186D01*
X128322398Y-98095186D01*
X128512419Y-98095186D01*
X128615242Y-98087220D01*
X128708332Y-98057267D01*
X128750312Y-98027775D01*
X128802091Y-97945221D01*
X128820230Y-97844637D01*
X128821142Y-97809422D01*
X128811181Y-97706290D01*
X128770717Y-97612924D01*
X128750312Y-97590580D01*
X128662033Y-97543246D01*
X128561890Y-97526245D01*
X128512419Y-97524635D01*
X128322398Y-97524635D01*
X128322398Y-98095186D01*
X127918909Y-98095186D01*
X127918909Y-97200280D01*
X128501672Y-97200280D01*
X128619295Y-97203655D01*
G37*
G36*
X129670130Y-97200280D02*
G01*
X130941658Y-97200280D01*
X130941658Y-97544174D01*
X130073619Y-97544174D01*
X130073619Y-98013120D01*
X130863989Y-98013120D01*
X130863989Y-98357014D01*
X130073619Y-98357014D01*
X130073619Y-99232381D01*
X129670130Y-99232381D01*
X129670130Y-97200280D01*
G37*
G36*
X132054437Y-97175493D02*
G01*
X132152588Y-97194920D01*
X132259349Y-97235329D01*
X132354088Y-97294388D01*
X132436806Y-97372097D01*
X132485273Y-97434265D01*
X132537201Y-97523180D01*
X132580328Y-97624450D01*
X132614653Y-97738075D01*
X132635776Y-97837871D01*
X132651266Y-97945575D01*
X132661124Y-98061185D01*
X132665348Y-98184704D01*
X132665524Y-98216819D01*
X132662708Y-98341764D01*
X132654259Y-98458924D01*
X132640177Y-98568299D01*
X132620462Y-98669889D01*
X132587897Y-98785928D01*
X132546530Y-98889803D01*
X132496363Y-98981514D01*
X132485273Y-98998396D01*
X132419733Y-99079620D01*
X132343341Y-99146646D01*
X132264478Y-99195256D01*
X132166907Y-99234191D01*
X132067989Y-99255563D01*
X131959339Y-99263577D01*
X131947939Y-99263644D01*
X131848248Y-99258234D01*
X131747269Y-99239534D01*
X131648093Y-99203537D01*
X131631400Y-99195256D01*
X131546151Y-99141312D01*
X131471753Y-99073516D01*
X131413536Y-98999861D01*
X131361045Y-98910934D01*
X131317451Y-98809629D01*
X131282754Y-98695944D01*
X131261401Y-98596083D01*
X131245743Y-98488299D01*
X131235779Y-98372593D01*
X131231508Y-98248964D01*
X131231330Y-98216819D01*
X131231352Y-98215842D01*
X131651428Y-98215842D01*
X131653157Y-98322903D01*
X131659798Y-98438216D01*
X131671418Y-98539173D01*
X131691270Y-98638809D01*
X131722258Y-98728752D01*
X131774942Y-98812987D01*
X131859573Y-98872887D01*
X131947939Y-98888487D01*
X132045084Y-98869612D01*
X132128283Y-98805967D01*
X132175085Y-98728752D01*
X132209324Y-98625772D01*
X132228208Y-98523344D01*
X132238998Y-98419994D01*
X132244808Y-98302288D01*
X132245915Y-98215842D01*
X132244186Y-98109062D01*
X132237546Y-97994023D01*
X132225925Y-97893273D01*
X132206073Y-97793790D01*
X132175085Y-97703909D01*
X132122258Y-97619674D01*
X132037078Y-97559773D01*
X131947939Y-97544174D01*
X131844533Y-97566637D01*
X131763658Y-97634025D01*
X131722258Y-97703909D01*
X131688019Y-97806811D01*
X131669136Y-97909073D01*
X131658345Y-98012204D01*
X131652535Y-98129624D01*
X131651428Y-98215842D01*
X131231352Y-98215842D01*
X131234177Y-98091942D01*
X131242718Y-97974744D01*
X131256953Y-97865224D01*
X131276882Y-97763382D01*
X131309800Y-97646878D01*
X131351614Y-97542371D01*
X131402326Y-97449861D01*
X131413536Y-97432799D01*
X131476609Y-97353792D01*
X131555578Y-97283965D01*
X131644589Y-97232032D01*
X131742144Y-97196155D01*
X131846740Y-97175171D01*
X131947939Y-97169017D01*
X132054437Y-97175493D01*
G37*
G36*
X133425608Y-98200699D02*
G01*
X132843333Y-97200280D01*
X133260500Y-97200280D01*
X133632238Y-97866086D01*
X134005441Y-97200280D01*
X134422607Y-97200280D01*
X133842775Y-98214865D01*
X134438727Y-99232381D01*
X134022049Y-99232381D01*
X133632238Y-98569505D01*
X133243891Y-99232381D01*
X132827213Y-99232381D01*
X133425608Y-98200699D01*
G37*
G36*
X134776760Y-98200699D02*
G01*
X135857778Y-98200699D01*
X135857778Y-98607119D01*
X134776760Y-98607119D01*
X134776760Y-98200699D01*
G37*
G36*
X137256652Y-97173525D02*
G01*
X137355830Y-97188271D01*
X137361826Y-97189533D01*
X137457267Y-97212925D01*
X137553995Y-97245547D01*
X137566990Y-97250594D01*
X137566990Y-97614516D01*
X137476229Y-97567219D01*
X137379607Y-97529201D01*
X137360360Y-97523169D01*
X137264373Y-97500821D01*
X137167897Y-97493371D01*
X137065422Y-97502149D01*
X136955832Y-97537807D01*
X136866803Y-97600896D01*
X136798334Y-97691413D01*
X136758362Y-97783577D01*
X136731549Y-97893295D01*
X136717894Y-98020569D01*
X136716536Y-98055130D01*
X136785931Y-97979038D01*
X136868635Y-97925700D01*
X136880667Y-97920308D01*
X136976351Y-97890598D01*
X136983738Y-97889045D01*
X137081924Y-97877138D01*
X137118560Y-97876344D01*
X137217541Y-97882389D01*
X137321603Y-97904722D01*
X137413369Y-97943511D01*
X137503189Y-98007991D01*
X137542077Y-98048291D01*
X137600701Y-98131359D01*
X137644926Y-98228825D01*
X137671373Y-98323828D01*
X137687241Y-98429409D01*
X137692531Y-98545570D01*
X137688476Y-98645900D01*
X137674649Y-98749652D01*
X137651009Y-98846477D01*
X137613755Y-98942487D01*
X137564273Y-99026820D01*
X137524492Y-99076554D01*
X137443321Y-99149453D01*
X137348125Y-99204447D01*
X137255366Y-99237334D01*
X137152304Y-99257066D01*
X137038937Y-99263644D01*
X136931775Y-99257776D01*
X136833773Y-99240173D01*
X136736549Y-99207256D01*
X136728260Y-99203560D01*
X136642837Y-99154171D01*
X136567920Y-99088621D01*
X136508930Y-99015004D01*
X136457314Y-98926724D01*
X136419181Y-98836749D01*
X136388930Y-98736804D01*
X136378016Y-98689184D01*
X136360491Y-98588190D01*
X136358327Y-98569505D01*
X136768316Y-98569505D01*
X136774860Y-98671925D01*
X136786878Y-98731683D01*
X136824528Y-98824228D01*
X136838169Y-98845011D01*
X136912541Y-98910781D01*
X136925120Y-98916819D01*
X137022733Y-98938938D01*
X137037960Y-98939289D01*
X137134869Y-98923292D01*
X137151288Y-98916819D01*
X137230683Y-98855804D01*
X137240193Y-98843546D01*
X137285420Y-98753234D01*
X137305681Y-98654777D01*
X137310046Y-98570482D01*
X137303225Y-98466899D01*
X137279963Y-98371800D01*
X137240193Y-98296442D01*
X137166823Y-98230992D01*
X137068956Y-98202195D01*
X137036494Y-98200699D01*
X136938263Y-98217145D01*
X136919258Y-98225611D01*
X136842321Y-98289439D01*
X136838169Y-98294976D01*
X136792942Y-98386944D01*
X136772682Y-98485669D01*
X136768316Y-98569505D01*
X136358327Y-98569505D01*
X136347974Y-98480113D01*
X136341128Y-98379734D01*
X136338116Y-98273933D01*
X136337960Y-98242708D01*
X136339643Y-98144592D01*
X136345861Y-98035852D01*
X136356660Y-97933283D01*
X136374612Y-97823618D01*
X136385831Y-97771808D01*
X136413675Y-97673989D01*
X136454342Y-97573577D01*
X136504900Y-97483365D01*
X136544101Y-97428891D01*
X136613960Y-97354025D01*
X136693480Y-97291848D01*
X136782660Y-97242360D01*
X136881499Y-97205562D01*
X136989999Y-97181452D01*
X137108159Y-97170032D01*
X137158127Y-97169017D01*
X137256652Y-97173525D01*
G37*
G36*
X138719328Y-97868040D02*
G01*
X138740013Y-97963957D01*
X138742775Y-97985765D01*
X138750574Y-98083748D01*
X138752545Y-98113748D01*
X138757387Y-98212994D01*
X138757429Y-98220238D01*
X138755476Y-98311585D01*
X138748973Y-98412702D01*
X138745217Y-98446407D01*
X138728731Y-98546424D01*
X138686599Y-98610538D01*
X138650940Y-98560224D01*
X138632560Y-98463199D01*
X138630423Y-98447872D01*
X138621691Y-98349715D01*
X138619676Y-98323309D01*
X138614434Y-98224828D01*
X138614303Y-98211934D01*
X138616746Y-98116191D01*
X138624164Y-98014983D01*
X138627981Y-97982834D01*
X138644742Y-97884603D01*
X138683668Y-97821634D01*
X138719328Y-97868040D01*
G37*
G36*
X138786900Y-97175385D02*
G01*
X138898000Y-97199840D01*
X138997078Y-97242636D01*
X139084136Y-97303773D01*
X139159172Y-97383251D01*
X139192182Y-97429868D01*
X139240732Y-97517989D01*
X139281054Y-97619013D01*
X139313146Y-97732942D01*
X139332896Y-97833375D01*
X139347378Y-97942067D01*
X139356595Y-98059017D01*
X139360545Y-98184226D01*
X139360709Y-98216819D01*
X139358076Y-98343583D01*
X139350176Y-98462168D01*
X139337010Y-98572576D01*
X139318577Y-98674805D01*
X139281054Y-98812814D01*
X139231680Y-98932422D01*
X139170457Y-99033628D01*
X139097385Y-99116434D01*
X139012463Y-99180838D01*
X138915691Y-99226841D01*
X138807070Y-99254443D01*
X138686599Y-99263644D01*
X138584833Y-99257239D01*
X138473733Y-99232647D01*
X138374654Y-99189611D01*
X138287597Y-99128130D01*
X138212561Y-99048206D01*
X138179551Y-99001327D01*
X138131000Y-98913395D01*
X138090679Y-98812630D01*
X138058586Y-98699033D01*
X138038837Y-98598917D01*
X138024354Y-98490587D01*
X138015138Y-98374045D01*
X138011188Y-98249291D01*
X138011023Y-98216819D01*
X138417443Y-98216819D01*
X138419006Y-98329166D01*
X138423693Y-98431733D01*
X138433441Y-98541906D01*
X138450502Y-98652642D01*
X138477498Y-98755728D01*
X138481435Y-98766854D01*
X138529034Y-98857786D01*
X138605421Y-98922450D01*
X138685134Y-98939289D01*
X138779930Y-98915040D01*
X138853295Y-98842294D01*
X138890298Y-98766854D01*
X138918294Y-98666897D01*
X138936229Y-98558899D01*
X138946728Y-98451073D01*
X138952039Y-98350462D01*
X138954227Y-98240070D01*
X138954289Y-98216819D01*
X138952727Y-98104190D01*
X138948040Y-98001389D01*
X138938291Y-97890999D01*
X138921231Y-97780095D01*
X138894235Y-97676933D01*
X138890298Y-97665807D01*
X138842556Y-97574874D01*
X138765619Y-97510211D01*
X138685134Y-97493371D01*
X138584353Y-97521830D01*
X138513221Y-97598618D01*
X138481435Y-97665807D01*
X138453439Y-97765824D01*
X138435504Y-97873976D01*
X138425005Y-97982008D01*
X138419693Y-98082844D01*
X138417506Y-98193507D01*
X138417443Y-98216819D01*
X138011023Y-98216819D01*
X138013657Y-98089545D01*
X138021556Y-97970530D01*
X138034723Y-97859774D01*
X138053155Y-97757276D01*
X138083602Y-97640767D01*
X138122278Y-97537161D01*
X138169182Y-97446460D01*
X138179551Y-97429868D01*
X138248525Y-97341220D01*
X138329417Y-97270912D01*
X138422227Y-97218946D01*
X138526956Y-97185320D01*
X138643603Y-97170036D01*
X138685134Y-97169017D01*
X138786900Y-97175385D01*
G37*
D10*
G36*
X121607229Y-99803263D02*
G01*
X121659944Y-99809068D01*
X121708804Y-99818742D01*
X121764459Y-99836277D01*
X121814091Y-99859858D01*
X121857700Y-99889485D01*
X121895287Y-99925159D01*
X121927232Y-99967214D01*
X121953762Y-100015982D01*
X121974878Y-100071465D01*
X121987873Y-100120686D01*
X121997402Y-100174204D01*
X122003466Y-100232019D01*
X122006065Y-100294131D01*
X122006173Y-100310330D01*
X122004441Y-100373059D01*
X121999243Y-100431551D01*
X121990580Y-100485807D01*
X121978452Y-100535828D01*
X121958419Y-100592396D01*
X121932971Y-100642345D01*
X121902109Y-100685676D01*
X121895287Y-100693547D01*
X121857700Y-100729221D01*
X121814091Y-100758849D01*
X121764459Y-100782430D01*
X121708804Y-100799965D01*
X121659944Y-100809639D01*
X121607229Y-100815444D01*
X121550660Y-100817379D01*
X121343543Y-100817379D01*
X121343543Y-100710889D01*
X121482517Y-100710889D01*
X121547974Y-100710889D01*
X121600094Y-100708760D01*
X121655758Y-100700585D01*
X121703918Y-100686280D01*
X121750619Y-100661842D01*
X121787105Y-100629058D01*
X121791484Y-100623694D01*
X121818322Y-100579088D01*
X121836079Y-100530064D01*
X121847177Y-100481602D01*
X121854912Y-100426223D01*
X121858679Y-100376939D01*
X121860293Y-100323228D01*
X121860360Y-100309109D01*
X121859292Y-100254074D01*
X121856086Y-100203520D01*
X121849074Y-100146627D01*
X121838722Y-100096735D01*
X121821892Y-100046105D01*
X121796180Y-99999778D01*
X121791972Y-99994280D01*
X121756389Y-99960039D01*
X121710334Y-99934681D01*
X121695252Y-99929067D01*
X121645576Y-99916119D01*
X121594185Y-99909499D01*
X121547974Y-99907818D01*
X121482517Y-99907818D01*
X121482517Y-100710889D01*
X121343543Y-100710889D01*
X121343543Y-99801328D01*
X121550660Y-99801328D01*
X121607229Y-99803263D01*
G37*
G36*
X122586057Y-100039279D02*
G01*
X122636221Y-100049712D01*
X122688624Y-100070674D01*
X122734435Y-100101103D01*
X122768455Y-100134720D01*
X122797175Y-100174485D01*
X122819952Y-100219590D01*
X122836788Y-100270037D01*
X122847682Y-100325825D01*
X122852221Y-100376394D01*
X122852963Y-100408516D01*
X122852963Y-100470554D01*
X122308058Y-100470554D01*
X122308058Y-100474462D01*
X122311981Y-100529172D01*
X122323750Y-100578021D01*
X122346370Y-100625968D01*
X122370828Y-100658132D01*
X122411026Y-100691191D01*
X122460730Y-100713430D01*
X122512891Y-100724116D01*
X122556941Y-100726520D01*
X122609629Y-100723498D01*
X122661080Y-100714430D01*
X122694694Y-100705027D01*
X122744084Y-100687636D01*
X122792238Y-100667703D01*
X122823654Y-100653003D01*
X122823654Y-100774392D01*
X122774687Y-100792882D01*
X122725240Y-100808418D01*
X122692007Y-100817134D01*
X122641586Y-100826809D01*
X122590341Y-100832018D01*
X122555720Y-100833010D01*
X122502244Y-100830440D01*
X122452489Y-100822730D01*
X122397695Y-100806693D01*
X122348258Y-100783254D01*
X122304180Y-100752414D01*
X122277771Y-100727741D01*
X122243491Y-100685469D01*
X122216302Y-100637787D01*
X122196207Y-100584696D01*
X122184878Y-100536321D01*
X122178475Y-100484189D01*
X122176899Y-100439779D01*
X122179403Y-100384580D01*
X122182337Y-100364064D01*
X122312942Y-100364064D01*
X122727178Y-100364064D01*
X122723485Y-100311858D01*
X122712405Y-100264233D01*
X122707883Y-100251468D01*
X122683092Y-100206405D01*
X122646822Y-100171845D01*
X122601481Y-100150632D01*
X122552548Y-100142753D01*
X122535692Y-100142291D01*
X122486679Y-100146482D01*
X122437572Y-100161962D01*
X122419188Y-100172089D01*
X122379908Y-100204532D01*
X122349536Y-100245991D01*
X122346159Y-100252201D01*
X122326818Y-100298376D01*
X122314957Y-100348852D01*
X122312942Y-100364064D01*
X122182337Y-100364064D01*
X122186913Y-100332068D01*
X122199431Y-100282242D01*
X122216955Y-100235104D01*
X122239410Y-100191674D01*
X122270474Y-100148472D01*
X122307683Y-100111260D01*
X122335901Y-100089779D01*
X122383233Y-100063686D01*
X122430269Y-100047662D01*
X122481976Y-100038384D01*
X122531051Y-100035801D01*
X122586057Y-100039279D01*
G37*
G36*
X123337053Y-100833010D02*
G01*
X123287346Y-100830696D01*
X123233970Y-100823754D01*
X123185298Y-100814119D01*
X123133929Y-100801085D01*
X123079865Y-100784650D01*
X123079865Y-100655201D01*
X123132613Y-100679439D01*
X123183145Y-100698661D01*
X123231462Y-100712869D01*
X123285032Y-100723107D01*
X123335587Y-100726520D01*
X123386715Y-100722624D01*
X123433867Y-100709486D01*
X123463326Y-100693547D01*
X123497687Y-100657523D01*
X123511151Y-100608331D01*
X123511198Y-100604887D01*
X123498524Y-100556707D01*
X123471142Y-100527462D01*
X123427144Y-100503920D01*
X123379718Y-100488375D01*
X123343647Y-100479835D01*
X123291135Y-100469088D01*
X123240760Y-100456479D01*
X123192700Y-100438134D01*
X123149996Y-100412584D01*
X123132866Y-100397769D01*
X123102205Y-100355351D01*
X123086532Y-100307597D01*
X123082552Y-100262215D01*
X123087253Y-100210893D01*
X123103783Y-100160674D01*
X123132213Y-100118415D01*
X123157778Y-100094664D01*
X123199361Y-100068912D01*
X123248881Y-100050517D01*
X123298723Y-100040458D01*
X123354642Y-100036031D01*
X123371735Y-100035801D01*
X123422866Y-100038022D01*
X123473249Y-100044684D01*
X123522883Y-100055787D01*
X123571770Y-100071331D01*
X123599369Y-100082208D01*
X123599369Y-100205794D01*
X123551992Y-100181051D01*
X123503680Y-100162384D01*
X123454432Y-100149795D01*
X123404250Y-100143284D01*
X123375155Y-100142291D01*
X123318961Y-100146215D01*
X123268095Y-100160713D01*
X123225950Y-100195049D01*
X123209964Y-100247043D01*
X123209802Y-100253910D01*
X123219154Y-100303051D01*
X123223968Y-100311552D01*
X123264476Y-100341728D01*
X123278679Y-100347455D01*
X123328748Y-100362171D01*
X123378803Y-100373608D01*
X123397869Y-100377497D01*
X123448427Y-100387023D01*
X123503170Y-100401808D01*
X123548634Y-100422963D01*
X123590943Y-100456754D01*
X123619892Y-100499716D01*
X123635479Y-100551848D01*
X123638448Y-100591698D01*
X123633396Y-100644790D01*
X123618237Y-100691960D01*
X123589105Y-100737946D01*
X123557604Y-100768530D01*
X123513594Y-100796740D01*
X123462166Y-100816890D01*
X123411080Y-100827910D01*
X123354315Y-100832758D01*
X123337053Y-100833010D01*
G37*
G36*
X124134017Y-99910749D02*
G01*
X124113501Y-99890721D01*
X124113501Y-99774462D01*
X124134017Y-99754434D01*
X124232447Y-99754434D01*
X124252963Y-99774462D01*
X124252963Y-99890721D01*
X124232447Y-99910749D01*
X124134017Y-99910749D01*
G37*
G36*
X124363605Y-100817379D02*
G01*
X124310376Y-100812921D01*
X124258119Y-100797250D01*
X124213939Y-100770297D01*
X124188972Y-100746060D01*
X124159101Y-100701345D01*
X124140756Y-100653877D01*
X124130135Y-100599144D01*
X124127178Y-100545292D01*
X124127178Y-100157923D01*
X123959628Y-100157923D01*
X123959628Y-100051433D01*
X124252963Y-100051433D01*
X124252963Y-100541384D01*
X124256657Y-100593522D01*
X124270549Y-100643233D01*
X124284226Y-100667413D01*
X124322939Y-100700020D01*
X124372319Y-100710846D01*
X124376062Y-100710889D01*
X124522852Y-100710889D01*
X124522852Y-100817379D01*
X124363605Y-100817379D01*
G37*
G36*
X125068486Y-100039854D02*
G01*
X125116272Y-100053392D01*
X125139565Y-100064622D01*
X125181032Y-100096432D01*
X125213425Y-100137774D01*
X125224317Y-100156702D01*
X125236529Y-100051433D01*
X125350102Y-100051433D01*
X125350102Y-100769751D01*
X125348242Y-100818727D01*
X125341098Y-100873201D01*
X125328595Y-100922987D01*
X125307238Y-100975144D01*
X125278587Y-101020920D01*
X125273898Y-101026939D01*
X125236083Y-101064055D01*
X125189315Y-101092054D01*
X125142103Y-101108798D01*
X125088313Y-101118845D01*
X125038464Y-101122101D01*
X125027946Y-101122194D01*
X124976090Y-101119832D01*
X124927497Y-101113367D01*
X124917060Y-101111447D01*
X124868614Y-101100641D01*
X124820729Y-101087030D01*
X124807150Y-101082626D01*
X124807150Y-100953666D01*
X124853746Y-100974249D01*
X124902493Y-100992401D01*
X124916815Y-100997141D01*
X124964210Y-101009160D01*
X125016062Y-101015251D01*
X125034785Y-101015704D01*
X125085652Y-101011513D01*
X125133277Y-100996033D01*
X125149823Y-100985906D01*
X125184750Y-100950247D01*
X125206402Y-100906168D01*
X125207464Y-100902863D01*
X125218985Y-100853449D01*
X125223906Y-100802123D01*
X125224317Y-100780986D01*
X125224317Y-100688663D01*
X125198145Y-100733542D01*
X125162815Y-100770999D01*
X125140786Y-100786360D01*
X125095056Y-100806443D01*
X125043200Y-100816288D01*
X125017199Y-100817379D01*
X124964169Y-100813309D01*
X124912901Y-100799588D01*
X124878958Y-100782940D01*
X124839551Y-100753769D01*
X124803836Y-100715034D01*
X124787611Y-100691105D01*
X124764427Y-100646523D01*
X124746532Y-100598506D01*
X124737541Y-100564587D01*
X124728016Y-100512632D01*
X124722887Y-100460814D01*
X124721910Y-100426346D01*
X124722045Y-100423171D01*
X124854533Y-100423171D01*
X124856259Y-100473334D01*
X124862636Y-100525997D01*
X124875676Y-100578456D01*
X124897681Y-100627619D01*
X124903626Y-100637127D01*
X124938374Y-100676025D01*
X124980944Y-100700516D01*
X125031339Y-100710600D01*
X125042356Y-100710889D01*
X125094134Y-100703733D01*
X125141282Y-100679333D01*
X125175228Y-100642124D01*
X125178155Y-100637616D01*
X125200470Y-100591145D01*
X125214174Y-100541014D01*
X125221432Y-100490337D01*
X125224272Y-100433303D01*
X125224317Y-100424636D01*
X125222387Y-100375593D01*
X125217478Y-100330603D01*
X125206834Y-100280234D01*
X125191833Y-100238767D01*
X125165111Y-100195705D01*
X125136634Y-100169158D01*
X125091816Y-100148195D01*
X125041623Y-100142291D01*
X124989011Y-100149256D01*
X124944747Y-100170150D01*
X124908831Y-100204974D01*
X124902649Y-100213610D01*
X124879390Y-100258922D01*
X124865106Y-100308152D01*
X124857541Y-100358141D01*
X124854580Y-100414581D01*
X124854533Y-100423171D01*
X124722045Y-100423171D01*
X124724108Y-100374540D01*
X124730702Y-100322802D01*
X124737541Y-100288348D01*
X124751978Y-100238191D01*
X124771842Y-100191399D01*
X124788099Y-100162075D01*
X124817386Y-100122405D01*
X124856089Y-100086638D01*
X124879935Y-100070484D01*
X124926303Y-100049349D01*
X124974962Y-100038545D01*
X125019153Y-100035801D01*
X125068486Y-100039854D01*
G37*
G36*
X125594101Y-100051433D02*
G01*
X125707429Y-100051433D01*
X125719886Y-100168669D01*
X125748780Y-100123515D01*
X125783805Y-100087703D01*
X125824961Y-100061233D01*
X125872248Y-100044106D01*
X125925665Y-100036320D01*
X125944834Y-100035801D01*
X125999788Y-100040625D01*
X126047416Y-100055097D01*
X126096646Y-100086753D01*
X126134427Y-100133483D01*
X126156409Y-100181721D01*
X126171063Y-100239607D01*
X126177246Y-100289352D01*
X126179307Y-100344524D01*
X126179307Y-100817379D01*
X126052789Y-100817379D01*
X126052789Y-100342815D01*
X126049949Y-100289028D01*
X126040131Y-100239416D01*
X126019094Y-100193987D01*
X126016885Y-100190896D01*
X125977943Y-100157670D01*
X125928303Y-100143478D01*
X125905755Y-100142291D01*
X125853786Y-100148469D01*
X125805988Y-100169535D01*
X125768002Y-100205550D01*
X125742628Y-100250191D01*
X125727827Y-100299097D01*
X125721061Y-100349510D01*
X125719886Y-100384336D01*
X125719886Y-100817379D01*
X125594101Y-100817379D01*
X125594101Y-100051433D01*
G37*
G36*
X126796804Y-100039279D02*
G01*
X126846967Y-100049712D01*
X126899370Y-100070674D01*
X126945182Y-100101103D01*
X126979202Y-100134720D01*
X127007921Y-100174485D01*
X127030699Y-100219590D01*
X127047535Y-100270037D01*
X127058428Y-100325825D01*
X127062967Y-100376394D01*
X127063710Y-100408516D01*
X127063710Y-100470554D01*
X126518804Y-100470554D01*
X126518804Y-100474462D01*
X126522727Y-100529172D01*
X126534497Y-100578021D01*
X126557116Y-100625968D01*
X126581575Y-100658132D01*
X126621773Y-100691191D01*
X126671477Y-100713430D01*
X126723638Y-100724116D01*
X126767688Y-100726520D01*
X126820375Y-100723498D01*
X126871827Y-100714430D01*
X126905441Y-100705027D01*
X126954831Y-100687636D01*
X127002985Y-100667703D01*
X127034401Y-100653003D01*
X127034401Y-100774392D01*
X126985434Y-100792882D01*
X126935986Y-100808418D01*
X126902754Y-100817134D01*
X126852333Y-100826809D01*
X126801088Y-100832018D01*
X126766466Y-100833010D01*
X126712991Y-100830440D01*
X126663236Y-100822730D01*
X126608441Y-100806693D01*
X126559005Y-100783254D01*
X126514927Y-100752414D01*
X126488518Y-100727741D01*
X126454237Y-100685469D01*
X126427049Y-100637787D01*
X126406953Y-100584696D01*
X126395625Y-100536321D01*
X126389222Y-100484189D01*
X126387646Y-100439779D01*
X126390149Y-100384580D01*
X126393083Y-100364064D01*
X126523689Y-100364064D01*
X126937925Y-100364064D01*
X126934232Y-100311858D01*
X126923152Y-100264233D01*
X126918630Y-100251468D01*
X126893839Y-100206405D01*
X126857569Y-100171845D01*
X126812228Y-100150632D01*
X126763295Y-100142753D01*
X126746439Y-100142291D01*
X126697426Y-100146482D01*
X126648319Y-100161962D01*
X126629935Y-100172089D01*
X126590654Y-100204532D01*
X126560283Y-100245991D01*
X126556906Y-100252201D01*
X126537565Y-100298376D01*
X126525704Y-100348852D01*
X126523689Y-100364064D01*
X126393083Y-100364064D01*
X126397660Y-100332068D01*
X126410177Y-100282242D01*
X126427702Y-100235104D01*
X126450157Y-100191674D01*
X126481221Y-100148472D01*
X126518429Y-100111260D01*
X126546648Y-100089779D01*
X126593980Y-100063686D01*
X126641016Y-100047662D01*
X126692723Y-100038384D01*
X126741798Y-100035801D01*
X126796804Y-100039279D01*
G37*
G36*
X127857255Y-100817379D02*
G01*
X127743926Y-100817379D01*
X127731470Y-100716995D01*
X127698411Y-100762200D01*
X127658434Y-100796302D01*
X127611537Y-100819301D01*
X127557722Y-100831197D01*
X127523864Y-100833010D01*
X127474256Y-100829575D01*
X127425694Y-100817863D01*
X127383424Y-100797839D01*
X127344120Y-100767980D01*
X127311204Y-100731527D01*
X127292810Y-100703561D01*
X127270141Y-100657514D01*
X127252693Y-100608032D01*
X127243961Y-100573136D01*
X127235479Y-100523821D01*
X127230517Y-100474275D01*
X127229211Y-100433673D01*
X127361686Y-100433673D01*
X127363616Y-100483977D01*
X127368525Y-100530882D01*
X127378356Y-100580219D01*
X127394171Y-100626136D01*
X127419185Y-100668558D01*
X127449614Y-100698432D01*
X127495157Y-100720348D01*
X127546334Y-100726520D01*
X127596984Y-100720456D01*
X127642321Y-100698921D01*
X127678050Y-100662419D01*
X127698253Y-100626869D01*
X127714617Y-100580768D01*
X127724631Y-100531370D01*
X127729760Y-100481422D01*
X127731470Y-100433673D01*
X127729540Y-100383576D01*
X127724631Y-100337197D01*
X127714617Y-100288043D01*
X127698253Y-100242187D01*
X127672858Y-100199712D01*
X127642321Y-100170135D01*
X127596984Y-100148409D01*
X127546334Y-100142291D01*
X127495157Y-100148409D01*
X127449614Y-100170135D01*
X127414039Y-100206517D01*
X127394171Y-100242187D01*
X127377566Y-100291019D01*
X127368525Y-100337197D01*
X127363396Y-100386595D01*
X127361686Y-100433673D01*
X127229211Y-100433673D01*
X127229062Y-100429032D01*
X127231024Y-100374100D01*
X127236910Y-100322877D01*
X127249151Y-100266306D01*
X127267043Y-100215075D01*
X127290585Y-100169185D01*
X127309418Y-100141559D01*
X127347274Y-100100350D01*
X127390529Y-100069264D01*
X127439184Y-100048298D01*
X127493238Y-100037454D01*
X127526550Y-100035801D01*
X127578667Y-100040679D01*
X127626270Y-100055311D01*
X127646718Y-100065355D01*
X127686509Y-100094489D01*
X127718965Y-100134266D01*
X127731470Y-100156213D01*
X127731470Y-99754434D01*
X127857255Y-99754434D01*
X127857255Y-100817379D01*
G37*
G36*
X129087018Y-100156213D02*
G01*
X129113980Y-100114585D01*
X129150708Y-100079720D01*
X129173724Y-100065355D01*
X129221029Y-100046220D01*
X129272848Y-100036840D01*
X129298288Y-100035801D01*
X129347027Y-100039212D01*
X129394744Y-100050843D01*
X129436285Y-100070728D01*
X129478219Y-100102895D01*
X129512737Y-100142640D01*
X129526166Y-100163540D01*
X129548915Y-100208741D01*
X129566237Y-100257513D01*
X129574771Y-100292012D01*
X129583114Y-100340511D01*
X129588266Y-100393354D01*
X129589425Y-100432940D01*
X129587636Y-100481914D01*
X129582268Y-100530773D01*
X129574282Y-100575090D01*
X129561788Y-100622314D01*
X129543023Y-100670473D01*
X129525434Y-100704294D01*
X129496995Y-100744697D01*
X129459054Y-100781258D01*
X129435552Y-100797839D01*
X129389928Y-100819271D01*
X129341650Y-100830228D01*
X129297555Y-100833010D01*
X129246024Y-100828931D01*
X129192936Y-100813863D01*
X129147422Y-100787692D01*
X129109481Y-100750417D01*
X129087018Y-100716995D01*
X129074806Y-100817379D01*
X128961233Y-100817379D01*
X128961233Y-100433673D01*
X129087018Y-100433673D01*
X129088948Y-100484480D01*
X129093857Y-100531370D01*
X129103870Y-100580768D01*
X129120235Y-100626869D01*
X129145752Y-100669222D01*
X129176166Y-100698921D01*
X129221572Y-100720456D01*
X129272398Y-100726520D01*
X129323521Y-100720456D01*
X129368874Y-100698921D01*
X129404449Y-100662342D01*
X129424317Y-100626625D01*
X129440132Y-100580402D01*
X129449963Y-100531126D01*
X129455092Y-100481545D01*
X129456801Y-100434406D01*
X129454871Y-100384171D01*
X129449963Y-100337441D01*
X129440132Y-100288104D01*
X129424317Y-100242187D01*
X129399303Y-100199712D01*
X129368874Y-100170135D01*
X129323521Y-100148409D01*
X129272398Y-100142291D01*
X129221572Y-100148409D01*
X129176166Y-100170135D01*
X129140557Y-100206362D01*
X129120235Y-100241698D01*
X129103059Y-100290409D01*
X129093857Y-100336709D01*
X129088727Y-100386473D01*
X129087018Y-100433673D01*
X128961233Y-100433673D01*
X128961233Y-99754434D01*
X129087018Y-99754434D01*
X129087018Y-100156213D01*
G37*
G36*
X129797276Y-101007888D02*
G01*
X129871770Y-101007888D01*
X129920863Y-101000072D01*
X129957255Y-100976625D01*
X129986821Y-100932483D01*
X130010075Y-100883221D01*
X130029739Y-100834328D01*
X130038588Y-100810540D01*
X129742566Y-100051433D01*
X129875922Y-100051433D01*
X130102824Y-100656422D01*
X130326306Y-100051433D01*
X130459663Y-100051433D01*
X130257918Y-100573868D01*
X130239518Y-100621614D01*
X130220892Y-100670092D01*
X130216397Y-100681824D01*
X130207604Y-100703561D01*
X130200277Y-100723833D01*
X130186355Y-100763645D01*
X130178051Y-100785627D01*
X130160094Y-100835013D01*
X130141295Y-100883951D01*
X130127737Y-100917274D01*
X130107257Y-100964454D01*
X130087681Y-101003003D01*
X130057669Y-101046400D01*
X130021276Y-101079138D01*
X129971870Y-101103501D01*
X129921803Y-101113399D01*
X129898392Y-101114378D01*
X129797276Y-101114378D01*
X129797276Y-101007888D01*
G37*
G36*
X131713021Y-99803263D02*
G01*
X131765736Y-99809068D01*
X131814596Y-99818742D01*
X131870251Y-99836277D01*
X131919883Y-99859858D01*
X131963492Y-99889485D01*
X132001079Y-99925159D01*
X132033024Y-99967214D01*
X132059554Y-100015982D01*
X132080670Y-100071465D01*
X132093665Y-100120686D01*
X132103194Y-100174204D01*
X132109258Y-100232019D01*
X132111857Y-100294131D01*
X132111965Y-100310330D01*
X132110233Y-100373059D01*
X132105035Y-100431551D01*
X132096372Y-100485807D01*
X132084244Y-100535828D01*
X132064211Y-100592396D01*
X132038763Y-100642345D01*
X132007901Y-100685676D01*
X132001079Y-100693547D01*
X131963492Y-100729221D01*
X131919883Y-100758849D01*
X131870251Y-100782430D01*
X131814596Y-100799965D01*
X131765736Y-100809639D01*
X131713021Y-100815444D01*
X131656452Y-100817379D01*
X131449335Y-100817379D01*
X131449335Y-100710889D01*
X131588309Y-100710889D01*
X131653766Y-100710889D01*
X131705886Y-100708760D01*
X131761550Y-100700585D01*
X131809710Y-100686280D01*
X131856411Y-100661842D01*
X131892897Y-100629058D01*
X131897276Y-100623694D01*
X131924114Y-100579088D01*
X131941871Y-100530064D01*
X131952969Y-100481602D01*
X131960704Y-100426223D01*
X131964471Y-100376939D01*
X131966085Y-100323228D01*
X131966152Y-100309109D01*
X131965084Y-100254074D01*
X131961878Y-100203520D01*
X131954866Y-100146627D01*
X131944514Y-100096735D01*
X131927684Y-100046105D01*
X131901972Y-99999778D01*
X131897764Y-99994280D01*
X131862181Y-99960039D01*
X131816126Y-99934681D01*
X131801044Y-99929067D01*
X131751368Y-99916119D01*
X131699977Y-99909499D01*
X131653766Y-99907818D01*
X131588309Y-99907818D01*
X131588309Y-100710889D01*
X131449335Y-100710889D01*
X131449335Y-99801328D01*
X131656452Y-99801328D01*
X131713021Y-99803263D01*
G37*
G36*
X132656077Y-100038446D02*
G01*
X132705720Y-100046380D01*
X132738204Y-100054608D01*
X132784274Y-100071930D01*
X132828603Y-100098370D01*
X132850067Y-100115913D01*
X132883208Y-100155240D01*
X132904640Y-100200056D01*
X132913082Y-100229974D01*
X132920040Y-100279437D01*
X132922979Y-100328897D01*
X132923829Y-100381894D01*
X132923829Y-100537965D01*
X132924825Y-100587882D01*
X132927488Y-100637019D01*
X132930912Y-100679626D01*
X132938143Y-100730945D01*
X132951034Y-100782190D01*
X132964129Y-100817379D01*
X132837855Y-100817379D01*
X132822029Y-100770111D01*
X132819293Y-100758516D01*
X132810247Y-100710329D01*
X132808302Y-100697211D01*
X132776901Y-100740379D01*
X132738112Y-100775177D01*
X132696439Y-100799549D01*
X132646483Y-100818599D01*
X132594681Y-100829742D01*
X132545985Y-100833010D01*
X132492969Y-100829041D01*
X132444807Y-100817134D01*
X132396428Y-100794251D01*
X132363047Y-100769507D01*
X132328217Y-100729401D01*
X132304787Y-100680523D01*
X132293528Y-100629713D01*
X132291053Y-100588034D01*
X132416780Y-100588034D01*
X132424077Y-100638787D01*
X132450627Y-100682923D01*
X132460988Y-100692082D01*
X132505027Y-100715624D01*
X132555128Y-100725679D01*
X132576760Y-100726520D01*
X132626891Y-100722191D01*
X132673745Y-100707594D01*
X132703522Y-100689884D01*
X132741215Y-100653312D01*
X132767175Y-100611651D01*
X132774840Y-100593652D01*
X132789547Y-100543978D01*
X132796468Y-100495549D01*
X132797555Y-100466157D01*
X132797555Y-100439291D01*
X132638064Y-100439291D01*
X132588630Y-100441813D01*
X132540162Y-100449380D01*
X132533773Y-100450770D01*
X132487367Y-100467440D01*
X132449753Y-100494489D01*
X132424025Y-100536826D01*
X132416780Y-100588034D01*
X132291053Y-100588034D01*
X132290995Y-100587057D01*
X132294763Y-100534992D01*
X132307786Y-100485209D01*
X132332855Y-100440254D01*
X132338623Y-100433185D01*
X132374998Y-100398964D01*
X132418299Y-100372535D01*
X132463675Y-100355271D01*
X132513044Y-100343421D01*
X132564368Y-100335961D01*
X132617648Y-100332888D01*
X132628539Y-100332801D01*
X132797555Y-100332801D01*
X132797555Y-100313261D01*
X132793633Y-100264004D01*
X132778187Y-100216289D01*
X132747974Y-100179905D01*
X132701078Y-100155551D01*
X132651070Y-100144642D01*
X132608755Y-100142291D01*
X132556892Y-100145005D01*
X132505715Y-100153145D01*
X132471979Y-100161586D01*
X132423024Y-100178187D01*
X132376541Y-100199047D01*
X132346927Y-100215320D01*
X132346927Y-100089291D01*
X132394360Y-100073022D01*
X132442136Y-100059020D01*
X132474178Y-100050944D01*
X132522732Y-100041717D01*
X132572043Y-100036748D01*
X132605336Y-100035801D01*
X132656077Y-100038446D01*
G37*
G36*
X133173445Y-100051433D02*
G01*
X133286773Y-100051433D01*
X133299230Y-100168669D01*
X133328124Y-100123515D01*
X133363149Y-100087703D01*
X133404305Y-100061233D01*
X133451592Y-100044106D01*
X133505009Y-100036320D01*
X133524178Y-100035801D01*
X133579132Y-100040625D01*
X133626760Y-100055097D01*
X133675990Y-100086753D01*
X133713771Y-100133483D01*
X133735753Y-100181721D01*
X133750407Y-100239607D01*
X133756590Y-100289352D01*
X133758651Y-100344524D01*
X133758651Y-100817379D01*
X133632133Y-100817379D01*
X133632133Y-100342815D01*
X133629293Y-100289028D01*
X133619475Y-100239416D01*
X133598438Y-100193987D01*
X133596229Y-100190896D01*
X133557287Y-100157670D01*
X133507647Y-100143478D01*
X133485099Y-100142291D01*
X133433130Y-100148469D01*
X133385332Y-100169535D01*
X133347346Y-100205550D01*
X133321972Y-100250191D01*
X133307171Y-100299097D01*
X133300405Y-100349510D01*
X133299230Y-100384336D01*
X133299230Y-100817379D01*
X133173445Y-100817379D01*
X133173445Y-100051433D01*
G37*
G36*
X134239809Y-99910749D02*
G01*
X134219293Y-99890721D01*
X134219293Y-99774462D01*
X134239809Y-99754434D01*
X134338239Y-99754434D01*
X134358755Y-99774462D01*
X134358755Y-99890721D01*
X134338239Y-99910749D01*
X134239809Y-99910749D01*
G37*
G36*
X134469397Y-100817379D02*
G01*
X134416168Y-100812921D01*
X134363911Y-100797250D01*
X134319731Y-100770297D01*
X134294764Y-100746060D01*
X134264893Y-100701345D01*
X134246548Y-100653877D01*
X134235927Y-100599144D01*
X134232970Y-100545292D01*
X134232970Y-100157923D01*
X134065420Y-100157923D01*
X134065420Y-100051433D01*
X134358755Y-100051433D01*
X134358755Y-100541384D01*
X134362450Y-100593522D01*
X134376341Y-100643233D01*
X134390018Y-100667413D01*
X134428731Y-100700020D01*
X134478111Y-100710846D01*
X134481854Y-100710889D01*
X134628644Y-100710889D01*
X134628644Y-100817379D01*
X134469397Y-100817379D01*
G37*
G36*
X135218297Y-100039279D02*
G01*
X135268461Y-100049712D01*
X135320864Y-100070674D01*
X135366675Y-100101103D01*
X135400695Y-100134720D01*
X135429415Y-100174485D01*
X135452192Y-100219590D01*
X135469028Y-100270037D01*
X135479922Y-100325825D01*
X135484461Y-100376394D01*
X135485203Y-100408516D01*
X135485203Y-100470554D01*
X134940298Y-100470554D01*
X134940298Y-100474462D01*
X134944221Y-100529172D01*
X134955990Y-100578021D01*
X134978610Y-100625968D01*
X135003068Y-100658132D01*
X135043266Y-100691191D01*
X135092970Y-100713430D01*
X135145131Y-100724116D01*
X135189181Y-100726520D01*
X135241869Y-100723498D01*
X135293320Y-100714430D01*
X135326934Y-100705027D01*
X135376324Y-100687636D01*
X135424478Y-100667703D01*
X135455894Y-100653003D01*
X135455894Y-100774392D01*
X135406927Y-100792882D01*
X135357480Y-100808418D01*
X135324247Y-100817134D01*
X135273826Y-100826809D01*
X135222581Y-100832018D01*
X135187960Y-100833010D01*
X135134484Y-100830440D01*
X135084729Y-100822730D01*
X135029935Y-100806693D01*
X134980498Y-100783254D01*
X134936420Y-100752414D01*
X134910011Y-100727741D01*
X134875731Y-100685469D01*
X134848542Y-100637787D01*
X134828447Y-100584696D01*
X134817118Y-100536321D01*
X134810715Y-100484189D01*
X134809139Y-100439779D01*
X134811643Y-100384580D01*
X134814577Y-100364064D01*
X134945182Y-100364064D01*
X135359418Y-100364064D01*
X135355725Y-100311858D01*
X135344645Y-100264233D01*
X135340123Y-100251468D01*
X135315332Y-100206405D01*
X135279062Y-100171845D01*
X135233721Y-100150632D01*
X135184788Y-100142753D01*
X135167932Y-100142291D01*
X135118919Y-100146482D01*
X135069812Y-100161962D01*
X135051428Y-100172089D01*
X135012148Y-100204532D01*
X134981776Y-100245991D01*
X134978399Y-100252201D01*
X134959058Y-100298376D01*
X134947197Y-100348852D01*
X134945182Y-100364064D01*
X134814577Y-100364064D01*
X134819153Y-100332068D01*
X134831671Y-100282242D01*
X134849195Y-100235104D01*
X134871650Y-100191674D01*
X134902714Y-100148472D01*
X134939923Y-100111260D01*
X134968141Y-100089779D01*
X135015473Y-100063686D01*
X135062509Y-100047662D01*
X135114216Y-100038384D01*
X135163291Y-100035801D01*
X135218297Y-100039279D01*
G37*
G36*
X136127806Y-100817379D02*
G01*
X136074561Y-100812906D01*
X136022251Y-100797181D01*
X135977979Y-100770136D01*
X135952928Y-100745815D01*
X135923058Y-100700806D01*
X135904713Y-100653045D01*
X135894092Y-100597988D01*
X135891135Y-100543827D01*
X135891135Y-99860924D01*
X135689635Y-99860924D01*
X135689635Y-99754434D01*
X136016920Y-99754434D01*
X136016920Y-100541140D01*
X136020643Y-100593417D01*
X136034643Y-100643218D01*
X136048427Y-100667413D01*
X136087079Y-100700020D01*
X136136291Y-100710846D01*
X136140018Y-100710889D01*
X136287053Y-100710889D01*
X136287053Y-100817379D01*
X136127806Y-100817379D01*
G37*
G36*
X137410081Y-99801328D02*
G01*
X138010919Y-99801328D01*
X138010919Y-99907818D01*
X137548811Y-99907818D01*
X137548811Y-100241942D01*
X137967932Y-100241942D01*
X137967932Y-100348432D01*
X137548811Y-100348432D01*
X137548811Y-100817379D01*
X137410081Y-100817379D01*
X137410081Y-99801328D01*
G37*
G36*
X138571632Y-100039416D02*
G01*
X138623270Y-100050261D01*
X138669704Y-100068336D01*
X138717300Y-100098562D01*
X138757813Y-100138628D01*
X138786533Y-100180333D01*
X138809310Y-100228513D01*
X138826146Y-100283167D01*
X138835637Y-100333658D01*
X138841001Y-100388645D01*
X138842321Y-100435871D01*
X138840264Y-100494021D01*
X138834092Y-100547722D01*
X138823806Y-100596975D01*
X138806032Y-100650206D01*
X138782333Y-100697032D01*
X138758058Y-100731161D01*
X138717734Y-100770846D01*
X138670282Y-100800784D01*
X138623934Y-100818687D01*
X138572348Y-100829429D01*
X138515524Y-100833010D01*
X138458185Y-100829404D01*
X138406153Y-100818584D01*
X138359427Y-100800552D01*
X138311621Y-100770399D01*
X138271037Y-100730428D01*
X138242318Y-100688717D01*
X138219540Y-100640703D01*
X138202705Y-100586387D01*
X138193214Y-100536309D01*
X138187850Y-100481854D01*
X138186529Y-100435138D01*
X138186581Y-100433673D01*
X138319886Y-100433673D01*
X138321663Y-100484394D01*
X138328230Y-100537731D01*
X138341659Y-100590987D01*
X138361409Y-100636031D01*
X138370444Y-100650805D01*
X138406265Y-100690733D01*
X138450529Y-100715873D01*
X138503237Y-100726224D01*
X138514792Y-100726520D01*
X138563991Y-100720531D01*
X138610636Y-100699828D01*
X138648837Y-100664336D01*
X138658651Y-100650805D01*
X138682972Y-100603018D01*
X138697909Y-100551815D01*
X138705820Y-100500275D01*
X138708768Y-100451093D01*
X138708965Y-100433673D01*
X138707196Y-100383218D01*
X138700661Y-100330170D01*
X138687296Y-100277215D01*
X138667642Y-100232443D01*
X138658651Y-100217762D01*
X138622983Y-100177963D01*
X138578871Y-100152904D01*
X138526316Y-100142586D01*
X138514792Y-100142291D01*
X138465238Y-100148261D01*
X138418336Y-100168898D01*
X138380020Y-100204275D01*
X138370200Y-100217762D01*
X138345878Y-100265255D01*
X138330941Y-100316165D01*
X138323030Y-100367422D01*
X138320082Y-100416343D01*
X138319886Y-100433673D01*
X138186581Y-100433673D01*
X138188598Y-100376965D01*
X138194806Y-100323192D01*
X138205152Y-100273820D01*
X138223029Y-100220382D01*
X138246866Y-100173282D01*
X138271282Y-100138872D01*
X138305740Y-100103844D01*
X138352474Y-100072138D01*
X138398133Y-100052812D01*
X138448960Y-100040733D01*
X138504956Y-100035902D01*
X138514792Y-100035801D01*
X138571632Y-100039416D01*
G37*
G36*
X139287820Y-100418041D02*
G01*
X139013780Y-100051433D01*
X139153242Y-100051433D01*
X139356208Y-100330114D01*
X139557953Y-100051433D01*
X139699369Y-100051433D01*
X139425329Y-100419263D01*
X139725992Y-100817379D01*
X139580423Y-100817379D01*
X139356208Y-100511098D01*
X139132726Y-100817379D01*
X138987157Y-100817379D01*
X139287820Y-100418041D01*
G37*
G36*
X140196404Y-100833010D02*
G01*
X140148481Y-100822732D01*
X140117513Y-100800526D01*
X140091642Y-100757601D01*
X140085517Y-100715773D01*
X140094547Y-100666013D01*
X140117513Y-100631265D01*
X140160878Y-100603938D01*
X140196404Y-100598537D01*
X140246431Y-100610075D01*
X140274806Y-100631265D01*
X140300875Y-100673993D01*
X140307046Y-100715773D01*
X140297947Y-100765603D01*
X140274806Y-100800526D01*
X140231730Y-100827649D01*
X140196404Y-100833010D01*
G37*
G36*
X131579980Y-125552044D02*
G01*
X131701949Y-125608919D01*
X131441000Y-126400276D01*
X131777877Y-125952355D01*
X131908701Y-126013359D01*
X131782926Y-126561067D01*
X132221922Y-125851387D01*
X132343891Y-125908262D01*
X131776361Y-126764706D01*
X131657934Y-126709482D01*
X131783753Y-126111400D01*
X131407134Y-126592532D01*
X131288707Y-126537309D01*
X131579980Y-125552044D01*
G37*
G36*
X132406422Y-126237201D02*
G01*
X132455639Y-126244702D01*
X132488091Y-126250925D01*
X132535997Y-126263082D01*
X132582787Y-126279418D01*
X132613361Y-126292630D01*
X132658231Y-126316472D01*
X132699869Y-126344642D01*
X132725832Y-126365827D01*
X132760266Y-126400997D01*
X132789267Y-126443694D01*
X132801306Y-126468664D01*
X132814722Y-126518312D01*
X132815206Y-126567987D01*
X132810213Y-126598670D01*
X132795615Y-126646439D01*
X132777376Y-126692506D01*
X132755749Y-126740897D01*
X132689790Y-126882346D01*
X132669597Y-126928007D01*
X132651244Y-126973665D01*
X132636341Y-127013727D01*
X132621206Y-127063295D01*
X132611232Y-127115187D01*
X132608229Y-127152612D01*
X132493786Y-127099247D01*
X132499419Y-127049719D01*
X132501839Y-127038054D01*
X132514006Y-126990559D01*
X132517787Y-126977848D01*
X132471085Y-127003701D01*
X132421224Y-127018846D01*
X132373154Y-127023322D01*
X132319828Y-127019476D01*
X132268170Y-127007682D01*
X132222656Y-126990064D01*
X132176284Y-126964061D01*
X132137667Y-126932916D01*
X132103492Y-126891731D01*
X132083695Y-126855198D01*
X132069079Y-126804129D01*
X132068634Y-126762518D01*
X132194251Y-126762518D01*
X132199662Y-126813739D01*
X132205182Y-126826419D01*
X132235145Y-126866366D01*
X132276302Y-126896653D01*
X132295552Y-126906557D01*
X132342815Y-126923820D01*
X132391449Y-126930392D01*
X132425920Y-126926925D01*
X132475538Y-126909710D01*
X132516672Y-126882923D01*
X132531226Y-126869850D01*
X132565548Y-126831046D01*
X132592288Y-126790080D01*
X132605695Y-126763901D01*
X132617049Y-126739551D01*
X132472501Y-126672147D01*
X132426633Y-126653542D01*
X132379508Y-126639916D01*
X132373130Y-126638476D01*
X132324026Y-126633971D01*
X132278505Y-126642591D01*
X132237296Y-126670088D01*
X132209088Y-126713436D01*
X132194251Y-126762518D01*
X132068634Y-126762518D01*
X132068500Y-126749929D01*
X132079770Y-126699122D01*
X132095501Y-126659392D01*
X132120919Y-126613797D01*
X132153761Y-126574182D01*
X132195481Y-126544034D01*
X132203695Y-126540064D01*
X132251125Y-126524422D01*
X132301539Y-126518770D01*
X132349959Y-126522300D01*
X132399710Y-126532424D01*
X132449379Y-126547353D01*
X132498965Y-126567086D01*
X132508873Y-126571609D01*
X132662053Y-126643038D01*
X132670311Y-126625330D01*
X132687574Y-126579030D01*
X132693740Y-126529258D01*
X132681734Y-126483514D01*
X132649524Y-126441623D01*
X132608813Y-126410602D01*
X132571456Y-126390588D01*
X132523305Y-126371129D01*
X132473483Y-126356878D01*
X132439340Y-126350271D01*
X132387955Y-126344627D01*
X132337012Y-126343889D01*
X132303295Y-126346121D01*
X132356558Y-126231900D01*
X132406422Y-126237201D01*
G37*
G36*
X132710559Y-127410533D02*
G01*
X132778073Y-127442016D01*
X132825870Y-127455680D01*
X132868762Y-127449809D01*
X132914212Y-127422298D01*
X132956107Y-127387480D01*
X132994591Y-127351477D01*
X133012665Y-127333658D01*
X133065190Y-126520569D01*
X133186052Y-126576928D01*
X133136015Y-127221127D01*
X133594238Y-126767268D01*
X133715100Y-126823627D01*
X133311467Y-127211854D01*
X133274613Y-127247349D01*
X133237244Y-127283415D01*
X133228212Y-127292147D01*
X133211056Y-127308132D01*
X133195848Y-127323408D01*
X133166406Y-127353606D01*
X133149589Y-127370019D01*
X133112444Y-127407189D01*
X133074724Y-127443597D01*
X133048353Y-127468068D01*
X133009853Y-127502173D01*
X132975819Y-127528836D01*
X132930279Y-127555484D01*
X132883460Y-127569774D01*
X132828387Y-127570975D01*
X132778828Y-127558786D01*
X132757197Y-127549780D01*
X132665554Y-127507046D01*
X132710559Y-127410533D01*
G37*
G36*
X133869720Y-126619767D02*
G01*
X133991688Y-126676642D01*
X133730739Y-127467999D01*
X134067617Y-127020078D01*
X134198440Y-127081082D01*
X134072666Y-127628790D01*
X134511661Y-126919110D01*
X134633630Y-126975985D01*
X134066101Y-127832429D01*
X133947673Y-127777205D01*
X134073492Y-127179123D01*
X133696873Y-127660255D01*
X133578446Y-127605032D01*
X133869720Y-126619767D01*
G37*
G36*
X134696161Y-127304924D02*
G01*
X134745379Y-127312425D01*
X134777831Y-127318648D01*
X134825736Y-127330805D01*
X134872527Y-127347141D01*
X134903101Y-127360353D01*
X134947970Y-127384195D01*
X134989608Y-127412365D01*
X135015572Y-127433551D01*
X135050005Y-127468720D01*
X135079006Y-127511417D01*
X135091046Y-127536387D01*
X135104461Y-127586035D01*
X135104945Y-127635710D01*
X135099952Y-127666393D01*
X135085354Y-127714162D01*
X135067115Y-127760229D01*
X135045488Y-127808620D01*
X134979530Y-127950069D01*
X134959336Y-127995730D01*
X134940984Y-128041388D01*
X134926081Y-128081450D01*
X134910945Y-128131018D01*
X134900972Y-128182910D01*
X134897968Y-128220335D01*
X134783526Y-128166970D01*
X134789159Y-128117442D01*
X134791579Y-128105777D01*
X134803745Y-128058282D01*
X134807526Y-128045571D01*
X134760824Y-128071424D01*
X134710963Y-128086569D01*
X134662894Y-128091045D01*
X134609568Y-128087199D01*
X134557910Y-128075405D01*
X134512395Y-128057787D01*
X134466024Y-128031784D01*
X134427407Y-128000639D01*
X134393231Y-127959454D01*
X134373435Y-127922921D01*
X134358818Y-127871853D01*
X134358373Y-127830241D01*
X134483991Y-127830241D01*
X134489401Y-127881462D01*
X134494921Y-127894142D01*
X134524884Y-127934089D01*
X134566042Y-127964377D01*
X134585291Y-127974280D01*
X134632555Y-127991543D01*
X134681189Y-127998115D01*
X134715660Y-127994648D01*
X134765278Y-127977433D01*
X134806412Y-127950646D01*
X134820966Y-127937574D01*
X134855288Y-127898769D01*
X134882027Y-127857803D01*
X134895434Y-127831624D01*
X134906788Y-127807274D01*
X134762241Y-127739870D01*
X134716372Y-127721265D01*
X134669247Y-127707639D01*
X134662869Y-127706199D01*
X134613766Y-127701694D01*
X134568245Y-127710314D01*
X134527035Y-127737811D01*
X134498828Y-127781160D01*
X134483991Y-127830241D01*
X134358373Y-127830241D01*
X134358239Y-127817652D01*
X134369509Y-127766845D01*
X134385240Y-127727115D01*
X134410659Y-127681520D01*
X134443501Y-127641905D01*
X134485220Y-127611757D01*
X134493435Y-127607787D01*
X134540864Y-127592145D01*
X134591278Y-127586493D01*
X134639699Y-127590023D01*
X134689449Y-127600147D01*
X134739118Y-127615076D01*
X134788705Y-127634809D01*
X134798612Y-127639332D01*
X134951793Y-127710762D01*
X134960051Y-127693053D01*
X134977313Y-127646753D01*
X134983480Y-127596981D01*
X134971474Y-127551237D01*
X134939264Y-127509346D01*
X134898552Y-127478325D01*
X134861195Y-127458311D01*
X134813044Y-127438852D01*
X134763222Y-127424601D01*
X134729079Y-127417994D01*
X134677695Y-127412351D01*
X134626752Y-127411612D01*
X134593035Y-127413844D01*
X134646297Y-127299623D01*
X134696161Y-127304924D01*
G37*
G36*
X135000298Y-128478256D02*
G01*
X135067813Y-128509739D01*
X135115609Y-128523403D01*
X135158501Y-128517532D01*
X135203952Y-128490021D01*
X135245847Y-128455203D01*
X135284331Y-128419200D01*
X135302404Y-128401381D01*
X135354929Y-127588292D01*
X135475791Y-127644651D01*
X135425754Y-128288851D01*
X135883978Y-127834991D01*
X136004840Y-127891350D01*
X135601206Y-128279577D01*
X135564353Y-128315073D01*
X135526984Y-128351138D01*
X135517951Y-128359870D01*
X135500796Y-128375855D01*
X135485588Y-128391131D01*
X135456145Y-128421329D01*
X135439329Y-128437742D01*
X135402183Y-128474912D01*
X135364463Y-128511320D01*
X135338093Y-128535791D01*
X135299593Y-128569896D01*
X135265559Y-128596559D01*
X135220019Y-128623207D01*
X135173200Y-128637498D01*
X135118127Y-128638698D01*
X135068568Y-128626509D01*
X135046937Y-128617503D01*
X134955294Y-128574769D01*
X135000298Y-128478256D01*
G37*
G36*
X136159459Y-127687491D02*
G01*
X136281428Y-127744366D01*
X136020479Y-128535722D01*
X136357356Y-128087801D01*
X136488180Y-128148805D01*
X136362405Y-128696513D01*
X136801401Y-127986833D01*
X136923370Y-128043708D01*
X136355840Y-128900152D01*
X136237413Y-128844928D01*
X136363232Y-128246846D01*
X135986613Y-128727978D01*
X135868186Y-128672755D01*
X136159459Y-127687491D01*
G37*
G36*
X136985901Y-128372647D02*
G01*
X137035118Y-128380148D01*
X137067570Y-128386371D01*
X137115476Y-128398528D01*
X137162266Y-128414864D01*
X137192840Y-128428076D01*
X137237710Y-128451918D01*
X137279348Y-128480088D01*
X137305311Y-128501274D01*
X137339745Y-128536443D01*
X137368746Y-128579140D01*
X137380785Y-128604110D01*
X137394201Y-128653758D01*
X137394685Y-128703434D01*
X137389692Y-128734116D01*
X137375094Y-128781885D01*
X137356855Y-128827953D01*
X137335228Y-128876343D01*
X137269269Y-129017792D01*
X137249076Y-129063453D01*
X137230723Y-129109111D01*
X137215820Y-129149174D01*
X137200685Y-129198741D01*
X137190711Y-129250633D01*
X137187708Y-129288058D01*
X137073265Y-129234693D01*
X137078898Y-129185165D01*
X137081318Y-129173500D01*
X137093485Y-129126005D01*
X137097266Y-129113294D01*
X137050564Y-129139147D01*
X137000703Y-129154292D01*
X136952633Y-129158768D01*
X136899307Y-129154922D01*
X136847649Y-129143128D01*
X136802135Y-129125510D01*
X136755763Y-129099507D01*
X136717146Y-129068362D01*
X136682971Y-129027177D01*
X136663174Y-128990644D01*
X136648558Y-128939576D01*
X136648113Y-128897964D01*
X136773730Y-128897964D01*
X136779141Y-128949185D01*
X136784661Y-128961865D01*
X136814624Y-129001812D01*
X136855781Y-129032100D01*
X136875031Y-129042003D01*
X136922294Y-129059266D01*
X136970928Y-129065838D01*
X137005399Y-129062371D01*
X137055017Y-129045156D01*
X137096151Y-129018369D01*
X137110705Y-129005297D01*
X137145027Y-128966492D01*
X137171767Y-128925526D01*
X137185174Y-128899347D01*
X137196528Y-128874997D01*
X137051980Y-128807594D01*
X137006112Y-128788988D01*
X136958987Y-128775362D01*
X136952609Y-128773922D01*
X136903505Y-128769418D01*
X136857984Y-128778037D01*
X136816775Y-128805534D01*
X136788567Y-128848883D01*
X136773730Y-128897964D01*
X136648113Y-128897964D01*
X136647979Y-128885375D01*
X136659249Y-128834568D01*
X136674980Y-128794838D01*
X136700398Y-128749243D01*
X136733240Y-128709628D01*
X136774960Y-128679480D01*
X136783174Y-128675510D01*
X136830604Y-128659868D01*
X136881018Y-128654216D01*
X136929438Y-128657746D01*
X136979189Y-128667871D01*
X137028858Y-128682799D01*
X137078444Y-128702532D01*
X137088352Y-128707055D01*
X137241532Y-128778485D01*
X137249790Y-128760776D01*
X137267053Y-128714476D01*
X137273219Y-128664704D01*
X137261213Y-128618960D01*
X137229003Y-128577069D01*
X137188292Y-128546048D01*
X137150935Y-128526034D01*
X137102784Y-128506575D01*
X137052962Y-128492324D01*
X137018819Y-128485718D01*
X136967434Y-128480074D01*
X136916491Y-128479335D01*
X136882774Y-128481567D01*
X136936037Y-128367346D01*
X136985901Y-128372647D01*
G37*
G36*
X137290038Y-129545979D02*
G01*
X137357552Y-129577462D01*
X137405349Y-129591126D01*
X137448241Y-129585255D01*
X137493691Y-129557744D01*
X137535586Y-129522926D01*
X137574070Y-129486923D01*
X137592144Y-129469104D01*
X137644669Y-128656015D01*
X137765531Y-128712374D01*
X137715494Y-129356574D01*
X138173717Y-128902715D01*
X138294579Y-128959073D01*
X137890946Y-129347300D01*
X137854092Y-129382796D01*
X137816723Y-129418861D01*
X137807691Y-129427593D01*
X137790535Y-129443578D01*
X137775327Y-129458854D01*
X137745885Y-129489052D01*
X137729068Y-129505465D01*
X137691923Y-129542635D01*
X137654203Y-129579043D01*
X137627832Y-129603514D01*
X137589332Y-129637619D01*
X137555298Y-129664283D01*
X137509758Y-129690930D01*
X137462939Y-129705221D01*
X137407866Y-129706421D01*
X137358307Y-129694232D01*
X137336676Y-129685226D01*
X137245033Y-129642492D01*
X137290038Y-129545979D01*
G37*
D11*
X152816664Y-52354819D02*
X153149997Y-53354819D01*
X153149997Y-53354819D02*
X153483330Y-52354819D01*
X154388092Y-53259580D02*
X154340473Y-53307200D01*
X154340473Y-53307200D02*
X154197616Y-53354819D01*
X154197616Y-53354819D02*
X154102378Y-53354819D01*
X154102378Y-53354819D02*
X153959521Y-53307200D01*
X153959521Y-53307200D02*
X153864283Y-53211961D01*
X153864283Y-53211961D02*
X153816664Y-53116723D01*
X153816664Y-53116723D02*
X153769045Y-52926247D01*
X153769045Y-52926247D02*
X153769045Y-52783390D01*
X153769045Y-52783390D02*
X153816664Y-52592914D01*
X153816664Y-52592914D02*
X153864283Y-52497676D01*
X153864283Y-52497676D02*
X153959521Y-52402438D01*
X153959521Y-52402438D02*
X154102378Y-52354819D01*
X154102378Y-52354819D02*
X154197616Y-52354819D01*
X154197616Y-52354819D02*
X154340473Y-52402438D01*
X154340473Y-52402438D02*
X154388092Y-52450057D01*
X155388092Y-53259580D02*
X155340473Y-53307200D01*
X155340473Y-53307200D02*
X155197616Y-53354819D01*
X155197616Y-53354819D02*
X155102378Y-53354819D01*
X155102378Y-53354819D02*
X154959521Y-53307200D01*
X154959521Y-53307200D02*
X154864283Y-53211961D01*
X154864283Y-53211961D02*
X154816664Y-53116723D01*
X154816664Y-53116723D02*
X154769045Y-52926247D01*
X154769045Y-52926247D02*
X154769045Y-52783390D01*
X154769045Y-52783390D02*
X154816664Y-52592914D01*
X154816664Y-52592914D02*
X154864283Y-52497676D01*
X154864283Y-52497676D02*
X154959521Y-52402438D01*
X154959521Y-52402438D02*
X155102378Y-52354819D01*
X155102378Y-52354819D02*
X155197616Y-52354819D01*
X155197616Y-52354819D02*
X155340473Y-52402438D01*
X155340473Y-52402438D02*
X155388092Y-52450057D01*
X158953331Y-51759582D02*
X158905712Y-51807202D01*
X158905712Y-51807202D02*
X158762855Y-51854821D01*
X158762855Y-51854821D02*
X158667617Y-51854821D01*
X158667617Y-51854821D02*
X158524760Y-51807202D01*
X158524760Y-51807202D02*
X158429522Y-51711963D01*
X158429522Y-51711963D02*
X158381903Y-51616725D01*
X158381903Y-51616725D02*
X158334284Y-51426249D01*
X158334284Y-51426249D02*
X158334284Y-51283392D01*
X158334284Y-51283392D02*
X158381903Y-51092916D01*
X158381903Y-51092916D02*
X158429522Y-50997678D01*
X158429522Y-50997678D02*
X158524760Y-50902440D01*
X158524760Y-50902440D02*
X158667617Y-50854821D01*
X158667617Y-50854821D02*
X158762855Y-50854821D01*
X158762855Y-50854821D02*
X158905712Y-50902440D01*
X158905712Y-50902440D02*
X158953331Y-50950059D01*
X159334284Y-51807202D02*
X159477141Y-51854821D01*
X159477141Y-51854821D02*
X159715236Y-51854821D01*
X159715236Y-51854821D02*
X159810474Y-51807202D01*
X159810474Y-51807202D02*
X159858093Y-51759582D01*
X159858093Y-51759582D02*
X159905712Y-51664344D01*
X159905712Y-51664344D02*
X159905712Y-51569106D01*
X159905712Y-51569106D02*
X159858093Y-51473868D01*
X159858093Y-51473868D02*
X159810474Y-51426249D01*
X159810474Y-51426249D02*
X159715236Y-51378630D01*
X159715236Y-51378630D02*
X159524760Y-51331011D01*
X159524760Y-51331011D02*
X159429522Y-51283392D01*
X159429522Y-51283392D02*
X159381903Y-51235773D01*
X159381903Y-51235773D02*
X159334284Y-51140535D01*
X159334284Y-51140535D02*
X159334284Y-51045297D01*
X159334284Y-51045297D02*
X159381903Y-50950059D01*
X159381903Y-50950059D02*
X159429522Y-50902440D01*
X159429522Y-50902440D02*
X159524760Y-50854821D01*
X159524760Y-50854821D02*
X159762855Y-50854821D01*
X159762855Y-50854821D02*
X159905712Y-50902440D01*
X148229521Y-51854821D02*
X148229521Y-50854821D01*
X148229521Y-50854821D02*
X148467616Y-50854821D01*
X148467616Y-50854821D02*
X148610473Y-50902440D01*
X148610473Y-50902440D02*
X148705711Y-50997678D01*
X148705711Y-50997678D02*
X148753330Y-51092916D01*
X148753330Y-51092916D02*
X148800949Y-51283392D01*
X148800949Y-51283392D02*
X148800949Y-51426249D01*
X148800949Y-51426249D02*
X148753330Y-51616725D01*
X148753330Y-51616725D02*
X148705711Y-51711963D01*
X148705711Y-51711963D02*
X148610473Y-51807202D01*
X148610473Y-51807202D02*
X148467616Y-51854821D01*
X148467616Y-51854821D02*
X148229521Y-51854821D01*
X149181902Y-51569106D02*
X149658092Y-51569106D01*
X149086664Y-51854821D02*
X149419997Y-50854821D01*
X149419997Y-50854821D02*
X149753330Y-51854821D01*
X155858091Y-50902439D02*
X155762853Y-50854820D01*
X155762853Y-50854820D02*
X155619996Y-50854820D01*
X155619996Y-50854820D02*
X155477139Y-50902439D01*
X155477139Y-50902439D02*
X155381901Y-50997677D01*
X155381901Y-50997677D02*
X155334282Y-51092915D01*
X155334282Y-51092915D02*
X155286663Y-51283391D01*
X155286663Y-51283391D02*
X155286663Y-51426248D01*
X155286663Y-51426248D02*
X155334282Y-51616724D01*
X155334282Y-51616724D02*
X155381901Y-51711962D01*
X155381901Y-51711962D02*
X155477139Y-51807201D01*
X155477139Y-51807201D02*
X155619996Y-51854820D01*
X155619996Y-51854820D02*
X155715234Y-51854820D01*
X155715234Y-51854820D02*
X155858091Y-51807201D01*
X155858091Y-51807201D02*
X155905710Y-51759581D01*
X155905710Y-51759581D02*
X155905710Y-51426248D01*
X155905710Y-51426248D02*
X155715234Y-51426248D01*
X156334282Y-51854820D02*
X156334282Y-50854820D01*
X156334282Y-50854820D02*
X156905710Y-51854820D01*
X156905710Y-51854820D02*
X156905710Y-50854820D01*
X157381901Y-51854820D02*
X157381901Y-50854820D01*
X157381901Y-50854820D02*
X157619996Y-50854820D01*
X157619996Y-50854820D02*
X157762853Y-50902439D01*
X157762853Y-50902439D02*
X157858091Y-50997677D01*
X157858091Y-50997677D02*
X157905710Y-51092915D01*
X157905710Y-51092915D02*
X157953329Y-51283391D01*
X157953329Y-51283391D02*
X157953329Y-51426248D01*
X157953329Y-51426248D02*
X157905710Y-51616724D01*
X157905710Y-51616724D02*
X157858091Y-51711962D01*
X157858091Y-51711962D02*
X157762853Y-51807201D01*
X157762853Y-51807201D02*
X157619996Y-51854820D01*
X157619996Y-51854820D02*
X157381901Y-51854820D01*
X151424757Y-51759581D02*
X151377138Y-51807201D01*
X151377138Y-51807201D02*
X151234281Y-51854820D01*
X151234281Y-51854820D02*
X151139043Y-51854820D01*
X151139043Y-51854820D02*
X150996186Y-51807201D01*
X150996186Y-51807201D02*
X150900948Y-51711962D01*
X150900948Y-51711962D02*
X150853329Y-51616724D01*
X150853329Y-51616724D02*
X150805710Y-51426248D01*
X150805710Y-51426248D02*
X150805710Y-51283391D01*
X150805710Y-51283391D02*
X150853329Y-51092915D01*
X150853329Y-51092915D02*
X150900948Y-50997677D01*
X150900948Y-50997677D02*
X150996186Y-50902439D01*
X150996186Y-50902439D02*
X151139043Y-50854820D01*
X151139043Y-50854820D02*
X151234281Y-50854820D01*
X151234281Y-50854820D02*
X151377138Y-50902439D01*
X151377138Y-50902439D02*
X151424757Y-50950058D01*
X152329519Y-51854820D02*
X151853329Y-51854820D01*
X151853329Y-51854820D02*
X151853329Y-50854820D01*
X151335706Y-41977200D02*
X151335706Y-40977200D01*
X151335706Y-40977200D02*
X151716658Y-40977200D01*
X151716658Y-40977200D02*
X151811896Y-41024819D01*
X151811896Y-41024819D02*
X151859515Y-41072438D01*
X151859515Y-41072438D02*
X151907134Y-41167676D01*
X151907134Y-41167676D02*
X151907134Y-41310533D01*
X151907134Y-41310533D02*
X151859515Y-41405771D01*
X151859515Y-41405771D02*
X151811896Y-41453390D01*
X151811896Y-41453390D02*
X151716658Y-41501009D01*
X151716658Y-41501009D02*
X151335706Y-41501009D01*
X152859515Y-41977200D02*
X152288087Y-41977200D01*
X152573801Y-41977200D02*
X152573801Y-40977200D01*
X152573801Y-40977200D02*
X152478563Y-41120057D01*
X152478563Y-41120057D02*
X152383325Y-41215295D01*
X152383325Y-41215295D02*
X152288087Y-41262914D01*
X153764277Y-40977200D02*
X153288087Y-40977200D01*
X153288087Y-40977200D02*
X153240468Y-41453390D01*
X153240468Y-41453390D02*
X153288087Y-41405771D01*
X153288087Y-41405771D02*
X153383325Y-41358152D01*
X153383325Y-41358152D02*
X153621420Y-41358152D01*
X153621420Y-41358152D02*
X153716658Y-41405771D01*
X153716658Y-41405771D02*
X153764277Y-41453390D01*
X153764277Y-41453390D02*
X153811896Y-41548628D01*
X153811896Y-41548628D02*
X153811896Y-41786723D01*
X153811896Y-41786723D02*
X153764277Y-41881961D01*
X153764277Y-41881961D02*
X153716658Y-41929581D01*
X153716658Y-41929581D02*
X153621420Y-41977200D01*
X153621420Y-41977200D02*
X153383325Y-41977200D01*
X153383325Y-41977200D02*
X153288087Y-41929581D01*
X153288087Y-41929581D02*
X153240468Y-41881961D01*
X151216662Y-28277201D02*
X151549995Y-29277201D01*
X151549995Y-29277201D02*
X151883328Y-28277201D01*
X152788090Y-29181962D02*
X152740471Y-29229582D01*
X152740471Y-29229582D02*
X152597614Y-29277201D01*
X152597614Y-29277201D02*
X152502376Y-29277201D01*
X152502376Y-29277201D02*
X152359519Y-29229582D01*
X152359519Y-29229582D02*
X152264281Y-29134343D01*
X152264281Y-29134343D02*
X152216662Y-29039105D01*
X152216662Y-29039105D02*
X152169043Y-28848629D01*
X152169043Y-28848629D02*
X152169043Y-28705772D01*
X152169043Y-28705772D02*
X152216662Y-28515296D01*
X152216662Y-28515296D02*
X152264281Y-28420058D01*
X152264281Y-28420058D02*
X152359519Y-28324820D01*
X152359519Y-28324820D02*
X152502376Y-28277201D01*
X152502376Y-28277201D02*
X152597614Y-28277201D01*
X152597614Y-28277201D02*
X152740471Y-28324820D01*
X152740471Y-28324820D02*
X152788090Y-28372439D01*
X153788090Y-29181962D02*
X153740471Y-29229582D01*
X153740471Y-29229582D02*
X153597614Y-29277201D01*
X153597614Y-29277201D02*
X153502376Y-29277201D01*
X153502376Y-29277201D02*
X153359519Y-29229582D01*
X153359519Y-29229582D02*
X153264281Y-29134343D01*
X153264281Y-29134343D02*
X153216662Y-29039105D01*
X153216662Y-29039105D02*
X153169043Y-28848629D01*
X153169043Y-28848629D02*
X153169043Y-28705772D01*
X153169043Y-28705772D02*
X153216662Y-28515296D01*
X153216662Y-28515296D02*
X153264281Y-28420058D01*
X153264281Y-28420058D02*
X153359519Y-28324820D01*
X153359519Y-28324820D02*
X153502376Y-28277201D01*
X153502376Y-28277201D02*
X153597614Y-28277201D01*
X153597614Y-28277201D02*
X153740471Y-28324820D01*
X153740471Y-28324820D02*
X153788090Y-28372439D01*
X155301901Y-44517201D02*
X155301901Y-43517201D01*
X155301901Y-43517201D02*
X155682853Y-43517201D01*
X155682853Y-43517201D02*
X155778091Y-43564820D01*
X155778091Y-43564820D02*
X155825710Y-43612439D01*
X155825710Y-43612439D02*
X155873329Y-43707677D01*
X155873329Y-43707677D02*
X155873329Y-43850534D01*
X155873329Y-43850534D02*
X155825710Y-43945772D01*
X155825710Y-43945772D02*
X155778091Y-43993391D01*
X155778091Y-43993391D02*
X155682853Y-44041010D01*
X155682853Y-44041010D02*
X155301901Y-44041010D01*
X156206663Y-43517201D02*
X156873329Y-43517201D01*
X156873329Y-43517201D02*
X156444758Y-44517201D01*
X151335707Y-47057201D02*
X151335707Y-46057201D01*
X151335707Y-46057201D02*
X151716659Y-46057201D01*
X151716659Y-46057201D02*
X151811897Y-46104820D01*
X151811897Y-46104820D02*
X151859516Y-46152439D01*
X151859516Y-46152439D02*
X151907135Y-46247677D01*
X151907135Y-46247677D02*
X151907135Y-46390534D01*
X151907135Y-46390534D02*
X151859516Y-46485772D01*
X151859516Y-46485772D02*
X151811897Y-46533391D01*
X151811897Y-46533391D02*
X151716659Y-46581010D01*
X151716659Y-46581010D02*
X151335707Y-46581010D01*
X152859516Y-47057201D02*
X152288088Y-47057201D01*
X152573802Y-47057201D02*
X152573802Y-46057201D01*
X152573802Y-46057201D02*
X152478564Y-46200058D01*
X152478564Y-46200058D02*
X152383326Y-46295296D01*
X152383326Y-46295296D02*
X152288088Y-46342915D01*
X153716659Y-46057201D02*
X153526183Y-46057201D01*
X153526183Y-46057201D02*
X153430945Y-46104820D01*
X153430945Y-46104820D02*
X153383326Y-46152439D01*
X153383326Y-46152439D02*
X153288088Y-46295296D01*
X153288088Y-46295296D02*
X153240469Y-46485772D01*
X153240469Y-46485772D02*
X153240469Y-46866724D01*
X153240469Y-46866724D02*
X153288088Y-46961962D01*
X153288088Y-46961962D02*
X153335707Y-47009582D01*
X153335707Y-47009582D02*
X153430945Y-47057201D01*
X153430945Y-47057201D02*
X153621421Y-47057201D01*
X153621421Y-47057201D02*
X153716659Y-47009582D01*
X153716659Y-47009582D02*
X153764278Y-46961962D01*
X153764278Y-46961962D02*
X153811897Y-46866724D01*
X153811897Y-46866724D02*
X153811897Y-46628629D01*
X153811897Y-46628629D02*
X153764278Y-46533391D01*
X153764278Y-46533391D02*
X153716659Y-46485772D01*
X153716659Y-46485772D02*
X153621421Y-46438153D01*
X153621421Y-46438153D02*
X153430945Y-46438153D01*
X153430945Y-46438153D02*
X153335707Y-46485772D01*
X153335707Y-46485772D02*
X153288088Y-46533391D01*
X153288088Y-46533391D02*
X153240469Y-46628629D01*
X152002374Y-26737202D02*
X151669041Y-26261011D01*
X151430946Y-26737202D02*
X151430946Y-25737202D01*
X151430946Y-25737202D02*
X151811898Y-25737202D01*
X151811898Y-25737202D02*
X151907136Y-25784821D01*
X151907136Y-25784821D02*
X151954755Y-25832440D01*
X151954755Y-25832440D02*
X152002374Y-25927678D01*
X152002374Y-25927678D02*
X152002374Y-26070535D01*
X152002374Y-26070535D02*
X151954755Y-26165773D01*
X151954755Y-26165773D02*
X151907136Y-26213392D01*
X151907136Y-26213392D02*
X151811898Y-26261011D01*
X151811898Y-26261011D02*
X151430946Y-26261011D01*
X152383327Y-26689583D02*
X152526184Y-26737202D01*
X152526184Y-26737202D02*
X152764279Y-26737202D01*
X152764279Y-26737202D02*
X152859517Y-26689583D01*
X152859517Y-26689583D02*
X152907136Y-26641963D01*
X152907136Y-26641963D02*
X152954755Y-26546725D01*
X152954755Y-26546725D02*
X152954755Y-26451487D01*
X152954755Y-26451487D02*
X152907136Y-26356249D01*
X152907136Y-26356249D02*
X152859517Y-26308630D01*
X152859517Y-26308630D02*
X152764279Y-26261011D01*
X152764279Y-26261011D02*
X152573803Y-26213392D01*
X152573803Y-26213392D02*
X152478565Y-26165773D01*
X152478565Y-26165773D02*
X152430946Y-26118154D01*
X152430946Y-26118154D02*
X152383327Y-26022916D01*
X152383327Y-26022916D02*
X152383327Y-25927678D01*
X152383327Y-25927678D02*
X152430946Y-25832440D01*
X152430946Y-25832440D02*
X152478565Y-25784821D01*
X152478565Y-25784821D02*
X152573803Y-25737202D01*
X152573803Y-25737202D02*
X152811898Y-25737202D01*
X152811898Y-25737202D02*
X152954755Y-25784821D01*
X153240470Y-25737202D02*
X153811898Y-25737202D01*
X153526184Y-26737202D02*
X153526184Y-25737202D01*
X155301900Y-21657201D02*
X155301900Y-20657201D01*
X155301900Y-20657201D02*
X155682852Y-20657201D01*
X155682852Y-20657201D02*
X155778090Y-20704820D01*
X155778090Y-20704820D02*
X155825709Y-20752439D01*
X155825709Y-20752439D02*
X155873328Y-20847677D01*
X155873328Y-20847677D02*
X155873328Y-20990534D01*
X155873328Y-20990534D02*
X155825709Y-21085772D01*
X155825709Y-21085772D02*
X155778090Y-21133391D01*
X155778090Y-21133391D02*
X155682852Y-21181010D01*
X155682852Y-21181010D02*
X155301900Y-21181010D01*
X156825709Y-21657201D02*
X156254281Y-21657201D01*
X156539995Y-21657201D02*
X156539995Y-20657201D01*
X156539995Y-20657201D02*
X156444757Y-20800058D01*
X156444757Y-20800058D02*
X156349519Y-20895296D01*
X156349519Y-20895296D02*
X156254281Y-20942915D01*
X151335708Y-36897202D02*
X151335708Y-35897202D01*
X151335708Y-35897202D02*
X151716660Y-35897202D01*
X151716660Y-35897202D02*
X151811898Y-35944821D01*
X151811898Y-35944821D02*
X151859517Y-35992440D01*
X151859517Y-35992440D02*
X151907136Y-36087678D01*
X151907136Y-36087678D02*
X151907136Y-36230535D01*
X151907136Y-36230535D02*
X151859517Y-36325773D01*
X151859517Y-36325773D02*
X151811898Y-36373392D01*
X151811898Y-36373392D02*
X151716660Y-36421011D01*
X151716660Y-36421011D02*
X151335708Y-36421011D01*
X152859517Y-36897202D02*
X152288089Y-36897202D01*
X152573803Y-36897202D02*
X152573803Y-35897202D01*
X152573803Y-35897202D02*
X152478565Y-36040059D01*
X152478565Y-36040059D02*
X152383327Y-36135297D01*
X152383327Y-36135297D02*
X152288089Y-36182916D01*
X153335708Y-36897202D02*
X153526184Y-36897202D01*
X153526184Y-36897202D02*
X153621422Y-36849583D01*
X153621422Y-36849583D02*
X153669041Y-36801963D01*
X153669041Y-36801963D02*
X153764279Y-36659106D01*
X153764279Y-36659106D02*
X153811898Y-36468630D01*
X153811898Y-36468630D02*
X153811898Y-36087678D01*
X153811898Y-36087678D02*
X153764279Y-35992440D01*
X153764279Y-35992440D02*
X153716660Y-35944821D01*
X153716660Y-35944821D02*
X153621422Y-35897202D01*
X153621422Y-35897202D02*
X153430946Y-35897202D01*
X153430946Y-35897202D02*
X153335708Y-35944821D01*
X153335708Y-35944821D02*
X153288089Y-35992440D01*
X153288089Y-35992440D02*
X153240470Y-36087678D01*
X153240470Y-36087678D02*
X153240470Y-36325773D01*
X153240470Y-36325773D02*
X153288089Y-36421011D01*
X153288089Y-36421011D02*
X153335708Y-36468630D01*
X153335708Y-36468630D02*
X153430946Y-36516249D01*
X153430946Y-36516249D02*
X153621422Y-36516249D01*
X153621422Y-36516249D02*
X153716660Y-36468630D01*
X153716660Y-36468630D02*
X153764279Y-36421011D01*
X153764279Y-36421011D02*
X153811898Y-36325773D01*
X147261899Y-19112201D02*
X146928566Y-18636010D01*
X146690471Y-19112201D02*
X146690471Y-18112201D01*
X146690471Y-18112201D02*
X147071423Y-18112201D01*
X147071423Y-18112201D02*
X147166661Y-18159820D01*
X147166661Y-18159820D02*
X147214280Y-18207439D01*
X147214280Y-18207439D02*
X147261899Y-18302677D01*
X147261899Y-18302677D02*
X147261899Y-18445534D01*
X147261899Y-18445534D02*
X147214280Y-18540772D01*
X147214280Y-18540772D02*
X147166661Y-18588391D01*
X147166661Y-18588391D02*
X147071423Y-18636010D01*
X147071423Y-18636010D02*
X146690471Y-18636010D01*
X148738090Y-18112201D02*
X148738090Y-18826486D01*
X148738090Y-18826486D02*
X148690471Y-18969343D01*
X148690471Y-18969343D02*
X148595233Y-19064582D01*
X148595233Y-19064582D02*
X148452376Y-19112201D01*
X148452376Y-19112201D02*
X148357138Y-19112201D01*
X149642852Y-18445534D02*
X149642852Y-19112201D01*
X149214281Y-18445534D02*
X149214281Y-18969343D01*
X149214281Y-18969343D02*
X149261900Y-19064582D01*
X149261900Y-19064582D02*
X149357138Y-19112201D01*
X149357138Y-19112201D02*
X149499995Y-19112201D01*
X149499995Y-19112201D02*
X149595233Y-19064582D01*
X149595233Y-19064582D02*
X149642852Y-19016962D01*
X150119043Y-19112201D02*
X150119043Y-18445534D01*
X150119043Y-18540772D02*
X150166662Y-18493153D01*
X150166662Y-18493153D02*
X150261900Y-18445534D01*
X150261900Y-18445534D02*
X150404757Y-18445534D01*
X150404757Y-18445534D02*
X150499995Y-18493153D01*
X150499995Y-18493153D02*
X150547614Y-18588391D01*
X150547614Y-18588391D02*
X150547614Y-19112201D01*
X150547614Y-18588391D02*
X150595233Y-18493153D01*
X150595233Y-18493153D02*
X150690471Y-18445534D01*
X150690471Y-18445534D02*
X150833328Y-18445534D01*
X150833328Y-18445534D02*
X150928567Y-18493153D01*
X150928567Y-18493153D02*
X150976186Y-18588391D01*
X150976186Y-18588391D02*
X150976186Y-19112201D01*
X151452376Y-18445534D02*
X151452376Y-19445534D01*
X151452376Y-18493153D02*
X151547614Y-18445534D01*
X151547614Y-18445534D02*
X151738090Y-18445534D01*
X151738090Y-18445534D02*
X151833328Y-18493153D01*
X151833328Y-18493153D02*
X151880947Y-18540772D01*
X151880947Y-18540772D02*
X151928566Y-18636010D01*
X151928566Y-18636010D02*
X151928566Y-18921724D01*
X151928566Y-18921724D02*
X151880947Y-19016962D01*
X151880947Y-19016962D02*
X151833328Y-19064582D01*
X151833328Y-19064582D02*
X151738090Y-19112201D01*
X151738090Y-19112201D02*
X151547614Y-19112201D01*
X151547614Y-19112201D02*
X151452376Y-19064582D01*
X152738090Y-19064582D02*
X152642852Y-19112201D01*
X152642852Y-19112201D02*
X152452376Y-19112201D01*
X152452376Y-19112201D02*
X152357138Y-19064582D01*
X152357138Y-19064582D02*
X152309519Y-18969343D01*
X152309519Y-18969343D02*
X152309519Y-18588391D01*
X152309519Y-18588391D02*
X152357138Y-18493153D01*
X152357138Y-18493153D02*
X152452376Y-18445534D01*
X152452376Y-18445534D02*
X152642852Y-18445534D01*
X152642852Y-18445534D02*
X152738090Y-18493153D01*
X152738090Y-18493153D02*
X152785709Y-18588391D01*
X152785709Y-18588391D02*
X152785709Y-18683629D01*
X152785709Y-18683629D02*
X152309519Y-18778867D01*
X153214281Y-19112201D02*
X153214281Y-18445534D01*
X153214281Y-18636010D02*
X153261900Y-18540772D01*
X153261900Y-18540772D02*
X153309519Y-18493153D01*
X153309519Y-18493153D02*
X153404757Y-18445534D01*
X153404757Y-18445534D02*
X153499995Y-18445534D01*
X153785710Y-19064582D02*
X153880948Y-19112201D01*
X153880948Y-19112201D02*
X154071424Y-19112201D01*
X154071424Y-19112201D02*
X154166662Y-19064582D01*
X154166662Y-19064582D02*
X154214281Y-18969343D01*
X154214281Y-18969343D02*
X154214281Y-18921724D01*
X154214281Y-18921724D02*
X154166662Y-18826486D01*
X154166662Y-18826486D02*
X154071424Y-18778867D01*
X154071424Y-18778867D02*
X153928567Y-18778867D01*
X153928567Y-18778867D02*
X153833329Y-18731248D01*
X153833329Y-18731248D02*
X153785710Y-18636010D01*
X153785710Y-18636010D02*
X153785710Y-18588391D01*
X153785710Y-18588391D02*
X153833329Y-18493153D01*
X153833329Y-18493153D02*
X153928567Y-18445534D01*
X153928567Y-18445534D02*
X154071424Y-18445534D01*
X154071424Y-18445534D02*
X154166662Y-18493153D01*
X154690472Y-19064582D02*
X154690472Y-19112201D01*
X154690472Y-19112201D02*
X154642853Y-19207439D01*
X154642853Y-19207439D02*
X154595234Y-19255058D01*
X155880948Y-19112201D02*
X155880948Y-18112201D01*
X155880948Y-18112201D02*
X156214281Y-18826486D01*
X156214281Y-18826486D02*
X156547614Y-18112201D01*
X156547614Y-18112201D02*
X156547614Y-19112201D01*
X157595233Y-19016962D02*
X157547614Y-19064582D01*
X157547614Y-19064582D02*
X157404757Y-19112201D01*
X157404757Y-19112201D02*
X157309519Y-19112201D01*
X157309519Y-19112201D02*
X157166662Y-19064582D01*
X157166662Y-19064582D02*
X157071424Y-18969343D01*
X157071424Y-18969343D02*
X157023805Y-18874105D01*
X157023805Y-18874105D02*
X156976186Y-18683629D01*
X156976186Y-18683629D02*
X156976186Y-18540772D01*
X156976186Y-18540772D02*
X157023805Y-18350296D01*
X157023805Y-18350296D02*
X157071424Y-18255058D01*
X157071424Y-18255058D02*
X157166662Y-18159820D01*
X157166662Y-18159820D02*
X157309519Y-18112201D01*
X157309519Y-18112201D02*
X157404757Y-18112201D01*
X157404757Y-18112201D02*
X157547614Y-18159820D01*
X157547614Y-18159820D02*
X157595233Y-18207439D01*
X158023805Y-18112201D02*
X158023805Y-18921724D01*
X158023805Y-18921724D02*
X158071424Y-19016962D01*
X158071424Y-19016962D02*
X158119043Y-19064582D01*
X158119043Y-19064582D02*
X158214281Y-19112201D01*
X158214281Y-19112201D02*
X158404757Y-19112201D01*
X158404757Y-19112201D02*
X158499995Y-19064582D01*
X158499995Y-19064582D02*
X158547614Y-19016962D01*
X158547614Y-19016962D02*
X158595233Y-18921724D01*
X158595233Y-18921724D02*
X158595233Y-18112201D01*
X159833329Y-18112201D02*
X159833329Y-18921724D01*
X159833329Y-18921724D02*
X159880948Y-19016962D01*
X159880948Y-19016962D02*
X159928567Y-19064582D01*
X159928567Y-19064582D02*
X160023805Y-19112201D01*
X160023805Y-19112201D02*
X160214281Y-19112201D01*
X160214281Y-19112201D02*
X160309519Y-19064582D01*
X160309519Y-19064582D02*
X160357138Y-19016962D01*
X160357138Y-19016962D02*
X160404757Y-18921724D01*
X160404757Y-18921724D02*
X160404757Y-18112201D01*
X160880948Y-18445534D02*
X160880948Y-19445534D01*
X160880948Y-18493153D02*
X160976186Y-18445534D01*
X160976186Y-18445534D02*
X161166662Y-18445534D01*
X161166662Y-18445534D02*
X161261900Y-18493153D01*
X161261900Y-18493153D02*
X161309519Y-18540772D01*
X161309519Y-18540772D02*
X161357138Y-18636010D01*
X161357138Y-18636010D02*
X161357138Y-18921724D01*
X161357138Y-18921724D02*
X161309519Y-19016962D01*
X161309519Y-19016962D02*
X161261900Y-19064582D01*
X161261900Y-19064582D02*
X161166662Y-19112201D01*
X161166662Y-19112201D02*
X160976186Y-19112201D01*
X160976186Y-19112201D02*
X160880948Y-19064582D01*
X151335708Y-49597201D02*
X151335708Y-48597201D01*
X151335708Y-48597201D02*
X151716660Y-48597201D01*
X151716660Y-48597201D02*
X151811898Y-48644820D01*
X151811898Y-48644820D02*
X151859517Y-48692439D01*
X151859517Y-48692439D02*
X151907136Y-48787677D01*
X151907136Y-48787677D02*
X151907136Y-48930534D01*
X151907136Y-48930534D02*
X151859517Y-49025772D01*
X151859517Y-49025772D02*
X151811898Y-49073391D01*
X151811898Y-49073391D02*
X151716660Y-49121010D01*
X151716660Y-49121010D02*
X151335708Y-49121010D01*
X152859517Y-49597201D02*
X152288089Y-49597201D01*
X152573803Y-49597201D02*
X152573803Y-48597201D01*
X152573803Y-48597201D02*
X152478565Y-48740058D01*
X152478565Y-48740058D02*
X152383327Y-48835296D01*
X152383327Y-48835296D02*
X152288089Y-48882915D01*
X153478565Y-48597201D02*
X153573803Y-48597201D01*
X153573803Y-48597201D02*
X153669041Y-48644820D01*
X153669041Y-48644820D02*
X153716660Y-48692439D01*
X153716660Y-48692439D02*
X153764279Y-48787677D01*
X153764279Y-48787677D02*
X153811898Y-48978153D01*
X153811898Y-48978153D02*
X153811898Y-49216248D01*
X153811898Y-49216248D02*
X153764279Y-49406724D01*
X153764279Y-49406724D02*
X153716660Y-49501962D01*
X153716660Y-49501962D02*
X153669041Y-49549582D01*
X153669041Y-49549582D02*
X153573803Y-49597201D01*
X153573803Y-49597201D02*
X153478565Y-49597201D01*
X153478565Y-49597201D02*
X153383327Y-49549582D01*
X153383327Y-49549582D02*
X153335708Y-49501962D01*
X153335708Y-49501962D02*
X153288089Y-49406724D01*
X153288089Y-49406724D02*
X153240470Y-49216248D01*
X153240470Y-49216248D02*
X153240470Y-48978153D01*
X153240470Y-48978153D02*
X153288089Y-48787677D01*
X153288089Y-48787677D02*
X153335708Y-48692439D01*
X153335708Y-48692439D02*
X153383327Y-48644820D01*
X153383327Y-48644820D02*
X153478565Y-48597201D01*
X154688093Y-25784821D02*
X154592855Y-25737202D01*
X154592855Y-25737202D02*
X154449998Y-25737202D01*
X154449998Y-25737202D02*
X154307141Y-25784821D01*
X154307141Y-25784821D02*
X154211903Y-25880059D01*
X154211903Y-25880059D02*
X154164284Y-25975297D01*
X154164284Y-25975297D02*
X154116665Y-26165773D01*
X154116665Y-26165773D02*
X154116665Y-26308630D01*
X154116665Y-26308630D02*
X154164284Y-26499106D01*
X154164284Y-26499106D02*
X154211903Y-26594344D01*
X154211903Y-26594344D02*
X154307141Y-26689583D01*
X154307141Y-26689583D02*
X154449998Y-26737202D01*
X154449998Y-26737202D02*
X154545236Y-26737202D01*
X154545236Y-26737202D02*
X154688093Y-26689583D01*
X154688093Y-26689583D02*
X154735712Y-26641963D01*
X154735712Y-26641963D02*
X154735712Y-26308630D01*
X154735712Y-26308630D02*
X154545236Y-26308630D01*
X155164284Y-26737202D02*
X155164284Y-25737202D01*
X155164284Y-25737202D02*
X155735712Y-26737202D01*
X155735712Y-26737202D02*
X155735712Y-25737202D01*
X156211903Y-26737202D02*
X156211903Y-25737202D01*
X156211903Y-25737202D02*
X156449998Y-25737202D01*
X156449998Y-25737202D02*
X156592855Y-25784821D01*
X156592855Y-25784821D02*
X156688093Y-25880059D01*
X156688093Y-25880059D02*
X156735712Y-25975297D01*
X156735712Y-25975297D02*
X156783331Y-26165773D01*
X156783331Y-26165773D02*
X156783331Y-26308630D01*
X156783331Y-26308630D02*
X156735712Y-26499106D01*
X156735712Y-26499106D02*
X156688093Y-26594344D01*
X156688093Y-26594344D02*
X156592855Y-26689583D01*
X156592855Y-26689583D02*
X156449998Y-26737202D01*
X156449998Y-26737202D02*
X156211903Y-26737202D01*
X154688088Y-28324819D02*
X154592850Y-28277200D01*
X154592850Y-28277200D02*
X154449993Y-28277200D01*
X154449993Y-28277200D02*
X154307136Y-28324819D01*
X154307136Y-28324819D02*
X154211898Y-28420057D01*
X154211898Y-28420057D02*
X154164279Y-28515295D01*
X154164279Y-28515295D02*
X154116660Y-28705771D01*
X154116660Y-28705771D02*
X154116660Y-28848628D01*
X154116660Y-28848628D02*
X154164279Y-29039104D01*
X154164279Y-29039104D02*
X154211898Y-29134342D01*
X154211898Y-29134342D02*
X154307136Y-29229581D01*
X154307136Y-29229581D02*
X154449993Y-29277200D01*
X154449993Y-29277200D02*
X154545231Y-29277200D01*
X154545231Y-29277200D02*
X154688088Y-29229581D01*
X154688088Y-29229581D02*
X154735707Y-29181961D01*
X154735707Y-29181961D02*
X154735707Y-28848628D01*
X154735707Y-28848628D02*
X154545231Y-28848628D01*
X155164279Y-29277200D02*
X155164279Y-28277200D01*
X155164279Y-28277200D02*
X155735707Y-29277200D01*
X155735707Y-29277200D02*
X155735707Y-28277200D01*
X156211898Y-29277200D02*
X156211898Y-28277200D01*
X156211898Y-28277200D02*
X156449993Y-28277200D01*
X156449993Y-28277200D02*
X156592850Y-28324819D01*
X156592850Y-28324819D02*
X156688088Y-28420057D01*
X156688088Y-28420057D02*
X156735707Y-28515295D01*
X156735707Y-28515295D02*
X156783326Y-28705771D01*
X156783326Y-28705771D02*
X156783326Y-28848628D01*
X156783326Y-28848628D02*
X156735707Y-29039104D01*
X156735707Y-29039104D02*
X156688088Y-29134342D01*
X156688088Y-29134342D02*
X156592850Y-29229581D01*
X156592850Y-29229581D02*
X156449993Y-29277200D01*
X156449993Y-29277200D02*
X156211898Y-29277200D01*
X155301901Y-24197201D02*
X155301901Y-23197201D01*
X155301901Y-23197201D02*
X155682853Y-23197201D01*
X155682853Y-23197201D02*
X155778091Y-23244820D01*
X155778091Y-23244820D02*
X155825710Y-23292439D01*
X155825710Y-23292439D02*
X155873329Y-23387677D01*
X155873329Y-23387677D02*
X155873329Y-23530534D01*
X155873329Y-23530534D02*
X155825710Y-23625772D01*
X155825710Y-23625772D02*
X155778091Y-23673391D01*
X155778091Y-23673391D02*
X155682853Y-23721010D01*
X155682853Y-23721010D02*
X155301901Y-23721010D01*
X156492377Y-23197201D02*
X156587615Y-23197201D01*
X156587615Y-23197201D02*
X156682853Y-23244820D01*
X156682853Y-23244820D02*
X156730472Y-23292439D01*
X156730472Y-23292439D02*
X156778091Y-23387677D01*
X156778091Y-23387677D02*
X156825710Y-23578153D01*
X156825710Y-23578153D02*
X156825710Y-23816248D01*
X156825710Y-23816248D02*
X156778091Y-24006724D01*
X156778091Y-24006724D02*
X156730472Y-24101962D01*
X156730472Y-24101962D02*
X156682853Y-24149582D01*
X156682853Y-24149582D02*
X156587615Y-24197201D01*
X156587615Y-24197201D02*
X156492377Y-24197201D01*
X156492377Y-24197201D02*
X156397139Y-24149582D01*
X156397139Y-24149582D02*
X156349520Y-24101962D01*
X156349520Y-24101962D02*
X156301901Y-24006724D01*
X156301901Y-24006724D02*
X156254282Y-23816248D01*
X156254282Y-23816248D02*
X156254282Y-23578153D01*
X156254282Y-23578153D02*
X156301901Y-23387677D01*
X156301901Y-23387677D02*
X156349520Y-23292439D01*
X156349520Y-23292439D02*
X156397139Y-23244820D01*
X156397139Y-23244820D02*
X156492377Y-23197201D01*
X155301901Y-31817201D02*
X155301901Y-30817201D01*
X155301901Y-30817201D02*
X155682853Y-30817201D01*
X155682853Y-30817201D02*
X155778091Y-30864820D01*
X155778091Y-30864820D02*
X155825710Y-30912439D01*
X155825710Y-30912439D02*
X155873329Y-31007677D01*
X155873329Y-31007677D02*
X155873329Y-31150534D01*
X155873329Y-31150534D02*
X155825710Y-31245772D01*
X155825710Y-31245772D02*
X155778091Y-31293391D01*
X155778091Y-31293391D02*
X155682853Y-31341010D01*
X155682853Y-31341010D02*
X155301901Y-31341010D01*
X156254282Y-30912439D02*
X156301901Y-30864820D01*
X156301901Y-30864820D02*
X156397139Y-30817201D01*
X156397139Y-30817201D02*
X156635234Y-30817201D01*
X156635234Y-30817201D02*
X156730472Y-30864820D01*
X156730472Y-30864820D02*
X156778091Y-30912439D01*
X156778091Y-30912439D02*
X156825710Y-31007677D01*
X156825710Y-31007677D02*
X156825710Y-31102915D01*
X156825710Y-31102915D02*
X156778091Y-31245772D01*
X156778091Y-31245772D02*
X156206663Y-31817201D01*
X156206663Y-31817201D02*
X156825710Y-31817201D01*
X155301899Y-41977201D02*
X155301899Y-40977201D01*
X155301899Y-40977201D02*
X155682851Y-40977201D01*
X155682851Y-40977201D02*
X155778089Y-41024820D01*
X155778089Y-41024820D02*
X155825708Y-41072439D01*
X155825708Y-41072439D02*
X155873327Y-41167677D01*
X155873327Y-41167677D02*
X155873327Y-41310534D01*
X155873327Y-41310534D02*
X155825708Y-41405772D01*
X155825708Y-41405772D02*
X155778089Y-41453391D01*
X155778089Y-41453391D02*
X155682851Y-41501010D01*
X155682851Y-41501010D02*
X155301899Y-41501010D01*
X156730470Y-40977201D02*
X156539994Y-40977201D01*
X156539994Y-40977201D02*
X156444756Y-41024820D01*
X156444756Y-41024820D02*
X156397137Y-41072439D01*
X156397137Y-41072439D02*
X156301899Y-41215296D01*
X156301899Y-41215296D02*
X156254280Y-41405772D01*
X156254280Y-41405772D02*
X156254280Y-41786724D01*
X156254280Y-41786724D02*
X156301899Y-41881962D01*
X156301899Y-41881962D02*
X156349518Y-41929582D01*
X156349518Y-41929582D02*
X156444756Y-41977201D01*
X156444756Y-41977201D02*
X156635232Y-41977201D01*
X156635232Y-41977201D02*
X156730470Y-41929582D01*
X156730470Y-41929582D02*
X156778089Y-41881962D01*
X156778089Y-41881962D02*
X156825708Y-41786724D01*
X156825708Y-41786724D02*
X156825708Y-41548629D01*
X156825708Y-41548629D02*
X156778089Y-41453391D01*
X156778089Y-41453391D02*
X156730470Y-41405772D01*
X156730470Y-41405772D02*
X156635232Y-41358153D01*
X156635232Y-41358153D02*
X156444756Y-41358153D01*
X156444756Y-41358153D02*
X156349518Y-41405772D01*
X156349518Y-41405772D02*
X156301899Y-41453391D01*
X156301899Y-41453391D02*
X156254280Y-41548629D01*
X151859517Y-21657201D02*
X151526184Y-21181010D01*
X151288089Y-21657201D02*
X151288089Y-20657201D01*
X151288089Y-20657201D02*
X151669041Y-20657201D01*
X151669041Y-20657201D02*
X151764279Y-20704820D01*
X151764279Y-20704820D02*
X151811898Y-20752439D01*
X151811898Y-20752439D02*
X151859517Y-20847677D01*
X151859517Y-20847677D02*
X151859517Y-20990534D01*
X151859517Y-20990534D02*
X151811898Y-21085772D01*
X151811898Y-21085772D02*
X151764279Y-21133391D01*
X151764279Y-21133391D02*
X151669041Y-21181010D01*
X151669041Y-21181010D02*
X151288089Y-21181010D01*
X152240470Y-21371486D02*
X152716660Y-21371486D01*
X152145232Y-21657201D02*
X152478565Y-20657201D01*
X152478565Y-20657201D02*
X152811898Y-21657201D01*
X153049994Y-20657201D02*
X153288089Y-21657201D01*
X153288089Y-21657201D02*
X153478565Y-20942915D01*
X153478565Y-20942915D02*
X153669041Y-21657201D01*
X153669041Y-21657201D02*
X153907137Y-20657201D01*
X151335709Y-44517201D02*
X151335709Y-43517201D01*
X151335709Y-43517201D02*
X151716661Y-43517201D01*
X151716661Y-43517201D02*
X151811899Y-43564820D01*
X151811899Y-43564820D02*
X151859518Y-43612439D01*
X151859518Y-43612439D02*
X151907137Y-43707677D01*
X151907137Y-43707677D02*
X151907137Y-43850534D01*
X151907137Y-43850534D02*
X151859518Y-43945772D01*
X151859518Y-43945772D02*
X151811899Y-43993391D01*
X151811899Y-43993391D02*
X151716661Y-44041010D01*
X151716661Y-44041010D02*
X151335709Y-44041010D01*
X152859518Y-44517201D02*
X152288090Y-44517201D01*
X152573804Y-44517201D02*
X152573804Y-43517201D01*
X152573804Y-43517201D02*
X152478566Y-43660058D01*
X152478566Y-43660058D02*
X152383328Y-43755296D01*
X152383328Y-43755296D02*
X152288090Y-43802915D01*
X153716661Y-43850534D02*
X153716661Y-44517201D01*
X153478566Y-43469582D02*
X153240471Y-44183867D01*
X153240471Y-44183867D02*
X153859518Y-44183867D01*
X151788089Y-23244820D02*
X151692851Y-23197201D01*
X151692851Y-23197201D02*
X151549994Y-23197201D01*
X151549994Y-23197201D02*
X151407137Y-23244820D01*
X151407137Y-23244820D02*
X151311899Y-23340058D01*
X151311899Y-23340058D02*
X151264280Y-23435296D01*
X151264280Y-23435296D02*
X151216661Y-23625772D01*
X151216661Y-23625772D02*
X151216661Y-23768629D01*
X151216661Y-23768629D02*
X151264280Y-23959105D01*
X151264280Y-23959105D02*
X151311899Y-24054343D01*
X151311899Y-24054343D02*
X151407137Y-24149582D01*
X151407137Y-24149582D02*
X151549994Y-24197201D01*
X151549994Y-24197201D02*
X151645232Y-24197201D01*
X151645232Y-24197201D02*
X151788089Y-24149582D01*
X151788089Y-24149582D02*
X151835708Y-24101962D01*
X151835708Y-24101962D02*
X151835708Y-23768629D01*
X151835708Y-23768629D02*
X151645232Y-23768629D01*
X152264280Y-24197201D02*
X152264280Y-23197201D01*
X152264280Y-23197201D02*
X152835708Y-24197201D01*
X152835708Y-24197201D02*
X152835708Y-23197201D01*
X153311899Y-24197201D02*
X153311899Y-23197201D01*
X153311899Y-23197201D02*
X153549994Y-23197201D01*
X153549994Y-23197201D02*
X153692851Y-23244820D01*
X153692851Y-23244820D02*
X153788089Y-23340058D01*
X153788089Y-23340058D02*
X153835708Y-23435296D01*
X153835708Y-23435296D02*
X153883327Y-23625772D01*
X153883327Y-23625772D02*
X153883327Y-23768629D01*
X153883327Y-23768629D02*
X153835708Y-23959105D01*
X153835708Y-23959105D02*
X153788089Y-24054343D01*
X153788089Y-24054343D02*
X153692851Y-24149582D01*
X153692851Y-24149582D02*
X153549994Y-24197201D01*
X153549994Y-24197201D02*
X153311899Y-24197201D01*
X155301900Y-49597200D02*
X155301900Y-48597200D01*
X155301900Y-48597200D02*
X155682852Y-48597200D01*
X155682852Y-48597200D02*
X155778090Y-48644819D01*
X155778090Y-48644819D02*
X155825709Y-48692438D01*
X155825709Y-48692438D02*
X155873328Y-48787676D01*
X155873328Y-48787676D02*
X155873328Y-48930533D01*
X155873328Y-48930533D02*
X155825709Y-49025771D01*
X155825709Y-49025771D02*
X155778090Y-49073390D01*
X155778090Y-49073390D02*
X155682852Y-49121009D01*
X155682852Y-49121009D02*
X155301900Y-49121009D01*
X156349519Y-49597200D02*
X156539995Y-49597200D01*
X156539995Y-49597200D02*
X156635233Y-49549581D01*
X156635233Y-49549581D02*
X156682852Y-49501961D01*
X156682852Y-49501961D02*
X156778090Y-49359104D01*
X156778090Y-49359104D02*
X156825709Y-49168628D01*
X156825709Y-49168628D02*
X156825709Y-48787676D01*
X156825709Y-48787676D02*
X156778090Y-48692438D01*
X156778090Y-48692438D02*
X156730471Y-48644819D01*
X156730471Y-48644819D02*
X156635233Y-48597200D01*
X156635233Y-48597200D02*
X156444757Y-48597200D01*
X156444757Y-48597200D02*
X156349519Y-48644819D01*
X156349519Y-48644819D02*
X156301900Y-48692438D01*
X156301900Y-48692438D02*
X156254281Y-48787676D01*
X156254281Y-48787676D02*
X156254281Y-49025771D01*
X156254281Y-49025771D02*
X156301900Y-49121009D01*
X156301900Y-49121009D02*
X156349519Y-49168628D01*
X156349519Y-49168628D02*
X156444757Y-49216247D01*
X156444757Y-49216247D02*
X156635233Y-49216247D01*
X156635233Y-49216247D02*
X156730471Y-49168628D01*
X156730471Y-49168628D02*
X156778090Y-49121009D01*
X156778090Y-49121009D02*
X156825709Y-49025771D01*
X155301900Y-36897201D02*
X155301900Y-35897201D01*
X155301900Y-35897201D02*
X155682852Y-35897201D01*
X155682852Y-35897201D02*
X155778090Y-35944820D01*
X155778090Y-35944820D02*
X155825709Y-35992439D01*
X155825709Y-35992439D02*
X155873328Y-36087677D01*
X155873328Y-36087677D02*
X155873328Y-36230534D01*
X155873328Y-36230534D02*
X155825709Y-36325772D01*
X155825709Y-36325772D02*
X155778090Y-36373391D01*
X155778090Y-36373391D02*
X155682852Y-36421010D01*
X155682852Y-36421010D02*
X155301900Y-36421010D01*
X156730471Y-36230534D02*
X156730471Y-36897201D01*
X156492376Y-35849582D02*
X156254281Y-36563867D01*
X156254281Y-36563867D02*
X156873328Y-36563867D01*
X155301899Y-39437200D02*
X155301899Y-38437200D01*
X155301899Y-38437200D02*
X155682851Y-38437200D01*
X155682851Y-38437200D02*
X155778089Y-38484819D01*
X155778089Y-38484819D02*
X155825708Y-38532438D01*
X155825708Y-38532438D02*
X155873327Y-38627676D01*
X155873327Y-38627676D02*
X155873327Y-38770533D01*
X155873327Y-38770533D02*
X155825708Y-38865771D01*
X155825708Y-38865771D02*
X155778089Y-38913390D01*
X155778089Y-38913390D02*
X155682851Y-38961009D01*
X155682851Y-38961009D02*
X155301899Y-38961009D01*
X156778089Y-38437200D02*
X156301899Y-38437200D01*
X156301899Y-38437200D02*
X156254280Y-38913390D01*
X156254280Y-38913390D02*
X156301899Y-38865771D01*
X156301899Y-38865771D02*
X156397137Y-38818152D01*
X156397137Y-38818152D02*
X156635232Y-38818152D01*
X156635232Y-38818152D02*
X156730470Y-38865771D01*
X156730470Y-38865771D02*
X156778089Y-38913390D01*
X156778089Y-38913390D02*
X156825708Y-39008628D01*
X156825708Y-39008628D02*
X156825708Y-39246723D01*
X156825708Y-39246723D02*
X156778089Y-39341961D01*
X156778089Y-39341961D02*
X156730470Y-39389581D01*
X156730470Y-39389581D02*
X156635232Y-39437200D01*
X156635232Y-39437200D02*
X156397137Y-39437200D01*
X156397137Y-39437200D02*
X156301899Y-39389581D01*
X156301899Y-39389581D02*
X156254280Y-39341961D01*
X151335711Y-39437202D02*
X151335711Y-38437202D01*
X151335711Y-38437202D02*
X151716663Y-38437202D01*
X151716663Y-38437202D02*
X151811901Y-38484821D01*
X151811901Y-38484821D02*
X151859520Y-38532440D01*
X151859520Y-38532440D02*
X151907139Y-38627678D01*
X151907139Y-38627678D02*
X151907139Y-38770535D01*
X151907139Y-38770535D02*
X151859520Y-38865773D01*
X151859520Y-38865773D02*
X151811901Y-38913392D01*
X151811901Y-38913392D02*
X151716663Y-38961011D01*
X151716663Y-38961011D02*
X151335711Y-38961011D01*
X152859520Y-39437202D02*
X152288092Y-39437202D01*
X152573806Y-39437202D02*
X152573806Y-38437202D01*
X152573806Y-38437202D02*
X152478568Y-38580059D01*
X152478568Y-38580059D02*
X152383330Y-38675297D01*
X152383330Y-38675297D02*
X152288092Y-38722916D01*
X153430949Y-38865773D02*
X153335711Y-38818154D01*
X153335711Y-38818154D02*
X153288092Y-38770535D01*
X153288092Y-38770535D02*
X153240473Y-38675297D01*
X153240473Y-38675297D02*
X153240473Y-38627678D01*
X153240473Y-38627678D02*
X153288092Y-38532440D01*
X153288092Y-38532440D02*
X153335711Y-38484821D01*
X153335711Y-38484821D02*
X153430949Y-38437202D01*
X153430949Y-38437202D02*
X153621425Y-38437202D01*
X153621425Y-38437202D02*
X153716663Y-38484821D01*
X153716663Y-38484821D02*
X153764282Y-38532440D01*
X153764282Y-38532440D02*
X153811901Y-38627678D01*
X153811901Y-38627678D02*
X153811901Y-38675297D01*
X153811901Y-38675297D02*
X153764282Y-38770535D01*
X153764282Y-38770535D02*
X153716663Y-38818154D01*
X153716663Y-38818154D02*
X153621425Y-38865773D01*
X153621425Y-38865773D02*
X153430949Y-38865773D01*
X153430949Y-38865773D02*
X153335711Y-38913392D01*
X153335711Y-38913392D02*
X153288092Y-38961011D01*
X153288092Y-38961011D02*
X153240473Y-39056249D01*
X153240473Y-39056249D02*
X153240473Y-39246725D01*
X153240473Y-39246725D02*
X153288092Y-39341963D01*
X153288092Y-39341963D02*
X153335711Y-39389583D01*
X153335711Y-39389583D02*
X153430949Y-39437202D01*
X153430949Y-39437202D02*
X153621425Y-39437202D01*
X153621425Y-39437202D02*
X153716663Y-39389583D01*
X153716663Y-39389583D02*
X153764282Y-39341963D01*
X153764282Y-39341963D02*
X153811901Y-39246725D01*
X153811901Y-39246725D02*
X153811901Y-39056249D01*
X153811901Y-39056249D02*
X153764282Y-38961011D01*
X153764282Y-38961011D02*
X153716663Y-38913392D01*
X153716663Y-38913392D02*
X153621425Y-38865773D01*
X151335711Y-34357201D02*
X151335711Y-33357201D01*
X151335711Y-33357201D02*
X151716663Y-33357201D01*
X151716663Y-33357201D02*
X151811901Y-33404820D01*
X151811901Y-33404820D02*
X151859520Y-33452439D01*
X151859520Y-33452439D02*
X151907139Y-33547677D01*
X151907139Y-33547677D02*
X151907139Y-33690534D01*
X151907139Y-33690534D02*
X151859520Y-33785772D01*
X151859520Y-33785772D02*
X151811901Y-33833391D01*
X151811901Y-33833391D02*
X151716663Y-33881010D01*
X151716663Y-33881010D02*
X151335711Y-33881010D01*
X152288092Y-33452439D02*
X152335711Y-33404820D01*
X152335711Y-33404820D02*
X152430949Y-33357201D01*
X152430949Y-33357201D02*
X152669044Y-33357201D01*
X152669044Y-33357201D02*
X152764282Y-33404820D01*
X152764282Y-33404820D02*
X152811901Y-33452439D01*
X152811901Y-33452439D02*
X152859520Y-33547677D01*
X152859520Y-33547677D02*
X152859520Y-33642915D01*
X152859520Y-33642915D02*
X152811901Y-33785772D01*
X152811901Y-33785772D02*
X152240473Y-34357201D01*
X152240473Y-34357201D02*
X152859520Y-34357201D01*
X153478568Y-33357201D02*
X153573806Y-33357201D01*
X153573806Y-33357201D02*
X153669044Y-33404820D01*
X153669044Y-33404820D02*
X153716663Y-33452439D01*
X153716663Y-33452439D02*
X153764282Y-33547677D01*
X153764282Y-33547677D02*
X153811901Y-33738153D01*
X153811901Y-33738153D02*
X153811901Y-33976248D01*
X153811901Y-33976248D02*
X153764282Y-34166724D01*
X153764282Y-34166724D02*
X153716663Y-34261962D01*
X153716663Y-34261962D02*
X153669044Y-34309582D01*
X153669044Y-34309582D02*
X153573806Y-34357201D01*
X153573806Y-34357201D02*
X153478568Y-34357201D01*
X153478568Y-34357201D02*
X153383330Y-34309582D01*
X153383330Y-34309582D02*
X153335711Y-34261962D01*
X153335711Y-34261962D02*
X153288092Y-34166724D01*
X153288092Y-34166724D02*
X153240473Y-33976248D01*
X153240473Y-33976248D02*
X153240473Y-33738153D01*
X153240473Y-33738153D02*
X153288092Y-33547677D01*
X153288092Y-33547677D02*
X153335711Y-33452439D01*
X153335711Y-33452439D02*
X153383330Y-33404820D01*
X153383330Y-33404820D02*
X153478568Y-33357201D01*
X155301900Y-34357201D02*
X155301900Y-33357201D01*
X155301900Y-33357201D02*
X155682852Y-33357201D01*
X155682852Y-33357201D02*
X155778090Y-33404820D01*
X155778090Y-33404820D02*
X155825709Y-33452439D01*
X155825709Y-33452439D02*
X155873328Y-33547677D01*
X155873328Y-33547677D02*
X155873328Y-33690534D01*
X155873328Y-33690534D02*
X155825709Y-33785772D01*
X155825709Y-33785772D02*
X155778090Y-33833391D01*
X155778090Y-33833391D02*
X155682852Y-33881010D01*
X155682852Y-33881010D02*
X155301900Y-33881010D01*
X156206662Y-33357201D02*
X156825709Y-33357201D01*
X156825709Y-33357201D02*
X156492376Y-33738153D01*
X156492376Y-33738153D02*
X156635233Y-33738153D01*
X156635233Y-33738153D02*
X156730471Y-33785772D01*
X156730471Y-33785772D02*
X156778090Y-33833391D01*
X156778090Y-33833391D02*
X156825709Y-33928629D01*
X156825709Y-33928629D02*
X156825709Y-34166724D01*
X156825709Y-34166724D02*
X156778090Y-34261962D01*
X156778090Y-34261962D02*
X156730471Y-34309582D01*
X156730471Y-34309582D02*
X156635233Y-34357201D01*
X156635233Y-34357201D02*
X156349519Y-34357201D01*
X156349519Y-34357201D02*
X156254281Y-34309582D01*
X156254281Y-34309582D02*
X156206662Y-34261962D01*
X151335708Y-31817201D02*
X151335708Y-30817201D01*
X151335708Y-30817201D02*
X151716660Y-30817201D01*
X151716660Y-30817201D02*
X151811898Y-30864820D01*
X151811898Y-30864820D02*
X151859517Y-30912439D01*
X151859517Y-30912439D02*
X151907136Y-31007677D01*
X151907136Y-31007677D02*
X151907136Y-31150534D01*
X151907136Y-31150534D02*
X151859517Y-31245772D01*
X151859517Y-31245772D02*
X151811898Y-31293391D01*
X151811898Y-31293391D02*
X151716660Y-31341010D01*
X151716660Y-31341010D02*
X151335708Y-31341010D01*
X152288089Y-30912439D02*
X152335708Y-30864820D01*
X152335708Y-30864820D02*
X152430946Y-30817201D01*
X152430946Y-30817201D02*
X152669041Y-30817201D01*
X152669041Y-30817201D02*
X152764279Y-30864820D01*
X152764279Y-30864820D02*
X152811898Y-30912439D01*
X152811898Y-30912439D02*
X152859517Y-31007677D01*
X152859517Y-31007677D02*
X152859517Y-31102915D01*
X152859517Y-31102915D02*
X152811898Y-31245772D01*
X152811898Y-31245772D02*
X152240470Y-31817201D01*
X152240470Y-31817201D02*
X152859517Y-31817201D01*
X153811898Y-31817201D02*
X153240470Y-31817201D01*
X153526184Y-31817201D02*
X153526184Y-30817201D01*
X153526184Y-30817201D02*
X153430946Y-30960058D01*
X153430946Y-30960058D02*
X153335708Y-31055296D01*
X153335708Y-31055296D02*
X153240470Y-31102915D01*
X155301900Y-47057201D02*
X155301900Y-46057201D01*
X155301900Y-46057201D02*
X155682852Y-46057201D01*
X155682852Y-46057201D02*
X155778090Y-46104820D01*
X155778090Y-46104820D02*
X155825709Y-46152439D01*
X155825709Y-46152439D02*
X155873328Y-46247677D01*
X155873328Y-46247677D02*
X155873328Y-46390534D01*
X155873328Y-46390534D02*
X155825709Y-46485772D01*
X155825709Y-46485772D02*
X155778090Y-46533391D01*
X155778090Y-46533391D02*
X155682852Y-46581010D01*
X155682852Y-46581010D02*
X155301900Y-46581010D01*
X156444757Y-46485772D02*
X156349519Y-46438153D01*
X156349519Y-46438153D02*
X156301900Y-46390534D01*
X156301900Y-46390534D02*
X156254281Y-46295296D01*
X156254281Y-46295296D02*
X156254281Y-46247677D01*
X156254281Y-46247677D02*
X156301900Y-46152439D01*
X156301900Y-46152439D02*
X156349519Y-46104820D01*
X156349519Y-46104820D02*
X156444757Y-46057201D01*
X156444757Y-46057201D02*
X156635233Y-46057201D01*
X156635233Y-46057201D02*
X156730471Y-46104820D01*
X156730471Y-46104820D02*
X156778090Y-46152439D01*
X156778090Y-46152439D02*
X156825709Y-46247677D01*
X156825709Y-46247677D02*
X156825709Y-46295296D01*
X156825709Y-46295296D02*
X156778090Y-46390534D01*
X156778090Y-46390534D02*
X156730471Y-46438153D01*
X156730471Y-46438153D02*
X156635233Y-46485772D01*
X156635233Y-46485772D02*
X156444757Y-46485772D01*
X156444757Y-46485772D02*
X156349519Y-46533391D01*
X156349519Y-46533391D02*
X156301900Y-46581010D01*
X156301900Y-46581010D02*
X156254281Y-46676248D01*
X156254281Y-46676248D02*
X156254281Y-46866724D01*
X156254281Y-46866724D02*
X156301900Y-46961962D01*
X156301900Y-46961962D02*
X156349519Y-47009582D01*
X156349519Y-47009582D02*
X156444757Y-47057201D01*
X156444757Y-47057201D02*
X156635233Y-47057201D01*
X156635233Y-47057201D02*
X156730471Y-47009582D01*
X156730471Y-47009582D02*
X156778090Y-46961962D01*
X156778090Y-46961962D02*
X156825709Y-46866724D01*
X156825709Y-46866724D02*
X156825709Y-46676248D01*
X156825709Y-46676248D02*
X156778090Y-46581010D01*
X156778090Y-46581010D02*
X156730471Y-46533391D01*
X156730471Y-46533391D02*
X156635233Y-46485772D01*
X171047611Y-26357200D02*
X171238087Y-26357200D01*
X171238087Y-26357200D02*
X171333325Y-26404819D01*
X171333325Y-26404819D02*
X171428563Y-26500057D01*
X171428563Y-26500057D02*
X171476182Y-26690533D01*
X171476182Y-26690533D02*
X171476182Y-27023866D01*
X171476182Y-27023866D02*
X171428563Y-27214342D01*
X171428563Y-27214342D02*
X171333325Y-27309581D01*
X171333325Y-27309581D02*
X171238087Y-27357200D01*
X171238087Y-27357200D02*
X171047611Y-27357200D01*
X171047611Y-27357200D02*
X170952373Y-27309581D01*
X170952373Y-27309581D02*
X170857135Y-27214342D01*
X170857135Y-27214342D02*
X170809516Y-27023866D01*
X170809516Y-27023866D02*
X170809516Y-26690533D01*
X170809516Y-26690533D02*
X170857135Y-26500057D01*
X170857135Y-26500057D02*
X170952373Y-26404819D01*
X170952373Y-26404819D02*
X171047611Y-26357200D01*
X172238087Y-26833390D02*
X171904754Y-26833390D01*
X171904754Y-27357200D02*
X171904754Y-26357200D01*
X171904754Y-26357200D02*
X172380944Y-26357200D01*
X173095230Y-26833390D02*
X172761897Y-26833390D01*
X172761897Y-27357200D02*
X172761897Y-26357200D01*
X172761897Y-26357200D02*
X173238087Y-26357200D01*
X171380946Y-36357198D02*
X171571422Y-36357198D01*
X171571422Y-36357198D02*
X171666660Y-36404817D01*
X171666660Y-36404817D02*
X171761898Y-36500055D01*
X171761898Y-36500055D02*
X171809517Y-36690531D01*
X171809517Y-36690531D02*
X171809517Y-37023864D01*
X171809517Y-37023864D02*
X171761898Y-37214340D01*
X171761898Y-37214340D02*
X171666660Y-37309579D01*
X171666660Y-37309579D02*
X171571422Y-37357198D01*
X171571422Y-37357198D02*
X171380946Y-37357198D01*
X171380946Y-37357198D02*
X171285708Y-37309579D01*
X171285708Y-37309579D02*
X171190470Y-37214340D01*
X171190470Y-37214340D02*
X171142851Y-37023864D01*
X171142851Y-37023864D02*
X171142851Y-36690531D01*
X171142851Y-36690531D02*
X171190470Y-36500055D01*
X171190470Y-36500055D02*
X171285708Y-36404817D01*
X171285708Y-36404817D02*
X171380946Y-36357198D01*
X172238089Y-37357198D02*
X172238089Y-36357198D01*
X172238089Y-36357198D02*
X172809517Y-37357198D01*
X172809517Y-37357198D02*
X172809517Y-36357198D01*
D12*
%TO.C,JST1*%
X164939996Y-42442381D02*
X164939997Y-43442382D01*
X164939996Y-50262381D02*
X164939996Y-49262380D01*
X165859996Y-50262381D02*
X164939996Y-50262381D01*
X165939995Y-42442382D02*
X164939996Y-42442381D01*
D13*
X166499994Y-51302382D02*
X167499994Y-51302379D01*
X168999996Y-50802382D02*
X168999995Y-51802382D01*
X169499997Y-51302382D02*
X168499996Y-51302381D01*
D12*
X170139995Y-50262381D02*
X171059997Y-50262380D01*
X170139997Y-42442382D02*
X171059996Y-42442381D01*
X171059996Y-42442381D02*
X171059996Y-43442381D01*
X171059997Y-50262380D02*
X171059996Y-49262379D01*
D13*
%TO.C,RST1*%
X132649995Y-17402380D02*
X132649995Y-17152380D01*
X132649996Y-20402378D02*
X132649994Y-20652379D01*
X132899993Y-20652380D02*
X132649994Y-20652379D01*
X132899996Y-17152380D02*
X132649995Y-17152380D01*
X137099994Y-20652380D02*
X137349995Y-20652380D01*
X137099997Y-17152380D02*
X137349996Y-17152381D01*
X137349994Y-17402382D02*
X137349996Y-17152381D01*
X137349995Y-20402380D02*
X137349995Y-20652380D01*
D12*
%TO.C,DISP1*%
X147589997Y-53670002D02*
X147589997Y-56329999D01*
X160409997Y-53670000D02*
X147589997Y-53670002D01*
X160409997Y-53670000D02*
X160409998Y-56330000D01*
X160409998Y-56330000D02*
X147589997Y-56329999D01*
%TO.C,MCU1*%
X145049994Y-50472381D02*
X147709997Y-50472383D01*
X145049995Y-19872381D02*
X145049994Y-50472381D01*
X145049995Y-19872381D02*
X147709995Y-19872380D01*
X147709994Y-22472383D02*
X145049996Y-22472380D01*
X147709995Y-19872380D02*
X147709997Y-50472383D01*
X160289994Y-19872381D02*
X160289994Y-50472382D01*
X160289994Y-19872381D02*
X162949995Y-19872381D01*
X160289994Y-50472382D02*
X162949996Y-50472379D01*
X162949995Y-19872381D02*
X162949996Y-50472379D01*
%TO.C,PWR1*%
X170574994Y-30502380D02*
X170574994Y-30302383D01*
X170574995Y-33502380D02*
X170574992Y-31802380D01*
X171624994Y-35352380D02*
X172414992Y-35352380D01*
X172414993Y-28452379D02*
X171624994Y-28452380D01*
X173424993Y-34752378D02*
X173424995Y-29052379D01*
D11*
%TO.C,S15*%
X84999997Y-75702381D02*
X89479997Y-75702380D01*
X84999997Y-76302379D02*
X84999997Y-75702381D01*
X84999997Y-80402381D02*
X84999997Y-79902380D01*
X89499997Y-79702381D02*
X89499997Y-80402380D01*
X89499997Y-80402380D02*
X84999997Y-80402381D01*
X89999997Y-75122380D02*
X89999997Y-74202380D01*
X90499997Y-73702381D02*
X89999997Y-74202380D01*
X93499997Y-78202379D02*
X91199995Y-78202380D01*
X93499998Y-73702381D02*
X90499997Y-73702381D01*
X93999997Y-74202380D02*
X93499998Y-73702381D01*
X93999999Y-77702380D02*
X93499997Y-78202379D01*
X89499998Y-79682380D02*
G75*
G02*
X91199995Y-78202380I1590001J-110001D01*
G01*
X89999997Y-75122380D02*
G75*
G02*
X89479997Y-75702380I-549999J-30001D01*
G01*
D13*
%TO.C,D23*%
X119599995Y-33152382D02*
X120399994Y-33152381D01*
X119999994Y-33752380D02*
X119449994Y-33752383D01*
X119999994Y-33752380D02*
X119599995Y-33152382D01*
X119999994Y-33752380D02*
X120549995Y-33752382D01*
X119999995Y-33152381D02*
X119999995Y-32652382D01*
X119999995Y-34152382D02*
X119999994Y-33752380D01*
X120399994Y-33152381D02*
X119999994Y-33752380D01*
D11*
%TO.C,S9*%
X65499994Y-97202382D02*
X69979994Y-97202381D01*
X65499994Y-97802380D02*
X65499994Y-97202382D01*
X65499994Y-101902382D02*
X65499994Y-101402381D01*
X69999994Y-101202382D02*
X69999994Y-101902381D01*
X69999994Y-101902381D02*
X65499994Y-101902382D01*
X70499994Y-96622381D02*
X70499994Y-95702381D01*
X70999994Y-95202382D02*
X70499994Y-95702381D01*
X73999994Y-99702380D02*
X71699992Y-99702381D01*
X73999995Y-95202382D02*
X70999994Y-95202382D01*
X74499994Y-95702381D02*
X73999995Y-95202382D01*
X74499996Y-99202381D02*
X73999994Y-99702380D01*
X69999995Y-101182381D02*
G75*
G02*
X71699992Y-99702381I1590001J-110001D01*
G01*
X70499994Y-96622381D02*
G75*
G02*
X69979994Y-97202381I-549999J-30001D01*
G01*
D13*
%TO.C,D5*%
X61099995Y-93652381D02*
X61899994Y-93652380D01*
X61499994Y-94252379D02*
X60949994Y-94252382D01*
X61499994Y-94252379D02*
X61099995Y-93652381D01*
X61499994Y-94252379D02*
X62049995Y-94252381D01*
X61499995Y-93652380D02*
X61499995Y-93152381D01*
X61499995Y-94652381D02*
X61499994Y-94252379D01*
X61899994Y-93652380D02*
X61499994Y-94252379D01*
D11*
%TO.C,S28*%
X131677176Y-119640288D02*
X133570506Y-115580030D01*
X132188960Y-113810360D02*
X132430806Y-114474822D01*
X132220958Y-119893860D02*
X131677176Y-119640288D01*
X133264609Y-114863631D02*
X132430806Y-114474822D01*
X133456816Y-111091437D02*
X132188960Y-113810360D01*
X134121279Y-110849592D02*
X133456816Y-111091437D01*
X135936822Y-121626595D02*
X135483669Y-121415287D01*
X137204189Y-117252377D02*
X137838605Y-117548209D01*
X137293356Y-112328753D02*
X137535201Y-112993220D01*
X137535201Y-112993220D02*
X136563179Y-115077727D01*
X137838605Y-117548209D02*
X135936822Y-121626595D01*
X133264609Y-114863631D02*
G75*
G02*
X133570506Y-115580030I-205249J-511147D01*
G01*
X137186063Y-117243925D02*
G75*
G02*
X136563179Y-115077727I771657J1394541D01*
G01*
D13*
%TO.C,D29*%
X164749474Y-118401150D02*
X165087567Y-117676103D01*
X164918520Y-118038626D02*
X164465367Y-117827317D01*
X165087567Y-117676103D02*
X165462306Y-118292199D01*
X165462306Y-118292199D02*
X164749474Y-118401150D01*
X165462306Y-118292199D02*
X165229866Y-118790667D01*
X165462306Y-118292199D02*
X165694744Y-117793727D01*
X165824829Y-118461245D02*
X165462306Y-118292199D01*
D11*
%TO.C,S16*%
X84999994Y-57202381D02*
X89479994Y-57202380D01*
X84999994Y-57802379D02*
X84999994Y-57202381D01*
X84999994Y-61902381D02*
X84999994Y-61402380D01*
X89499994Y-61202381D02*
X89499994Y-61902380D01*
X89499994Y-61902380D02*
X84999994Y-61902381D01*
X89999994Y-56622380D02*
X89999994Y-55702380D01*
X90499994Y-55202381D02*
X89999994Y-55702380D01*
X93499994Y-59702379D02*
X91199992Y-59702380D01*
X93499995Y-55202381D02*
X90499994Y-55202381D01*
X93999994Y-55702380D02*
X93499995Y-55202381D01*
X93999996Y-59202380D02*
X93499994Y-59702379D01*
X89499995Y-61182380D02*
G75*
G02*
X91199992Y-59702380I1590001J-110001D01*
G01*
X89999994Y-56622380D02*
G75*
G02*
X89479994Y-57202380I-549999J-30001D01*
G01*
%TO.C,S22*%
X104499997Y-41702379D02*
X108979997Y-41702378D01*
X104499997Y-42302377D02*
X104499997Y-41702379D01*
X104499997Y-46402379D02*
X104499997Y-45902378D01*
X108999997Y-45702379D02*
X108999997Y-46402378D01*
X108999997Y-46402378D02*
X104499997Y-46402379D01*
X109499997Y-41122378D02*
X109499997Y-40202378D01*
X109999997Y-39702379D02*
X109499997Y-40202378D01*
X112999997Y-44202377D02*
X110699995Y-44202378D01*
X112999998Y-39702379D02*
X109999997Y-39702379D01*
X113499997Y-40202378D02*
X112999998Y-39702379D01*
X113499999Y-43702378D02*
X112999997Y-44202377D01*
X108999998Y-45682378D02*
G75*
G02*
X110699995Y-44202378I1590001J-110001D01*
G01*
X109499997Y-41122378D02*
G75*
G02*
X108979997Y-41702378I-549999J-30001D01*
G01*
D13*
%TO.C,D13*%
X80599996Y-33152378D02*
X81399995Y-33152377D01*
X80999995Y-33752376D02*
X80449995Y-33752379D01*
X80999995Y-33752376D02*
X80599996Y-33152378D01*
X80999995Y-33752376D02*
X81549996Y-33752378D01*
X80999996Y-33152377D02*
X80999996Y-32652378D01*
X80999996Y-34152378D02*
X80999995Y-33752376D01*
X81399995Y-33152377D02*
X80999995Y-33752376D01*
D11*
%TO.C,S21*%
X104499997Y-60202381D02*
X108979997Y-60202380D01*
X104499997Y-60802379D02*
X104499997Y-60202381D01*
X104499997Y-64902381D02*
X104499997Y-64402380D01*
X108999997Y-64202381D02*
X108999997Y-64902380D01*
X108999997Y-64902380D02*
X104499997Y-64902381D01*
X109499997Y-59622380D02*
X109499997Y-58702380D01*
X109999997Y-58202381D02*
X109499997Y-58702380D01*
X112999997Y-62702379D02*
X110699995Y-62702380D01*
X112999998Y-58202381D02*
X109999997Y-58202381D01*
X113499997Y-58702380D02*
X112999998Y-58202381D01*
X113499999Y-62202380D02*
X112999997Y-62702379D01*
X108999998Y-64182380D02*
G75*
G02*
X110699995Y-62702380I1590001J-110001D01*
G01*
X109499997Y-59622380D02*
G75*
G02*
X108979997Y-60202380I-549999J-30001D01*
G01*
D13*
%TO.C,D17*%
X100099996Y-48652379D02*
X100899995Y-48652378D01*
X100499995Y-49252377D02*
X99949995Y-49252380D01*
X100499995Y-49252377D02*
X100099996Y-48652379D01*
X100499995Y-49252377D02*
X101049996Y-49252379D01*
X100499996Y-48652378D02*
X100499996Y-48152379D01*
X100499996Y-49652379D02*
X100499995Y-49252377D01*
X100899995Y-48652378D02*
X100499995Y-49252377D01*
D11*
%TO.C,S10*%
X65499997Y-78702379D02*
X69979997Y-78702378D01*
X65499997Y-79302377D02*
X65499997Y-78702379D01*
X65499997Y-83402379D02*
X65499997Y-82902378D01*
X69999997Y-82702379D02*
X69999997Y-83402378D01*
X69999997Y-83402378D02*
X65499997Y-83402379D01*
X70499997Y-78122378D02*
X70499997Y-77202378D01*
X70999997Y-76702379D02*
X70499997Y-77202378D01*
X73999997Y-81202377D02*
X71699995Y-81202378D01*
X73999998Y-76702379D02*
X70999997Y-76702379D01*
X74499997Y-77202378D02*
X73999998Y-76702379D01*
X74499999Y-80702378D02*
X73999997Y-81202377D01*
X69999998Y-82682378D02*
G75*
G02*
X71699995Y-81202378I1590001J-110001D01*
G01*
X70499997Y-78122378D02*
G75*
G02*
X69979997Y-78702378I-549999J-30001D01*
G01*
%TO.C,S29*%
X149350177Y-127881346D02*
X151243507Y-123821088D01*
X149861961Y-122051418D02*
X150103807Y-122715880D01*
X149893959Y-128134918D02*
X149350177Y-127881346D01*
X150937610Y-123104689D02*
X150103807Y-122715880D01*
X151129817Y-119332495D02*
X149861961Y-122051418D01*
X151794280Y-119090650D02*
X151129817Y-119332495D01*
X153609823Y-129867653D02*
X153156670Y-129656345D01*
X154877190Y-125493435D02*
X155511606Y-125789267D01*
X154966357Y-120569811D02*
X155208202Y-121234278D01*
X155208202Y-121234278D02*
X154236180Y-123318785D01*
X155511606Y-125789267D02*
X153609823Y-129867653D01*
X150937610Y-123104689D02*
G75*
G02*
X151243507Y-123821088I-205249J-511147D01*
G01*
X154859064Y-125484983D02*
G75*
G02*
X154236180Y-123318785I771657J1394541D01*
G01*
D13*
%TO.C,D6*%
X61099999Y-75152375D02*
X61899998Y-75152374D01*
X61499998Y-75752373D02*
X60949998Y-75752376D01*
X61499998Y-75752373D02*
X61099999Y-75152375D01*
X61499998Y-75752373D02*
X62049999Y-75752375D01*
X61499999Y-75152374D02*
X61499999Y-74652375D01*
X61499999Y-76152375D02*
X61499998Y-75752373D01*
X61899998Y-75152374D02*
X61499998Y-75752373D01*
%TO.C,D1*%
X37599996Y-93652381D02*
X38399995Y-93652380D01*
X37999995Y-94252379D02*
X37449995Y-94252382D01*
X37999995Y-94252379D02*
X37599996Y-93652381D01*
X37999995Y-94252379D02*
X38549996Y-94252381D01*
X37999996Y-93652380D02*
X37999996Y-93152381D01*
X37999996Y-94652381D02*
X37999995Y-94252379D01*
X38399995Y-93652380D02*
X37999995Y-94252379D01*
%TO.C,D30*%
X155749997Y-62502381D02*
X156349996Y-62902381D01*
X155749997Y-62902380D02*
X155249998Y-62902380D01*
X155749998Y-63302380D02*
X155749997Y-62502381D01*
X156349996Y-62902381D02*
X155749998Y-63302380D01*
X156349996Y-62902381D02*
X156349998Y-62352380D01*
X156349996Y-62902381D02*
X156349999Y-63452381D01*
X156749998Y-62902380D02*
X156349996Y-62902381D01*
D11*
%TO.C,S24*%
X123999995Y-81702379D02*
X128479995Y-81702378D01*
X123999995Y-82302377D02*
X123999995Y-81702379D01*
X123999995Y-86402379D02*
X123999995Y-85902378D01*
X128499995Y-85702379D02*
X128499995Y-86402378D01*
X128499995Y-86402378D02*
X123999995Y-86402379D01*
X128999995Y-81122378D02*
X128999995Y-80202378D01*
X129499995Y-79702379D02*
X128999995Y-80202378D01*
X132499995Y-84202377D02*
X130199993Y-84202378D01*
X132499996Y-79702379D02*
X129499995Y-79702379D01*
X132999995Y-80202378D02*
X132499996Y-79702379D01*
X132999997Y-83702378D02*
X132499995Y-84202377D01*
X128499996Y-85682378D02*
G75*
G02*
X130199993Y-84202378I1590001J-110001D01*
G01*
X128999995Y-81122378D02*
G75*
G02*
X128479995Y-81702378I-549999J-30001D01*
G01*
%TO.C,S8*%
X45999996Y-28202376D02*
X50479996Y-28202375D01*
X45999996Y-28802374D02*
X45999996Y-28202376D01*
X45999996Y-32902376D02*
X45999996Y-32402375D01*
X50499996Y-32202376D02*
X50499996Y-32902375D01*
X50499996Y-32902375D02*
X45999996Y-32902376D01*
X50999996Y-27622375D02*
X50999996Y-26702375D01*
X51499996Y-26202376D02*
X50999996Y-26702375D01*
X54499996Y-30702374D02*
X52199994Y-30702375D01*
X54499997Y-26202376D02*
X51499996Y-26202376D01*
X54999996Y-26702375D02*
X54499997Y-26202376D01*
X54999998Y-30202375D02*
X54499996Y-30702374D01*
X50499997Y-32182375D02*
G75*
G02*
X52199994Y-30702375I1590001J-110001D01*
G01*
X50999996Y-27622375D02*
G75*
G02*
X50479996Y-28202375I-549999J-30001D01*
G01*
D13*
%TO.C,D12*%
X80599994Y-51652377D02*
X81399993Y-51652376D01*
X80999993Y-52252375D02*
X80449993Y-52252378D01*
X80999993Y-52252375D02*
X80599994Y-51652377D01*
X80999993Y-52252375D02*
X81549994Y-52252377D01*
X80999994Y-51652376D02*
X80999994Y-51152377D01*
X80999994Y-52652377D02*
X80999993Y-52252375D01*
X81399993Y-51652376D02*
X80999993Y-52252375D01*
D11*
%TO.C,S11*%
X65500000Y-60202380D02*
X69980000Y-60202379D01*
X65500000Y-60802378D02*
X65500000Y-60202380D01*
X65500000Y-64902380D02*
X65500000Y-64402379D01*
X70000000Y-64202380D02*
X70000000Y-64902379D01*
X70000000Y-64902379D02*
X65500000Y-64902380D01*
X70500000Y-59622379D02*
X70500000Y-58702379D01*
X71000000Y-58202380D02*
X70500000Y-58702379D01*
X74000000Y-62702378D02*
X71699998Y-62702379D01*
X74000001Y-58202380D02*
X71000000Y-58202380D01*
X74500000Y-58702379D02*
X74000001Y-58202380D01*
X74500002Y-62202379D02*
X74000000Y-62702378D01*
X70000001Y-64182379D02*
G75*
G02*
X71699998Y-62702379I1590001J-110001D01*
G01*
X70500000Y-59622379D02*
G75*
G02*
X69980000Y-60202379I-549999J-30001D01*
G01*
D13*
%TO.C,D18*%
X100099996Y-30152379D02*
X100899995Y-30152378D01*
X100499995Y-30752377D02*
X99949995Y-30752380D01*
X100499995Y-30752377D02*
X100099996Y-30152379D01*
X100499995Y-30752377D02*
X101049996Y-30752379D01*
X100499996Y-30152378D02*
X100499996Y-29652379D01*
X100499996Y-31152379D02*
X100499995Y-30752377D01*
X100899995Y-30152378D02*
X100499995Y-30752377D01*
D11*
%TO.C,S27*%
X123999997Y-26202376D02*
X128479997Y-26202375D01*
X123999997Y-26802374D02*
X123999997Y-26202376D01*
X123999997Y-30902376D02*
X123999997Y-30402375D01*
X128499997Y-30202376D02*
X128499997Y-30902375D01*
X128499997Y-30902375D02*
X123999997Y-30902376D01*
X128999997Y-25622375D02*
X128999997Y-24702375D01*
X129499997Y-24202376D02*
X128999997Y-24702375D01*
X132499997Y-28702374D02*
X130199995Y-28702375D01*
X132499998Y-24202376D02*
X129499997Y-24202376D01*
X132999997Y-24702375D02*
X132499998Y-24202376D01*
X132999999Y-28202375D02*
X132499997Y-28702374D01*
X128499998Y-30182375D02*
G75*
G02*
X130199995Y-28702375I1590001J-110001D01*
G01*
X128999997Y-25622375D02*
G75*
G02*
X128479997Y-26202375I-549999J-30001D01*
G01*
D13*
%TO.C,D25*%
X139099999Y-73152377D02*
X139899998Y-73152376D01*
X139499998Y-73752375D02*
X138949998Y-73752378D01*
X139499998Y-73752375D02*
X139099999Y-73152377D01*
X139499998Y-73752375D02*
X140049999Y-73752377D01*
X139499999Y-73152376D02*
X139499999Y-72652377D01*
X139499999Y-74152377D02*
X139499998Y-73752375D01*
X139899998Y-73152376D02*
X139499998Y-73752375D01*
%TO.C,D19*%
X119599995Y-107152381D02*
X120399994Y-107152380D01*
X119999994Y-107752379D02*
X119449994Y-107752382D01*
X119999994Y-107752379D02*
X119599995Y-107152381D01*
X119999994Y-107752379D02*
X120549995Y-107752381D01*
X119999995Y-107152380D02*
X119999995Y-106652381D01*
X119999995Y-108152381D02*
X119999994Y-107752379D01*
X120399994Y-107152380D02*
X119999994Y-107752379D01*
D11*
%TO.C,S4*%
X22499998Y-28202382D02*
X26979998Y-28202381D01*
X22499998Y-28802380D02*
X22499998Y-28202382D01*
X22499998Y-32902382D02*
X22499998Y-32402381D01*
X26999998Y-32202382D02*
X26999998Y-32902381D01*
X26999998Y-32902381D02*
X22499998Y-32902382D01*
X27499998Y-27622381D02*
X27499998Y-26702381D01*
X27999998Y-26202382D02*
X27499998Y-26702381D01*
X30999998Y-30702380D02*
X28699996Y-30702381D01*
X30999999Y-26202382D02*
X27999998Y-26202382D01*
X31499998Y-26702381D02*
X30999999Y-26202382D01*
X31500000Y-30202381D02*
X30999998Y-30702380D01*
X26999999Y-32182381D02*
G75*
G02*
X28699996Y-30702381I1590001J-110001D01*
G01*
X27499998Y-27622381D02*
G75*
G02*
X26979998Y-28202381I-549999J-30001D01*
G01*
D13*
%TO.C,D11*%
X80599995Y-70152382D02*
X81399994Y-70152381D01*
X80999994Y-70752380D02*
X80449994Y-70752383D01*
X80999994Y-70752380D02*
X80599995Y-70152382D01*
X80999994Y-70752380D02*
X81549995Y-70752382D01*
X80999995Y-70152381D02*
X80999995Y-69652382D01*
X80999995Y-71152382D02*
X80999994Y-70752380D01*
X81399994Y-70152381D02*
X80999994Y-70752380D01*
D11*
%TO.C,S7*%
X45999994Y-46702381D02*
X50479994Y-46702380D01*
X45999994Y-47302379D02*
X45999994Y-46702381D01*
X45999994Y-51402381D02*
X45999994Y-50902380D01*
X50499994Y-50702381D02*
X50499994Y-51402380D01*
X50499994Y-51402380D02*
X45999994Y-51402381D01*
X50999994Y-46122380D02*
X50999994Y-45202380D01*
X51499994Y-44702381D02*
X50999994Y-45202380D01*
X54499994Y-49202379D02*
X52199992Y-49202380D01*
X54499995Y-44702381D02*
X51499994Y-44702381D01*
X54999994Y-45202380D02*
X54499995Y-44702381D01*
X54999996Y-48702380D02*
X54499994Y-49202379D01*
X50499995Y-50682380D02*
G75*
G02*
X52199992Y-49202380I1590001J-110001D01*
G01*
X50999994Y-46122380D02*
G75*
G02*
X50479994Y-46702380I-549999J-30001D01*
G01*
D13*
%TO.C,D24*%
X139100000Y-91652380D02*
X139899999Y-91652379D01*
X139499999Y-92252378D02*
X138949999Y-92252381D01*
X139499999Y-92252378D02*
X139100000Y-91652380D01*
X139499999Y-92252378D02*
X140050000Y-92252380D01*
X139500000Y-91652379D02*
X139500000Y-91152380D01*
X139500000Y-92652380D02*
X139499999Y-92252378D01*
X139899999Y-91652379D02*
X139499999Y-92252378D01*
D11*
%TO.C,S14*%
X84999998Y-94202380D02*
X89479998Y-94202379D01*
X84999998Y-94802378D02*
X84999998Y-94202380D01*
X84999998Y-98902380D02*
X84999998Y-98402379D01*
X89499998Y-98202380D02*
X89499998Y-98902379D01*
X89499998Y-98902379D02*
X84999998Y-98902380D01*
X89999998Y-93622379D02*
X89999998Y-92702379D01*
X90499998Y-92202380D02*
X89999998Y-92702379D01*
X93499998Y-96702378D02*
X91199996Y-96702379D01*
X93499999Y-92202380D02*
X90499998Y-92202380D01*
X93999998Y-92702379D02*
X93499999Y-92202380D01*
X94000000Y-96202379D02*
X93499998Y-96702378D01*
X89499999Y-98182379D02*
G75*
G02*
X91199996Y-96702379I1590001J-110001D01*
G01*
X89999998Y-93622379D02*
G75*
G02*
X89479998Y-94202379I-549999J-30001D01*
G01*
D13*
%TO.C,D20*%
X119599996Y-88652378D02*
X120399995Y-88652377D01*
X119999995Y-89252376D02*
X119449995Y-89252379D01*
X119999995Y-89252376D02*
X119599996Y-88652378D01*
X119999995Y-89252376D02*
X120549996Y-89252378D01*
X119999996Y-88652377D02*
X119999996Y-88152378D01*
X119999996Y-89652378D02*
X119999995Y-89252376D01*
X120399995Y-88652377D02*
X119999995Y-89252376D01*
%TO.C,D27*%
X139100001Y-36152380D02*
X139900000Y-36152379D01*
X139500000Y-36752378D02*
X138950000Y-36752381D01*
X139500000Y-36752378D02*
X139100001Y-36152380D01*
X139500000Y-36752378D02*
X140050001Y-36752380D01*
X139500001Y-36152379D02*
X139500001Y-35652380D01*
X139500001Y-37152380D02*
X139500000Y-36752378D01*
X139900000Y-36152379D02*
X139500000Y-36752378D01*
%TO.C,D9*%
X80599996Y-107152379D02*
X81399995Y-107152378D01*
X80999995Y-107752377D02*
X80449995Y-107752380D01*
X80999995Y-107752377D02*
X80599996Y-107152379D01*
X80999995Y-107752377D02*
X81549996Y-107752379D01*
X80999996Y-107152378D02*
X80999996Y-106652379D01*
X80999996Y-108152379D02*
X80999995Y-107752377D01*
X81399995Y-107152378D02*
X80999995Y-107752377D01*
%TO.C,D10*%
X80599995Y-88652379D02*
X81399994Y-88652378D01*
X80999994Y-89252377D02*
X80449994Y-89252380D01*
X80999994Y-89252377D02*
X80599995Y-88652379D01*
X80999994Y-89252377D02*
X81549995Y-89252379D01*
X80999995Y-88652378D02*
X80999995Y-88152379D01*
X80999995Y-89652379D02*
X80999994Y-89252377D01*
X81399994Y-88652378D02*
X80999994Y-89252377D01*
D11*
%TO.C,S1*%
X22499993Y-83702378D02*
X26979993Y-83702377D01*
X22499993Y-84302376D02*
X22499993Y-83702378D01*
X22499993Y-88402378D02*
X22499993Y-87902377D01*
X26999993Y-87702378D02*
X26999993Y-88402377D01*
X26999993Y-88402377D02*
X22499993Y-88402378D01*
X27499993Y-83122377D02*
X27499993Y-82202377D01*
X27999993Y-81702378D02*
X27499993Y-82202377D01*
X30999993Y-86202376D02*
X28699991Y-86202377D01*
X30999994Y-81702378D02*
X27999993Y-81702378D01*
X31499993Y-82202377D02*
X30999994Y-81702378D01*
X31499995Y-85702377D02*
X30999993Y-86202376D01*
X26999994Y-87682377D02*
G75*
G02*
X28699991Y-86202377I1590001J-110001D01*
G01*
X27499993Y-83122377D02*
G75*
G02*
X26979993Y-83702377I-549999J-30001D01*
G01*
%TO.C,S12*%
X65500000Y-41702381D02*
X69980000Y-41702380D01*
X65500000Y-42302379D02*
X65500000Y-41702381D01*
X65500000Y-46402381D02*
X65500000Y-45902380D01*
X70000000Y-45702381D02*
X70000000Y-46402380D01*
X70000000Y-46402380D02*
X65500000Y-46402381D01*
X70500000Y-41122380D02*
X70500000Y-40202380D01*
X71000000Y-39702381D02*
X70500000Y-40202380D01*
X74000000Y-44202379D02*
X71699998Y-44202380D01*
X74000001Y-39702381D02*
X71000000Y-39702381D01*
X74500000Y-40202380D02*
X74000001Y-39702381D01*
X74500002Y-43702380D02*
X74000000Y-44202379D01*
X70000001Y-45682380D02*
G75*
G02*
X71699998Y-44202380I1590001J-110001D01*
G01*
X70500000Y-41122380D02*
G75*
G02*
X69980000Y-41702380I-549999J-30001D01*
G01*
D13*
%TO.C,D3*%
X37599998Y-56652376D02*
X38399997Y-56652375D01*
X37999997Y-57252374D02*
X37449997Y-57252377D01*
X37999997Y-57252374D02*
X37599998Y-56652376D01*
X37999997Y-57252374D02*
X38549998Y-57252376D01*
X37999998Y-56652375D02*
X37999998Y-56152376D01*
X37999998Y-57652376D02*
X37999997Y-57252374D01*
X38399997Y-56652375D02*
X37999997Y-57252374D01*
D11*
%TO.C,S5*%
X45999997Y-83702380D02*
X50479997Y-83702379D01*
X45999997Y-84302378D02*
X45999997Y-83702380D01*
X45999997Y-88402380D02*
X45999997Y-87902379D01*
X50499997Y-87702380D02*
X50499997Y-88402379D01*
X50499997Y-88402379D02*
X45999997Y-88402380D01*
X50999997Y-83122379D02*
X50999997Y-82202379D01*
X51499997Y-81702380D02*
X50999997Y-82202379D01*
X54499997Y-86202378D02*
X52199995Y-86202379D01*
X54499998Y-81702380D02*
X51499997Y-81702380D01*
X54999997Y-82202379D02*
X54499998Y-81702380D01*
X54999999Y-85702379D02*
X54499997Y-86202378D01*
X50499998Y-87682379D02*
G75*
G02*
X52199995Y-86202379I1590001J-110001D01*
G01*
X50999997Y-83122379D02*
G75*
G02*
X50479997Y-83702379I-549999J-30001D01*
G01*
%TO.C,S2*%
X22499997Y-65202379D02*
X26979997Y-65202378D01*
X22499997Y-65802377D02*
X22499997Y-65202379D01*
X22499997Y-69902379D02*
X22499997Y-69402378D01*
X26999997Y-69202379D02*
X26999997Y-69902378D01*
X26999997Y-69902378D02*
X22499997Y-69902379D01*
X27499997Y-64622378D02*
X27499997Y-63702378D01*
X27999997Y-63202379D02*
X27499997Y-63702378D01*
X30999997Y-67702377D02*
X28699995Y-67702378D01*
X30999998Y-63202379D02*
X27999997Y-63202379D01*
X31499997Y-63702378D02*
X30999998Y-63202379D01*
X31499999Y-67202378D02*
X30999997Y-67702377D01*
X26999998Y-69182378D02*
G75*
G02*
X28699995Y-67702378I1590001J-110001D01*
G01*
X27499997Y-64622378D02*
G75*
G02*
X26979997Y-65202378I-549999J-30001D01*
G01*
D13*
%TO.C,D28*%
X147076477Y-110160090D02*
X147414570Y-109435043D01*
X147245523Y-109797566D02*
X146792370Y-109586257D01*
X147414570Y-109435043D02*
X147789309Y-110051139D01*
X147789309Y-110051139D02*
X147076477Y-110160090D01*
X147789309Y-110051139D02*
X147556869Y-110549607D01*
X147789309Y-110051139D02*
X148021747Y-109552667D01*
X148151832Y-110220185D02*
X147789309Y-110051139D01*
%TO.C,D16*%
X100099993Y-67152379D02*
X100899992Y-67152378D01*
X100499992Y-67752377D02*
X99949992Y-67752380D01*
X100499992Y-67752377D02*
X100099993Y-67152379D01*
X100499992Y-67752377D02*
X101049993Y-67752379D01*
X100499993Y-67152378D02*
X100499993Y-66652379D01*
X100499993Y-68152379D02*
X100499992Y-67752377D01*
X100899992Y-67152378D02*
X100499992Y-67752377D01*
D11*
%TO.C,S26*%
X123999995Y-44702384D02*
X128479995Y-44702383D01*
X123999995Y-45302382D02*
X123999995Y-44702384D01*
X123999995Y-49402384D02*
X123999995Y-48902383D01*
X128499995Y-48702384D02*
X128499995Y-49402383D01*
X128499995Y-49402383D02*
X123999995Y-49402384D01*
X128999995Y-44122383D02*
X128999995Y-43202383D01*
X129499995Y-42702384D02*
X128999995Y-43202383D01*
X132499995Y-47202382D02*
X130199993Y-47202383D01*
X132499996Y-42702384D02*
X129499995Y-42702384D01*
X132999995Y-43202383D02*
X132499996Y-42702384D01*
X132999997Y-46702383D02*
X132499995Y-47202382D01*
X128499996Y-48682383D02*
G75*
G02*
X130199993Y-47202383I1590001J-110001D01*
G01*
X128999995Y-44122383D02*
G75*
G02*
X128479995Y-44702383I-549999J-30001D01*
G01*
D13*
%TO.C,D2*%
X37599993Y-75152380D02*
X38399992Y-75152379D01*
X37999992Y-75752378D02*
X37449992Y-75752381D01*
X37999992Y-75752378D02*
X37599993Y-75152380D01*
X37999992Y-75752378D02*
X38549993Y-75752380D01*
X37999993Y-75152379D02*
X37999993Y-74652380D01*
X37999993Y-76152380D02*
X37999992Y-75752378D01*
X38399992Y-75152379D02*
X37999992Y-75752378D01*
D11*
%TO.C,S25*%
X123999994Y-63202380D02*
X128479994Y-63202379D01*
X123999994Y-63802378D02*
X123999994Y-63202380D01*
X123999994Y-67902380D02*
X123999994Y-67402379D01*
X128499994Y-67202380D02*
X128499994Y-67902379D01*
X128499994Y-67902379D02*
X123999994Y-67902380D01*
X128999994Y-62622379D02*
X128999994Y-61702379D01*
X129499994Y-61202380D02*
X128999994Y-61702379D01*
X132499994Y-65702378D02*
X130199992Y-65702379D01*
X132499995Y-61202380D02*
X129499994Y-61202380D01*
X132999994Y-61702379D02*
X132499995Y-61202380D01*
X132999996Y-65202379D02*
X132499994Y-65702378D01*
X128499995Y-67182379D02*
G75*
G02*
X130199992Y-65702379I1590001J-110001D01*
G01*
X128999994Y-62622379D02*
G75*
G02*
X128479994Y-63202379I-549999J-30001D01*
G01*
D13*
%TO.C,D7*%
X61099993Y-56652383D02*
X61899992Y-56652382D01*
X61499992Y-57252381D02*
X60949992Y-57252384D01*
X61499992Y-57252381D02*
X61099993Y-56652383D01*
X61499992Y-57252381D02*
X62049993Y-57252383D01*
X61499993Y-56652382D02*
X61499993Y-56152383D01*
X61499993Y-57652383D02*
X61499992Y-57252381D01*
X61899992Y-56652382D02*
X61499992Y-57252381D01*
%TO.C,D22*%
X119599990Y-51652376D02*
X120399989Y-51652375D01*
X119999989Y-52252374D02*
X119449989Y-52252377D01*
X119999989Y-52252374D02*
X119599990Y-51652376D01*
X119999989Y-52252374D02*
X120549990Y-52252376D01*
X119999990Y-51652375D02*
X119999990Y-51152376D01*
X119999990Y-52652376D02*
X119999989Y-52252374D01*
X120399989Y-51652375D02*
X119999989Y-52252374D01*
%TO.C,D21*%
X119599995Y-70152380D02*
X120399994Y-70152379D01*
X119999994Y-70752378D02*
X119449994Y-70752381D01*
X119999994Y-70752378D02*
X119599995Y-70152380D01*
X119999994Y-70752378D02*
X120549995Y-70752380D01*
X119999995Y-70152379D02*
X119999995Y-69652380D01*
X119999995Y-71152380D02*
X119999994Y-70752378D01*
X120399994Y-70152379D02*
X119999994Y-70752378D01*
%TO.C,D4*%
X37599992Y-38152381D02*
X38399991Y-38152380D01*
X37999991Y-38752379D02*
X37449991Y-38752382D01*
X37999991Y-38752379D02*
X37599992Y-38152381D01*
X37999991Y-38752379D02*
X38549992Y-38752381D01*
X37999992Y-38152380D02*
X37999992Y-37652381D01*
X37999992Y-39152381D02*
X37999991Y-38752379D01*
X38399991Y-38152380D02*
X37999991Y-38752379D01*
%TO.C,D14*%
X100099993Y-104152378D02*
X100899992Y-104152377D01*
X100499992Y-104752376D02*
X99949992Y-104752379D01*
X100499992Y-104752376D02*
X100099993Y-104152378D01*
X100499992Y-104752376D02*
X101049993Y-104752378D01*
X100499993Y-104152377D02*
X100499993Y-103652378D01*
X100499993Y-105152378D02*
X100499992Y-104752376D01*
X100899992Y-104152377D02*
X100499992Y-104752376D01*
D11*
%TO.C,S17*%
X84999999Y-38702377D02*
X89479999Y-38702376D01*
X84999999Y-39302375D02*
X84999999Y-38702377D01*
X84999999Y-43402377D02*
X84999999Y-42902376D01*
X89499999Y-42702377D02*
X89499999Y-43402376D01*
X89499999Y-43402376D02*
X84999999Y-43402377D01*
X89999999Y-38122376D02*
X89999999Y-37202376D01*
X90499999Y-36702377D02*
X89999999Y-37202376D01*
X93499999Y-41202375D02*
X91199997Y-41202376D01*
X93500000Y-36702377D02*
X90499999Y-36702377D01*
X93999999Y-37202376D02*
X93500000Y-36702377D01*
X94000001Y-40702376D02*
X93499999Y-41202375D01*
X89500000Y-42682376D02*
G75*
G02*
X91199997Y-41202376I1590001J-110001D01*
G01*
X89999999Y-38122376D02*
G75*
G02*
X89479999Y-38702376I-549999J-30001D01*
G01*
%TO.C,S13*%
X65499993Y-23202384D02*
X69979993Y-23202383D01*
X65499993Y-23802382D02*
X65499993Y-23202384D01*
X65499993Y-27902384D02*
X65499993Y-27402383D01*
X69999993Y-27202384D02*
X69999993Y-27902383D01*
X69999993Y-27902383D02*
X65499993Y-27902384D01*
X70499993Y-22622383D02*
X70499993Y-21702383D01*
X70999993Y-21202384D02*
X70499993Y-21702383D01*
X73999993Y-25702382D02*
X71699991Y-25702383D01*
X73999994Y-21202384D02*
X70999993Y-21202384D01*
X74499993Y-21702383D02*
X73999994Y-21202384D01*
X74499995Y-25202383D02*
X73999993Y-25702382D01*
X69999994Y-27182383D02*
G75*
G02*
X71699991Y-25702383I1590001J-110001D01*
G01*
X70499993Y-22622383D02*
G75*
G02*
X69979993Y-23202383I-549999J-30001D01*
G01*
%TO.C,S19*%
X104499997Y-97202382D02*
X108979997Y-97202381D01*
X104499997Y-97802380D02*
X104499997Y-97202382D01*
X104499997Y-101902382D02*
X104499997Y-101402381D01*
X108999997Y-101202382D02*
X108999997Y-101902381D01*
X108999997Y-101902381D02*
X104499997Y-101902382D01*
X109499997Y-96622381D02*
X109499997Y-95702381D01*
X109999997Y-95202382D02*
X109499997Y-95702381D01*
X112999997Y-99702380D02*
X110699995Y-99702381D01*
X112999998Y-95202382D02*
X109999997Y-95202382D01*
X113499997Y-95702381D02*
X112999998Y-95202382D01*
X113499999Y-99202381D02*
X112999997Y-99702380D01*
X108999998Y-101182381D02*
G75*
G02*
X110699995Y-99702381I1590001J-110001D01*
G01*
X109499997Y-96622381D02*
G75*
G02*
X108979997Y-97202381I-549999J-30001D01*
G01*
%TO.C,S20*%
X104499995Y-78702377D02*
X108979995Y-78702376D01*
X104499995Y-79302375D02*
X104499995Y-78702377D01*
X104499995Y-83402377D02*
X104499995Y-82902376D01*
X108999995Y-82702377D02*
X108999995Y-83402376D01*
X108999995Y-83402376D02*
X104499995Y-83402377D01*
X109499995Y-78122376D02*
X109499995Y-77202376D01*
X109999995Y-76702377D02*
X109499995Y-77202376D01*
X112999995Y-81202375D02*
X110699993Y-81202376D01*
X112999996Y-76702377D02*
X109999995Y-76702377D01*
X113499995Y-77202376D02*
X112999996Y-76702377D01*
X113499997Y-80702376D02*
X112999995Y-81202375D01*
X108999996Y-82682376D02*
G75*
G02*
X110699993Y-81202376I1590001J-110001D01*
G01*
X109499995Y-78122376D02*
G75*
G02*
X108979995Y-78702376I-549999J-30001D01*
G01*
%TO.C,S3*%
X22499995Y-46702381D02*
X26979995Y-46702380D01*
X22499995Y-47302379D02*
X22499995Y-46702381D01*
X22499995Y-51402381D02*
X22499995Y-50902380D01*
X26999995Y-50702381D02*
X26999995Y-51402380D01*
X26999995Y-51402380D02*
X22499995Y-51402381D01*
X27499995Y-46122380D02*
X27499995Y-45202380D01*
X27999995Y-44702381D02*
X27499995Y-45202380D01*
X30999995Y-49202379D02*
X28699993Y-49202380D01*
X30999996Y-44702381D02*
X27999995Y-44702381D01*
X31499995Y-45202380D02*
X30999996Y-44702381D01*
X31499997Y-48702380D02*
X30999995Y-49202379D01*
X26999996Y-50682380D02*
G75*
G02*
X28699993Y-49202380I1590001J-110001D01*
G01*
X27499995Y-46122380D02*
G75*
G02*
X26979995Y-46702380I-549999J-30001D01*
G01*
D13*
%TO.C,D15*%
X100099994Y-85652378D02*
X100899993Y-85652377D01*
X100499993Y-86252376D02*
X99949993Y-86252379D01*
X100499993Y-86252376D02*
X100099994Y-85652378D01*
X100499993Y-86252376D02*
X101049994Y-86252378D01*
X100499994Y-85652377D02*
X100499994Y-85152378D01*
X100499994Y-86652378D02*
X100499993Y-86252376D01*
X100899993Y-85652377D02*
X100499993Y-86252376D01*
%TO.C,D26*%
X139099998Y-54652380D02*
X139899997Y-54652379D01*
X139499997Y-55252378D02*
X138949997Y-55252381D01*
X139499997Y-55252378D02*
X139099998Y-54652380D01*
X139499997Y-55252378D02*
X140049998Y-55252380D01*
X139499998Y-54652379D02*
X139499998Y-54152380D01*
X139499998Y-55652380D02*
X139499997Y-55252378D01*
X139899997Y-54652379D02*
X139499997Y-55252378D01*
D11*
%TO.C,S18*%
X85000000Y-20202385D02*
X89480000Y-20202384D01*
X85000000Y-20802383D02*
X85000000Y-20202385D01*
X85000000Y-24902385D02*
X85000000Y-24402384D01*
X89500000Y-24202385D02*
X89500000Y-24902384D01*
X89500000Y-24902384D02*
X85000000Y-24902385D01*
X90000000Y-19622384D02*
X90000000Y-18702384D01*
X90500000Y-18202385D02*
X90000000Y-18702384D01*
X93500000Y-22702383D02*
X91199998Y-22702384D01*
X93500001Y-18202385D02*
X90500000Y-18202385D01*
X94000000Y-18702384D02*
X93500001Y-18202385D01*
X94000002Y-22202384D02*
X93500000Y-22702383D01*
X89500001Y-24182384D02*
G75*
G02*
X91199998Y-22702384I1590001J-110001D01*
G01*
X90000000Y-19622384D02*
G75*
G02*
X89480000Y-20202384I-549999J-30001D01*
G01*
D13*
%TO.C,D8*%
X61099995Y-38152381D02*
X61899994Y-38152380D01*
X61499994Y-38752379D02*
X60949994Y-38752382D01*
X61499994Y-38752379D02*
X61099995Y-38152381D01*
X61499994Y-38752379D02*
X62049995Y-38752381D01*
X61499995Y-38152380D02*
X61499995Y-37652381D01*
X61499995Y-39152381D02*
X61499994Y-38752379D01*
X61899994Y-38152380D02*
X61499994Y-38752379D01*
D11*
%TO.C,S23*%
X104499994Y-23202378D02*
X108979994Y-23202377D01*
X104499994Y-23802376D02*
X104499994Y-23202378D01*
X104499994Y-27902378D02*
X104499994Y-27402377D01*
X108999994Y-27202378D02*
X108999994Y-27902377D01*
X108999994Y-27902377D02*
X104499994Y-27902378D01*
X109499994Y-22622377D02*
X109499994Y-21702377D01*
X109999994Y-21202378D02*
X109499994Y-21702377D01*
X112999994Y-25702376D02*
X110699992Y-25702377D01*
X112999995Y-21202378D02*
X109999994Y-21202378D01*
X113499994Y-21702377D02*
X112999995Y-21202378D01*
X113499996Y-25202377D02*
X112999994Y-25702376D01*
X108999995Y-27182377D02*
G75*
G02*
X110699992Y-25702377I1590001J-110001D01*
G01*
X109499994Y-22622377D02*
G75*
G02*
X108979994Y-23202377I-549999J-30001D01*
G01*
%TO.C,S6*%
X45999992Y-65202379D02*
X50479992Y-65202378D01*
X45999992Y-65802377D02*
X45999992Y-65202379D01*
X45999992Y-69902379D02*
X45999992Y-69402378D01*
X50499992Y-69202379D02*
X50499992Y-69902378D01*
X50499992Y-69902378D02*
X45999992Y-69902379D01*
X50999992Y-64622378D02*
X50999992Y-63702378D01*
X51499992Y-63202379D02*
X50999992Y-63702378D01*
X54499992Y-67702377D02*
X52199990Y-67702378D01*
X54499993Y-63202379D02*
X51499992Y-63202379D01*
X54999992Y-63702378D02*
X54499993Y-63202379D01*
X54999994Y-67202378D02*
X54499992Y-67702377D01*
X50499993Y-69182378D02*
G75*
G02*
X52199990Y-67702378I1590001J-110001D01*
G01*
X50999992Y-64622378D02*
G75*
G02*
X50479992Y-65202378I-549999J-30001D01*
G01*
%TD*%
M02*
