%TF.GenerationSoftware,KiCad,Pcbnew,8.0.4*%
%TF.CreationDate,2024-07-28T16:02:37-05:00*%
%TF.ProjectId,reversible,72657665-7273-4696-926c-652e6b696361,0.5.0*%
%TF.SameCoordinates,Original*%
%TF.FileFunction,Legend,Bot*%
%TF.FilePolarity,Positive*%
%FSLAX46Y46*%
G04 Gerber Fmt 4.6, Leading zero omitted, Abs format (unit mm)*
G04 Created by KiCad (PCBNEW 8.0.4) date 2024-07-28 16:02:37*
%MOMM*%
%LPD*%
G01*
G04 APERTURE LIST*
%ADD10C,0.200000*%
%ADD11C,0.150000*%
%ADD12C,0.120000*%
%ADD13C,0.100000*%
G04 APERTURE END LIST*
D10*
G36*
X138449199Y-128755214D02*
G01*
X138327230Y-128698339D01*
X137888750Y-129406912D01*
X138015337Y-128860930D01*
X137884514Y-128799926D01*
X137545791Y-129248335D01*
X137807257Y-128455871D01*
X137685288Y-128398996D01*
X137394015Y-129384261D01*
X137512442Y-129439484D01*
X137889725Y-128958662D01*
X137763242Y-129556434D01*
X137881669Y-129611658D01*
X138449199Y-128755214D01*
G37*
G36*
X137089265Y-128400529D02*
G01*
X137122183Y-128406801D01*
X137170527Y-128420590D01*
X137217632Y-128439637D01*
X137247406Y-128454565D01*
X137289997Y-128479908D01*
X137330102Y-128508791D01*
X137355729Y-128529652D01*
X137393112Y-128562533D01*
X137429225Y-128597323D01*
X137375963Y-128711545D01*
X137356000Y-128684281D01*
X137322688Y-128645731D01*
X137285335Y-128609996D01*
X137258328Y-128588088D01*
X137215386Y-128559082D01*
X137169529Y-128534705D01*
X137130185Y-128518952D01*
X137080252Y-128507705D01*
X137027458Y-128509958D01*
X136984698Y-128530165D01*
X136950535Y-128566881D01*
X136926163Y-128609866D01*
X136917905Y-128627575D01*
X137071086Y-128699004D01*
X137080919Y-128703686D01*
X137127909Y-128728988D01*
X137171272Y-128757440D01*
X137211007Y-128789044D01*
X137244835Y-128823867D01*
X137272911Y-128866119D01*
X137291415Y-128912507D01*
X137293654Y-128921351D01*
X137297376Y-128972689D01*
X137288140Y-129023312D01*
X137269551Y-129072091D01*
X137249228Y-129109680D01*
X137217551Y-129150971D01*
X137175659Y-129185367D01*
X137127143Y-129206996D01*
X137086433Y-129215314D01*
X137032915Y-129215608D01*
X136984234Y-129206045D01*
X136934508Y-129187237D01*
X136891755Y-129163695D01*
X136849515Y-129131704D01*
X136812292Y-129093326D01*
X136784822Y-129053625D01*
X136764374Y-129005695D01*
X136754159Y-128953301D01*
X136746852Y-128964368D01*
X136718289Y-129004217D01*
X136710909Y-129013569D01*
X136676590Y-129049720D01*
X136562147Y-128996354D01*
X136588886Y-128969997D01*
X136622227Y-128929001D01*
X136645535Y-128893138D01*
X136827592Y-128893138D01*
X136833513Y-128941867D01*
X136852219Y-128990942D01*
X136871721Y-129019577D01*
X136908016Y-129052608D01*
X136951621Y-129077718D01*
X136971581Y-129086098D01*
X137021238Y-129098158D01*
X137071099Y-129095433D01*
X137084361Y-129091511D01*
X137127076Y-129062732D01*
X137155138Y-129019817D01*
X137170213Y-128970345D01*
X137164788Y-128921102D01*
X137142131Y-128880690D01*
X137107117Y-128845970D01*
X137101914Y-128842010D01*
X137061185Y-128814669D01*
X137017448Y-128791491D01*
X136872901Y-128724087D01*
X136861546Y-128748437D01*
X136850110Y-128775535D01*
X136835915Y-128822351D01*
X136828251Y-128873586D01*
X136827592Y-128893138D01*
X136645535Y-128893138D01*
X136650469Y-128885546D01*
X136671578Y-128848378D01*
X136694758Y-128804970D01*
X136716757Y-128760151D01*
X136782715Y-128618702D01*
X136805883Y-128571030D01*
X136829449Y-128527447D01*
X136856659Y-128485559D01*
X136876953Y-128462011D01*
X136915318Y-128430451D01*
X136961974Y-128408815D01*
X136988841Y-128401987D01*
X137040190Y-128396758D01*
X137089265Y-128400529D01*
G37*
G36*
X136298791Y-129083754D02*
G01*
X136231277Y-129052271D01*
X136190087Y-129024440D01*
X136167013Y-128987810D01*
X136158873Y-128935308D01*
X136158616Y-128880834D01*
X136161458Y-128828212D01*
X136163491Y-128802912D01*
X136752591Y-128240033D01*
X136631729Y-128183674D01*
X136170407Y-128636088D01*
X136223543Y-127993333D01*
X136102681Y-127936974D01*
X136064733Y-128495723D01*
X136061230Y-128546770D01*
X136057623Y-128598579D01*
X136056740Y-128611111D01*
X136055522Y-128634528D01*
X136053595Y-128655997D01*
X136049388Y-128697963D01*
X136047624Y-128721394D01*
X136043027Y-128773742D01*
X136039382Y-128826040D01*
X136037588Y-128861971D01*
X136036209Y-128913385D01*
X136037660Y-128956596D01*
X136046519Y-129008610D01*
X136065667Y-129053662D01*
X136100147Y-129096622D01*
X136141340Y-129126751D01*
X136162144Y-129137532D01*
X136253787Y-129180266D01*
X136298791Y-129083754D01*
G37*
G36*
X136159459Y-127687491D02*
G01*
X136037490Y-127630615D01*
X135599011Y-128339189D01*
X135725597Y-127793207D01*
X135594774Y-127732203D01*
X135256052Y-128180612D01*
X135517517Y-127388148D01*
X135395548Y-127331273D01*
X135104275Y-128316538D01*
X135222702Y-128371761D01*
X135599985Y-127890939D01*
X135473502Y-128488711D01*
X135591930Y-128543935D01*
X136159459Y-127687491D01*
G37*
G36*
X134799525Y-127332806D02*
G01*
X134832443Y-127339078D01*
X134880788Y-127352867D01*
X134927893Y-127371914D01*
X134957667Y-127386842D01*
X135000257Y-127412185D01*
X135040363Y-127441068D01*
X135065990Y-127461928D01*
X135103372Y-127494810D01*
X135139485Y-127529600D01*
X135086223Y-127643822D01*
X135066260Y-127616558D01*
X135032949Y-127578008D01*
X134995596Y-127542273D01*
X134968588Y-127520365D01*
X134925647Y-127491359D01*
X134879789Y-127466982D01*
X134840445Y-127451229D01*
X134790512Y-127439982D01*
X134737718Y-127442235D01*
X134694959Y-127462442D01*
X134660795Y-127499158D01*
X134636423Y-127542143D01*
X134628166Y-127559852D01*
X134781346Y-127631281D01*
X134791180Y-127635963D01*
X134838170Y-127661265D01*
X134881532Y-127689717D01*
X134921267Y-127721320D01*
X134955096Y-127756144D01*
X134983171Y-127798396D01*
X135001676Y-127844783D01*
X135003915Y-127853628D01*
X135007637Y-127904966D01*
X134998400Y-127955589D01*
X134979811Y-128004368D01*
X134959488Y-128041957D01*
X134927812Y-128083248D01*
X134885920Y-128117644D01*
X134837404Y-128139273D01*
X134796693Y-128147591D01*
X134743176Y-128147885D01*
X134694494Y-128138322D01*
X134644768Y-128119513D01*
X134602016Y-128095972D01*
X134559776Y-128063981D01*
X134522552Y-128025603D01*
X134495083Y-127985902D01*
X134474635Y-127937972D01*
X134464420Y-127885578D01*
X134457113Y-127896645D01*
X134428550Y-127936494D01*
X134421170Y-127945846D01*
X134386850Y-127981997D01*
X134272407Y-127928631D01*
X134299146Y-127902274D01*
X134332487Y-127861278D01*
X134355795Y-127825415D01*
X134537853Y-127825415D01*
X134543773Y-127874144D01*
X134562479Y-127923219D01*
X134581981Y-127951854D01*
X134618277Y-127984885D01*
X134661881Y-128009995D01*
X134681841Y-128018375D01*
X134731499Y-128030435D01*
X134781360Y-128027710D01*
X134794621Y-128023788D01*
X134837337Y-127995009D01*
X134865398Y-127952094D01*
X134880474Y-127902622D01*
X134875049Y-127853379D01*
X134852391Y-127812967D01*
X134817378Y-127778247D01*
X134812174Y-127774287D01*
X134771445Y-127746946D01*
X134727709Y-127723768D01*
X134583161Y-127656364D01*
X134571807Y-127680714D01*
X134560370Y-127707811D01*
X134546176Y-127754628D01*
X134538512Y-127805863D01*
X134537853Y-127825415D01*
X134355795Y-127825415D01*
X134360729Y-127817823D01*
X134381839Y-127780655D01*
X134405018Y-127737247D01*
X134427017Y-127692428D01*
X134492976Y-127550979D01*
X134516143Y-127503307D01*
X134539709Y-127459724D01*
X134566919Y-127417836D01*
X134587214Y-127394288D01*
X134625578Y-127362728D01*
X134672234Y-127341092D01*
X134699102Y-127334264D01*
X134750451Y-127329035D01*
X134799525Y-127332806D01*
G37*
G36*
X134009052Y-128016030D02*
G01*
X133941537Y-127984548D01*
X133900347Y-127956717D01*
X133877274Y-127920086D01*
X133869134Y-127867585D01*
X133868877Y-127813111D01*
X133871719Y-127760488D01*
X133873752Y-127735189D01*
X134462852Y-127172309D01*
X134341990Y-127115951D01*
X133880667Y-127568365D01*
X133933803Y-126925610D01*
X133812941Y-126869251D01*
X133774993Y-127427999D01*
X133771491Y-127479047D01*
X133767884Y-127530856D01*
X133767000Y-127543388D01*
X133765782Y-127566805D01*
X133763856Y-127588274D01*
X133759648Y-127630239D01*
X133757884Y-127653671D01*
X133753287Y-127706019D01*
X133749643Y-127758317D01*
X133747848Y-127794248D01*
X133746469Y-127845662D01*
X133747920Y-127888873D01*
X133756780Y-127940887D01*
X133775927Y-127985939D01*
X133810408Y-128028899D01*
X133851601Y-128059028D01*
X133872405Y-128069809D01*
X133964047Y-128112543D01*
X134009052Y-128016030D01*
G37*
G36*
X133869720Y-126619767D02*
G01*
X133747751Y-126562892D01*
X133309271Y-127271466D01*
X133435858Y-126725484D01*
X133305035Y-126664480D01*
X132966312Y-127112889D01*
X133227778Y-126320425D01*
X133105809Y-126263550D01*
X132814536Y-127248815D01*
X132932963Y-127304038D01*
X133310246Y-126823215D01*
X133183763Y-127420988D01*
X133302190Y-127476211D01*
X133869720Y-126619767D01*
G37*
G36*
X132509786Y-126265083D02*
G01*
X132542704Y-126271355D01*
X132591048Y-126285144D01*
X132638153Y-126304191D01*
X132667927Y-126319119D01*
X132710518Y-126344462D01*
X132750623Y-126373345D01*
X132776250Y-126394205D01*
X132813633Y-126427087D01*
X132849746Y-126461877D01*
X132796484Y-126576098D01*
X132776521Y-126548835D01*
X132743209Y-126510285D01*
X132705856Y-126474550D01*
X132678849Y-126452642D01*
X132635907Y-126423636D01*
X132590050Y-126399259D01*
X132550706Y-126383506D01*
X132500773Y-126372259D01*
X132447979Y-126374512D01*
X132405219Y-126394718D01*
X132371056Y-126431435D01*
X132346684Y-126474420D01*
X132338426Y-126492129D01*
X132491607Y-126563558D01*
X132501440Y-126568240D01*
X132548430Y-126593542D01*
X132591793Y-126621994D01*
X132631528Y-126653597D01*
X132665356Y-126688421D01*
X132693432Y-126730673D01*
X132711936Y-126777060D01*
X132714175Y-126785905D01*
X132717897Y-126837243D01*
X132708661Y-126887866D01*
X132690072Y-126936645D01*
X132669749Y-126974234D01*
X132638072Y-127015525D01*
X132596180Y-127049921D01*
X132547664Y-127071550D01*
X132506954Y-127079868D01*
X132453436Y-127080162D01*
X132404755Y-127070599D01*
X132355029Y-127051790D01*
X132312276Y-127028249D01*
X132270036Y-126996258D01*
X132232813Y-126957880D01*
X132205343Y-126918179D01*
X132184895Y-126870248D01*
X132174680Y-126817855D01*
X132167373Y-126828922D01*
X132138810Y-126868771D01*
X132131430Y-126878123D01*
X132097111Y-126914274D01*
X131982668Y-126860908D01*
X132009407Y-126834551D01*
X132042748Y-126793555D01*
X132066056Y-126757692D01*
X132248113Y-126757692D01*
X132254034Y-126806421D01*
X132272740Y-126855496D01*
X132292242Y-126884131D01*
X132328537Y-126917162D01*
X132372142Y-126942272D01*
X132392102Y-126950652D01*
X132441759Y-126962712D01*
X132491620Y-126959987D01*
X132504882Y-126956065D01*
X132547597Y-126927286D01*
X132575659Y-126884371D01*
X132590734Y-126834899D01*
X132585309Y-126785656D01*
X132562652Y-126745244D01*
X132527638Y-126710524D01*
X132522435Y-126706564D01*
X132481706Y-126679223D01*
X132437969Y-126656045D01*
X132293422Y-126588641D01*
X132282067Y-126612991D01*
X132270631Y-126640088D01*
X132256436Y-126686905D01*
X132248772Y-126738140D01*
X132248113Y-126757692D01*
X132066056Y-126757692D01*
X132070990Y-126750100D01*
X132092099Y-126712932D01*
X132115279Y-126669524D01*
X132137278Y-126624705D01*
X132203236Y-126483256D01*
X132226404Y-126435584D01*
X132249970Y-126392001D01*
X132277180Y-126350113D01*
X132297474Y-126326565D01*
X132335839Y-126295005D01*
X132382495Y-126273369D01*
X132409362Y-126266541D01*
X132460711Y-126261312D01*
X132509786Y-126265083D01*
G37*
G36*
X131719312Y-126948307D02*
G01*
X131651798Y-126916825D01*
X131610608Y-126888994D01*
X131587534Y-126852363D01*
X131579394Y-126799862D01*
X131579137Y-126745388D01*
X131581979Y-126692765D01*
X131584012Y-126667466D01*
X132173112Y-126104586D01*
X132052250Y-126048227D01*
X131590928Y-126500641D01*
X131644064Y-125857887D01*
X131523202Y-125801528D01*
X131485254Y-126360276D01*
X131481751Y-126411324D01*
X131478144Y-126463133D01*
X131477261Y-126475665D01*
X131476043Y-126499082D01*
X131474116Y-126520551D01*
X131469909Y-126562516D01*
X131468145Y-126585948D01*
X131463548Y-126638296D01*
X131459903Y-126690594D01*
X131458109Y-126726524D01*
X131456730Y-126777939D01*
X131458181Y-126821150D01*
X131467040Y-126873164D01*
X131486188Y-126918215D01*
X131520668Y-126961176D01*
X131561861Y-126991305D01*
X131582665Y-127002086D01*
X131674308Y-127044820D01*
X131719312Y-126948307D01*
G37*
G36*
X140775886Y-100817379D02*
G01*
X140568769Y-100817379D01*
X140512200Y-100815444D01*
X140459485Y-100809639D01*
X140410625Y-100799965D01*
X140354970Y-100782430D01*
X140305338Y-100758849D01*
X140261729Y-100729221D01*
X140224142Y-100693547D01*
X140217320Y-100685676D01*
X140186458Y-100642345D01*
X140161010Y-100592396D01*
X140140977Y-100535828D01*
X140128849Y-100485807D01*
X140120186Y-100431551D01*
X140114988Y-100373059D01*
X140113256Y-100310330D01*
X140113264Y-100309109D01*
X140259069Y-100309109D01*
X140259136Y-100323228D01*
X140260750Y-100376939D01*
X140264517Y-100426223D01*
X140272252Y-100481602D01*
X140283350Y-100530064D01*
X140301107Y-100579088D01*
X140327945Y-100623694D01*
X140332324Y-100629058D01*
X140368810Y-100661842D01*
X140415511Y-100686280D01*
X140463671Y-100700585D01*
X140519335Y-100708760D01*
X140571455Y-100710889D01*
X140636912Y-100710889D01*
X140636912Y-99907818D01*
X140571455Y-99907818D01*
X140525244Y-99909499D01*
X140473853Y-99916119D01*
X140424177Y-99929067D01*
X140409095Y-99934681D01*
X140363040Y-99960039D01*
X140327457Y-99994280D01*
X140323249Y-99999778D01*
X140297537Y-100046105D01*
X140280707Y-100096735D01*
X140270355Y-100146627D01*
X140263343Y-100203520D01*
X140260137Y-100254074D01*
X140259069Y-100309109D01*
X140113264Y-100309109D01*
X140113364Y-100294131D01*
X140115963Y-100232019D01*
X140122027Y-100174204D01*
X140131556Y-100120686D01*
X140144551Y-100071465D01*
X140165667Y-100015982D01*
X140192197Y-99967214D01*
X140224142Y-99925159D01*
X140261729Y-99889485D01*
X140305338Y-99859858D01*
X140354970Y-99836277D01*
X140410625Y-99818742D01*
X140459485Y-99809068D01*
X140512200Y-99803263D01*
X140568769Y-99801328D01*
X140775886Y-99801328D01*
X140775886Y-100817379D01*
G37*
G36*
X139637453Y-100038384D02*
G01*
X139689160Y-100047662D01*
X139736196Y-100063686D01*
X139783528Y-100089779D01*
X139811746Y-100111260D01*
X139848955Y-100148472D01*
X139880019Y-100191674D01*
X139902474Y-100235104D01*
X139919998Y-100282242D01*
X139932516Y-100332068D01*
X139940026Y-100384580D01*
X139942530Y-100439779D01*
X139940954Y-100484189D01*
X139934551Y-100536321D01*
X139923222Y-100584696D01*
X139903127Y-100637787D01*
X139875938Y-100685469D01*
X139841658Y-100727741D01*
X139815249Y-100752414D01*
X139771171Y-100783254D01*
X139721734Y-100806693D01*
X139666940Y-100822730D01*
X139617185Y-100830440D01*
X139563709Y-100833010D01*
X139529088Y-100832018D01*
X139477843Y-100826809D01*
X139427422Y-100817134D01*
X139394189Y-100808418D01*
X139344742Y-100792882D01*
X139295775Y-100774392D01*
X139295775Y-100653003D01*
X139327191Y-100667703D01*
X139375345Y-100687636D01*
X139424735Y-100705027D01*
X139458349Y-100714430D01*
X139509800Y-100723498D01*
X139562488Y-100726520D01*
X139606538Y-100724116D01*
X139658699Y-100713430D01*
X139708403Y-100691191D01*
X139748601Y-100658132D01*
X139773059Y-100625968D01*
X139795679Y-100578021D01*
X139807448Y-100529172D01*
X139811371Y-100474462D01*
X139811371Y-100470554D01*
X139266466Y-100470554D01*
X139266466Y-100408516D01*
X139267208Y-100376394D01*
X139268315Y-100364064D01*
X139392251Y-100364064D01*
X139806487Y-100364064D01*
X139804472Y-100348852D01*
X139792611Y-100298376D01*
X139773270Y-100252201D01*
X139769893Y-100245991D01*
X139739521Y-100204532D01*
X139700241Y-100172089D01*
X139681857Y-100161962D01*
X139632750Y-100146482D01*
X139583737Y-100142291D01*
X139566881Y-100142753D01*
X139517948Y-100150632D01*
X139472607Y-100171845D01*
X139436337Y-100206405D01*
X139411546Y-100251468D01*
X139407024Y-100264233D01*
X139395944Y-100311858D01*
X139392251Y-100364064D01*
X139268315Y-100364064D01*
X139271747Y-100325825D01*
X139282641Y-100270037D01*
X139299477Y-100219590D01*
X139322254Y-100174485D01*
X139350974Y-100134720D01*
X139384994Y-100101103D01*
X139430805Y-100070674D01*
X139483208Y-100049712D01*
X139533372Y-100039279D01*
X139588378Y-100035801D01*
X139637453Y-100038384D01*
G37*
G36*
X138782376Y-100833010D02*
G01*
X138832083Y-100830696D01*
X138885459Y-100823754D01*
X138934131Y-100814119D01*
X138985500Y-100801085D01*
X139039564Y-100784650D01*
X139039564Y-100655201D01*
X138986816Y-100679439D01*
X138936284Y-100698661D01*
X138887967Y-100712869D01*
X138834397Y-100723107D01*
X138783842Y-100726520D01*
X138732714Y-100722624D01*
X138685562Y-100709486D01*
X138656103Y-100693547D01*
X138621742Y-100657523D01*
X138608278Y-100608331D01*
X138608231Y-100604887D01*
X138620905Y-100556707D01*
X138648287Y-100527462D01*
X138692285Y-100503920D01*
X138739711Y-100488375D01*
X138775782Y-100479835D01*
X138828294Y-100469088D01*
X138878669Y-100456479D01*
X138926729Y-100438134D01*
X138969433Y-100412584D01*
X138986563Y-100397769D01*
X139017224Y-100355351D01*
X139032897Y-100307597D01*
X139036877Y-100262215D01*
X139032176Y-100210893D01*
X139015646Y-100160674D01*
X138987216Y-100118415D01*
X138961651Y-100094664D01*
X138920068Y-100068912D01*
X138870548Y-100050517D01*
X138820706Y-100040458D01*
X138764787Y-100036031D01*
X138747694Y-100035801D01*
X138696563Y-100038022D01*
X138646180Y-100044684D01*
X138596546Y-100055787D01*
X138547659Y-100071331D01*
X138520060Y-100082208D01*
X138520060Y-100205794D01*
X138567437Y-100181051D01*
X138615749Y-100162384D01*
X138664997Y-100149795D01*
X138715179Y-100143284D01*
X138744274Y-100142291D01*
X138800468Y-100146215D01*
X138851334Y-100160713D01*
X138893479Y-100195049D01*
X138909465Y-100247043D01*
X138909627Y-100253910D01*
X138900275Y-100303051D01*
X138895461Y-100311552D01*
X138854953Y-100341728D01*
X138840750Y-100347455D01*
X138790681Y-100362171D01*
X138740626Y-100373608D01*
X138721560Y-100377497D01*
X138671002Y-100387023D01*
X138616259Y-100401808D01*
X138570795Y-100422963D01*
X138528486Y-100456754D01*
X138499537Y-100499716D01*
X138483950Y-100551848D01*
X138480981Y-100591698D01*
X138486033Y-100644790D01*
X138501192Y-100691960D01*
X138530324Y-100737946D01*
X138561825Y-100768530D01*
X138605835Y-100796740D01*
X138657263Y-100816890D01*
X138708349Y-100827910D01*
X138765114Y-100832758D01*
X138782376Y-100833010D01*
G37*
G36*
X137985412Y-99910749D02*
G01*
X138005928Y-99890721D01*
X138005928Y-99774462D01*
X137985412Y-99754434D01*
X137886982Y-99754434D01*
X137866466Y-99774462D01*
X137866466Y-99890721D01*
X137886982Y-99910749D01*
X137985412Y-99910749D01*
G37*
G36*
X137755824Y-100817379D02*
G01*
X137809053Y-100812921D01*
X137861310Y-100797250D01*
X137905490Y-100770297D01*
X137930457Y-100746060D01*
X137960328Y-100701345D01*
X137978673Y-100653877D01*
X137989294Y-100599144D01*
X137992251Y-100545292D01*
X137992251Y-100157923D01*
X138159801Y-100157923D01*
X138159801Y-100051433D01*
X137866466Y-100051433D01*
X137866466Y-100541384D01*
X137862772Y-100593522D01*
X137848880Y-100643233D01*
X137835203Y-100667413D01*
X137796490Y-100700020D01*
X137747110Y-100710846D01*
X137743367Y-100710889D01*
X137596577Y-100710889D01*
X137596577Y-100817379D01*
X137755824Y-100817379D01*
G37*
G36*
X137144467Y-100038545D02*
G01*
X137193126Y-100049349D01*
X137239494Y-100070484D01*
X137263340Y-100086638D01*
X137302043Y-100122405D01*
X137331330Y-100162075D01*
X137347587Y-100191399D01*
X137367451Y-100238191D01*
X137381888Y-100288348D01*
X137388727Y-100322802D01*
X137395321Y-100374540D01*
X137397519Y-100426346D01*
X137396542Y-100460814D01*
X137391413Y-100512632D01*
X137381888Y-100564587D01*
X137372897Y-100598506D01*
X137355002Y-100646523D01*
X137331818Y-100691105D01*
X137315593Y-100715034D01*
X137279878Y-100753769D01*
X137240471Y-100782940D01*
X137206528Y-100799588D01*
X137155260Y-100813309D01*
X137102230Y-100817379D01*
X137076229Y-100816288D01*
X137024373Y-100806443D01*
X136978643Y-100786360D01*
X136956614Y-100770999D01*
X136921284Y-100733542D01*
X136895112Y-100688663D01*
X136895112Y-100780986D01*
X136895523Y-100802123D01*
X136900444Y-100853449D01*
X136911965Y-100902863D01*
X136913027Y-100906168D01*
X136934679Y-100950247D01*
X136969606Y-100985906D01*
X136986152Y-100996033D01*
X137033777Y-101011513D01*
X137084644Y-101015704D01*
X137103367Y-101015251D01*
X137155219Y-101009160D01*
X137202614Y-100997141D01*
X137216936Y-100992401D01*
X137265683Y-100974249D01*
X137312279Y-100953666D01*
X137312279Y-101082626D01*
X137298700Y-101087030D01*
X137250815Y-101100641D01*
X137202369Y-101111447D01*
X137191932Y-101113367D01*
X137143339Y-101119832D01*
X137091483Y-101122194D01*
X137080965Y-101122101D01*
X137031116Y-101118845D01*
X136977326Y-101108798D01*
X136930114Y-101092054D01*
X136883346Y-101064055D01*
X136845531Y-101026939D01*
X136840842Y-101020920D01*
X136812191Y-100975144D01*
X136790834Y-100922987D01*
X136778331Y-100873201D01*
X136771187Y-100818727D01*
X136769327Y-100769751D01*
X136769327Y-100424636D01*
X136895112Y-100424636D01*
X136895157Y-100433303D01*
X136897997Y-100490337D01*
X136905255Y-100541014D01*
X136918959Y-100591145D01*
X136941274Y-100637616D01*
X136944201Y-100642124D01*
X136978147Y-100679333D01*
X137025295Y-100703733D01*
X137077073Y-100710889D01*
X137088090Y-100710600D01*
X137138485Y-100700516D01*
X137181055Y-100676025D01*
X137215803Y-100637127D01*
X137221748Y-100627619D01*
X137243753Y-100578456D01*
X137256793Y-100525997D01*
X137263170Y-100473334D01*
X137264896Y-100423171D01*
X137264849Y-100414581D01*
X137261888Y-100358141D01*
X137254323Y-100308152D01*
X137240039Y-100258922D01*
X137216780Y-100213610D01*
X137210598Y-100204974D01*
X137174682Y-100170150D01*
X137130418Y-100149256D01*
X137077806Y-100142291D01*
X137027613Y-100148195D01*
X136982795Y-100169158D01*
X136954318Y-100195705D01*
X136927596Y-100238767D01*
X136912595Y-100280234D01*
X136901951Y-100330603D01*
X136897042Y-100375593D01*
X136895112Y-100424636D01*
X136769327Y-100424636D01*
X136769327Y-100051433D01*
X136882900Y-100051433D01*
X136895112Y-100156702D01*
X136906004Y-100137774D01*
X136938397Y-100096432D01*
X136979864Y-100064622D01*
X137003157Y-100053392D01*
X137050943Y-100039854D01*
X137100276Y-100035801D01*
X137144467Y-100038545D01*
G37*
G36*
X136525328Y-100051433D02*
G01*
X136412000Y-100051433D01*
X136399543Y-100168669D01*
X136370649Y-100123515D01*
X136335624Y-100087703D01*
X136294468Y-100061233D01*
X136247181Y-100044106D01*
X136193764Y-100036320D01*
X136174595Y-100035801D01*
X136119641Y-100040625D01*
X136072013Y-100055097D01*
X136022783Y-100086753D01*
X135985002Y-100133483D01*
X135963020Y-100181721D01*
X135948366Y-100239607D01*
X135942183Y-100289352D01*
X135940122Y-100344524D01*
X135940122Y-100817379D01*
X136066640Y-100817379D01*
X136066640Y-100342815D01*
X136069480Y-100289028D01*
X136079298Y-100239416D01*
X136100335Y-100193987D01*
X136102544Y-100190896D01*
X136141486Y-100157670D01*
X136191126Y-100143478D01*
X136213674Y-100142291D01*
X136265643Y-100148469D01*
X136313441Y-100169535D01*
X136351427Y-100205550D01*
X136376801Y-100250191D01*
X136391602Y-100299097D01*
X136398368Y-100349510D01*
X136399543Y-100384336D01*
X136399543Y-100817379D01*
X136525328Y-100817379D01*
X136525328Y-100051433D01*
G37*
G36*
X135426706Y-100038384D02*
G01*
X135478413Y-100047662D01*
X135525449Y-100063686D01*
X135572781Y-100089779D01*
X135601000Y-100111260D01*
X135638208Y-100148472D01*
X135669272Y-100191674D01*
X135691727Y-100235104D01*
X135709252Y-100282242D01*
X135721769Y-100332068D01*
X135729280Y-100384580D01*
X135731783Y-100439779D01*
X135730207Y-100484189D01*
X135723804Y-100536321D01*
X135712476Y-100584696D01*
X135692380Y-100637787D01*
X135665192Y-100685469D01*
X135630911Y-100727741D01*
X135604502Y-100752414D01*
X135560424Y-100783254D01*
X135510988Y-100806693D01*
X135456193Y-100822730D01*
X135406438Y-100830440D01*
X135352963Y-100833010D01*
X135318341Y-100832018D01*
X135267096Y-100826809D01*
X135216675Y-100817134D01*
X135183443Y-100808418D01*
X135133995Y-100792882D01*
X135085028Y-100774392D01*
X135085028Y-100653003D01*
X135116444Y-100667703D01*
X135164598Y-100687636D01*
X135213988Y-100705027D01*
X135247602Y-100714430D01*
X135299054Y-100723498D01*
X135351741Y-100726520D01*
X135395791Y-100724116D01*
X135447952Y-100713430D01*
X135497656Y-100691191D01*
X135537854Y-100658132D01*
X135562313Y-100625968D01*
X135584932Y-100578021D01*
X135596702Y-100529172D01*
X135600625Y-100474462D01*
X135600625Y-100470554D01*
X135055719Y-100470554D01*
X135055719Y-100408516D01*
X135056462Y-100376394D01*
X135057569Y-100364064D01*
X135181504Y-100364064D01*
X135595740Y-100364064D01*
X135593725Y-100348852D01*
X135581864Y-100298376D01*
X135562523Y-100252201D01*
X135559146Y-100245991D01*
X135528775Y-100204532D01*
X135489494Y-100172089D01*
X135471110Y-100161962D01*
X135422003Y-100146482D01*
X135372990Y-100142291D01*
X135356134Y-100142753D01*
X135307201Y-100150632D01*
X135261860Y-100171845D01*
X135225590Y-100206405D01*
X135200799Y-100251468D01*
X135196277Y-100264233D01*
X135185197Y-100311858D01*
X135181504Y-100364064D01*
X135057569Y-100364064D01*
X135061001Y-100325825D01*
X135071894Y-100270037D01*
X135088730Y-100219590D01*
X135111508Y-100174485D01*
X135140227Y-100134720D01*
X135174247Y-100101103D01*
X135220059Y-100070674D01*
X135272462Y-100049712D01*
X135322625Y-100039279D01*
X135377631Y-100035801D01*
X135426706Y-100038384D01*
G37*
G36*
X134387959Y-100156213D02*
G01*
X134400464Y-100134266D01*
X134432920Y-100094489D01*
X134472711Y-100065355D01*
X134493159Y-100055311D01*
X134540762Y-100040679D01*
X134592879Y-100035801D01*
X134626191Y-100037454D01*
X134680245Y-100048298D01*
X134728900Y-100069264D01*
X134772155Y-100100350D01*
X134810011Y-100141559D01*
X134828844Y-100169185D01*
X134852386Y-100215075D01*
X134870278Y-100266306D01*
X134882519Y-100322877D01*
X134888405Y-100374100D01*
X134890367Y-100429032D01*
X134888912Y-100474275D01*
X134883950Y-100523821D01*
X134875468Y-100573136D01*
X134866736Y-100608032D01*
X134849288Y-100657514D01*
X134826619Y-100703561D01*
X134808225Y-100731527D01*
X134775309Y-100767980D01*
X134736005Y-100797839D01*
X134693735Y-100817863D01*
X134645173Y-100829575D01*
X134595565Y-100833010D01*
X134561707Y-100831197D01*
X134507892Y-100819301D01*
X134460995Y-100796302D01*
X134421018Y-100762200D01*
X134387959Y-100716995D01*
X134375503Y-100817379D01*
X134262174Y-100817379D01*
X134262174Y-100433673D01*
X134387959Y-100433673D01*
X134389669Y-100481422D01*
X134394798Y-100531370D01*
X134404812Y-100580768D01*
X134421176Y-100626869D01*
X134441379Y-100662419D01*
X134477108Y-100698921D01*
X134522445Y-100720456D01*
X134573095Y-100726520D01*
X134624272Y-100720348D01*
X134669815Y-100698432D01*
X134700244Y-100668558D01*
X134725258Y-100626136D01*
X134741073Y-100580219D01*
X134750904Y-100530882D01*
X134755813Y-100483977D01*
X134757743Y-100433673D01*
X134756033Y-100386595D01*
X134750904Y-100337197D01*
X134741863Y-100291019D01*
X134725258Y-100242187D01*
X134705390Y-100206517D01*
X134669815Y-100170135D01*
X134624272Y-100148409D01*
X134573095Y-100142291D01*
X134522445Y-100148409D01*
X134477108Y-100170135D01*
X134446571Y-100199712D01*
X134421176Y-100242187D01*
X134404812Y-100288043D01*
X134394798Y-100337197D01*
X134389889Y-100383576D01*
X134387959Y-100433673D01*
X134262174Y-100433673D01*
X134262174Y-99754434D01*
X134387959Y-99754434D01*
X134387959Y-100156213D01*
G37*
G36*
X133158196Y-100817379D02*
G01*
X133044623Y-100817379D01*
X133032411Y-100716995D01*
X133009948Y-100750417D01*
X132972007Y-100787692D01*
X132926493Y-100813863D01*
X132873405Y-100828931D01*
X132821874Y-100833010D01*
X132777779Y-100830228D01*
X132729501Y-100819271D01*
X132683877Y-100797839D01*
X132660375Y-100781258D01*
X132622434Y-100744697D01*
X132593995Y-100704294D01*
X132576406Y-100670473D01*
X132557641Y-100622314D01*
X132545147Y-100575090D01*
X132537161Y-100530773D01*
X132531793Y-100481914D01*
X132530058Y-100434406D01*
X132662628Y-100434406D01*
X132664337Y-100481545D01*
X132669466Y-100531126D01*
X132679297Y-100580402D01*
X132695112Y-100626625D01*
X132714980Y-100662342D01*
X132750555Y-100698921D01*
X132795908Y-100720456D01*
X132847031Y-100726520D01*
X132897857Y-100720456D01*
X132943263Y-100698921D01*
X132973677Y-100669222D01*
X132999194Y-100626869D01*
X133015559Y-100580768D01*
X133025572Y-100531370D01*
X133030481Y-100484480D01*
X133032411Y-100433673D01*
X133030702Y-100386473D01*
X133025572Y-100336709D01*
X133016370Y-100290409D01*
X132999194Y-100241698D01*
X132978872Y-100206362D01*
X132943263Y-100170135D01*
X132897857Y-100148409D01*
X132847031Y-100142291D01*
X132795908Y-100148409D01*
X132750555Y-100170135D01*
X132720126Y-100199712D01*
X132695112Y-100242187D01*
X132679297Y-100288104D01*
X132669466Y-100337441D01*
X132664558Y-100384171D01*
X132662628Y-100434406D01*
X132530058Y-100434406D01*
X132530004Y-100432940D01*
X132531163Y-100393354D01*
X132536315Y-100340511D01*
X132544658Y-100292012D01*
X132553192Y-100257513D01*
X132570514Y-100208741D01*
X132593263Y-100163540D01*
X132606692Y-100142640D01*
X132641210Y-100102895D01*
X132683144Y-100070728D01*
X132724685Y-100050843D01*
X132772402Y-100039212D01*
X132821141Y-100035801D01*
X132846581Y-100036840D01*
X132898400Y-100046220D01*
X132945705Y-100065355D01*
X132968721Y-100079720D01*
X133005449Y-100114585D01*
X133032411Y-100156213D01*
X133032411Y-99754434D01*
X133158196Y-99754434D01*
X133158196Y-100817379D01*
G37*
G36*
X132322153Y-101007888D02*
G01*
X132247659Y-101007888D01*
X132198566Y-101000072D01*
X132162174Y-100976625D01*
X132132608Y-100932483D01*
X132109354Y-100883221D01*
X132089690Y-100834328D01*
X132080841Y-100810540D01*
X132376863Y-100051433D01*
X132243507Y-100051433D01*
X132016605Y-100656422D01*
X131793123Y-100051433D01*
X131659766Y-100051433D01*
X131861511Y-100573868D01*
X131879911Y-100621614D01*
X131898537Y-100670092D01*
X131903032Y-100681824D01*
X131911825Y-100703561D01*
X131919152Y-100723833D01*
X131933074Y-100763645D01*
X131941378Y-100785627D01*
X131959335Y-100835013D01*
X131978134Y-100883951D01*
X131991692Y-100917274D01*
X132012172Y-100964454D01*
X132031748Y-101003003D01*
X132061760Y-101046400D01*
X132098153Y-101079138D01*
X132147559Y-101103501D01*
X132197626Y-101113399D01*
X132221037Y-101114378D01*
X132322153Y-101114378D01*
X132322153Y-101007888D01*
G37*
G36*
X130670094Y-100817379D02*
G01*
X130462977Y-100817379D01*
X130406408Y-100815444D01*
X130353693Y-100809639D01*
X130304833Y-100799965D01*
X130249178Y-100782430D01*
X130199546Y-100758849D01*
X130155937Y-100729221D01*
X130118350Y-100693547D01*
X130111528Y-100685676D01*
X130080666Y-100642345D01*
X130055218Y-100592396D01*
X130035185Y-100535828D01*
X130023057Y-100485807D01*
X130014394Y-100431551D01*
X130009196Y-100373059D01*
X130007464Y-100310330D01*
X130007472Y-100309109D01*
X130153277Y-100309109D01*
X130153344Y-100323228D01*
X130154958Y-100376939D01*
X130158725Y-100426223D01*
X130166460Y-100481602D01*
X130177558Y-100530064D01*
X130195315Y-100579088D01*
X130222153Y-100623694D01*
X130226532Y-100629058D01*
X130263018Y-100661842D01*
X130309719Y-100686280D01*
X130357879Y-100700585D01*
X130413543Y-100708760D01*
X130465663Y-100710889D01*
X130531120Y-100710889D01*
X130531120Y-99907818D01*
X130465663Y-99907818D01*
X130419452Y-99909499D01*
X130368061Y-99916119D01*
X130318385Y-99929067D01*
X130303303Y-99934681D01*
X130257248Y-99960039D01*
X130221665Y-99994280D01*
X130217457Y-99999778D01*
X130191745Y-100046105D01*
X130174915Y-100096735D01*
X130164563Y-100146627D01*
X130157551Y-100203520D01*
X130154345Y-100254074D01*
X130153277Y-100309109D01*
X130007472Y-100309109D01*
X130007572Y-100294131D01*
X130010171Y-100232019D01*
X130016235Y-100174204D01*
X130025764Y-100120686D01*
X130038759Y-100071465D01*
X130059875Y-100015982D01*
X130086405Y-99967214D01*
X130118350Y-99925159D01*
X130155937Y-99889485D01*
X130199546Y-99859858D01*
X130249178Y-99836277D01*
X130304833Y-99818742D01*
X130353693Y-99809068D01*
X130406408Y-99803263D01*
X130462977Y-99801328D01*
X130670094Y-99801328D01*
X130670094Y-100817379D01*
G37*
G36*
X129547386Y-100036748D02*
G01*
X129596697Y-100041717D01*
X129645251Y-100050944D01*
X129677293Y-100059020D01*
X129725069Y-100073022D01*
X129772502Y-100089291D01*
X129772502Y-100215320D01*
X129742888Y-100199047D01*
X129696405Y-100178187D01*
X129647450Y-100161586D01*
X129613714Y-100153145D01*
X129562537Y-100145005D01*
X129510674Y-100142291D01*
X129468359Y-100144642D01*
X129418351Y-100155551D01*
X129371455Y-100179905D01*
X129341242Y-100216289D01*
X129325796Y-100264004D01*
X129321874Y-100313261D01*
X129321874Y-100332801D01*
X129490890Y-100332801D01*
X129501781Y-100332888D01*
X129555061Y-100335961D01*
X129606385Y-100343421D01*
X129655754Y-100355271D01*
X129701130Y-100372535D01*
X129744431Y-100398964D01*
X129780806Y-100433185D01*
X129786574Y-100440254D01*
X129811643Y-100485209D01*
X129824666Y-100534992D01*
X129828434Y-100587057D01*
X129825901Y-100629713D01*
X129814642Y-100680523D01*
X129791212Y-100729401D01*
X129756382Y-100769507D01*
X129723001Y-100794251D01*
X129674622Y-100817134D01*
X129626460Y-100829041D01*
X129573444Y-100833010D01*
X129524748Y-100829742D01*
X129472946Y-100818599D01*
X129422990Y-100799549D01*
X129381317Y-100775177D01*
X129342528Y-100740379D01*
X129311127Y-100697211D01*
X129309182Y-100710329D01*
X129300136Y-100758516D01*
X129297400Y-100770111D01*
X129281574Y-100817379D01*
X129155300Y-100817379D01*
X129168395Y-100782190D01*
X129181286Y-100730945D01*
X129188517Y-100679626D01*
X129191941Y-100637019D01*
X129194604Y-100587882D01*
X129195600Y-100537965D01*
X129195600Y-100466157D01*
X129321874Y-100466157D01*
X129322961Y-100495549D01*
X129329882Y-100543978D01*
X129344589Y-100593652D01*
X129352254Y-100611651D01*
X129378214Y-100653312D01*
X129415907Y-100689884D01*
X129445684Y-100707594D01*
X129492538Y-100722191D01*
X129542669Y-100726520D01*
X129564301Y-100725679D01*
X129614402Y-100715624D01*
X129658441Y-100692082D01*
X129668802Y-100682923D01*
X129695352Y-100638787D01*
X129702649Y-100588034D01*
X129695404Y-100536826D01*
X129669676Y-100494489D01*
X129632062Y-100467440D01*
X129585656Y-100450770D01*
X129579267Y-100449380D01*
X129530799Y-100441813D01*
X129481365Y-100439291D01*
X129321874Y-100439291D01*
X129321874Y-100466157D01*
X129195600Y-100466157D01*
X129195600Y-100381894D01*
X129196450Y-100328897D01*
X129199389Y-100279437D01*
X129206347Y-100229974D01*
X129214789Y-100200056D01*
X129236221Y-100155240D01*
X129269362Y-100115913D01*
X129290826Y-100098370D01*
X129335155Y-100071930D01*
X129381225Y-100054608D01*
X129413709Y-100046380D01*
X129463352Y-100038446D01*
X129514093Y-100035801D01*
X129547386Y-100036748D01*
G37*
G36*
X128945984Y-100051433D02*
G01*
X128832656Y-100051433D01*
X128820199Y-100168669D01*
X128791305Y-100123515D01*
X128756280Y-100087703D01*
X128715124Y-100061233D01*
X128667837Y-100044106D01*
X128614420Y-100036320D01*
X128595251Y-100035801D01*
X128540297Y-100040625D01*
X128492669Y-100055097D01*
X128443439Y-100086753D01*
X128405658Y-100133483D01*
X128383676Y-100181721D01*
X128369022Y-100239607D01*
X128362839Y-100289352D01*
X128360778Y-100344524D01*
X128360778Y-100817379D01*
X128487296Y-100817379D01*
X128487296Y-100342815D01*
X128490136Y-100289028D01*
X128499954Y-100239416D01*
X128520991Y-100193987D01*
X128523200Y-100190896D01*
X128562142Y-100157670D01*
X128611782Y-100143478D01*
X128634330Y-100142291D01*
X128686299Y-100148469D01*
X128734097Y-100169535D01*
X128772083Y-100205550D01*
X128797457Y-100250191D01*
X128812258Y-100299097D01*
X128819024Y-100349510D01*
X128820199Y-100384336D01*
X128820199Y-100817379D01*
X128945984Y-100817379D01*
X128945984Y-100051433D01*
G37*
G36*
X127879620Y-99910749D02*
G01*
X127900136Y-99890721D01*
X127900136Y-99774462D01*
X127879620Y-99754434D01*
X127781190Y-99754434D01*
X127760674Y-99774462D01*
X127760674Y-99890721D01*
X127781190Y-99910749D01*
X127879620Y-99910749D01*
G37*
G36*
X127650032Y-100817379D02*
G01*
X127703261Y-100812921D01*
X127755518Y-100797250D01*
X127799698Y-100770297D01*
X127824665Y-100746060D01*
X127854536Y-100701345D01*
X127872881Y-100653877D01*
X127883502Y-100599144D01*
X127886459Y-100545292D01*
X127886459Y-100157923D01*
X128054009Y-100157923D01*
X128054009Y-100051433D01*
X127760674Y-100051433D01*
X127760674Y-100541384D01*
X127756979Y-100593522D01*
X127743088Y-100643233D01*
X127729411Y-100667413D01*
X127690698Y-100700020D01*
X127641318Y-100710846D01*
X127637575Y-100710889D01*
X127490785Y-100710889D01*
X127490785Y-100817379D01*
X127650032Y-100817379D01*
G37*
G36*
X127005213Y-100038384D02*
G01*
X127056920Y-100047662D01*
X127103956Y-100063686D01*
X127151288Y-100089779D01*
X127179506Y-100111260D01*
X127216715Y-100148472D01*
X127247779Y-100191674D01*
X127270234Y-100235104D01*
X127287758Y-100282242D01*
X127300276Y-100332068D01*
X127307786Y-100384580D01*
X127310290Y-100439779D01*
X127308714Y-100484189D01*
X127302311Y-100536321D01*
X127290982Y-100584696D01*
X127270887Y-100637787D01*
X127243698Y-100685469D01*
X127209418Y-100727741D01*
X127183009Y-100752414D01*
X127138931Y-100783254D01*
X127089494Y-100806693D01*
X127034700Y-100822730D01*
X126984945Y-100830440D01*
X126931469Y-100833010D01*
X126896848Y-100832018D01*
X126845603Y-100826809D01*
X126795182Y-100817134D01*
X126761949Y-100808418D01*
X126712502Y-100792882D01*
X126663535Y-100774392D01*
X126663535Y-100653003D01*
X126694951Y-100667703D01*
X126743105Y-100687636D01*
X126792495Y-100705027D01*
X126826109Y-100714430D01*
X126877560Y-100723498D01*
X126930248Y-100726520D01*
X126974298Y-100724116D01*
X127026459Y-100713430D01*
X127076163Y-100691191D01*
X127116361Y-100658132D01*
X127140819Y-100625968D01*
X127163439Y-100578021D01*
X127175208Y-100529172D01*
X127179131Y-100474462D01*
X127179131Y-100470554D01*
X126634226Y-100470554D01*
X126634226Y-100408516D01*
X126634968Y-100376394D01*
X126636075Y-100364064D01*
X126760011Y-100364064D01*
X127174247Y-100364064D01*
X127172232Y-100348852D01*
X127160371Y-100298376D01*
X127141030Y-100252201D01*
X127137653Y-100245991D01*
X127107281Y-100204532D01*
X127068001Y-100172089D01*
X127049617Y-100161962D01*
X127000510Y-100146482D01*
X126951497Y-100142291D01*
X126934641Y-100142753D01*
X126885708Y-100150632D01*
X126840367Y-100171845D01*
X126804097Y-100206405D01*
X126779306Y-100251468D01*
X126774784Y-100264233D01*
X126763704Y-100311858D01*
X126760011Y-100364064D01*
X126636075Y-100364064D01*
X126639507Y-100325825D01*
X126650401Y-100270037D01*
X126667237Y-100219590D01*
X126690014Y-100174485D01*
X126718734Y-100134720D01*
X126752754Y-100101103D01*
X126798565Y-100070674D01*
X126850968Y-100049712D01*
X126901132Y-100039279D01*
X126956138Y-100035801D01*
X127005213Y-100038384D01*
G37*
G36*
X125991623Y-100817379D02*
G01*
X126044868Y-100812906D01*
X126097178Y-100797181D01*
X126141450Y-100770136D01*
X126166501Y-100745815D01*
X126196371Y-100700806D01*
X126214716Y-100653045D01*
X126225337Y-100597988D01*
X126228294Y-100543827D01*
X126228294Y-99860924D01*
X126429794Y-99860924D01*
X126429794Y-99754434D01*
X126102509Y-99754434D01*
X126102509Y-100541140D01*
X126098786Y-100593417D01*
X126084786Y-100643218D01*
X126071002Y-100667413D01*
X126032350Y-100700020D01*
X125983138Y-100710846D01*
X125979411Y-100710889D01*
X125832376Y-100710889D01*
X125832376Y-100817379D01*
X125991623Y-100817379D01*
G37*
G36*
X124709348Y-99801328D02*
G01*
X124108510Y-99801328D01*
X124108510Y-99907818D01*
X124570618Y-99907818D01*
X124570618Y-100241942D01*
X124151497Y-100241942D01*
X124151497Y-100348432D01*
X124570618Y-100348432D01*
X124570618Y-100817379D01*
X124709348Y-100817379D01*
X124709348Y-99801328D01*
G37*
G36*
X123614473Y-100035902D02*
G01*
X123670469Y-100040733D01*
X123721296Y-100052812D01*
X123766955Y-100072138D01*
X123813689Y-100103844D01*
X123848147Y-100138872D01*
X123872563Y-100173282D01*
X123896400Y-100220382D01*
X123914277Y-100273820D01*
X123924623Y-100323192D01*
X123930831Y-100376965D01*
X123932900Y-100435138D01*
X123931579Y-100481854D01*
X123926215Y-100536309D01*
X123916724Y-100586387D01*
X123899889Y-100640703D01*
X123877111Y-100688717D01*
X123848392Y-100730428D01*
X123807808Y-100770399D01*
X123760002Y-100800552D01*
X123713276Y-100818584D01*
X123661244Y-100829404D01*
X123603905Y-100833010D01*
X123547081Y-100829429D01*
X123495495Y-100818687D01*
X123449147Y-100800784D01*
X123401695Y-100770846D01*
X123361371Y-100731161D01*
X123337096Y-100697032D01*
X123313397Y-100650206D01*
X123295623Y-100596975D01*
X123285337Y-100547722D01*
X123279165Y-100494021D01*
X123277108Y-100435871D01*
X123277169Y-100433673D01*
X123410464Y-100433673D01*
X123410661Y-100451093D01*
X123413609Y-100500275D01*
X123421520Y-100551815D01*
X123436457Y-100603018D01*
X123460778Y-100650805D01*
X123470592Y-100664336D01*
X123508793Y-100699828D01*
X123555438Y-100720531D01*
X123604637Y-100726520D01*
X123616192Y-100726224D01*
X123668900Y-100715873D01*
X123713164Y-100690733D01*
X123748985Y-100650805D01*
X123758020Y-100636031D01*
X123777770Y-100590987D01*
X123791199Y-100537731D01*
X123797766Y-100484394D01*
X123799543Y-100433673D01*
X123799347Y-100416343D01*
X123796399Y-100367422D01*
X123788488Y-100316165D01*
X123773551Y-100265255D01*
X123749229Y-100217762D01*
X123739409Y-100204275D01*
X123701093Y-100168898D01*
X123654191Y-100148261D01*
X123604637Y-100142291D01*
X123593113Y-100142586D01*
X123540558Y-100152904D01*
X123496446Y-100177963D01*
X123460778Y-100217762D01*
X123451787Y-100232443D01*
X123432133Y-100277215D01*
X123418768Y-100330170D01*
X123412233Y-100383218D01*
X123410464Y-100433673D01*
X123277169Y-100433673D01*
X123278428Y-100388645D01*
X123283792Y-100333658D01*
X123293283Y-100283167D01*
X123310119Y-100228513D01*
X123332896Y-100180333D01*
X123361616Y-100138628D01*
X123402129Y-100098562D01*
X123449725Y-100068336D01*
X123496159Y-100050261D01*
X123547797Y-100039416D01*
X123604637Y-100035801D01*
X123614473Y-100035902D01*
G37*
G36*
X122831609Y-100418041D02*
G01*
X123105649Y-100051433D01*
X122966187Y-100051433D01*
X122763221Y-100330114D01*
X122561476Y-100051433D01*
X122420060Y-100051433D01*
X122694100Y-100419263D01*
X122393437Y-100817379D01*
X122539006Y-100817379D01*
X122763221Y-100511098D01*
X122986703Y-100817379D01*
X123132272Y-100817379D01*
X122831609Y-100418041D01*
G37*
G36*
X121923025Y-100833010D02*
G01*
X121970948Y-100822732D01*
X122001916Y-100800526D01*
X122027787Y-100757601D01*
X122033912Y-100715773D01*
X122024882Y-100666013D01*
X122001916Y-100631265D01*
X121958551Y-100603938D01*
X121923025Y-100598537D01*
X121872998Y-100610075D01*
X121844623Y-100631265D01*
X121818554Y-100673993D01*
X121812383Y-100715773D01*
X121821482Y-100765603D01*
X121844623Y-100800526D01*
X121887699Y-100827649D01*
X121923025Y-100833010D01*
G37*
D11*
G36*
X138739731Y-99263640D02*
G01*
X138838970Y-99259434D01*
X138954646Y-99242349D01*
X139061021Y-99212122D01*
X139158093Y-99168752D01*
X139245863Y-99112240D01*
X139324331Y-99042585D01*
X139366947Y-98994484D01*
X139429570Y-98904143D01*
X139481578Y-98802257D01*
X139522973Y-98688827D01*
X139548447Y-98589772D01*
X139567128Y-98483328D01*
X139579016Y-98369495D01*
X139584110Y-98248274D01*
X139584323Y-98216815D01*
X139580926Y-98093197D01*
X139570737Y-97977090D01*
X139553754Y-97868494D01*
X139529979Y-97767408D01*
X139499410Y-97673832D01*
X139451647Y-97567425D01*
X139393269Y-97472752D01*
X139366947Y-97438169D01*
X139294060Y-97360629D01*
X139211871Y-97296231D01*
X139120381Y-97244976D01*
X139019587Y-97206863D01*
X138909492Y-97181892D01*
X138790095Y-97170064D01*
X138739731Y-97169013D01*
X138637870Y-97173968D01*
X138540871Y-97188835D01*
X138514050Y-97194903D01*
X138417114Y-97225214D01*
X138325974Y-97266687D01*
X138314260Y-97273060D01*
X138314260Y-97740053D01*
X138389573Y-97671691D01*
X138424658Y-97645286D01*
X138508298Y-97594543D01*
X138516493Y-97590576D01*
X138609223Y-97557540D01*
X138618586Y-97555405D01*
X138716040Y-97544181D01*
X138719214Y-97544170D01*
X138822041Y-97554733D01*
X138921955Y-97591871D01*
X139005177Y-97655747D01*
X139051385Y-97713186D01*
X139100966Y-97809326D01*
X139132729Y-97909728D01*
X139151322Y-98007879D01*
X139161947Y-98117193D01*
X139164713Y-98216815D01*
X139161947Y-98316775D01*
X139151322Y-98426181D01*
X139132729Y-98524080D01*
X139100966Y-98623754D01*
X139051385Y-98718490D01*
X138979291Y-98800664D01*
X138890505Y-98855945D01*
X138785026Y-98884332D01*
X138719214Y-98888483D01*
X138621906Y-98879037D01*
X138527818Y-98850701D01*
X138515516Y-98845496D01*
X138426615Y-98798441D01*
X138420750Y-98794693D01*
X138339558Y-98734682D01*
X138314260Y-98713605D01*
X138314260Y-99163012D01*
X138406166Y-99204600D01*
X138502365Y-99235025D01*
X138515516Y-99238238D01*
X138617089Y-99256471D01*
X138717507Y-99263416D01*
X138739731Y-99263640D01*
G37*
G36*
X137451594Y-98443472D02*
G01*
X138082229Y-97200276D01*
X137647477Y-97200276D01*
X137250826Y-98034121D01*
X136852711Y-97200276D01*
X136417958Y-97200276D01*
X137048593Y-98443472D01*
X137048593Y-99232377D01*
X137451594Y-99232377D01*
X137451594Y-98443472D01*
G37*
G36*
X136237707Y-99232377D02*
G01*
X135580205Y-99232377D01*
X135507058Y-99231213D01*
X135393848Y-99224103D01*
X135291514Y-99210529D01*
X135183070Y-99185708D01*
X135090289Y-99151578D01*
X135001838Y-99099997D01*
X134960164Y-99064383D01*
X134893486Y-98978043D01*
X134853375Y-98885967D01*
X134830281Y-98778463D01*
X134824030Y-98674037D01*
X134826822Y-98615419D01*
X135232892Y-98615419D01*
X135234764Y-98663597D01*
X135254537Y-98760054D01*
X135309584Y-98842565D01*
X135384048Y-98882453D01*
X135480789Y-98902844D01*
X135580205Y-98908022D01*
X135847896Y-98908022D01*
X135847896Y-98306208D01*
X135580205Y-98306208D01*
X135503830Y-98309667D01*
X135404213Y-98329082D01*
X135313492Y-98378504D01*
X135278230Y-98420239D01*
X135242416Y-98512932D01*
X135232892Y-98615419D01*
X134826822Y-98615419D01*
X134828168Y-98587157D01*
X134846563Y-98483125D01*
X134884847Y-98382219D01*
X134941755Y-98298392D01*
X135008311Y-98238033D01*
X135100411Y-98186990D01*
X135197589Y-98156605D01*
X135294441Y-98141588D01*
X135270557Y-98139031D01*
X135171909Y-98118646D01*
X135079250Y-98078957D01*
X134997930Y-98014582D01*
X134985627Y-98000227D01*
X134932145Y-97910155D01*
X134904363Y-97811943D01*
X134899877Y-97755196D01*
X135297372Y-97755196D01*
X135297437Y-97763338D01*
X135313981Y-97861197D01*
X135361364Y-97927631D01*
X135383708Y-97943252D01*
X135477074Y-97974228D01*
X135580205Y-97981853D01*
X135847896Y-97981853D01*
X135847896Y-97524631D01*
X135580205Y-97524631D01*
X135538196Y-97525638D01*
X135441475Y-97540751D01*
X135362829Y-97579829D01*
X135311755Y-97657544D01*
X135297372Y-97755196D01*
X134899877Y-97755196D01*
X134896325Y-97710255D01*
X134896492Y-97694472D01*
X134907011Y-97590881D01*
X134939068Y-97487261D01*
X134992496Y-97399395D01*
X135067295Y-97327282D01*
X135162917Y-97271717D01*
X135264417Y-97236121D01*
X135364663Y-97215284D01*
X135477137Y-97203377D01*
X135580205Y-97200276D01*
X136237707Y-97200276D01*
X136237707Y-99232377D01*
G37*
G36*
X134494790Y-97200276D02*
G01*
X133223262Y-97200276D01*
X133223262Y-97544170D01*
X134091301Y-97544170D01*
X134091301Y-97981853D01*
X133305328Y-97981853D01*
X133305328Y-98325747D01*
X134091301Y-98325747D01*
X134091301Y-98888483D01*
X133223262Y-98888483D01*
X133223262Y-99232377D01*
X134494790Y-99232377D01*
X134494790Y-97200276D01*
G37*
G36*
X132858363Y-99232377D02*
G01*
X132454874Y-99232377D01*
X132454874Y-98419536D01*
X132326402Y-98419536D01*
X132275639Y-98426290D01*
X132189626Y-98476689D01*
X132178382Y-98487946D01*
X132119138Y-98566257D01*
X132071901Y-98652544D01*
X132043569Y-98713116D01*
X131797372Y-99232377D01*
X131354316Y-99232377D01*
X131723611Y-98499159D01*
X131736176Y-98474590D01*
X131784672Y-98388762D01*
X131831566Y-98326236D01*
X131847761Y-98311758D01*
X131936591Y-98270060D01*
X131858402Y-98255077D01*
X131762690Y-98219257D01*
X131715977Y-98190800D01*
X131641545Y-98122049D01*
X131603592Y-98068182D01*
X131564365Y-97978434D01*
X131544545Y-97882521D01*
X131540463Y-97809418D01*
X131956130Y-97809418D01*
X131957042Y-97844633D01*
X131975181Y-97945217D01*
X132026960Y-98027771D01*
X132068940Y-98057263D01*
X132162030Y-98087216D01*
X132264853Y-98095182D01*
X132454874Y-98095182D01*
X132454874Y-97524631D01*
X132264853Y-97524631D01*
X132215382Y-97526241D01*
X132115239Y-97543242D01*
X132026960Y-97590576D01*
X132006555Y-97612920D01*
X131966091Y-97706286D01*
X131956130Y-97809418D01*
X131540463Y-97809418D01*
X131538963Y-97782551D01*
X131540997Y-97719456D01*
X131553946Y-97619015D01*
X131581462Y-97521211D01*
X131589729Y-97500348D01*
X131638642Y-97413207D01*
X131709933Y-97338517D01*
X131744122Y-97313812D01*
X131839058Y-97265617D01*
X131937323Y-97234836D01*
X132051182Y-97213776D01*
X132157977Y-97203651D01*
X132275600Y-97200276D01*
X132858363Y-97200276D01*
X132858363Y-99232377D01*
G37*
G36*
X131107142Y-97200276D02*
G01*
X129835614Y-97200276D01*
X129835614Y-97544170D01*
X130703653Y-97544170D01*
X130703653Y-98013116D01*
X129913283Y-98013116D01*
X129913283Y-98357010D01*
X130703653Y-98357010D01*
X130703653Y-99232377D01*
X131107142Y-99232377D01*
X131107142Y-97200276D01*
G37*
G36*
X128930532Y-97175167D02*
G01*
X129035128Y-97196151D01*
X129132683Y-97232028D01*
X129221694Y-97283961D01*
X129300663Y-97353788D01*
X129363736Y-97432795D01*
X129374946Y-97449857D01*
X129425658Y-97542367D01*
X129467472Y-97646874D01*
X129500390Y-97763378D01*
X129520319Y-97865220D01*
X129534554Y-97974740D01*
X129543095Y-98091938D01*
X129545942Y-98216815D01*
X129545764Y-98248960D01*
X129541493Y-98372589D01*
X129531529Y-98488295D01*
X129515871Y-98596079D01*
X129494518Y-98695940D01*
X129459821Y-98809625D01*
X129416227Y-98910930D01*
X129363736Y-98999857D01*
X129305519Y-99073512D01*
X129231121Y-99141308D01*
X129145872Y-99195252D01*
X129129179Y-99203533D01*
X129030003Y-99239530D01*
X128929024Y-99258230D01*
X128829333Y-99263640D01*
X128817933Y-99263573D01*
X128709283Y-99255559D01*
X128610365Y-99234187D01*
X128512794Y-99195252D01*
X128433931Y-99146642D01*
X128357539Y-99079616D01*
X128291999Y-98998392D01*
X128280909Y-98981510D01*
X128230742Y-98889799D01*
X128189375Y-98785924D01*
X128156810Y-98669885D01*
X128137095Y-98568295D01*
X128123013Y-98458920D01*
X128114564Y-98341760D01*
X128111748Y-98216815D01*
X128111753Y-98215838D01*
X128531357Y-98215838D01*
X128532464Y-98302284D01*
X128538274Y-98419990D01*
X128549064Y-98523340D01*
X128567948Y-98625768D01*
X128602187Y-98728748D01*
X128648989Y-98805963D01*
X128732188Y-98869608D01*
X128829333Y-98888483D01*
X128917699Y-98872883D01*
X129002330Y-98812983D01*
X129055014Y-98728748D01*
X129086002Y-98638805D01*
X129105854Y-98539169D01*
X129117474Y-98438212D01*
X129124115Y-98322899D01*
X129125844Y-98215838D01*
X129124737Y-98129620D01*
X129118927Y-98012200D01*
X129108136Y-97909069D01*
X129089253Y-97806807D01*
X129055014Y-97703905D01*
X129013614Y-97634021D01*
X128932739Y-97566633D01*
X128829333Y-97544170D01*
X128740194Y-97559769D01*
X128655014Y-97619670D01*
X128602187Y-97703905D01*
X128571199Y-97793786D01*
X128551347Y-97893269D01*
X128539726Y-97994019D01*
X128533086Y-98109058D01*
X128531357Y-98215838D01*
X128111753Y-98215838D01*
X128111924Y-98184700D01*
X128116148Y-98061181D01*
X128126006Y-97945571D01*
X128141496Y-97837867D01*
X128162619Y-97738071D01*
X128196944Y-97624446D01*
X128240071Y-97523176D01*
X128291999Y-97434261D01*
X128340466Y-97372093D01*
X128423184Y-97294384D01*
X128517923Y-97235325D01*
X128624684Y-97194916D01*
X128722835Y-97175489D01*
X128829333Y-97169013D01*
X128930532Y-97175167D01*
G37*
G36*
X127351664Y-98200695D02*
G01*
X127933939Y-97200276D01*
X127516772Y-97200276D01*
X127145034Y-97866082D01*
X126771831Y-97200276D01*
X126354665Y-97200276D01*
X126934497Y-98214861D01*
X126338545Y-99232377D01*
X126755223Y-99232377D01*
X127145034Y-98569501D01*
X127533381Y-99232377D01*
X127950059Y-99232377D01*
X127351664Y-98200695D01*
G37*
G36*
X126000512Y-98200695D02*
G01*
X124919494Y-98200695D01*
X124919494Y-98607115D01*
X126000512Y-98607115D01*
X126000512Y-98200695D01*
G37*
G36*
X123669113Y-97170028D02*
G01*
X123787273Y-97181448D01*
X123895773Y-97205558D01*
X123994612Y-97242356D01*
X124083792Y-97291844D01*
X124163312Y-97354021D01*
X124233171Y-97428887D01*
X124272372Y-97483361D01*
X124322930Y-97573573D01*
X124363597Y-97673985D01*
X124391441Y-97771804D01*
X124402660Y-97823614D01*
X124420612Y-97933279D01*
X124431411Y-98035848D01*
X124437629Y-98144588D01*
X124439312Y-98242704D01*
X124439156Y-98273929D01*
X124436144Y-98379730D01*
X124429298Y-98480109D01*
X124416781Y-98588186D01*
X124399256Y-98689180D01*
X124388342Y-98736800D01*
X124358091Y-98836745D01*
X124319958Y-98926720D01*
X124268342Y-99015000D01*
X124209352Y-99088617D01*
X124134435Y-99154167D01*
X124049012Y-99203556D01*
X124040723Y-99207252D01*
X123943499Y-99240169D01*
X123845497Y-99257772D01*
X123738335Y-99263640D01*
X123624968Y-99257062D01*
X123521906Y-99237330D01*
X123429147Y-99204443D01*
X123333951Y-99149449D01*
X123252780Y-99076550D01*
X123212999Y-99026816D01*
X123163517Y-98942483D01*
X123126263Y-98846473D01*
X123102623Y-98749648D01*
X123088796Y-98645896D01*
X123085748Y-98570478D01*
X123467226Y-98570478D01*
X123471591Y-98654773D01*
X123491852Y-98753230D01*
X123537079Y-98843542D01*
X123546589Y-98855800D01*
X123625984Y-98916815D01*
X123642403Y-98923288D01*
X123739312Y-98939285D01*
X123754539Y-98938934D01*
X123852152Y-98916815D01*
X123864731Y-98910777D01*
X123939103Y-98845007D01*
X123952744Y-98824224D01*
X123990394Y-98731679D01*
X124002412Y-98671921D01*
X124008956Y-98569501D01*
X124004590Y-98485665D01*
X123984330Y-98386940D01*
X123939103Y-98294972D01*
X123934951Y-98289435D01*
X123858014Y-98225607D01*
X123839009Y-98217141D01*
X123740778Y-98200695D01*
X123708316Y-98202191D01*
X123610449Y-98230988D01*
X123537079Y-98296438D01*
X123497309Y-98371796D01*
X123474047Y-98466895D01*
X123467226Y-98570478D01*
X123085748Y-98570478D01*
X123084741Y-98545566D01*
X123090031Y-98429405D01*
X123105899Y-98323824D01*
X123132346Y-98228821D01*
X123176571Y-98131355D01*
X123235195Y-98048287D01*
X123274083Y-98007987D01*
X123363903Y-97943507D01*
X123455669Y-97904718D01*
X123559731Y-97882385D01*
X123658712Y-97876340D01*
X123695348Y-97877134D01*
X123793534Y-97889041D01*
X123800921Y-97890594D01*
X123896605Y-97920304D01*
X123908637Y-97925696D01*
X123991341Y-97979034D01*
X124060736Y-98055126D01*
X124059378Y-98020565D01*
X124045723Y-97893291D01*
X124018910Y-97783573D01*
X123978938Y-97691409D01*
X123910469Y-97600892D01*
X123821440Y-97537803D01*
X123711850Y-97502145D01*
X123609375Y-97493367D01*
X123512899Y-97500817D01*
X123416912Y-97523165D01*
X123397665Y-97529197D01*
X123301043Y-97567215D01*
X123210282Y-97614512D01*
X123210282Y-97250590D01*
X123223277Y-97245543D01*
X123320005Y-97212921D01*
X123415446Y-97189529D01*
X123421442Y-97188267D01*
X123520620Y-97173521D01*
X123619145Y-97169013D01*
X123669113Y-97170028D01*
G37*
G36*
X122132530Y-97884599D02*
G01*
X122149291Y-97982830D01*
X122153108Y-98014979D01*
X122160526Y-98116187D01*
X122162969Y-98211930D01*
X122162838Y-98224824D01*
X122157596Y-98323305D01*
X122155581Y-98349711D01*
X122146849Y-98447868D01*
X122144712Y-98463195D01*
X122126332Y-98560220D01*
X122090673Y-98610534D01*
X122048541Y-98546420D01*
X122032055Y-98446403D01*
X122028299Y-98412698D01*
X122021796Y-98311581D01*
X122019843Y-98220234D01*
X122019885Y-98212990D01*
X122024727Y-98113744D01*
X122026698Y-98083744D01*
X122034497Y-97985761D01*
X122037259Y-97963953D01*
X122057944Y-97868036D01*
X122093604Y-97821630D01*
X122132530Y-97884599D01*
G37*
G36*
X122133669Y-97170032D02*
G01*
X122250316Y-97185316D01*
X122355045Y-97218942D01*
X122447855Y-97270908D01*
X122528747Y-97341216D01*
X122597721Y-97429864D01*
X122608090Y-97446456D01*
X122654994Y-97537157D01*
X122693670Y-97640763D01*
X122724117Y-97757272D01*
X122742549Y-97859770D01*
X122755716Y-97970526D01*
X122763615Y-98089541D01*
X122766249Y-98216815D01*
X122766084Y-98249287D01*
X122762134Y-98374041D01*
X122752918Y-98490583D01*
X122738435Y-98598913D01*
X122718686Y-98699029D01*
X122686593Y-98812626D01*
X122646272Y-98913391D01*
X122597721Y-99001323D01*
X122564711Y-99048202D01*
X122489675Y-99128126D01*
X122402618Y-99189607D01*
X122303539Y-99232643D01*
X122192439Y-99257235D01*
X122090673Y-99263640D01*
X121970202Y-99254439D01*
X121861581Y-99226837D01*
X121764809Y-99180834D01*
X121679887Y-99116430D01*
X121606815Y-99033624D01*
X121545592Y-98932418D01*
X121496218Y-98812810D01*
X121458695Y-98674801D01*
X121440262Y-98572572D01*
X121427096Y-98462164D01*
X121419196Y-98343579D01*
X121416563Y-98216815D01*
X121822983Y-98216815D01*
X121823045Y-98240066D01*
X121825233Y-98350458D01*
X121830544Y-98451069D01*
X121841043Y-98558895D01*
X121858978Y-98666893D01*
X121886974Y-98766850D01*
X121923977Y-98842290D01*
X121997342Y-98915036D01*
X122092138Y-98939285D01*
X122171851Y-98922446D01*
X122248238Y-98857782D01*
X122295837Y-98766850D01*
X122299774Y-98755724D01*
X122326770Y-98652638D01*
X122343831Y-98541902D01*
X122353579Y-98431729D01*
X122358266Y-98329162D01*
X122359829Y-98216815D01*
X122359766Y-98193503D01*
X122357579Y-98082840D01*
X122352267Y-97982004D01*
X122341768Y-97873972D01*
X122323833Y-97765820D01*
X122295837Y-97665803D01*
X122264051Y-97598614D01*
X122192919Y-97521826D01*
X122092138Y-97493367D01*
X122011653Y-97510207D01*
X121934716Y-97574870D01*
X121886974Y-97665803D01*
X121883037Y-97676929D01*
X121856041Y-97780091D01*
X121838981Y-97890995D01*
X121829232Y-98001385D01*
X121824545Y-98104186D01*
X121822983Y-98216815D01*
X121416563Y-98216815D01*
X121416727Y-98184222D01*
X121420677Y-98059013D01*
X121429894Y-97942063D01*
X121444376Y-97833371D01*
X121464126Y-97732938D01*
X121496218Y-97619009D01*
X121536540Y-97517985D01*
X121585090Y-97429864D01*
X121618100Y-97383247D01*
X121693136Y-97303769D01*
X121780194Y-97242632D01*
X121879272Y-97199836D01*
X121990372Y-97175381D01*
X122092138Y-97169013D01*
X122133669Y-97170032D01*
G37*
D10*
G36*
X145775292Y-101301329D02*
G01*
X145636562Y-101301329D01*
X145636562Y-102210890D01*
X145143680Y-102210890D01*
X145143680Y-102317380D01*
X145775292Y-102317380D01*
X145775292Y-101301329D01*
G37*
G36*
X144722606Y-101410750D02*
G01*
X144743122Y-101390722D01*
X144743122Y-101274463D01*
X144722606Y-101254435D01*
X144624176Y-101254435D01*
X144603659Y-101274463D01*
X144603659Y-101390722D01*
X144624176Y-101410750D01*
X144722606Y-101410750D01*
G37*
G36*
X144493017Y-102317380D02*
G01*
X144546247Y-102312922D01*
X144598503Y-102297251D01*
X144642684Y-102270298D01*
X144667651Y-102246061D01*
X144697522Y-102201346D01*
X144715867Y-102153878D01*
X144726488Y-102099145D01*
X144729444Y-102045293D01*
X144729444Y-101657924D01*
X144896995Y-101657924D01*
X144896995Y-101551434D01*
X144603659Y-101551434D01*
X144603659Y-102041385D01*
X144599965Y-102093523D01*
X144586074Y-102143234D01*
X144572396Y-102167414D01*
X144533684Y-102200021D01*
X144484303Y-102210847D01*
X144480561Y-102210890D01*
X144333771Y-102210890D01*
X144333771Y-102317380D01*
X144493017Y-102317380D01*
G37*
G36*
X143756137Y-102333011D02*
G01*
X143807196Y-102330592D01*
X143861055Y-102321902D01*
X143910121Y-102306893D01*
X143954394Y-102285563D01*
X143959591Y-102282453D01*
X144002702Y-102250884D01*
X144039438Y-102213055D01*
X144069799Y-102168967D01*
X144083911Y-102141769D01*
X144102290Y-102095012D01*
X144115418Y-102044866D01*
X144123295Y-101991331D01*
X144125879Y-101941708D01*
X144125920Y-101934407D01*
X144123898Y-101884151D01*
X144116636Y-101830036D01*
X144104092Y-101779462D01*
X144086266Y-101732430D01*
X144083666Y-101726800D01*
X144056593Y-101679353D01*
X144023182Y-101638126D01*
X143983434Y-101603120D01*
X143958614Y-101586361D01*
X143914742Y-101564241D01*
X143865924Y-101548442D01*
X143812160Y-101538962D01*
X143761059Y-101535852D01*
X143753450Y-101535802D01*
X143703751Y-101538261D01*
X143654918Y-101546409D01*
X143638656Y-101550701D01*
X143590088Y-101567660D01*
X143543886Y-101589298D01*
X143533876Y-101594665D01*
X143533876Y-101729243D01*
X143573407Y-101696955D01*
X143616069Y-101670748D01*
X143631329Y-101663541D01*
X143680076Y-101648289D01*
X143730899Y-101642479D01*
X143742459Y-101642292D01*
X143791435Y-101645403D01*
X143843267Y-101657653D01*
X143889738Y-101681615D01*
X143926660Y-101714771D01*
X143954996Y-101755621D01*
X143969116Y-101787128D01*
X143982883Y-101834394D01*
X143990935Y-101885181D01*
X143993296Y-101934407D01*
X143990911Y-101983293D01*
X143982778Y-102033983D01*
X143968872Y-102081441D01*
X143946146Y-102127603D01*
X143914971Y-102166071D01*
X143889493Y-102187442D01*
X143843274Y-102211256D01*
X143791794Y-102223430D01*
X143743192Y-102226521D01*
X143692041Y-102222781D01*
X143644163Y-102211561D01*
X143631084Y-102206982D01*
X143586873Y-102185537D01*
X143545279Y-102155397D01*
X143533876Y-102145188D01*
X143533876Y-102274393D01*
X143577904Y-102297233D01*
X143624503Y-102314464D01*
X143673674Y-102326084D01*
X143725416Y-102332095D01*
X143756137Y-102333011D01*
G37*
G36*
X143006049Y-101538385D02*
G01*
X143057756Y-101547663D01*
X143104792Y-101563687D01*
X143152124Y-101589780D01*
X143180343Y-101611261D01*
X143217551Y-101648473D01*
X143248615Y-101691675D01*
X143271070Y-101735105D01*
X143288595Y-101782243D01*
X143301112Y-101832069D01*
X143308623Y-101884581D01*
X143311126Y-101939780D01*
X143309550Y-101984190D01*
X143303147Y-102036322D01*
X143291819Y-102084697D01*
X143271723Y-102137788D01*
X143244535Y-102185470D01*
X143210254Y-102227742D01*
X143183845Y-102252415D01*
X143139767Y-102283255D01*
X143090331Y-102306694D01*
X143035536Y-102322731D01*
X142985781Y-102330441D01*
X142932306Y-102333011D01*
X142897684Y-102332019D01*
X142846439Y-102326810D01*
X142796018Y-102317135D01*
X142762786Y-102308419D01*
X142713338Y-102292883D01*
X142664371Y-102274393D01*
X142664371Y-102153004D01*
X142695787Y-102167704D01*
X142743941Y-102187637D01*
X142793331Y-102205028D01*
X142826945Y-102214431D01*
X142878397Y-102223499D01*
X142931084Y-102226521D01*
X142975134Y-102224117D01*
X143027295Y-102213431D01*
X143076999Y-102191192D01*
X143117197Y-102158133D01*
X143141656Y-102125969D01*
X143164275Y-102078022D01*
X143176045Y-102029173D01*
X143179968Y-101974463D01*
X143179968Y-101970555D01*
X142635062Y-101970555D01*
X142635062Y-101908517D01*
X142635805Y-101876395D01*
X142636912Y-101864065D01*
X142760847Y-101864065D01*
X143175083Y-101864065D01*
X143173068Y-101848853D01*
X143161207Y-101798377D01*
X143141866Y-101752202D01*
X143138489Y-101745992D01*
X143108118Y-101704533D01*
X143068837Y-101672090D01*
X143050453Y-101661963D01*
X143001346Y-101646483D01*
X142952333Y-101642292D01*
X142935477Y-101642754D01*
X142886544Y-101650633D01*
X142841203Y-101671846D01*
X142804933Y-101706406D01*
X142780142Y-101751469D01*
X142775620Y-101764234D01*
X142764540Y-101811859D01*
X142760847Y-101864065D01*
X142636912Y-101864065D01*
X142640344Y-101825826D01*
X142651237Y-101770038D01*
X142668073Y-101719591D01*
X142690851Y-101674486D01*
X142719570Y-101634721D01*
X142753590Y-101601104D01*
X142799402Y-101570675D01*
X142851805Y-101549713D01*
X142901968Y-101539280D01*
X142956974Y-101535802D01*
X143006049Y-101538385D01*
G37*
G36*
X142420373Y-101551434D02*
G01*
X142307044Y-101551434D01*
X142294587Y-101668670D01*
X142265693Y-101623516D01*
X142230668Y-101587704D01*
X142189513Y-101561234D01*
X142142226Y-101544107D01*
X142088808Y-101536321D01*
X142069640Y-101535802D01*
X142014685Y-101540626D01*
X141967058Y-101555098D01*
X141917828Y-101586754D01*
X141880046Y-101633484D01*
X141858064Y-101681722D01*
X141843410Y-101739608D01*
X141837227Y-101789353D01*
X141835167Y-101844525D01*
X141835167Y-102317380D01*
X141961684Y-102317380D01*
X141961684Y-101842816D01*
X141964525Y-101789029D01*
X141974342Y-101739417D01*
X141995379Y-101693988D01*
X141997588Y-101690897D01*
X142036531Y-101657671D01*
X142086170Y-101643479D01*
X142108719Y-101642292D01*
X142160687Y-101648470D01*
X142208486Y-101669536D01*
X142246472Y-101705551D01*
X142271845Y-101750192D01*
X142286646Y-101799098D01*
X142293413Y-101849511D01*
X142294587Y-101884337D01*
X142294587Y-102317380D01*
X142420373Y-102317380D01*
X142420373Y-101551434D01*
G37*
G36*
X141308823Y-102333011D02*
G01*
X141358530Y-102330697D01*
X141411906Y-102323755D01*
X141460578Y-102314120D01*
X141511947Y-102301086D01*
X141566011Y-102284651D01*
X141566011Y-102155202D01*
X141513263Y-102179440D01*
X141462731Y-102198662D01*
X141414414Y-102212870D01*
X141360844Y-102223108D01*
X141310289Y-102226521D01*
X141259161Y-102222625D01*
X141212009Y-102209487D01*
X141182550Y-102193548D01*
X141148189Y-102157524D01*
X141134725Y-102108332D01*
X141134678Y-102104888D01*
X141147352Y-102056708D01*
X141174734Y-102027463D01*
X141218732Y-102003921D01*
X141266158Y-101988376D01*
X141302229Y-101979836D01*
X141354741Y-101969089D01*
X141405116Y-101956480D01*
X141453176Y-101938135D01*
X141495880Y-101912585D01*
X141513010Y-101897770D01*
X141543670Y-101855352D01*
X141559344Y-101807598D01*
X141563324Y-101762216D01*
X141558623Y-101710894D01*
X141542093Y-101660675D01*
X141513663Y-101618416D01*
X141488098Y-101594665D01*
X141446515Y-101568913D01*
X141396995Y-101550518D01*
X141347153Y-101540459D01*
X141291234Y-101536032D01*
X141274141Y-101535802D01*
X141223010Y-101538023D01*
X141172627Y-101544685D01*
X141122993Y-101555788D01*
X141074106Y-101571332D01*
X141046507Y-101582209D01*
X141046507Y-101705795D01*
X141093884Y-101681052D01*
X141142196Y-101662385D01*
X141191444Y-101649796D01*
X141241626Y-101643285D01*
X141270721Y-101642292D01*
X141326915Y-101646216D01*
X141377781Y-101660714D01*
X141419926Y-101695050D01*
X141435912Y-101747044D01*
X141436074Y-101753911D01*
X141426722Y-101803052D01*
X141421908Y-101811553D01*
X141381400Y-101841729D01*
X141367197Y-101847456D01*
X141317128Y-101862172D01*
X141267073Y-101873609D01*
X141248007Y-101877498D01*
X141197449Y-101887024D01*
X141142706Y-101901809D01*
X141097242Y-101922964D01*
X141054933Y-101956755D01*
X141025984Y-101999717D01*
X141010397Y-102051849D01*
X141007428Y-102091699D01*
X141012480Y-102144791D01*
X141027639Y-102191961D01*
X141056771Y-102237947D01*
X141088272Y-102268531D01*
X141132282Y-102296741D01*
X141183710Y-102316891D01*
X141234796Y-102327911D01*
X141291561Y-102332759D01*
X141308823Y-102333011D01*
G37*
G36*
X140479601Y-101538385D02*
G01*
X140531308Y-101547663D01*
X140578344Y-101563687D01*
X140625676Y-101589780D01*
X140653895Y-101611261D01*
X140691103Y-101648473D01*
X140722167Y-101691675D01*
X140744622Y-101735105D01*
X140762147Y-101782243D01*
X140774664Y-101832069D01*
X140782175Y-101884581D01*
X140784678Y-101939780D01*
X140783102Y-101984190D01*
X140776699Y-102036322D01*
X140765371Y-102084697D01*
X140745275Y-102137788D01*
X140718087Y-102185470D01*
X140683806Y-102227742D01*
X140657397Y-102252415D01*
X140613319Y-102283255D01*
X140563883Y-102306694D01*
X140509088Y-102322731D01*
X140459333Y-102330441D01*
X140405858Y-102333011D01*
X140371236Y-102332019D01*
X140319991Y-102326810D01*
X140269570Y-102317135D01*
X140236338Y-102308419D01*
X140186890Y-102292883D01*
X140137923Y-102274393D01*
X140137923Y-102153004D01*
X140169339Y-102167704D01*
X140217493Y-102187637D01*
X140266883Y-102205028D01*
X140300497Y-102214431D01*
X140351949Y-102223499D01*
X140404636Y-102226521D01*
X140448686Y-102224117D01*
X140500847Y-102213431D01*
X140550551Y-102191192D01*
X140590749Y-102158133D01*
X140615208Y-102125969D01*
X140637827Y-102078022D01*
X140649597Y-102029173D01*
X140653520Y-101974463D01*
X140653520Y-101970555D01*
X140108614Y-101970555D01*
X140108614Y-101908517D01*
X140109357Y-101876395D01*
X140110464Y-101864065D01*
X140234399Y-101864065D01*
X140648635Y-101864065D01*
X140646620Y-101848853D01*
X140634759Y-101798377D01*
X140615418Y-101752202D01*
X140612041Y-101745992D01*
X140581670Y-101704533D01*
X140542389Y-101672090D01*
X140524005Y-101661963D01*
X140474898Y-101646483D01*
X140425885Y-101642292D01*
X140409029Y-101642754D01*
X140360096Y-101650633D01*
X140314755Y-101671846D01*
X140278485Y-101706406D01*
X140253694Y-101751469D01*
X140249172Y-101764234D01*
X140238092Y-101811859D01*
X140234399Y-101864065D01*
X140110464Y-101864065D01*
X140113896Y-101825826D01*
X140124789Y-101770038D01*
X140141625Y-101719591D01*
X140164403Y-101674486D01*
X140193122Y-101634721D01*
X140227142Y-101601104D01*
X140272954Y-101570675D01*
X140325357Y-101549713D01*
X140375520Y-101539280D01*
X140430526Y-101535802D01*
X140479601Y-101538385D01*
G37*
G36*
X139440854Y-101656214D02*
G01*
X139453359Y-101634267D01*
X139485815Y-101594490D01*
X139525606Y-101565356D01*
X139546054Y-101555312D01*
X139593657Y-101540680D01*
X139645774Y-101535802D01*
X139679086Y-101537455D01*
X139733140Y-101548299D01*
X139781795Y-101569265D01*
X139825050Y-101600351D01*
X139862906Y-101641560D01*
X139881739Y-101669186D01*
X139905281Y-101715076D01*
X139923173Y-101766307D01*
X139935414Y-101822878D01*
X139941300Y-101874101D01*
X139943262Y-101929033D01*
X139941807Y-101974276D01*
X139936845Y-102023822D01*
X139928363Y-102073137D01*
X139919631Y-102108033D01*
X139902183Y-102157515D01*
X139879514Y-102203562D01*
X139861120Y-102231528D01*
X139828204Y-102267981D01*
X139788900Y-102297840D01*
X139746630Y-102317864D01*
X139698068Y-102329576D01*
X139648460Y-102333011D01*
X139614602Y-102331198D01*
X139560787Y-102319302D01*
X139513890Y-102296303D01*
X139473913Y-102262201D01*
X139440854Y-102216996D01*
X139428398Y-102317380D01*
X139315069Y-102317380D01*
X139315069Y-101933674D01*
X139440854Y-101933674D01*
X139442564Y-101981423D01*
X139447693Y-102031371D01*
X139457707Y-102080769D01*
X139474071Y-102126870D01*
X139494274Y-102162420D01*
X139530003Y-102198922D01*
X139575340Y-102220457D01*
X139625990Y-102226521D01*
X139677167Y-102220349D01*
X139722710Y-102198433D01*
X139753139Y-102168559D01*
X139778153Y-102126137D01*
X139793968Y-102080220D01*
X139803799Y-102030883D01*
X139808708Y-101983978D01*
X139810638Y-101933674D01*
X139808928Y-101886596D01*
X139803799Y-101837198D01*
X139794758Y-101791020D01*
X139778153Y-101742188D01*
X139758285Y-101706518D01*
X139722710Y-101670136D01*
X139677167Y-101648410D01*
X139625990Y-101642292D01*
X139575340Y-101648410D01*
X139530003Y-101670136D01*
X139499466Y-101699713D01*
X139474071Y-101742188D01*
X139457707Y-101788044D01*
X139447693Y-101837198D01*
X139442784Y-101883577D01*
X139440854Y-101933674D01*
X139315069Y-101933674D01*
X139315069Y-101254435D01*
X139440854Y-101254435D01*
X139440854Y-101656214D01*
G37*
G36*
X137976618Y-102333011D02*
G01*
X138031229Y-102328187D01*
X138078559Y-102313716D01*
X138127482Y-102282060D01*
X138165027Y-102235329D01*
X138186871Y-102187091D01*
X138201434Y-102129206D01*
X138207578Y-102079460D01*
X138209626Y-102024288D01*
X138209626Y-101551434D01*
X138083841Y-101551434D01*
X138083841Y-102025998D01*
X138080186Y-102083766D01*
X138069220Y-102131743D01*
X138046411Y-102176390D01*
X138006495Y-102210659D01*
X137952250Y-102225738D01*
X137934120Y-102226521D01*
X137883335Y-102220344D01*
X137836397Y-102199278D01*
X137798809Y-102163262D01*
X137773565Y-102118621D01*
X137758838Y-102069716D01*
X137752107Y-102019303D01*
X137750938Y-101984476D01*
X137750938Y-101551434D01*
X137624420Y-101551434D01*
X137624420Y-102317380D01*
X137738726Y-102317380D01*
X137750938Y-102201364D01*
X137779709Y-102246104D01*
X137814731Y-102281586D01*
X137856004Y-102307813D01*
X137903529Y-102324783D01*
X137957304Y-102332497D01*
X137976618Y-102333011D01*
G37*
G36*
X137367477Y-101551434D02*
G01*
X137254148Y-101551434D01*
X137241691Y-101668670D01*
X137212797Y-101623516D01*
X137177772Y-101587704D01*
X137136616Y-101561234D01*
X137089330Y-101544107D01*
X137035912Y-101536321D01*
X137016744Y-101535802D01*
X136961789Y-101540626D01*
X136914162Y-101555098D01*
X136864932Y-101586754D01*
X136827150Y-101633484D01*
X136805168Y-101681722D01*
X136790514Y-101739608D01*
X136784331Y-101789353D01*
X136782271Y-101844525D01*
X136782271Y-102317380D01*
X136908788Y-102317380D01*
X136908788Y-101842816D01*
X136911629Y-101789029D01*
X136921446Y-101739417D01*
X136942483Y-101693988D01*
X136944692Y-101690897D01*
X136983635Y-101657671D01*
X137033274Y-101643479D01*
X137055823Y-101642292D01*
X137107791Y-101648470D01*
X137155590Y-101669536D01*
X137193576Y-101705551D01*
X137218949Y-101750192D01*
X137233750Y-101799098D01*
X137240517Y-101849511D01*
X137241691Y-101884337D01*
X137241691Y-102317380D01*
X137367477Y-102317380D01*
X137367477Y-101551434D01*
G37*
G36*
X136072257Y-101656214D02*
G01*
X136084762Y-101634267D01*
X136117217Y-101594490D01*
X136157009Y-101565356D01*
X136177457Y-101555312D01*
X136225059Y-101540680D01*
X136277176Y-101535802D01*
X136310489Y-101537455D01*
X136364543Y-101548299D01*
X136413198Y-101569265D01*
X136456453Y-101600351D01*
X136494308Y-101641560D01*
X136513142Y-101669186D01*
X136536684Y-101715076D01*
X136554575Y-101766307D01*
X136566817Y-101822878D01*
X136572702Y-101874101D01*
X136574664Y-101929033D01*
X136573209Y-101974276D01*
X136568248Y-102023822D01*
X136559765Y-102073137D01*
X136551034Y-102108033D01*
X136533586Y-102157515D01*
X136510917Y-102203562D01*
X136492522Y-102231528D01*
X136459607Y-102267981D01*
X136420303Y-102297840D01*
X136378032Y-102317864D01*
X136329470Y-102329576D01*
X136279863Y-102333011D01*
X136246005Y-102331198D01*
X136192189Y-102319302D01*
X136145293Y-102296303D01*
X136105315Y-102262201D01*
X136072257Y-102216996D01*
X136059800Y-102317380D01*
X135946472Y-102317380D01*
X135946472Y-101933674D01*
X136072257Y-101933674D01*
X136073966Y-101981423D01*
X136079096Y-102031371D01*
X136089109Y-102080769D01*
X136105474Y-102126870D01*
X136125676Y-102162420D01*
X136161405Y-102198922D01*
X136206742Y-102220457D01*
X136257393Y-102226521D01*
X136308569Y-102220349D01*
X136354113Y-102198433D01*
X136384542Y-102168559D01*
X136409556Y-102126137D01*
X136425371Y-102080220D01*
X136435202Y-102030883D01*
X136440110Y-101983978D01*
X136442040Y-101933674D01*
X136440331Y-101886596D01*
X136435202Y-101837198D01*
X136426161Y-101791020D01*
X136409556Y-101742188D01*
X136389688Y-101706518D01*
X136354113Y-101670136D01*
X136308569Y-101648410D01*
X136257393Y-101642292D01*
X136206742Y-101648410D01*
X136161405Y-101670136D01*
X136130869Y-101699713D01*
X136105474Y-101742188D01*
X136089109Y-101788044D01*
X136079096Y-101837198D01*
X136074187Y-101883577D01*
X136072257Y-101933674D01*
X135946472Y-101933674D01*
X135946472Y-101254435D01*
X136072257Y-101254435D01*
X136072257Y-101656214D01*
G37*
G36*
X135426705Y-101538385D02*
G01*
X135478412Y-101547663D01*
X135525448Y-101563687D01*
X135572780Y-101589780D01*
X135600999Y-101611261D01*
X135638207Y-101648473D01*
X135669271Y-101691675D01*
X135691726Y-101735105D01*
X135709251Y-101782243D01*
X135721768Y-101832069D01*
X135729279Y-101884581D01*
X135731782Y-101939780D01*
X135730206Y-101984190D01*
X135723803Y-102036322D01*
X135712475Y-102084697D01*
X135692379Y-102137788D01*
X135665191Y-102185470D01*
X135630910Y-102227742D01*
X135604501Y-102252415D01*
X135560423Y-102283255D01*
X135510987Y-102306694D01*
X135456192Y-102322731D01*
X135406437Y-102330441D01*
X135352962Y-102333011D01*
X135318340Y-102332019D01*
X135267095Y-102326810D01*
X135216674Y-102317135D01*
X135183442Y-102308419D01*
X135133994Y-102292883D01*
X135085027Y-102274393D01*
X135085027Y-102153004D01*
X135116443Y-102167704D01*
X135164597Y-102187637D01*
X135213987Y-102205028D01*
X135247601Y-102214431D01*
X135299053Y-102223499D01*
X135351740Y-102226521D01*
X135395790Y-102224117D01*
X135447951Y-102213431D01*
X135497655Y-102191192D01*
X135537853Y-102158133D01*
X135562312Y-102125969D01*
X135584931Y-102078022D01*
X135596701Y-102029173D01*
X135600624Y-101974463D01*
X135600624Y-101970555D01*
X135055718Y-101970555D01*
X135055718Y-101908517D01*
X135056461Y-101876395D01*
X135057568Y-101864065D01*
X135181503Y-101864065D01*
X135595739Y-101864065D01*
X135593724Y-101848853D01*
X135581863Y-101798377D01*
X135562522Y-101752202D01*
X135559145Y-101745992D01*
X135528774Y-101704533D01*
X135489493Y-101672090D01*
X135471109Y-101661963D01*
X135422002Y-101646483D01*
X135372989Y-101642292D01*
X135356133Y-101642754D01*
X135307200Y-101650633D01*
X135261859Y-101671846D01*
X135225589Y-101706406D01*
X135200798Y-101751469D01*
X135196276Y-101764234D01*
X135185196Y-101811859D01*
X135181503Y-101864065D01*
X135057568Y-101864065D01*
X135061000Y-101825826D01*
X135071893Y-101770038D01*
X135088729Y-101719591D01*
X135111506Y-101674486D01*
X135140226Y-101634721D01*
X135174246Y-101601104D01*
X135220058Y-101570675D01*
X135272461Y-101549713D01*
X135322624Y-101539280D01*
X135377630Y-101535802D01*
X135426705Y-101538385D01*
G37*
G36*
X134768000Y-101551434D02*
G01*
X134653694Y-101551434D01*
X134641482Y-101703109D01*
X134618184Y-101656254D01*
X134588588Y-101616746D01*
X134548760Y-101581772D01*
X134544762Y-101579033D01*
X134497262Y-101554420D01*
X134448872Y-101540911D01*
X134395520Y-101535845D01*
X134389912Y-101535802D01*
X134338813Y-101539261D01*
X134286568Y-101551215D01*
X134239093Y-101571709D01*
X134225781Y-101579522D01*
X134225781Y-101711413D01*
X134264478Y-101681173D01*
X134312063Y-101657480D01*
X134363937Y-101644722D01*
X134400903Y-101642292D01*
X134455659Y-101646979D01*
X134503668Y-101661038D01*
X134549613Y-101688058D01*
X134579444Y-101717275D01*
X134606586Y-101758842D01*
X134625973Y-101808561D01*
X134636575Y-101858751D01*
X134641240Y-101915183D01*
X134641482Y-101932453D01*
X134641482Y-102317380D01*
X134768000Y-102317380D01*
X134768000Y-101551434D01*
G37*
G36*
X132738342Y-102317380D02*
G01*
X132788296Y-102315405D01*
X132839262Y-102308108D01*
X132887862Y-102293187D01*
X132930239Y-102268006D01*
X132937888Y-102261204D01*
X132968671Y-102218318D01*
X132986628Y-102166425D01*
X132994210Y-102117354D01*
X132996262Y-102069229D01*
X132996262Y-101657924D01*
X133200449Y-101657924D01*
X133200449Y-101551434D01*
X132996262Y-101551434D01*
X132996262Y-101351888D01*
X132870477Y-101297177D01*
X132870477Y-101551434D01*
X132584713Y-101551434D01*
X132584713Y-101657924D01*
X132870477Y-101657924D01*
X132870477Y-102063611D01*
X132866668Y-102113952D01*
X132850799Y-102161410D01*
X132838237Y-102178161D01*
X132794090Y-102202707D01*
X132745352Y-102210378D01*
X132726130Y-102210890D01*
X132584713Y-102210890D01*
X132584713Y-102317380D01*
X132738342Y-102317380D01*
G37*
G36*
X132314581Y-101254435D02*
G01*
X132188795Y-101254435D01*
X132188795Y-101668670D01*
X132159858Y-101623516D01*
X132124705Y-101587704D01*
X132083334Y-101561234D01*
X132035747Y-101544107D01*
X131981943Y-101536321D01*
X131962627Y-101535802D01*
X131913073Y-101539261D01*
X131861953Y-101552880D01*
X131818035Y-101579522D01*
X131784696Y-101615906D01*
X131760149Y-101659847D01*
X131748670Y-101693339D01*
X131737684Y-101742830D01*
X131731259Y-101794918D01*
X131729375Y-101844525D01*
X131729375Y-102317380D01*
X131855892Y-102317380D01*
X131855892Y-101842816D01*
X131858771Y-101789029D01*
X131868722Y-101739417D01*
X131890046Y-101693988D01*
X131892285Y-101690897D01*
X131931628Y-101657671D01*
X131981974Y-101643479D01*
X132004881Y-101642292D01*
X132053825Y-101647238D01*
X132099900Y-101665511D01*
X132116011Y-101677463D01*
X132148358Y-101714890D01*
X132170293Y-101761226D01*
X132172431Y-101768077D01*
X132183618Y-101817619D01*
X132188540Y-101869217D01*
X132188795Y-101884337D01*
X132188795Y-102317380D01*
X132314581Y-102317380D01*
X132314581Y-101254435D01*
G37*
G36*
X131215959Y-101538385D02*
G01*
X131267666Y-101547663D01*
X131314702Y-101563687D01*
X131362033Y-101589780D01*
X131390252Y-101611261D01*
X131427460Y-101648473D01*
X131458525Y-101691675D01*
X131480980Y-101735105D01*
X131498504Y-101782243D01*
X131511022Y-101832069D01*
X131518532Y-101884581D01*
X131521036Y-101939780D01*
X131519459Y-101984190D01*
X131513056Y-102036322D01*
X131501728Y-102084697D01*
X131481632Y-102137788D01*
X131454444Y-102185470D01*
X131420163Y-102227742D01*
X131393754Y-102252415D01*
X131349676Y-102283255D01*
X131300240Y-102306694D01*
X131245446Y-102322731D01*
X131195691Y-102330441D01*
X131142215Y-102333011D01*
X131107593Y-102332019D01*
X131056348Y-102326810D01*
X131005927Y-102317135D01*
X130972695Y-102308419D01*
X130923247Y-102292883D01*
X130874280Y-102274393D01*
X130874280Y-102153004D01*
X130905696Y-102167704D01*
X130953850Y-102187637D01*
X131003241Y-102205028D01*
X131036855Y-102214431D01*
X131088306Y-102223499D01*
X131140994Y-102226521D01*
X131185043Y-102224117D01*
X131237204Y-102213431D01*
X131286908Y-102191192D01*
X131327107Y-102158133D01*
X131351565Y-102125969D01*
X131374184Y-102078022D01*
X131385954Y-102029173D01*
X131389877Y-101974463D01*
X131389877Y-101970555D01*
X130844971Y-101970555D01*
X130844971Y-101908517D01*
X130845714Y-101876395D01*
X130846821Y-101864065D01*
X130970756Y-101864065D01*
X131384992Y-101864065D01*
X131382977Y-101848853D01*
X131371116Y-101798377D01*
X131351775Y-101752202D01*
X131348399Y-101745992D01*
X131318027Y-101704533D01*
X131278747Y-101672090D01*
X131260363Y-101661963D01*
X131211255Y-101646483D01*
X131162243Y-101642292D01*
X131145386Y-101642754D01*
X131096453Y-101650633D01*
X131051112Y-101671846D01*
X131014842Y-101706406D01*
X130990052Y-101751469D01*
X130985529Y-101764234D01*
X130974450Y-101811859D01*
X130970756Y-101864065D01*
X130846821Y-101864065D01*
X130850253Y-101825826D01*
X130861147Y-101770038D01*
X130877982Y-101719591D01*
X130900760Y-101674486D01*
X130929479Y-101634721D01*
X130963500Y-101601104D01*
X131009311Y-101570675D01*
X131061714Y-101549713D01*
X131111877Y-101539280D01*
X131166883Y-101535802D01*
X131215959Y-101538385D01*
G37*
G36*
X129443017Y-102333011D02*
G01*
X129496233Y-102330229D01*
X129545971Y-102321883D01*
X129597157Y-102306083D01*
X129616430Y-102297840D01*
X129661357Y-102272686D01*
X129701800Y-102241187D01*
X129737759Y-102203344D01*
X129744413Y-102195014D01*
X129775373Y-102149107D01*
X129801085Y-102097942D01*
X129821550Y-102041517D01*
X129834144Y-101992590D01*
X129843379Y-101940297D01*
X129849256Y-101884638D01*
X129851775Y-101825613D01*
X129851880Y-101810331D01*
X129850170Y-101749568D01*
X129845041Y-101692332D01*
X129836493Y-101638621D01*
X129824525Y-101588437D01*
X129809137Y-101541779D01*
X129785095Y-101488415D01*
X129755709Y-101440561D01*
X129742459Y-101422962D01*
X129706244Y-101383418D01*
X129665985Y-101350577D01*
X129621684Y-101324437D01*
X129573340Y-101305001D01*
X129520953Y-101292266D01*
X129464523Y-101286234D01*
X129440819Y-101285698D01*
X129391761Y-101288068D01*
X129341172Y-101295984D01*
X129315034Y-101302550D01*
X129267345Y-101319936D01*
X129221913Y-101342724D01*
X129201705Y-101355063D01*
X129201705Y-101495502D01*
X129240068Y-101462208D01*
X129260079Y-101447875D01*
X129303555Y-101422497D01*
X129315034Y-101417100D01*
X129363102Y-101400965D01*
X129376828Y-101398049D01*
X129425378Y-101392468D01*
X129438865Y-101392188D01*
X129494065Y-101397155D01*
X129542977Y-101412056D01*
X129585601Y-101436892D01*
X129621937Y-101471662D01*
X129639877Y-101495991D01*
X129666239Y-101546547D01*
X129683681Y-101598067D01*
X129694583Y-101646773D01*
X129702181Y-101700725D01*
X129706475Y-101759926D01*
X129707532Y-101811064D01*
X129706510Y-101863103D01*
X129702914Y-101917012D01*
X129696729Y-101966014D01*
X129691168Y-101995956D01*
X129677955Y-102045791D01*
X129659064Y-102093177D01*
X129641831Y-102123939D01*
X129610006Y-102163910D01*
X129571379Y-102194064D01*
X129525950Y-102214400D01*
X129473719Y-102224918D01*
X129440819Y-102226521D01*
X129390982Y-102222474D01*
X129360952Y-102215042D01*
X129328956Y-102201364D01*
X129298670Y-102180848D01*
X129298670Y-101892397D01*
X129447169Y-101892397D01*
X129447169Y-101785907D01*
X129166779Y-101785907D01*
X129166779Y-102234581D01*
X129206814Y-102265389D01*
X129249677Y-102290309D01*
X129291098Y-102307854D01*
X129340566Y-102322177D01*
X129392919Y-102330554D01*
X129443017Y-102333011D01*
G37*
G36*
X128984329Y-101301329D02*
G01*
X128809207Y-101301329D01*
X128464825Y-102140303D01*
X128464825Y-101301329D01*
X128331468Y-101301329D01*
X128331468Y-102317380D01*
X128506590Y-102317380D01*
X128850973Y-101492816D01*
X128850973Y-102317380D01*
X128984329Y-102317380D01*
X128984329Y-101301329D01*
G37*
G36*
X127816116Y-102333011D02*
G01*
X127867601Y-102330263D01*
X127919269Y-102321085D01*
X127945320Y-102313472D01*
X127991463Y-102293398D01*
X128000275Y-102288803D01*
X128042122Y-102260896D01*
X128050589Y-102253632D01*
X128082969Y-102217027D01*
X128088202Y-102209180D01*
X128110138Y-102163064D01*
X128116290Y-102144456D01*
X128127434Y-102095550D01*
X128131922Y-102059703D01*
X128135261Y-102008653D01*
X128136635Y-101955072D01*
X128136807Y-101924881D01*
X128136807Y-101301329D01*
X127997832Y-101301329D01*
X127997832Y-101990827D01*
X127997283Y-102040469D01*
X127994623Y-102090100D01*
X127993925Y-102096340D01*
X127980149Y-102144320D01*
X127979514Y-102145433D01*
X127948602Y-102184433D01*
X127916011Y-102206005D01*
X127867382Y-102222013D01*
X127816116Y-102226521D01*
X127764324Y-102222013D01*
X127715488Y-102206005D01*
X127674598Y-102176140D01*
X127651985Y-102145433D01*
X127637574Y-102097072D01*
X127634414Y-102048094D01*
X127633670Y-101996572D01*
X127633666Y-101992048D01*
X127633666Y-101301329D01*
X127495425Y-101301329D01*
X127495425Y-101924881D01*
X127495973Y-101977017D01*
X127498080Y-102029315D01*
X127501042Y-102064344D01*
X127508015Y-102114215D01*
X127514720Y-102144456D01*
X127532718Y-102190721D01*
X127561827Y-102233632D01*
X127581643Y-102253632D01*
X127621704Y-102283263D01*
X127631957Y-102289047D01*
X127677835Y-102310364D01*
X127686179Y-102313472D01*
X127733912Y-102325875D01*
X127743820Y-102327638D01*
X127794104Y-102332586D01*
X127816116Y-102333011D01*
G37*
G36*
X126074420Y-102333011D02*
G01*
X126127636Y-102330229D01*
X126177374Y-102321883D01*
X126228560Y-102306083D01*
X126247832Y-102297840D01*
X126292760Y-102272686D01*
X126333203Y-102241187D01*
X126369162Y-102203344D01*
X126375816Y-102195014D01*
X126406775Y-102149107D01*
X126432488Y-102097942D01*
X126452953Y-102041517D01*
X126465546Y-101992590D01*
X126474782Y-101940297D01*
X126480659Y-101884638D01*
X126483178Y-101825613D01*
X126483283Y-101810331D01*
X126481573Y-101749568D01*
X126476444Y-101692332D01*
X126467895Y-101638621D01*
X126455927Y-101588437D01*
X126440540Y-101541779D01*
X126416497Y-101488415D01*
X126387112Y-101440561D01*
X126373862Y-101422962D01*
X126337646Y-101383418D01*
X126297388Y-101350577D01*
X126253087Y-101324437D01*
X126204743Y-101305001D01*
X126152356Y-101292266D01*
X126095926Y-101286234D01*
X126072222Y-101285698D01*
X126023163Y-101288068D01*
X125972575Y-101295984D01*
X125946437Y-101302550D01*
X125898747Y-101319936D01*
X125853315Y-101342724D01*
X125833108Y-101355063D01*
X125833108Y-101495502D01*
X125871471Y-101462208D01*
X125891482Y-101447875D01*
X125934958Y-101422497D01*
X125946437Y-101417100D01*
X125994504Y-101400965D01*
X126008230Y-101398049D01*
X126056781Y-101392468D01*
X126070268Y-101392188D01*
X126125467Y-101397155D01*
X126174379Y-101412056D01*
X126217003Y-101436892D01*
X126253339Y-101471662D01*
X126271280Y-101495991D01*
X126297642Y-101546547D01*
X126315084Y-101598067D01*
X126325985Y-101646773D01*
X126333583Y-101700725D01*
X126337878Y-101759926D01*
X126338935Y-101811064D01*
X126337912Y-101863103D01*
X126334317Y-101917012D01*
X126328132Y-101966014D01*
X126322571Y-101995956D01*
X126309358Y-102045791D01*
X126290467Y-102093177D01*
X126273234Y-102123939D01*
X126241409Y-102163910D01*
X126202782Y-102194064D01*
X126157353Y-102214400D01*
X126105122Y-102224918D01*
X126072222Y-102226521D01*
X126022385Y-102222474D01*
X125992354Y-102215042D01*
X125960359Y-102201364D01*
X125930072Y-102180848D01*
X125930072Y-101892397D01*
X126078572Y-101892397D01*
X126078572Y-101785907D01*
X125798181Y-101785907D01*
X125798181Y-102234581D01*
X125838216Y-102265389D01*
X125881080Y-102290309D01*
X125922501Y-102307854D01*
X125971968Y-102322177D01*
X126024322Y-102330554D01*
X126074420Y-102333011D01*
G37*
G36*
X125593262Y-102317380D02*
G01*
X125455020Y-102317380D01*
X125455020Y-101908028D01*
X125295041Y-101908028D01*
X125284318Y-101907954D01*
X125233226Y-101905332D01*
X125177473Y-101897244D01*
X125127781Y-101883763D01*
X125077471Y-101861219D01*
X125035411Y-101831336D01*
X125005695Y-101799935D01*
X124978798Y-101756853D01*
X124960268Y-101706830D01*
X124951046Y-101658427D01*
X124947972Y-101604923D01*
X124947988Y-101604435D01*
X125092075Y-101604435D01*
X125097275Y-101658693D01*
X125115006Y-101709010D01*
X125145320Y-101749515D01*
X125161931Y-101763521D01*
X125206869Y-101787617D01*
X125244611Y-101797609D01*
X125295041Y-101801539D01*
X125455020Y-101801539D01*
X125455020Y-101407819D01*
X125295041Y-101407819D01*
X125283007Y-101408019D01*
X125233271Y-101413880D01*
X125186483Y-101429908D01*
X125145320Y-101459110D01*
X125138873Y-101465746D01*
X125110846Y-101508074D01*
X125096287Y-101555119D01*
X125092075Y-101604435D01*
X124947988Y-101604435D01*
X124948989Y-101574197D01*
X124955463Y-101524732D01*
X124969221Y-101475719D01*
X124974862Y-101461583D01*
X125000734Y-101416436D01*
X125036144Y-101378022D01*
X125041809Y-101373303D01*
X125085847Y-101344469D01*
X125137552Y-101322974D01*
X125187973Y-101310392D01*
X125244027Y-101303202D01*
X125295041Y-101301329D01*
X125593262Y-101301329D01*
X125593262Y-102317380D01*
G37*
G36*
X124721559Y-101301329D02*
G01*
X124582829Y-101301329D01*
X124582829Y-102210890D01*
X124089947Y-102210890D01*
X124089947Y-102317380D01*
X124721559Y-102317380D01*
X124721559Y-101301329D01*
G37*
G36*
X123958056Y-101551434D02*
G01*
X123827630Y-101551434D01*
X123605369Y-102194525D01*
X123382620Y-101551434D01*
X123251950Y-101551434D01*
X123524036Y-102317380D01*
X123685969Y-102317380D01*
X123958056Y-101551434D01*
G37*
G36*
X122797414Y-102333011D02*
G01*
X122848293Y-102331362D01*
X122866046Y-102330080D01*
X122915875Y-102324770D01*
X122938830Y-102321287D01*
X122987277Y-102312373D01*
X123007951Y-102307854D01*
X123057003Y-102295051D01*
X123082445Y-102287338D01*
X123082445Y-102149585D01*
X123037235Y-102172370D01*
X123014057Y-102183046D01*
X122967009Y-102201223D01*
X122944936Y-102207959D01*
X122896413Y-102218903D01*
X122877770Y-102221881D01*
X122827395Y-102226231D01*
X122810359Y-102226521D01*
X122756686Y-102223148D01*
X122704333Y-102211287D01*
X122656134Y-102188094D01*
X122635969Y-102172543D01*
X122603898Y-102134209D01*
X122583705Y-102087287D01*
X122575687Y-102037717D01*
X122575153Y-102019647D01*
X122579925Y-101968802D01*
X122596421Y-101920010D01*
X122624699Y-101879329D01*
X122635481Y-101868705D01*
X122677446Y-101839983D01*
X122728236Y-101821899D01*
X122781492Y-101814718D01*
X122800833Y-101814239D01*
X122906102Y-101814239D01*
X122906102Y-101707749D01*
X122800833Y-101707749D01*
X122750043Y-101704504D01*
X122701767Y-101693284D01*
X122655170Y-101669241D01*
X122651845Y-101666717D01*
X122617687Y-101628047D01*
X122601613Y-101581834D01*
X122599089Y-101550213D01*
X122606027Y-101498155D01*
X122629201Y-101452844D01*
X122648426Y-101433220D01*
X122691027Y-101408216D01*
X122741845Y-101395433D01*
X122791796Y-101392188D01*
X122843508Y-101394806D01*
X122894958Y-101401925D01*
X122915627Y-101405865D01*
X122965556Y-101417703D01*
X123012470Y-101432296D01*
X123051671Y-101446898D01*
X123051671Y-101326731D01*
X123001453Y-101314910D01*
X122950456Y-101304221D01*
X122903904Y-101295956D01*
X122855498Y-101289314D01*
X122805623Y-101285948D01*
X122788377Y-101285698D01*
X122736250Y-101288205D01*
X122687214Y-101295727D01*
X122656241Y-101303527D01*
X122609566Y-101321037D01*
X122564980Y-101346656D01*
X122550484Y-101357505D01*
X122511909Y-101395775D01*
X122484355Y-101440242D01*
X122467823Y-101490908D01*
X122462399Y-101540324D01*
X122462313Y-101547770D01*
X122466988Y-101597668D01*
X122474280Y-101624218D01*
X122497036Y-101668660D01*
X122508963Y-101684058D01*
X122546062Y-101717224D01*
X122588805Y-101741114D01*
X122640134Y-101759041D01*
X122645739Y-101760506D01*
X122598386Y-101776550D01*
X122552194Y-101800839D01*
X122513499Y-101831736D01*
X122491866Y-101856005D01*
X122465136Y-101898869D01*
X122451077Y-101935628D01*
X122441167Y-101983544D01*
X122438377Y-102028684D01*
X122441674Y-102079529D01*
X122453856Y-102133551D01*
X122475013Y-102181871D01*
X122505147Y-102224486D01*
X122532166Y-102251434D01*
X122573096Y-102280795D01*
X122620475Y-102303787D01*
X122644518Y-102312250D01*
X122692337Y-102324070D01*
X122745121Y-102330984D01*
X122797414Y-102333011D01*
G37*
G36*
X121923024Y-102333011D02*
G01*
X121970947Y-102322733D01*
X122001915Y-102300527D01*
X122027786Y-102257602D01*
X122033911Y-102215774D01*
X122024881Y-102166014D01*
X122001915Y-102131266D01*
X121958550Y-102103939D01*
X121923024Y-102098538D01*
X121872997Y-102110076D01*
X121844622Y-102131266D01*
X121818553Y-102173994D01*
X121812382Y-102215774D01*
X121821481Y-102265604D01*
X121844622Y-102300527D01*
X121887698Y-102327650D01*
X121923024Y-102333011D01*
G37*
D11*
X152381901Y-50902438D02*
X152477139Y-50854819D01*
X152477139Y-50854819D02*
X152619996Y-50854819D01*
X152619996Y-50854819D02*
X152762853Y-50902438D01*
X152762853Y-50902438D02*
X152858091Y-50997676D01*
X152858091Y-50997676D02*
X152905710Y-51092914D01*
X152905710Y-51092914D02*
X152953329Y-51283390D01*
X152953329Y-51283390D02*
X152953329Y-51426247D01*
X152953329Y-51426247D02*
X152905710Y-51616723D01*
X152905710Y-51616723D02*
X152858091Y-51711961D01*
X152858091Y-51711961D02*
X152762853Y-51807200D01*
X152762853Y-51807200D02*
X152619996Y-51854819D01*
X152619996Y-51854819D02*
X152524758Y-51854819D01*
X152524758Y-51854819D02*
X152381901Y-51807200D01*
X152381901Y-51807200D02*
X152334282Y-51759580D01*
X152334282Y-51759580D02*
X152334282Y-51426247D01*
X152334282Y-51426247D02*
X152524758Y-51426247D01*
X151905710Y-51854819D02*
X151905710Y-50854819D01*
X151905710Y-50854819D02*
X151334282Y-51854819D01*
X151334282Y-51854819D02*
X151334282Y-50854819D01*
X150858091Y-51854819D02*
X150858091Y-50854819D01*
X150858091Y-50854819D02*
X150619996Y-50854819D01*
X150619996Y-50854819D02*
X150477139Y-50902438D01*
X150477139Y-50902438D02*
X150381901Y-50997676D01*
X150381901Y-50997676D02*
X150334282Y-51092914D01*
X150334282Y-51092914D02*
X150286663Y-51283390D01*
X150286663Y-51283390D02*
X150286663Y-51426247D01*
X150286663Y-51426247D02*
X150334282Y-51616723D01*
X150334282Y-51616723D02*
X150381901Y-51711961D01*
X150381901Y-51711961D02*
X150477139Y-51807200D01*
X150477139Y-51807200D02*
X150619996Y-51854819D01*
X150619996Y-51854819D02*
X150858091Y-51854819D01*
X159910472Y-51854819D02*
X159910472Y-50854819D01*
X159910472Y-50854819D02*
X159672377Y-50854819D01*
X159672377Y-50854819D02*
X159529520Y-50902438D01*
X159529520Y-50902438D02*
X159434282Y-50997676D01*
X159434282Y-50997676D02*
X159386663Y-51092914D01*
X159386663Y-51092914D02*
X159339044Y-51283390D01*
X159339044Y-51283390D02*
X159339044Y-51426247D01*
X159339044Y-51426247D02*
X159386663Y-51616723D01*
X159386663Y-51616723D02*
X159434282Y-51711961D01*
X159434282Y-51711961D02*
X159529520Y-51807200D01*
X159529520Y-51807200D02*
X159672377Y-51854819D01*
X159672377Y-51854819D02*
X159910472Y-51854819D01*
X158958091Y-51569104D02*
X158481901Y-51569104D01*
X159053329Y-51854819D02*
X158719996Y-50854819D01*
X158719996Y-50854819D02*
X158386663Y-51854819D01*
X155483329Y-52354819D02*
X155149996Y-53354819D01*
X155149996Y-53354819D02*
X154816663Y-52354819D01*
X153911901Y-53259580D02*
X153959520Y-53307200D01*
X153959520Y-53307200D02*
X154102377Y-53354819D01*
X154102377Y-53354819D02*
X154197615Y-53354819D01*
X154197615Y-53354819D02*
X154340472Y-53307200D01*
X154340472Y-53307200D02*
X154435710Y-53211961D01*
X154435710Y-53211961D02*
X154483329Y-53116723D01*
X154483329Y-53116723D02*
X154530948Y-52926247D01*
X154530948Y-52926247D02*
X154530948Y-52783390D01*
X154530948Y-52783390D02*
X154483329Y-52592914D01*
X154483329Y-52592914D02*
X154435710Y-52497676D01*
X154435710Y-52497676D02*
X154340472Y-52402438D01*
X154340472Y-52402438D02*
X154197615Y-52354819D01*
X154197615Y-52354819D02*
X154102377Y-52354819D01*
X154102377Y-52354819D02*
X153959520Y-52402438D01*
X153959520Y-52402438D02*
X153911901Y-52450057D01*
X152911901Y-53259580D02*
X152959520Y-53307200D01*
X152959520Y-53307200D02*
X153102377Y-53354819D01*
X153102377Y-53354819D02*
X153197615Y-53354819D01*
X153197615Y-53354819D02*
X153340472Y-53307200D01*
X153340472Y-53307200D02*
X153435710Y-53211961D01*
X153435710Y-53211961D02*
X153483329Y-53116723D01*
X153483329Y-53116723D02*
X153530948Y-52926247D01*
X153530948Y-52926247D02*
X153530948Y-52783390D01*
X153530948Y-52783390D02*
X153483329Y-52592914D01*
X153483329Y-52592914D02*
X153435710Y-52497676D01*
X153435710Y-52497676D02*
X153340472Y-52402438D01*
X153340472Y-52402438D02*
X153197615Y-52354819D01*
X153197615Y-52354819D02*
X153102377Y-52354819D01*
X153102377Y-52354819D02*
X152959520Y-52402438D01*
X152959520Y-52402438D02*
X152911901Y-52450057D01*
X156815234Y-51759581D02*
X156862853Y-51807201D01*
X156862853Y-51807201D02*
X157005710Y-51854820D01*
X157005710Y-51854820D02*
X157100948Y-51854820D01*
X157100948Y-51854820D02*
X157243805Y-51807201D01*
X157243805Y-51807201D02*
X157339043Y-51711962D01*
X157339043Y-51711962D02*
X157386662Y-51616724D01*
X157386662Y-51616724D02*
X157434281Y-51426248D01*
X157434281Y-51426248D02*
X157434281Y-51283391D01*
X157434281Y-51283391D02*
X157386662Y-51092915D01*
X157386662Y-51092915D02*
X157339043Y-50997677D01*
X157339043Y-50997677D02*
X157243805Y-50902439D01*
X157243805Y-50902439D02*
X157100948Y-50854820D01*
X157100948Y-50854820D02*
X157005710Y-50854820D01*
X157005710Y-50854820D02*
X156862853Y-50902439D01*
X156862853Y-50902439D02*
X156815234Y-50950058D01*
X155910472Y-51854820D02*
X156386662Y-51854820D01*
X156386662Y-51854820D02*
X156386662Y-50854820D01*
X149186663Y-51759580D02*
X149234282Y-51807200D01*
X149234282Y-51807200D02*
X149377139Y-51854819D01*
X149377139Y-51854819D02*
X149472377Y-51854819D01*
X149472377Y-51854819D02*
X149615234Y-51807200D01*
X149615234Y-51807200D02*
X149710472Y-51711961D01*
X149710472Y-51711961D02*
X149758091Y-51616723D01*
X149758091Y-51616723D02*
X149805710Y-51426247D01*
X149805710Y-51426247D02*
X149805710Y-51283390D01*
X149805710Y-51283390D02*
X149758091Y-51092914D01*
X149758091Y-51092914D02*
X149710472Y-50997676D01*
X149710472Y-50997676D02*
X149615234Y-50902438D01*
X149615234Y-50902438D02*
X149472377Y-50854819D01*
X149472377Y-50854819D02*
X149377139Y-50854819D01*
X149377139Y-50854819D02*
X149234282Y-50902438D01*
X149234282Y-50902438D02*
X149186663Y-50950057D01*
X148805710Y-51807200D02*
X148662853Y-51854819D01*
X148662853Y-51854819D02*
X148424758Y-51854819D01*
X148424758Y-51854819D02*
X148329520Y-51807200D01*
X148329520Y-51807200D02*
X148281901Y-51759580D01*
X148281901Y-51759580D02*
X148234282Y-51664342D01*
X148234282Y-51664342D02*
X148234282Y-51569104D01*
X148234282Y-51569104D02*
X148281901Y-51473866D01*
X148281901Y-51473866D02*
X148329520Y-51426247D01*
X148329520Y-51426247D02*
X148424758Y-51378628D01*
X148424758Y-51378628D02*
X148615234Y-51331009D01*
X148615234Y-51331009D02*
X148710472Y-51283390D01*
X148710472Y-51283390D02*
X148758091Y-51235771D01*
X148758091Y-51235771D02*
X148805710Y-51140533D01*
X148805710Y-51140533D02*
X148805710Y-51045295D01*
X148805710Y-51045295D02*
X148758091Y-50950057D01*
X148758091Y-50950057D02*
X148710472Y-50902438D01*
X148710472Y-50902438D02*
X148615234Y-50854819D01*
X148615234Y-50854819D02*
X148377139Y-50854819D01*
X148377139Y-50854819D02*
X148234282Y-50902438D01*
X153311899Y-28324820D02*
X153407137Y-28277201D01*
X153407137Y-28277201D02*
X153549994Y-28277201D01*
X153549994Y-28277201D02*
X153692851Y-28324820D01*
X153692851Y-28324820D02*
X153788089Y-28420058D01*
X153788089Y-28420058D02*
X153835708Y-28515296D01*
X153835708Y-28515296D02*
X153883327Y-28705772D01*
X153883327Y-28705772D02*
X153883327Y-28848629D01*
X153883327Y-28848629D02*
X153835708Y-29039105D01*
X153835708Y-29039105D02*
X153788089Y-29134343D01*
X153788089Y-29134343D02*
X153692851Y-29229582D01*
X153692851Y-29229582D02*
X153549994Y-29277201D01*
X153549994Y-29277201D02*
X153454756Y-29277201D01*
X153454756Y-29277201D02*
X153311899Y-29229582D01*
X153311899Y-29229582D02*
X153264280Y-29181962D01*
X153264280Y-29181962D02*
X153264280Y-28848629D01*
X153264280Y-28848629D02*
X153454756Y-28848629D01*
X152835708Y-29277201D02*
X152835708Y-28277201D01*
X152835708Y-28277201D02*
X152264280Y-29277201D01*
X152264280Y-29277201D02*
X152264280Y-28277201D01*
X151788089Y-29277201D02*
X151788089Y-28277201D01*
X151788089Y-28277201D02*
X151549994Y-28277201D01*
X151549994Y-28277201D02*
X151407137Y-28324820D01*
X151407137Y-28324820D02*
X151311899Y-28420058D01*
X151311899Y-28420058D02*
X151264280Y-28515296D01*
X151264280Y-28515296D02*
X151216661Y-28705772D01*
X151216661Y-28705772D02*
X151216661Y-28848629D01*
X151216661Y-28848629D02*
X151264280Y-29039105D01*
X151264280Y-29039105D02*
X151311899Y-29134343D01*
X151311899Y-29134343D02*
X151407137Y-29229582D01*
X151407137Y-29229582D02*
X151549994Y-29277201D01*
X151549994Y-29277201D02*
X151788089Y-29277201D01*
X156664280Y-39437201D02*
X156664280Y-38437201D01*
X156664280Y-38437201D02*
X156283328Y-38437201D01*
X156283328Y-38437201D02*
X156188090Y-38484820D01*
X156188090Y-38484820D02*
X156140471Y-38532439D01*
X156140471Y-38532439D02*
X156092852Y-38627677D01*
X156092852Y-38627677D02*
X156092852Y-38770534D01*
X156092852Y-38770534D02*
X156140471Y-38865772D01*
X156140471Y-38865772D02*
X156188090Y-38913391D01*
X156188090Y-38913391D02*
X156283328Y-38961010D01*
X156283328Y-38961010D02*
X156664280Y-38961010D01*
X155140471Y-39437201D02*
X155711899Y-39437201D01*
X155426185Y-39437201D02*
X155426185Y-38437201D01*
X155426185Y-38437201D02*
X155521423Y-38580058D01*
X155521423Y-38580058D02*
X155616661Y-38675296D01*
X155616661Y-38675296D02*
X155711899Y-38722915D01*
X154569042Y-38865772D02*
X154664280Y-38818153D01*
X154664280Y-38818153D02*
X154711899Y-38770534D01*
X154711899Y-38770534D02*
X154759518Y-38675296D01*
X154759518Y-38675296D02*
X154759518Y-38627677D01*
X154759518Y-38627677D02*
X154711899Y-38532439D01*
X154711899Y-38532439D02*
X154664280Y-38484820D01*
X154664280Y-38484820D02*
X154569042Y-38437201D01*
X154569042Y-38437201D02*
X154378566Y-38437201D01*
X154378566Y-38437201D02*
X154283328Y-38484820D01*
X154283328Y-38484820D02*
X154235709Y-38532439D01*
X154235709Y-38532439D02*
X154188090Y-38627677D01*
X154188090Y-38627677D02*
X154188090Y-38675296D01*
X154188090Y-38675296D02*
X154235709Y-38770534D01*
X154235709Y-38770534D02*
X154283328Y-38818153D01*
X154283328Y-38818153D02*
X154378566Y-38865772D01*
X154378566Y-38865772D02*
X154569042Y-38865772D01*
X154569042Y-38865772D02*
X154664280Y-38913391D01*
X154664280Y-38913391D02*
X154711899Y-38961010D01*
X154711899Y-38961010D02*
X154759518Y-39056248D01*
X154759518Y-39056248D02*
X154759518Y-39246724D01*
X154759518Y-39246724D02*
X154711899Y-39341962D01*
X154711899Y-39341962D02*
X154664280Y-39389582D01*
X154664280Y-39389582D02*
X154569042Y-39437201D01*
X154569042Y-39437201D02*
X154378566Y-39437201D01*
X154378566Y-39437201D02*
X154283328Y-39389582D01*
X154283328Y-39389582D02*
X154235709Y-39341962D01*
X154235709Y-39341962D02*
X154188090Y-39246724D01*
X154188090Y-39246724D02*
X154188090Y-39056248D01*
X154188090Y-39056248D02*
X154235709Y-38961010D01*
X154235709Y-38961010D02*
X154283328Y-38913391D01*
X154283328Y-38913391D02*
X154378566Y-38865772D01*
X160738090Y-19112201D02*
X161214280Y-19112201D01*
X161214280Y-19112201D02*
X161214280Y-18112201D01*
X159357137Y-18112201D02*
X159357137Y-18826486D01*
X159357137Y-18826486D02*
X159404756Y-18969343D01*
X159404756Y-18969343D02*
X159499994Y-19064582D01*
X159499994Y-19064582D02*
X159642851Y-19112201D01*
X159642851Y-19112201D02*
X159738089Y-19112201D01*
X158452375Y-18445534D02*
X158452375Y-19112201D01*
X158880946Y-18445534D02*
X158880946Y-18969343D01*
X158880946Y-18969343D02*
X158833327Y-19064582D01*
X158833327Y-19064582D02*
X158738089Y-19112201D01*
X158738089Y-19112201D02*
X158595232Y-19112201D01*
X158595232Y-19112201D02*
X158499994Y-19064582D01*
X158499994Y-19064582D02*
X158452375Y-19016962D01*
X157976184Y-19112201D02*
X157976184Y-18445534D01*
X157976184Y-18540772D02*
X157928565Y-18493153D01*
X157928565Y-18493153D02*
X157833327Y-18445534D01*
X157833327Y-18445534D02*
X157690470Y-18445534D01*
X157690470Y-18445534D02*
X157595232Y-18493153D01*
X157595232Y-18493153D02*
X157547613Y-18588391D01*
X157547613Y-18588391D02*
X157547613Y-19112201D01*
X157547613Y-18588391D02*
X157499994Y-18493153D01*
X157499994Y-18493153D02*
X157404756Y-18445534D01*
X157404756Y-18445534D02*
X157261899Y-18445534D01*
X157261899Y-18445534D02*
X157166660Y-18493153D01*
X157166660Y-18493153D02*
X157119041Y-18588391D01*
X157119041Y-18588391D02*
X157119041Y-19112201D01*
X156642851Y-18445534D02*
X156642851Y-19445534D01*
X156642851Y-18493153D02*
X156547613Y-18445534D01*
X156547613Y-18445534D02*
X156357137Y-18445534D01*
X156357137Y-18445534D02*
X156261899Y-18493153D01*
X156261899Y-18493153D02*
X156214280Y-18540772D01*
X156214280Y-18540772D02*
X156166661Y-18636010D01*
X156166661Y-18636010D02*
X156166661Y-18921724D01*
X156166661Y-18921724D02*
X156214280Y-19016962D01*
X156214280Y-19016962D02*
X156261899Y-19064582D01*
X156261899Y-19064582D02*
X156357137Y-19112201D01*
X156357137Y-19112201D02*
X156547613Y-19112201D01*
X156547613Y-19112201D02*
X156642851Y-19064582D01*
X155357137Y-19064582D02*
X155452375Y-19112201D01*
X155452375Y-19112201D02*
X155642851Y-19112201D01*
X155642851Y-19112201D02*
X155738089Y-19064582D01*
X155738089Y-19064582D02*
X155785708Y-18969343D01*
X155785708Y-18969343D02*
X155785708Y-18588391D01*
X155785708Y-18588391D02*
X155738089Y-18493153D01*
X155738089Y-18493153D02*
X155642851Y-18445534D01*
X155642851Y-18445534D02*
X155452375Y-18445534D01*
X155452375Y-18445534D02*
X155357137Y-18493153D01*
X155357137Y-18493153D02*
X155309518Y-18588391D01*
X155309518Y-18588391D02*
X155309518Y-18683629D01*
X155309518Y-18683629D02*
X155785708Y-18778867D01*
X154880946Y-19112201D02*
X154880946Y-18445534D01*
X154880946Y-18636010D02*
X154833327Y-18540772D01*
X154833327Y-18540772D02*
X154785708Y-18493153D01*
X154785708Y-18493153D02*
X154690470Y-18445534D01*
X154690470Y-18445534D02*
X154595232Y-18445534D01*
X154309517Y-19064582D02*
X154214279Y-19112201D01*
X154214279Y-19112201D02*
X154023803Y-19112201D01*
X154023803Y-19112201D02*
X153928565Y-19064582D01*
X153928565Y-19064582D02*
X153880946Y-18969343D01*
X153880946Y-18969343D02*
X153880946Y-18921724D01*
X153880946Y-18921724D02*
X153928565Y-18826486D01*
X153928565Y-18826486D02*
X154023803Y-18778867D01*
X154023803Y-18778867D02*
X154166660Y-18778867D01*
X154166660Y-18778867D02*
X154261898Y-18731248D01*
X154261898Y-18731248D02*
X154309517Y-18636010D01*
X154309517Y-18636010D02*
X154309517Y-18588391D01*
X154309517Y-18588391D02*
X154261898Y-18493153D01*
X154261898Y-18493153D02*
X154166660Y-18445534D01*
X154166660Y-18445534D02*
X154023803Y-18445534D01*
X154023803Y-18445534D02*
X153928565Y-18493153D01*
X153404755Y-19064582D02*
X153404755Y-19112201D01*
X153404755Y-19112201D02*
X153452374Y-19207439D01*
X153452374Y-19207439D02*
X153499993Y-19255058D01*
X152214279Y-19112201D02*
X152214279Y-18112201D01*
X152214279Y-18112201D02*
X151880946Y-18826486D01*
X151880946Y-18826486D02*
X151547613Y-18112201D01*
X151547613Y-18112201D02*
X151547613Y-19112201D01*
X150499994Y-19016962D02*
X150547613Y-19064582D01*
X150547613Y-19064582D02*
X150690470Y-19112201D01*
X150690470Y-19112201D02*
X150785708Y-19112201D01*
X150785708Y-19112201D02*
X150928565Y-19064582D01*
X150928565Y-19064582D02*
X151023803Y-18969343D01*
X151023803Y-18969343D02*
X151071422Y-18874105D01*
X151071422Y-18874105D02*
X151119041Y-18683629D01*
X151119041Y-18683629D02*
X151119041Y-18540772D01*
X151119041Y-18540772D02*
X151071422Y-18350296D01*
X151071422Y-18350296D02*
X151023803Y-18255058D01*
X151023803Y-18255058D02*
X150928565Y-18159820D01*
X150928565Y-18159820D02*
X150785708Y-18112201D01*
X150785708Y-18112201D02*
X150690470Y-18112201D01*
X150690470Y-18112201D02*
X150547613Y-18159820D01*
X150547613Y-18159820D02*
X150499994Y-18207439D01*
X150071422Y-18112201D02*
X150071422Y-18921724D01*
X150071422Y-18921724D02*
X150023803Y-19016962D01*
X150023803Y-19016962D02*
X149976184Y-19064582D01*
X149976184Y-19064582D02*
X149880946Y-19112201D01*
X149880946Y-19112201D02*
X149690470Y-19112201D01*
X149690470Y-19112201D02*
X149595232Y-19064582D01*
X149595232Y-19064582D02*
X149547613Y-19016962D01*
X149547613Y-19016962D02*
X149499994Y-18921724D01*
X149499994Y-18921724D02*
X149499994Y-18112201D01*
X148261898Y-18112201D02*
X148261898Y-18921724D01*
X148261898Y-18921724D02*
X148214279Y-19016962D01*
X148214279Y-19016962D02*
X148166660Y-19064582D01*
X148166660Y-19064582D02*
X148071422Y-19112201D01*
X148071422Y-19112201D02*
X147880946Y-19112201D01*
X147880946Y-19112201D02*
X147785708Y-19064582D01*
X147785708Y-19064582D02*
X147738089Y-19016962D01*
X147738089Y-19016962D02*
X147690470Y-18921724D01*
X147690470Y-18921724D02*
X147690470Y-18112201D01*
X147214279Y-18445534D02*
X147214279Y-19445534D01*
X147214279Y-18493153D02*
X147119041Y-18445534D01*
X147119041Y-18445534D02*
X146928565Y-18445534D01*
X146928565Y-18445534D02*
X146833327Y-18493153D01*
X146833327Y-18493153D02*
X146785708Y-18540772D01*
X146785708Y-18540772D02*
X146738089Y-18636010D01*
X146738089Y-18636010D02*
X146738089Y-18921724D01*
X146738089Y-18921724D02*
X146785708Y-19016962D01*
X146785708Y-19016962D02*
X146833327Y-19064582D01*
X146833327Y-19064582D02*
X146928565Y-19112201D01*
X146928565Y-19112201D02*
X147119041Y-19112201D01*
X147119041Y-19112201D02*
X147214279Y-19064582D01*
X152698088Y-41977201D02*
X152698088Y-40977201D01*
X152698088Y-40977201D02*
X152317136Y-40977201D01*
X152317136Y-40977201D02*
X152221898Y-41024820D01*
X152221898Y-41024820D02*
X152174279Y-41072439D01*
X152174279Y-41072439D02*
X152126660Y-41167677D01*
X152126660Y-41167677D02*
X152126660Y-41310534D01*
X152126660Y-41310534D02*
X152174279Y-41405772D01*
X152174279Y-41405772D02*
X152221898Y-41453391D01*
X152221898Y-41453391D02*
X152317136Y-41501010D01*
X152317136Y-41501010D02*
X152698088Y-41501010D01*
X151269517Y-40977201D02*
X151459993Y-40977201D01*
X151459993Y-40977201D02*
X151555231Y-41024820D01*
X151555231Y-41024820D02*
X151602850Y-41072439D01*
X151602850Y-41072439D02*
X151698088Y-41215296D01*
X151698088Y-41215296D02*
X151745707Y-41405772D01*
X151745707Y-41405772D02*
X151745707Y-41786724D01*
X151745707Y-41786724D02*
X151698088Y-41881962D01*
X151698088Y-41881962D02*
X151650469Y-41929582D01*
X151650469Y-41929582D02*
X151555231Y-41977201D01*
X151555231Y-41977201D02*
X151364755Y-41977201D01*
X151364755Y-41977201D02*
X151269517Y-41929582D01*
X151269517Y-41929582D02*
X151221898Y-41881962D01*
X151221898Y-41881962D02*
X151174279Y-41786724D01*
X151174279Y-41786724D02*
X151174279Y-41548629D01*
X151174279Y-41548629D02*
X151221898Y-41453391D01*
X151221898Y-41453391D02*
X151269517Y-41405772D01*
X151269517Y-41405772D02*
X151364755Y-41358153D01*
X151364755Y-41358153D02*
X151555231Y-41358153D01*
X151555231Y-41358153D02*
X151650469Y-41405772D01*
X151650469Y-41405772D02*
X151698088Y-41453391D01*
X151698088Y-41453391D02*
X151745707Y-41548629D01*
X156664281Y-47057201D02*
X156664281Y-46057201D01*
X156664281Y-46057201D02*
X156283329Y-46057201D01*
X156283329Y-46057201D02*
X156188091Y-46104820D01*
X156188091Y-46104820D02*
X156140472Y-46152439D01*
X156140472Y-46152439D02*
X156092853Y-46247677D01*
X156092853Y-46247677D02*
X156092853Y-46390534D01*
X156092853Y-46390534D02*
X156140472Y-46485772D01*
X156140472Y-46485772D02*
X156188091Y-46533391D01*
X156188091Y-46533391D02*
X156283329Y-46581010D01*
X156283329Y-46581010D02*
X156664281Y-46581010D01*
X155140472Y-47057201D02*
X155711900Y-47057201D01*
X155426186Y-47057201D02*
X155426186Y-46057201D01*
X155426186Y-46057201D02*
X155521424Y-46200058D01*
X155521424Y-46200058D02*
X155616662Y-46295296D01*
X155616662Y-46295296D02*
X155711900Y-46342915D01*
X154283329Y-46057201D02*
X154473805Y-46057201D01*
X154473805Y-46057201D02*
X154569043Y-46104820D01*
X154569043Y-46104820D02*
X154616662Y-46152439D01*
X154616662Y-46152439D02*
X154711900Y-46295296D01*
X154711900Y-46295296D02*
X154759519Y-46485772D01*
X154759519Y-46485772D02*
X154759519Y-46866724D01*
X154759519Y-46866724D02*
X154711900Y-46961962D01*
X154711900Y-46961962D02*
X154664281Y-47009582D01*
X154664281Y-47009582D02*
X154569043Y-47057201D01*
X154569043Y-47057201D02*
X154378567Y-47057201D01*
X154378567Y-47057201D02*
X154283329Y-47009582D01*
X154283329Y-47009582D02*
X154235710Y-46961962D01*
X154235710Y-46961962D02*
X154188091Y-46866724D01*
X154188091Y-46866724D02*
X154188091Y-46628629D01*
X154188091Y-46628629D02*
X154235710Y-46533391D01*
X154235710Y-46533391D02*
X154283329Y-46485772D01*
X154283329Y-46485772D02*
X154378567Y-46438153D01*
X154378567Y-46438153D02*
X154569043Y-46438153D01*
X154569043Y-46438153D02*
X154664281Y-46485772D01*
X154664281Y-46485772D02*
X154711900Y-46533391D01*
X154711900Y-46533391D02*
X154759519Y-46628629D01*
X156664278Y-34357201D02*
X156664278Y-33357201D01*
X156664278Y-33357201D02*
X156283326Y-33357201D01*
X156283326Y-33357201D02*
X156188088Y-33404820D01*
X156188088Y-33404820D02*
X156140469Y-33452439D01*
X156140469Y-33452439D02*
X156092850Y-33547677D01*
X156092850Y-33547677D02*
X156092850Y-33690534D01*
X156092850Y-33690534D02*
X156140469Y-33785772D01*
X156140469Y-33785772D02*
X156188088Y-33833391D01*
X156188088Y-33833391D02*
X156283326Y-33881010D01*
X156283326Y-33881010D02*
X156664278Y-33881010D01*
X155711897Y-33452439D02*
X155664278Y-33404820D01*
X155664278Y-33404820D02*
X155569040Y-33357201D01*
X155569040Y-33357201D02*
X155330945Y-33357201D01*
X155330945Y-33357201D02*
X155235707Y-33404820D01*
X155235707Y-33404820D02*
X155188088Y-33452439D01*
X155188088Y-33452439D02*
X155140469Y-33547677D01*
X155140469Y-33547677D02*
X155140469Y-33642915D01*
X155140469Y-33642915D02*
X155188088Y-33785772D01*
X155188088Y-33785772D02*
X155759516Y-34357201D01*
X155759516Y-34357201D02*
X155140469Y-34357201D01*
X154521421Y-33357201D02*
X154426183Y-33357201D01*
X154426183Y-33357201D02*
X154330945Y-33404820D01*
X154330945Y-33404820D02*
X154283326Y-33452439D01*
X154283326Y-33452439D02*
X154235707Y-33547677D01*
X154235707Y-33547677D02*
X154188088Y-33738153D01*
X154188088Y-33738153D02*
X154188088Y-33976248D01*
X154188088Y-33976248D02*
X154235707Y-34166724D01*
X154235707Y-34166724D02*
X154283326Y-34261962D01*
X154283326Y-34261962D02*
X154330945Y-34309582D01*
X154330945Y-34309582D02*
X154426183Y-34357201D01*
X154426183Y-34357201D02*
X154521421Y-34357201D01*
X154521421Y-34357201D02*
X154616659Y-34309582D01*
X154616659Y-34309582D02*
X154664278Y-34261962D01*
X154664278Y-34261962D02*
X154711897Y-34166724D01*
X154711897Y-34166724D02*
X154759516Y-33976248D01*
X154759516Y-33976248D02*
X154759516Y-33738153D01*
X154759516Y-33738153D02*
X154711897Y-33547677D01*
X154711897Y-33547677D02*
X154664278Y-33452439D01*
X154664278Y-33452439D02*
X154616659Y-33404820D01*
X154616659Y-33404820D02*
X154521421Y-33357201D01*
X156664281Y-31817200D02*
X156664281Y-30817200D01*
X156664281Y-30817200D02*
X156283329Y-30817200D01*
X156283329Y-30817200D02*
X156188091Y-30864819D01*
X156188091Y-30864819D02*
X156140472Y-30912438D01*
X156140472Y-30912438D02*
X156092853Y-31007676D01*
X156092853Y-31007676D02*
X156092853Y-31150533D01*
X156092853Y-31150533D02*
X156140472Y-31245771D01*
X156140472Y-31245771D02*
X156188091Y-31293390D01*
X156188091Y-31293390D02*
X156283329Y-31341009D01*
X156283329Y-31341009D02*
X156664281Y-31341009D01*
X155711900Y-30912438D02*
X155664281Y-30864819D01*
X155664281Y-30864819D02*
X155569043Y-30817200D01*
X155569043Y-30817200D02*
X155330948Y-30817200D01*
X155330948Y-30817200D02*
X155235710Y-30864819D01*
X155235710Y-30864819D02*
X155188091Y-30912438D01*
X155188091Y-30912438D02*
X155140472Y-31007676D01*
X155140472Y-31007676D02*
X155140472Y-31102914D01*
X155140472Y-31102914D02*
X155188091Y-31245771D01*
X155188091Y-31245771D02*
X155759519Y-31817200D01*
X155759519Y-31817200D02*
X155140472Y-31817200D01*
X154188091Y-31817200D02*
X154759519Y-31817200D01*
X154473805Y-31817200D02*
X154473805Y-30817200D01*
X154473805Y-30817200D02*
X154569043Y-30960057D01*
X154569043Y-30960057D02*
X154664281Y-31055295D01*
X154664281Y-31055295D02*
X154759519Y-31102914D01*
X152698088Y-24197201D02*
X152698088Y-23197201D01*
X152698088Y-23197201D02*
X152317136Y-23197201D01*
X152317136Y-23197201D02*
X152221898Y-23244820D01*
X152221898Y-23244820D02*
X152174279Y-23292439D01*
X152174279Y-23292439D02*
X152126660Y-23387677D01*
X152126660Y-23387677D02*
X152126660Y-23530534D01*
X152126660Y-23530534D02*
X152174279Y-23625772D01*
X152174279Y-23625772D02*
X152221898Y-23673391D01*
X152221898Y-23673391D02*
X152317136Y-23721010D01*
X152317136Y-23721010D02*
X152698088Y-23721010D01*
X151507612Y-23197201D02*
X151412374Y-23197201D01*
X151412374Y-23197201D02*
X151317136Y-23244820D01*
X151317136Y-23244820D02*
X151269517Y-23292439D01*
X151269517Y-23292439D02*
X151221898Y-23387677D01*
X151221898Y-23387677D02*
X151174279Y-23578153D01*
X151174279Y-23578153D02*
X151174279Y-23816248D01*
X151174279Y-23816248D02*
X151221898Y-24006724D01*
X151221898Y-24006724D02*
X151269517Y-24101962D01*
X151269517Y-24101962D02*
X151317136Y-24149582D01*
X151317136Y-24149582D02*
X151412374Y-24197201D01*
X151412374Y-24197201D02*
X151507612Y-24197201D01*
X151507612Y-24197201D02*
X151602850Y-24149582D01*
X151602850Y-24149582D02*
X151650469Y-24101962D01*
X151650469Y-24101962D02*
X151698088Y-24006724D01*
X151698088Y-24006724D02*
X151745707Y-23816248D01*
X151745707Y-23816248D02*
X151745707Y-23578153D01*
X151745707Y-23578153D02*
X151698088Y-23387677D01*
X151698088Y-23387677D02*
X151650469Y-23292439D01*
X151650469Y-23292439D02*
X151602850Y-23244820D01*
X151602850Y-23244820D02*
X151507612Y-23197201D01*
X152698090Y-49597202D02*
X152698090Y-48597202D01*
X152698090Y-48597202D02*
X152317138Y-48597202D01*
X152317138Y-48597202D02*
X152221900Y-48644821D01*
X152221900Y-48644821D02*
X152174281Y-48692440D01*
X152174281Y-48692440D02*
X152126662Y-48787678D01*
X152126662Y-48787678D02*
X152126662Y-48930535D01*
X152126662Y-48930535D02*
X152174281Y-49025773D01*
X152174281Y-49025773D02*
X152221900Y-49073392D01*
X152221900Y-49073392D02*
X152317138Y-49121011D01*
X152317138Y-49121011D02*
X152698090Y-49121011D01*
X151650471Y-49597202D02*
X151459995Y-49597202D01*
X151459995Y-49597202D02*
X151364757Y-49549583D01*
X151364757Y-49549583D02*
X151317138Y-49501963D01*
X151317138Y-49501963D02*
X151221900Y-49359106D01*
X151221900Y-49359106D02*
X151174281Y-49168630D01*
X151174281Y-49168630D02*
X151174281Y-48787678D01*
X151174281Y-48787678D02*
X151221900Y-48692440D01*
X151221900Y-48692440D02*
X151269519Y-48644821D01*
X151269519Y-48644821D02*
X151364757Y-48597202D01*
X151364757Y-48597202D02*
X151555233Y-48597202D01*
X151555233Y-48597202D02*
X151650471Y-48644821D01*
X151650471Y-48644821D02*
X151698090Y-48692440D01*
X151698090Y-48692440D02*
X151745709Y-48787678D01*
X151745709Y-48787678D02*
X151745709Y-49025773D01*
X151745709Y-49025773D02*
X151698090Y-49121011D01*
X151698090Y-49121011D02*
X151650471Y-49168630D01*
X151650471Y-49168630D02*
X151555233Y-49216249D01*
X151555233Y-49216249D02*
X151364757Y-49216249D01*
X151364757Y-49216249D02*
X151269519Y-49168630D01*
X151269519Y-49168630D02*
X151221900Y-49121011D01*
X151221900Y-49121011D02*
X151174281Y-49025773D01*
X156664280Y-49597202D02*
X156664280Y-48597202D01*
X156664280Y-48597202D02*
X156283328Y-48597202D01*
X156283328Y-48597202D02*
X156188090Y-48644821D01*
X156188090Y-48644821D02*
X156140471Y-48692440D01*
X156140471Y-48692440D02*
X156092852Y-48787678D01*
X156092852Y-48787678D02*
X156092852Y-48930535D01*
X156092852Y-48930535D02*
X156140471Y-49025773D01*
X156140471Y-49025773D02*
X156188090Y-49073392D01*
X156188090Y-49073392D02*
X156283328Y-49121011D01*
X156283328Y-49121011D02*
X156664280Y-49121011D01*
X155140471Y-49597202D02*
X155711899Y-49597202D01*
X155426185Y-49597202D02*
X155426185Y-48597202D01*
X155426185Y-48597202D02*
X155521423Y-48740059D01*
X155521423Y-48740059D02*
X155616661Y-48835297D01*
X155616661Y-48835297D02*
X155711899Y-48882916D01*
X154521423Y-48597202D02*
X154426185Y-48597202D01*
X154426185Y-48597202D02*
X154330947Y-48644821D01*
X154330947Y-48644821D02*
X154283328Y-48692440D01*
X154283328Y-48692440D02*
X154235709Y-48787678D01*
X154235709Y-48787678D02*
X154188090Y-48978154D01*
X154188090Y-48978154D02*
X154188090Y-49216249D01*
X154188090Y-49216249D02*
X154235709Y-49406725D01*
X154235709Y-49406725D02*
X154283328Y-49501963D01*
X154283328Y-49501963D02*
X154330947Y-49549583D01*
X154330947Y-49549583D02*
X154426185Y-49597202D01*
X154426185Y-49597202D02*
X154521423Y-49597202D01*
X154521423Y-49597202D02*
X154616661Y-49549583D01*
X154616661Y-49549583D02*
X154664280Y-49501963D01*
X154664280Y-49501963D02*
X154711899Y-49406725D01*
X154711899Y-49406725D02*
X154759518Y-49216249D01*
X154759518Y-49216249D02*
X154759518Y-48978154D01*
X154759518Y-48978154D02*
X154711899Y-48787678D01*
X154711899Y-48787678D02*
X154664280Y-48692440D01*
X154664280Y-48692440D02*
X154616661Y-48644821D01*
X154616661Y-48644821D02*
X154521423Y-48597202D01*
X153311898Y-25784821D02*
X153407136Y-25737202D01*
X153407136Y-25737202D02*
X153549993Y-25737202D01*
X153549993Y-25737202D02*
X153692850Y-25784821D01*
X153692850Y-25784821D02*
X153788088Y-25880059D01*
X153788088Y-25880059D02*
X153835707Y-25975297D01*
X153835707Y-25975297D02*
X153883326Y-26165773D01*
X153883326Y-26165773D02*
X153883326Y-26308630D01*
X153883326Y-26308630D02*
X153835707Y-26499106D01*
X153835707Y-26499106D02*
X153788088Y-26594344D01*
X153788088Y-26594344D02*
X153692850Y-26689583D01*
X153692850Y-26689583D02*
X153549993Y-26737202D01*
X153549993Y-26737202D02*
X153454755Y-26737202D01*
X153454755Y-26737202D02*
X153311898Y-26689583D01*
X153311898Y-26689583D02*
X153264279Y-26641963D01*
X153264279Y-26641963D02*
X153264279Y-26308630D01*
X153264279Y-26308630D02*
X153454755Y-26308630D01*
X152835707Y-26737202D02*
X152835707Y-25737202D01*
X152835707Y-25737202D02*
X152264279Y-26737202D01*
X152264279Y-26737202D02*
X152264279Y-25737202D01*
X151788088Y-26737202D02*
X151788088Y-25737202D01*
X151788088Y-25737202D02*
X151549993Y-25737202D01*
X151549993Y-25737202D02*
X151407136Y-25784821D01*
X151407136Y-25784821D02*
X151311898Y-25880059D01*
X151311898Y-25880059D02*
X151264279Y-25975297D01*
X151264279Y-25975297D02*
X151216660Y-26165773D01*
X151216660Y-26165773D02*
X151216660Y-26308630D01*
X151216660Y-26308630D02*
X151264279Y-26499106D01*
X151264279Y-26499106D02*
X151311898Y-26594344D01*
X151311898Y-26594344D02*
X151407136Y-26689583D01*
X151407136Y-26689583D02*
X151549993Y-26737202D01*
X151549993Y-26737202D02*
X151788088Y-26737202D01*
X155997617Y-26737202D02*
X156330950Y-26261011D01*
X156569045Y-26737202D02*
X156569045Y-25737202D01*
X156569045Y-25737202D02*
X156188093Y-25737202D01*
X156188093Y-25737202D02*
X156092855Y-25784821D01*
X156092855Y-25784821D02*
X156045236Y-25832440D01*
X156045236Y-25832440D02*
X155997617Y-25927678D01*
X155997617Y-25927678D02*
X155997617Y-26070535D01*
X155997617Y-26070535D02*
X156045236Y-26165773D01*
X156045236Y-26165773D02*
X156092855Y-26213392D01*
X156092855Y-26213392D02*
X156188093Y-26261011D01*
X156188093Y-26261011D02*
X156569045Y-26261011D01*
X155616664Y-26689583D02*
X155473807Y-26737202D01*
X155473807Y-26737202D02*
X155235712Y-26737202D01*
X155235712Y-26737202D02*
X155140474Y-26689583D01*
X155140474Y-26689583D02*
X155092855Y-26641963D01*
X155092855Y-26641963D02*
X155045236Y-26546725D01*
X155045236Y-26546725D02*
X155045236Y-26451487D01*
X155045236Y-26451487D02*
X155092855Y-26356249D01*
X155092855Y-26356249D02*
X155140474Y-26308630D01*
X155140474Y-26308630D02*
X155235712Y-26261011D01*
X155235712Y-26261011D02*
X155426188Y-26213392D01*
X155426188Y-26213392D02*
X155521426Y-26165773D01*
X155521426Y-26165773D02*
X155569045Y-26118154D01*
X155569045Y-26118154D02*
X155616664Y-26022916D01*
X155616664Y-26022916D02*
X155616664Y-25927678D01*
X155616664Y-25927678D02*
X155569045Y-25832440D01*
X155569045Y-25832440D02*
X155521426Y-25784821D01*
X155521426Y-25784821D02*
X155426188Y-25737202D01*
X155426188Y-25737202D02*
X155188093Y-25737202D01*
X155188093Y-25737202D02*
X155045236Y-25784821D01*
X154759521Y-25737202D02*
X154188093Y-25737202D01*
X154473807Y-26737202D02*
X154473807Y-25737202D01*
X152698089Y-47057201D02*
X152698089Y-46057201D01*
X152698089Y-46057201D02*
X152317137Y-46057201D01*
X152317137Y-46057201D02*
X152221899Y-46104820D01*
X152221899Y-46104820D02*
X152174280Y-46152439D01*
X152174280Y-46152439D02*
X152126661Y-46247677D01*
X152126661Y-46247677D02*
X152126661Y-46390534D01*
X152126661Y-46390534D02*
X152174280Y-46485772D01*
X152174280Y-46485772D02*
X152221899Y-46533391D01*
X152221899Y-46533391D02*
X152317137Y-46581010D01*
X152317137Y-46581010D02*
X152698089Y-46581010D01*
X151555232Y-46485772D02*
X151650470Y-46438153D01*
X151650470Y-46438153D02*
X151698089Y-46390534D01*
X151698089Y-46390534D02*
X151745708Y-46295296D01*
X151745708Y-46295296D02*
X151745708Y-46247677D01*
X151745708Y-46247677D02*
X151698089Y-46152439D01*
X151698089Y-46152439D02*
X151650470Y-46104820D01*
X151650470Y-46104820D02*
X151555232Y-46057201D01*
X151555232Y-46057201D02*
X151364756Y-46057201D01*
X151364756Y-46057201D02*
X151269518Y-46104820D01*
X151269518Y-46104820D02*
X151221899Y-46152439D01*
X151221899Y-46152439D02*
X151174280Y-46247677D01*
X151174280Y-46247677D02*
X151174280Y-46295296D01*
X151174280Y-46295296D02*
X151221899Y-46390534D01*
X151221899Y-46390534D02*
X151269518Y-46438153D01*
X151269518Y-46438153D02*
X151364756Y-46485772D01*
X151364756Y-46485772D02*
X151555232Y-46485772D01*
X151555232Y-46485772D02*
X151650470Y-46533391D01*
X151650470Y-46533391D02*
X151698089Y-46581010D01*
X151698089Y-46581010D02*
X151745708Y-46676248D01*
X151745708Y-46676248D02*
X151745708Y-46866724D01*
X151745708Y-46866724D02*
X151698089Y-46961962D01*
X151698089Y-46961962D02*
X151650470Y-47009582D01*
X151650470Y-47009582D02*
X151555232Y-47057201D01*
X151555232Y-47057201D02*
X151364756Y-47057201D01*
X151364756Y-47057201D02*
X151269518Y-47009582D01*
X151269518Y-47009582D02*
X151221899Y-46961962D01*
X151221899Y-46961962D02*
X151174280Y-46866724D01*
X151174280Y-46866724D02*
X151174280Y-46676248D01*
X151174280Y-46676248D02*
X151221899Y-46581010D01*
X151221899Y-46581010D02*
X151269518Y-46533391D01*
X151269518Y-46533391D02*
X151364756Y-46485772D01*
X156140473Y-21657201D02*
X156473806Y-21181010D01*
X156711901Y-21657201D02*
X156711901Y-20657201D01*
X156711901Y-20657201D02*
X156330949Y-20657201D01*
X156330949Y-20657201D02*
X156235711Y-20704820D01*
X156235711Y-20704820D02*
X156188092Y-20752439D01*
X156188092Y-20752439D02*
X156140473Y-20847677D01*
X156140473Y-20847677D02*
X156140473Y-20990534D01*
X156140473Y-20990534D02*
X156188092Y-21085772D01*
X156188092Y-21085772D02*
X156235711Y-21133391D01*
X156235711Y-21133391D02*
X156330949Y-21181010D01*
X156330949Y-21181010D02*
X156711901Y-21181010D01*
X155759520Y-21371486D02*
X155283330Y-21371486D01*
X155854758Y-21657201D02*
X155521425Y-20657201D01*
X155521425Y-20657201D02*
X155188092Y-21657201D01*
X154949996Y-20657201D02*
X154711901Y-21657201D01*
X154711901Y-21657201D02*
X154521425Y-20942915D01*
X154521425Y-20942915D02*
X154330949Y-21657201D01*
X154330949Y-21657201D02*
X154092854Y-20657201D01*
X156664281Y-36897201D02*
X156664281Y-35897201D01*
X156664281Y-35897201D02*
X156283329Y-35897201D01*
X156283329Y-35897201D02*
X156188091Y-35944820D01*
X156188091Y-35944820D02*
X156140472Y-35992439D01*
X156140472Y-35992439D02*
X156092853Y-36087677D01*
X156092853Y-36087677D02*
X156092853Y-36230534D01*
X156092853Y-36230534D02*
X156140472Y-36325772D01*
X156140472Y-36325772D02*
X156188091Y-36373391D01*
X156188091Y-36373391D02*
X156283329Y-36421010D01*
X156283329Y-36421010D02*
X156664281Y-36421010D01*
X155140472Y-36897201D02*
X155711900Y-36897201D01*
X155426186Y-36897201D02*
X155426186Y-35897201D01*
X155426186Y-35897201D02*
X155521424Y-36040058D01*
X155521424Y-36040058D02*
X155616662Y-36135296D01*
X155616662Y-36135296D02*
X155711900Y-36182915D01*
X154664281Y-36897201D02*
X154473805Y-36897201D01*
X154473805Y-36897201D02*
X154378567Y-36849582D01*
X154378567Y-36849582D02*
X154330948Y-36801962D01*
X154330948Y-36801962D02*
X154235710Y-36659105D01*
X154235710Y-36659105D02*
X154188091Y-36468629D01*
X154188091Y-36468629D02*
X154188091Y-36087677D01*
X154188091Y-36087677D02*
X154235710Y-35992439D01*
X154235710Y-35992439D02*
X154283329Y-35944820D01*
X154283329Y-35944820D02*
X154378567Y-35897201D01*
X154378567Y-35897201D02*
X154569043Y-35897201D01*
X154569043Y-35897201D02*
X154664281Y-35944820D01*
X154664281Y-35944820D02*
X154711900Y-35992439D01*
X154711900Y-35992439D02*
X154759519Y-36087677D01*
X154759519Y-36087677D02*
X154759519Y-36325772D01*
X154759519Y-36325772D02*
X154711900Y-36421010D01*
X154711900Y-36421010D02*
X154664281Y-36468629D01*
X154664281Y-36468629D02*
X154569043Y-36516248D01*
X154569043Y-36516248D02*
X154378567Y-36516248D01*
X154378567Y-36516248D02*
X154283329Y-36468629D01*
X154283329Y-36468629D02*
X154235710Y-36421010D01*
X154235710Y-36421010D02*
X154188091Y-36325772D01*
X156664281Y-41977200D02*
X156664281Y-40977200D01*
X156664281Y-40977200D02*
X156283329Y-40977200D01*
X156283329Y-40977200D02*
X156188091Y-41024819D01*
X156188091Y-41024819D02*
X156140472Y-41072438D01*
X156140472Y-41072438D02*
X156092853Y-41167676D01*
X156092853Y-41167676D02*
X156092853Y-41310533D01*
X156092853Y-41310533D02*
X156140472Y-41405771D01*
X156140472Y-41405771D02*
X156188091Y-41453390D01*
X156188091Y-41453390D02*
X156283329Y-41501009D01*
X156283329Y-41501009D02*
X156664281Y-41501009D01*
X155140472Y-41977200D02*
X155711900Y-41977200D01*
X155426186Y-41977200D02*
X155426186Y-40977200D01*
X155426186Y-40977200D02*
X155521424Y-41120057D01*
X155521424Y-41120057D02*
X155616662Y-41215295D01*
X155616662Y-41215295D02*
X155711900Y-41262914D01*
X154235710Y-40977200D02*
X154711900Y-40977200D01*
X154711900Y-40977200D02*
X154759519Y-41453390D01*
X154759519Y-41453390D02*
X154711900Y-41405771D01*
X154711900Y-41405771D02*
X154616662Y-41358152D01*
X154616662Y-41358152D02*
X154378567Y-41358152D01*
X154378567Y-41358152D02*
X154283329Y-41405771D01*
X154283329Y-41405771D02*
X154235710Y-41453390D01*
X154235710Y-41453390D02*
X154188091Y-41548628D01*
X154188091Y-41548628D02*
X154188091Y-41786723D01*
X154188091Y-41786723D02*
X154235710Y-41881961D01*
X154235710Y-41881961D02*
X154283329Y-41929581D01*
X154283329Y-41929581D02*
X154378567Y-41977200D01*
X154378567Y-41977200D02*
X154616662Y-41977200D01*
X154616662Y-41977200D02*
X154711900Y-41929581D01*
X154711900Y-41929581D02*
X154759519Y-41881961D01*
X152698090Y-39437200D02*
X152698090Y-38437200D01*
X152698090Y-38437200D02*
X152317138Y-38437200D01*
X152317138Y-38437200D02*
X152221900Y-38484819D01*
X152221900Y-38484819D02*
X152174281Y-38532438D01*
X152174281Y-38532438D02*
X152126662Y-38627676D01*
X152126662Y-38627676D02*
X152126662Y-38770533D01*
X152126662Y-38770533D02*
X152174281Y-38865771D01*
X152174281Y-38865771D02*
X152221900Y-38913390D01*
X152221900Y-38913390D02*
X152317138Y-38961009D01*
X152317138Y-38961009D02*
X152698090Y-38961009D01*
X151221900Y-38437200D02*
X151698090Y-38437200D01*
X151698090Y-38437200D02*
X151745709Y-38913390D01*
X151745709Y-38913390D02*
X151698090Y-38865771D01*
X151698090Y-38865771D02*
X151602852Y-38818152D01*
X151602852Y-38818152D02*
X151364757Y-38818152D01*
X151364757Y-38818152D02*
X151269519Y-38865771D01*
X151269519Y-38865771D02*
X151221900Y-38913390D01*
X151221900Y-38913390D02*
X151174281Y-39008628D01*
X151174281Y-39008628D02*
X151174281Y-39246723D01*
X151174281Y-39246723D02*
X151221900Y-39341961D01*
X151221900Y-39341961D02*
X151269519Y-39389581D01*
X151269519Y-39389581D02*
X151364757Y-39437200D01*
X151364757Y-39437200D02*
X151602852Y-39437200D01*
X151602852Y-39437200D02*
X151698090Y-39389581D01*
X151698090Y-39389581D02*
X151745709Y-39341961D01*
X152698088Y-44517201D02*
X152698088Y-43517201D01*
X152698088Y-43517201D02*
X152317136Y-43517201D01*
X152317136Y-43517201D02*
X152221898Y-43564820D01*
X152221898Y-43564820D02*
X152174279Y-43612439D01*
X152174279Y-43612439D02*
X152126660Y-43707677D01*
X152126660Y-43707677D02*
X152126660Y-43850534D01*
X152126660Y-43850534D02*
X152174279Y-43945772D01*
X152174279Y-43945772D02*
X152221898Y-43993391D01*
X152221898Y-43993391D02*
X152317136Y-44041010D01*
X152317136Y-44041010D02*
X152698088Y-44041010D01*
X151793326Y-43517201D02*
X151126660Y-43517201D01*
X151126660Y-43517201D02*
X151555231Y-44517201D01*
X152698089Y-34357201D02*
X152698089Y-33357201D01*
X152698089Y-33357201D02*
X152317137Y-33357201D01*
X152317137Y-33357201D02*
X152221899Y-33404820D01*
X152221899Y-33404820D02*
X152174280Y-33452439D01*
X152174280Y-33452439D02*
X152126661Y-33547677D01*
X152126661Y-33547677D02*
X152126661Y-33690534D01*
X152126661Y-33690534D02*
X152174280Y-33785772D01*
X152174280Y-33785772D02*
X152221899Y-33833391D01*
X152221899Y-33833391D02*
X152317137Y-33881010D01*
X152317137Y-33881010D02*
X152698089Y-33881010D01*
X151793327Y-33357201D02*
X151174280Y-33357201D01*
X151174280Y-33357201D02*
X151507613Y-33738153D01*
X151507613Y-33738153D02*
X151364756Y-33738153D01*
X151364756Y-33738153D02*
X151269518Y-33785772D01*
X151269518Y-33785772D02*
X151221899Y-33833391D01*
X151221899Y-33833391D02*
X151174280Y-33928629D01*
X151174280Y-33928629D02*
X151174280Y-34166724D01*
X151174280Y-34166724D02*
X151221899Y-34261962D01*
X151221899Y-34261962D02*
X151269518Y-34309582D01*
X151269518Y-34309582D02*
X151364756Y-34357201D01*
X151364756Y-34357201D02*
X151650470Y-34357201D01*
X151650470Y-34357201D02*
X151745708Y-34309582D01*
X151745708Y-34309582D02*
X151793327Y-34261962D01*
X152698088Y-36897201D02*
X152698088Y-35897201D01*
X152698088Y-35897201D02*
X152317136Y-35897201D01*
X152317136Y-35897201D02*
X152221898Y-35944820D01*
X152221898Y-35944820D02*
X152174279Y-35992439D01*
X152174279Y-35992439D02*
X152126660Y-36087677D01*
X152126660Y-36087677D02*
X152126660Y-36230534D01*
X152126660Y-36230534D02*
X152174279Y-36325772D01*
X152174279Y-36325772D02*
X152221898Y-36373391D01*
X152221898Y-36373391D02*
X152317136Y-36421010D01*
X152317136Y-36421010D02*
X152698088Y-36421010D01*
X151269517Y-36230534D02*
X151269517Y-36897201D01*
X151507612Y-35849582D02*
X151745707Y-36563867D01*
X151745707Y-36563867D02*
X151126660Y-36563867D01*
X152698089Y-21657201D02*
X152698089Y-20657201D01*
X152698089Y-20657201D02*
X152317137Y-20657201D01*
X152317137Y-20657201D02*
X152221899Y-20704820D01*
X152221899Y-20704820D02*
X152174280Y-20752439D01*
X152174280Y-20752439D02*
X152126661Y-20847677D01*
X152126661Y-20847677D02*
X152126661Y-20990534D01*
X152126661Y-20990534D02*
X152174280Y-21085772D01*
X152174280Y-21085772D02*
X152221899Y-21133391D01*
X152221899Y-21133391D02*
X152317137Y-21181010D01*
X152317137Y-21181010D02*
X152698089Y-21181010D01*
X151174280Y-21657201D02*
X151745708Y-21657201D01*
X151459994Y-21657201D02*
X151459994Y-20657201D01*
X151459994Y-20657201D02*
X151555232Y-20800058D01*
X151555232Y-20800058D02*
X151650470Y-20895296D01*
X151650470Y-20895296D02*
X151745708Y-20942915D01*
X156783325Y-28277200D02*
X156449992Y-29277200D01*
X156449992Y-29277200D02*
X156116659Y-28277200D01*
X155211897Y-29181961D02*
X155259516Y-29229581D01*
X155259516Y-29229581D02*
X155402373Y-29277200D01*
X155402373Y-29277200D02*
X155497611Y-29277200D01*
X155497611Y-29277200D02*
X155640468Y-29229581D01*
X155640468Y-29229581D02*
X155735706Y-29134342D01*
X155735706Y-29134342D02*
X155783325Y-29039104D01*
X155783325Y-29039104D02*
X155830944Y-28848628D01*
X155830944Y-28848628D02*
X155830944Y-28705771D01*
X155830944Y-28705771D02*
X155783325Y-28515295D01*
X155783325Y-28515295D02*
X155735706Y-28420057D01*
X155735706Y-28420057D02*
X155640468Y-28324819D01*
X155640468Y-28324819D02*
X155497611Y-28277200D01*
X155497611Y-28277200D02*
X155402373Y-28277200D01*
X155402373Y-28277200D02*
X155259516Y-28324819D01*
X155259516Y-28324819D02*
X155211897Y-28372438D01*
X154211897Y-29181961D02*
X154259516Y-29229581D01*
X154259516Y-29229581D02*
X154402373Y-29277200D01*
X154402373Y-29277200D02*
X154497611Y-29277200D01*
X154497611Y-29277200D02*
X154640468Y-29229581D01*
X154640468Y-29229581D02*
X154735706Y-29134342D01*
X154735706Y-29134342D02*
X154783325Y-29039104D01*
X154783325Y-29039104D02*
X154830944Y-28848628D01*
X154830944Y-28848628D02*
X154830944Y-28705771D01*
X154830944Y-28705771D02*
X154783325Y-28515295D01*
X154783325Y-28515295D02*
X154735706Y-28420057D01*
X154735706Y-28420057D02*
X154640468Y-28324819D01*
X154640468Y-28324819D02*
X154497611Y-28277200D01*
X154497611Y-28277200D02*
X154402373Y-28277200D01*
X154402373Y-28277200D02*
X154259516Y-28324819D01*
X154259516Y-28324819D02*
X154211897Y-28372438D01*
X152698089Y-31817201D02*
X152698089Y-30817201D01*
X152698089Y-30817201D02*
X152317137Y-30817201D01*
X152317137Y-30817201D02*
X152221899Y-30864820D01*
X152221899Y-30864820D02*
X152174280Y-30912439D01*
X152174280Y-30912439D02*
X152126661Y-31007677D01*
X152126661Y-31007677D02*
X152126661Y-31150534D01*
X152126661Y-31150534D02*
X152174280Y-31245772D01*
X152174280Y-31245772D02*
X152221899Y-31293391D01*
X152221899Y-31293391D02*
X152317137Y-31341010D01*
X152317137Y-31341010D02*
X152698089Y-31341010D01*
X151745708Y-30912439D02*
X151698089Y-30864820D01*
X151698089Y-30864820D02*
X151602851Y-30817201D01*
X151602851Y-30817201D02*
X151364756Y-30817201D01*
X151364756Y-30817201D02*
X151269518Y-30864820D01*
X151269518Y-30864820D02*
X151221899Y-30912439D01*
X151221899Y-30912439D02*
X151174280Y-31007677D01*
X151174280Y-31007677D02*
X151174280Y-31102915D01*
X151174280Y-31102915D02*
X151221899Y-31245772D01*
X151221899Y-31245772D02*
X151793327Y-31817201D01*
X151793327Y-31817201D02*
X151174280Y-31817201D01*
X156664281Y-44517201D02*
X156664281Y-43517201D01*
X156664281Y-43517201D02*
X156283329Y-43517201D01*
X156283329Y-43517201D02*
X156188091Y-43564820D01*
X156188091Y-43564820D02*
X156140472Y-43612439D01*
X156140472Y-43612439D02*
X156092853Y-43707677D01*
X156092853Y-43707677D02*
X156092853Y-43850534D01*
X156092853Y-43850534D02*
X156140472Y-43945772D01*
X156140472Y-43945772D02*
X156188091Y-43993391D01*
X156188091Y-43993391D02*
X156283329Y-44041010D01*
X156283329Y-44041010D02*
X156664281Y-44041010D01*
X155140472Y-44517201D02*
X155711900Y-44517201D01*
X155426186Y-44517201D02*
X155426186Y-43517201D01*
X155426186Y-43517201D02*
X155521424Y-43660058D01*
X155521424Y-43660058D02*
X155616662Y-43755296D01*
X155616662Y-43755296D02*
X155711900Y-43802915D01*
X154283329Y-43850534D02*
X154283329Y-44517201D01*
X154521424Y-43469582D02*
X154759519Y-44183867D01*
X154759519Y-44183867D02*
X154140472Y-44183867D01*
X156211899Y-23244820D02*
X156307137Y-23197201D01*
X156307137Y-23197201D02*
X156449994Y-23197201D01*
X156449994Y-23197201D02*
X156592851Y-23244820D01*
X156592851Y-23244820D02*
X156688089Y-23340058D01*
X156688089Y-23340058D02*
X156735708Y-23435296D01*
X156735708Y-23435296D02*
X156783327Y-23625772D01*
X156783327Y-23625772D02*
X156783327Y-23768629D01*
X156783327Y-23768629D02*
X156735708Y-23959105D01*
X156735708Y-23959105D02*
X156688089Y-24054343D01*
X156688089Y-24054343D02*
X156592851Y-24149582D01*
X156592851Y-24149582D02*
X156449994Y-24197201D01*
X156449994Y-24197201D02*
X156354756Y-24197201D01*
X156354756Y-24197201D02*
X156211899Y-24149582D01*
X156211899Y-24149582D02*
X156164280Y-24101962D01*
X156164280Y-24101962D02*
X156164280Y-23768629D01*
X156164280Y-23768629D02*
X156354756Y-23768629D01*
X155735708Y-24197201D02*
X155735708Y-23197201D01*
X155735708Y-23197201D02*
X155164280Y-24197201D01*
X155164280Y-24197201D02*
X155164280Y-23197201D01*
X154688089Y-24197201D02*
X154688089Y-23197201D01*
X154688089Y-23197201D02*
X154449994Y-23197201D01*
X154449994Y-23197201D02*
X154307137Y-23244820D01*
X154307137Y-23244820D02*
X154211899Y-23340058D01*
X154211899Y-23340058D02*
X154164280Y-23435296D01*
X154164280Y-23435296D02*
X154116661Y-23625772D01*
X154116661Y-23625772D02*
X154116661Y-23768629D01*
X154116661Y-23768629D02*
X154164280Y-23959105D01*
X154164280Y-23959105D02*
X154211899Y-24054343D01*
X154211899Y-24054343D02*
X154307137Y-24149582D01*
X154307137Y-24149582D02*
X154449994Y-24197201D01*
X154449994Y-24197201D02*
X154688089Y-24197201D01*
X172619041Y-36357198D02*
X172428565Y-36357198D01*
X172428565Y-36357198D02*
X172333327Y-36404817D01*
X172333327Y-36404817D02*
X172238089Y-36500055D01*
X172238089Y-36500055D02*
X172190470Y-36690531D01*
X172190470Y-36690531D02*
X172190470Y-37023864D01*
X172190470Y-37023864D02*
X172238089Y-37214340D01*
X172238089Y-37214340D02*
X172333327Y-37309579D01*
X172333327Y-37309579D02*
X172428565Y-37357198D01*
X172428565Y-37357198D02*
X172619041Y-37357198D01*
X172619041Y-37357198D02*
X172714279Y-37309579D01*
X172714279Y-37309579D02*
X172809517Y-37214340D01*
X172809517Y-37214340D02*
X172857136Y-37023864D01*
X172857136Y-37023864D02*
X172857136Y-36690531D01*
X172857136Y-36690531D02*
X172809517Y-36500055D01*
X172809517Y-36500055D02*
X172714279Y-36404817D01*
X172714279Y-36404817D02*
X172619041Y-36357198D01*
X171761898Y-37357198D02*
X171761898Y-36357198D01*
X171761898Y-36357198D02*
X171190470Y-37357198D01*
X171190470Y-37357198D02*
X171190470Y-36357198D01*
X172952372Y-26357200D02*
X172761896Y-26357200D01*
X172761896Y-26357200D02*
X172666658Y-26404819D01*
X172666658Y-26404819D02*
X172571420Y-26500057D01*
X172571420Y-26500057D02*
X172523801Y-26690533D01*
X172523801Y-26690533D02*
X172523801Y-27023866D01*
X172523801Y-27023866D02*
X172571420Y-27214342D01*
X172571420Y-27214342D02*
X172666658Y-27309581D01*
X172666658Y-27309581D02*
X172761896Y-27357200D01*
X172761896Y-27357200D02*
X172952372Y-27357200D01*
X172952372Y-27357200D02*
X173047610Y-27309581D01*
X173047610Y-27309581D02*
X173142848Y-27214342D01*
X173142848Y-27214342D02*
X173190467Y-27023866D01*
X173190467Y-27023866D02*
X173190467Y-26690533D01*
X173190467Y-26690533D02*
X173142848Y-26500057D01*
X173142848Y-26500057D02*
X173047610Y-26404819D01*
X173047610Y-26404819D02*
X172952372Y-26357200D01*
X171761896Y-26833390D02*
X172095229Y-26833390D01*
X172095229Y-27357200D02*
X172095229Y-26357200D01*
X172095229Y-26357200D02*
X171619039Y-26357200D01*
X170904753Y-26833390D02*
X171238086Y-26833390D01*
X171238086Y-27357200D02*
X171238086Y-26357200D01*
X171238086Y-26357200D02*
X170761896Y-26357200D01*
D12*
%TO.C,JST1*%
X164939996Y-42442381D02*
X164939997Y-43442382D01*
X164939996Y-50262381D02*
X164939996Y-49262380D01*
X165859996Y-50262381D02*
X164939996Y-50262381D01*
X165939995Y-42442382D02*
X164939996Y-42442381D01*
D13*
X166499994Y-51302382D02*
X167499994Y-51302379D01*
X166999995Y-50802381D02*
X166999996Y-51802381D01*
X169499997Y-51302382D02*
X168499996Y-51302381D01*
D12*
X170139995Y-50262381D02*
X171059997Y-50262380D01*
X170139997Y-42442382D02*
X171059996Y-42442381D01*
X171059996Y-42442381D02*
X171059996Y-43442381D01*
X171059997Y-50262380D02*
X171059996Y-49262379D01*
D13*
%TO.C,RST1*%
X132649995Y-17402380D02*
X132649995Y-17152380D01*
X132649996Y-20402378D02*
X132649994Y-20652379D01*
X132899993Y-20652380D02*
X132649994Y-20652379D01*
X132899996Y-17152380D02*
X132649995Y-17152380D01*
X137099994Y-20652380D02*
X137349995Y-20652380D01*
X137099997Y-17152380D02*
X137349996Y-17152381D01*
X137349994Y-17402382D02*
X137349996Y-17152381D01*
X137349995Y-20402380D02*
X137349995Y-20652380D01*
D12*
%TO.C,DISP1*%
X147589997Y-53670002D02*
X147589997Y-56329999D01*
X160409997Y-53670000D02*
X147589997Y-53670002D01*
X160409997Y-53670000D02*
X160409998Y-56330000D01*
X160409998Y-56330000D02*
X147589997Y-56329999D01*
%TO.C,MCU1*%
X145049995Y-19872381D02*
X145049994Y-50472381D01*
X147709995Y-19872380D02*
X145049995Y-19872381D01*
X147709995Y-19872380D02*
X147709997Y-50472383D01*
X147709997Y-50472383D02*
X145049994Y-50472381D01*
X160289994Y-19872381D02*
X160289994Y-50472382D01*
X162949995Y-19872381D02*
X160289994Y-19872381D01*
X162949995Y-19872381D02*
X162949996Y-50472379D01*
X162949995Y-22472381D02*
X160289997Y-22472382D01*
X162949996Y-50472379D02*
X160289994Y-50472382D01*
%TO.C,PWR1*%
X170574992Y-33302383D02*
X170574995Y-33502380D01*
X170574994Y-30302383D02*
X170574993Y-32002380D01*
X171624994Y-28452380D02*
X172414993Y-28452379D01*
X172414992Y-35352380D02*
X171624994Y-35352380D01*
X173424995Y-29052379D02*
X173424993Y-34752378D01*
D11*
%TO.C,S15*%
X90499997Y-73702381D02*
X89999997Y-74202380D01*
X90499997Y-78202380D02*
X89999999Y-77702377D01*
X92799997Y-78202380D02*
X90499997Y-78202380D01*
X93499998Y-73702381D02*
X90499997Y-73702381D01*
X93999997Y-74202380D02*
X93499998Y-73702381D01*
X93999997Y-74202380D02*
X93999997Y-75122380D01*
X94499997Y-80402380D02*
X94499997Y-79702381D01*
X94519997Y-75702380D02*
X98999997Y-75702382D01*
X98999997Y-75702382D02*
X98999998Y-76302380D01*
X98999997Y-79902380D02*
X98999997Y-80402381D01*
X98999997Y-80402381D02*
X94499997Y-80402380D01*
X92799997Y-78202380D02*
G75*
G02*
X94499997Y-79682379I110000J-1590000D01*
G01*
X94519997Y-75702380D02*
G75*
G02*
X93999997Y-75122380I30000J550000D01*
G01*
D13*
%TO.C,D23*%
X119599995Y-33152382D02*
X120399994Y-33152381D01*
X119999994Y-33752380D02*
X119449994Y-33752383D01*
X119999994Y-33752380D02*
X119599995Y-33152382D01*
X119999994Y-33752380D02*
X120549995Y-33752382D01*
X119999995Y-33152381D02*
X119999995Y-32652382D01*
X119999995Y-34152382D02*
X119999994Y-33752380D01*
X120399994Y-33152381D02*
X119999994Y-33752380D01*
D11*
%TO.C,S9*%
X70999994Y-95202382D02*
X70499994Y-95702381D01*
X70999994Y-99702381D02*
X70499996Y-99202378D01*
X73299994Y-99702381D02*
X70999994Y-99702381D01*
X73999995Y-95202382D02*
X70999994Y-95202382D01*
X74499994Y-95702381D02*
X73999995Y-95202382D01*
X74499994Y-95702381D02*
X74499994Y-96622381D01*
X74999994Y-101902381D02*
X74999994Y-101202382D01*
X75019994Y-97202381D02*
X79499994Y-97202383D01*
X79499994Y-97202383D02*
X79499995Y-97802381D01*
X79499994Y-101402381D02*
X79499994Y-101902382D01*
X79499994Y-101902382D02*
X74999994Y-101902381D01*
X73299994Y-99702381D02*
G75*
G02*
X74999994Y-101182380I110000J-1590000D01*
G01*
X75019994Y-97202381D02*
G75*
G02*
X74499994Y-96622381I30000J550000D01*
G01*
D13*
%TO.C,D5*%
X61099995Y-93652381D02*
X61899994Y-93652380D01*
X61499994Y-94252379D02*
X60949994Y-94252382D01*
X61499994Y-94252379D02*
X61099995Y-93652381D01*
X61499994Y-94252379D02*
X62049995Y-94252381D01*
X61499995Y-93652380D02*
X61499995Y-93152381D01*
X61499995Y-94652381D02*
X61499994Y-94252379D01*
X61899994Y-93652380D02*
X61499994Y-94252379D01*
D11*
%TO.C,S28*%
X132188960Y-113810360D02*
X132430806Y-114474822D01*
X133456816Y-111091437D02*
X132188960Y-113810360D01*
X134121279Y-110849592D02*
X133456816Y-111091437D01*
X134121279Y-110849592D02*
X134955080Y-111238399D01*
X135700502Y-111012240D02*
X137593832Y-106951980D01*
X136267345Y-115712142D02*
X135602881Y-115953985D01*
X137239368Y-113627634D02*
X136267345Y-115712142D01*
X137593832Y-106951980D02*
X138137614Y-107205551D01*
X139951696Y-113016671D02*
X139317281Y-112720837D01*
X141400327Y-108726978D02*
X141853478Y-108938284D01*
X141853478Y-108938284D02*
X139951696Y-113016671D01*
X135700502Y-111012240D02*
G75*
G02*
X134955079Y-111238400I-485791J259630D01*
G01*
X137239368Y-113627634D02*
G75*
G02*
X139299155Y-112712386I1487517J-572269D01*
G01*
D13*
%TO.C,D29*%
X164749474Y-118401150D02*
X165087567Y-117676103D01*
X164918520Y-118038626D02*
X164465367Y-117827317D01*
X165087567Y-117676103D02*
X165462306Y-118292199D01*
X165462306Y-118292199D02*
X164749474Y-118401150D01*
X165462306Y-118292199D02*
X165229866Y-118790667D01*
X165462306Y-118292199D02*
X165694744Y-117793727D01*
X165824829Y-118461245D02*
X165462306Y-118292199D01*
D11*
%TO.C,S16*%
X90499994Y-55202381D02*
X89999994Y-55702380D01*
X90499994Y-59702380D02*
X89999996Y-59202377D01*
X92799994Y-59702380D02*
X90499994Y-59702380D01*
X93499995Y-55202381D02*
X90499994Y-55202381D01*
X93999994Y-55702380D02*
X93499995Y-55202381D01*
X93999994Y-55702380D02*
X93999994Y-56622380D01*
X94499994Y-61902380D02*
X94499994Y-61202381D01*
X94519994Y-57202380D02*
X98999994Y-57202382D01*
X98999994Y-57202382D02*
X98999995Y-57802380D01*
X98999994Y-61402380D02*
X98999994Y-61902381D01*
X98999994Y-61902381D02*
X94499994Y-61902380D01*
X92799994Y-59702380D02*
G75*
G02*
X94499994Y-61182379I110000J-1590000D01*
G01*
X94519994Y-57202380D02*
G75*
G02*
X93999994Y-56622380I30000J550000D01*
G01*
%TO.C,S22*%
X109999997Y-39702379D02*
X109499997Y-40202378D01*
X109999997Y-44202378D02*
X109499999Y-43702375D01*
X112299997Y-44202378D02*
X109999997Y-44202378D01*
X112999998Y-39702379D02*
X109999997Y-39702379D01*
X113499997Y-40202378D02*
X112999998Y-39702379D01*
X113499997Y-40202378D02*
X113499997Y-41122378D01*
X113999997Y-46402378D02*
X113999997Y-45702379D01*
X114019997Y-41702378D02*
X118499997Y-41702380D01*
X118499997Y-41702380D02*
X118499998Y-42302378D01*
X118499997Y-45902378D02*
X118499997Y-46402379D01*
X118499997Y-46402379D02*
X113999997Y-46402378D01*
X112299997Y-44202378D02*
G75*
G02*
X113999997Y-45682377I110000J-1590000D01*
G01*
X114019997Y-41702378D02*
G75*
G02*
X113499997Y-41122378I30000J550000D01*
G01*
D13*
%TO.C,D13*%
X80599996Y-33152378D02*
X81399995Y-33152377D01*
X80999995Y-33752376D02*
X80449995Y-33752379D01*
X80999995Y-33752376D02*
X80599996Y-33152378D01*
X80999995Y-33752376D02*
X81549996Y-33752378D01*
X80999996Y-33152377D02*
X80999996Y-32652378D01*
X80999996Y-34152378D02*
X80999995Y-33752376D01*
X81399995Y-33152377D02*
X80999995Y-33752376D01*
D11*
%TO.C,S21*%
X109999997Y-58202381D02*
X109499997Y-58702380D01*
X109999997Y-62702380D02*
X109499999Y-62202377D01*
X112299997Y-62702380D02*
X109999997Y-62702380D01*
X112999998Y-58202381D02*
X109999997Y-58202381D01*
X113499997Y-58702380D02*
X112999998Y-58202381D01*
X113499997Y-58702380D02*
X113499997Y-59622380D01*
X113999997Y-64902380D02*
X113999997Y-64202381D01*
X114019997Y-60202380D02*
X118499997Y-60202382D01*
X118499997Y-60202382D02*
X118499998Y-60802380D01*
X118499997Y-64402380D02*
X118499997Y-64902381D01*
X118499997Y-64902381D02*
X113999997Y-64902380D01*
X112299997Y-62702380D02*
G75*
G02*
X113999997Y-64182379I110000J-1590000D01*
G01*
X114019997Y-60202380D02*
G75*
G02*
X113499997Y-59622380I30000J550000D01*
G01*
D13*
%TO.C,D17*%
X100099996Y-48652379D02*
X100899995Y-48652378D01*
X100499995Y-49252377D02*
X99949995Y-49252380D01*
X100499995Y-49252377D02*
X100099996Y-48652379D01*
X100499995Y-49252377D02*
X101049996Y-49252379D01*
X100499996Y-48652378D02*
X100499996Y-48152379D01*
X100499996Y-49652379D02*
X100499995Y-49252377D01*
X100899995Y-48652378D02*
X100499995Y-49252377D01*
D11*
%TO.C,S10*%
X70999997Y-76702379D02*
X70499997Y-77202378D01*
X70999997Y-81202378D02*
X70499999Y-80702375D01*
X73299997Y-81202378D02*
X70999997Y-81202378D01*
X73999998Y-76702379D02*
X70999997Y-76702379D01*
X74499997Y-77202378D02*
X73999998Y-76702379D01*
X74499997Y-77202378D02*
X74499997Y-78122378D01*
X74999997Y-83402378D02*
X74999997Y-82702379D01*
X75019997Y-78702378D02*
X79499997Y-78702380D01*
X79499997Y-78702380D02*
X79499998Y-79302378D01*
X79499997Y-82902378D02*
X79499997Y-83402379D01*
X79499997Y-83402379D02*
X74999997Y-83402378D01*
X73299997Y-81202378D02*
G75*
G02*
X74999997Y-82682377I110000J-1590000D01*
G01*
X75019997Y-78702378D02*
G75*
G02*
X74499997Y-78122378I30000J550000D01*
G01*
%TO.C,S29*%
X149861961Y-122051418D02*
X150103807Y-122715880D01*
X151129817Y-119332495D02*
X149861961Y-122051418D01*
X151794280Y-119090650D02*
X151129817Y-119332495D01*
X151794280Y-119090650D02*
X152628081Y-119479457D01*
X153373503Y-119253298D02*
X155266833Y-115193038D01*
X153940346Y-123953200D02*
X153275882Y-124195043D01*
X154912369Y-121868692D02*
X153940346Y-123953200D01*
X155266833Y-115193038D02*
X155810615Y-115446609D01*
X157624697Y-121257729D02*
X156990282Y-120961895D01*
X159073328Y-116968036D02*
X159526479Y-117179342D01*
X159526479Y-117179342D02*
X157624697Y-121257729D01*
X153373503Y-119253298D02*
G75*
G02*
X152628080Y-119479458I-485791J259630D01*
G01*
X154912369Y-121868692D02*
G75*
G02*
X156972156Y-120953444I1487517J-572269D01*
G01*
D13*
%TO.C,D6*%
X61099999Y-75152375D02*
X61899998Y-75152374D01*
X61499998Y-75752373D02*
X60949998Y-75752376D01*
X61499998Y-75752373D02*
X61099999Y-75152375D01*
X61499998Y-75752373D02*
X62049999Y-75752375D01*
X61499999Y-75152374D02*
X61499999Y-74652375D01*
X61499999Y-76152375D02*
X61499998Y-75752373D01*
X61899998Y-75152374D02*
X61499998Y-75752373D01*
%TO.C,D1*%
X37599996Y-93652381D02*
X38399995Y-93652380D01*
X37999995Y-94252379D02*
X37449995Y-94252382D01*
X37999995Y-94252379D02*
X37599996Y-93652381D01*
X37999995Y-94252379D02*
X38549996Y-94252381D01*
X37999996Y-93652380D02*
X37999996Y-93152381D01*
X37999996Y-94652381D02*
X37999995Y-94252379D01*
X38399995Y-93652380D02*
X37999995Y-94252379D01*
%TO.C,D30*%
X155749997Y-62502381D02*
X156349996Y-62902381D01*
X155749997Y-62902380D02*
X155249998Y-62902380D01*
X155749998Y-63302380D02*
X155749997Y-62502381D01*
X156349996Y-62902381D02*
X155749998Y-63302380D01*
X156349996Y-62902381D02*
X156349998Y-62352380D01*
X156349996Y-62902381D02*
X156349999Y-63452381D01*
X156749998Y-62902380D02*
X156349996Y-62902381D01*
D11*
%TO.C,S24*%
X129499995Y-79702379D02*
X128999995Y-80202378D01*
X129499995Y-84202378D02*
X128999997Y-83702375D01*
X131799995Y-84202378D02*
X129499995Y-84202378D01*
X132499996Y-79702379D02*
X129499995Y-79702379D01*
X132999995Y-80202378D02*
X132499996Y-79702379D01*
X132999995Y-80202378D02*
X132999995Y-81122378D01*
X133499995Y-86402378D02*
X133499995Y-85702379D01*
X133519995Y-81702378D02*
X137999995Y-81702380D01*
X137999995Y-81702380D02*
X137999996Y-82302378D01*
X137999995Y-85902378D02*
X137999995Y-86402379D01*
X137999995Y-86402379D02*
X133499995Y-86402378D01*
X131799995Y-84202378D02*
G75*
G02*
X133499995Y-85682377I110000J-1590000D01*
G01*
X133519995Y-81702378D02*
G75*
G02*
X132999995Y-81122378I30000J550000D01*
G01*
%TO.C,S8*%
X51499996Y-26202376D02*
X50999996Y-26702375D01*
X51499996Y-30702375D02*
X50999998Y-30202372D01*
X53799996Y-30702375D02*
X51499996Y-30702375D01*
X54499997Y-26202376D02*
X51499996Y-26202376D01*
X54999996Y-26702375D02*
X54499997Y-26202376D01*
X54999996Y-26702375D02*
X54999996Y-27622375D01*
X55499996Y-32902375D02*
X55499996Y-32202376D01*
X55519996Y-28202375D02*
X59999996Y-28202377D01*
X59999996Y-28202377D02*
X59999997Y-28802375D01*
X59999996Y-32402375D02*
X59999996Y-32902376D01*
X59999996Y-32902376D02*
X55499996Y-32902375D01*
X53799996Y-30702375D02*
G75*
G02*
X55499996Y-32182374I110000J-1590000D01*
G01*
X55519996Y-28202375D02*
G75*
G02*
X54999996Y-27622375I30000J550000D01*
G01*
D13*
%TO.C,D12*%
X80599994Y-51652377D02*
X81399993Y-51652376D01*
X80999993Y-52252375D02*
X80449993Y-52252378D01*
X80999993Y-52252375D02*
X80599994Y-51652377D01*
X80999993Y-52252375D02*
X81549994Y-52252377D01*
X80999994Y-51652376D02*
X80999994Y-51152377D01*
X80999994Y-52652377D02*
X80999993Y-52252375D01*
X81399993Y-51652376D02*
X80999993Y-52252375D01*
D11*
%TO.C,S11*%
X71000000Y-58202380D02*
X70500000Y-58702379D01*
X71000000Y-62702379D02*
X70500002Y-62202376D01*
X73300000Y-62702379D02*
X71000000Y-62702379D01*
X74000001Y-58202380D02*
X71000000Y-58202380D01*
X74500000Y-58702379D02*
X74000001Y-58202380D01*
X74500000Y-58702379D02*
X74500000Y-59622379D01*
X75000000Y-64902379D02*
X75000000Y-64202380D01*
X75020000Y-60202379D02*
X79500000Y-60202381D01*
X79500000Y-60202381D02*
X79500001Y-60802379D01*
X79500000Y-64402379D02*
X79500000Y-64902380D01*
X79500000Y-64902380D02*
X75000000Y-64902379D01*
X73300000Y-62702379D02*
G75*
G02*
X75000000Y-64182378I110000J-1590000D01*
G01*
X75020000Y-60202379D02*
G75*
G02*
X74500000Y-59622379I30000J550000D01*
G01*
D13*
%TO.C,D18*%
X100099996Y-30152379D02*
X100899995Y-30152378D01*
X100499995Y-30752377D02*
X99949995Y-30752380D01*
X100499995Y-30752377D02*
X100099996Y-30152379D01*
X100499995Y-30752377D02*
X101049996Y-30752379D01*
X100499996Y-30152378D02*
X100499996Y-29652379D01*
X100499996Y-31152379D02*
X100499995Y-30752377D01*
X100899995Y-30152378D02*
X100499995Y-30752377D01*
D11*
%TO.C,S27*%
X129499997Y-24202376D02*
X128999997Y-24702375D01*
X129499997Y-28702375D02*
X128999999Y-28202372D01*
X131799997Y-28702375D02*
X129499997Y-28702375D01*
X132499998Y-24202376D02*
X129499997Y-24202376D01*
X132999997Y-24702375D02*
X132499998Y-24202376D01*
X132999997Y-24702375D02*
X132999997Y-25622375D01*
X133499997Y-30902375D02*
X133499997Y-30202376D01*
X133519997Y-26202375D02*
X137999997Y-26202377D01*
X137999997Y-26202377D02*
X137999998Y-26802375D01*
X137999997Y-30402375D02*
X137999997Y-30902376D01*
X137999997Y-30902376D02*
X133499997Y-30902375D01*
X131799997Y-28702375D02*
G75*
G02*
X133499997Y-30182374I110000J-1590000D01*
G01*
X133519997Y-26202375D02*
G75*
G02*
X132999997Y-25622375I30000J550000D01*
G01*
D13*
%TO.C,D25*%
X139099999Y-73152377D02*
X139899998Y-73152376D01*
X139499998Y-73752375D02*
X138949998Y-73752378D01*
X139499998Y-73752375D02*
X139099999Y-73152377D01*
X139499998Y-73752375D02*
X140049999Y-73752377D01*
X139499999Y-73152376D02*
X139499999Y-72652377D01*
X139499999Y-74152377D02*
X139499998Y-73752375D01*
X139899998Y-73152376D02*
X139499998Y-73752375D01*
%TO.C,D19*%
X119599995Y-107152381D02*
X120399994Y-107152380D01*
X119999994Y-107752379D02*
X119449994Y-107752382D01*
X119999994Y-107752379D02*
X119599995Y-107152381D01*
X119999994Y-107752379D02*
X120549995Y-107752381D01*
X119999995Y-107152380D02*
X119999995Y-106652381D01*
X119999995Y-108152381D02*
X119999994Y-107752379D01*
X120399994Y-107152380D02*
X119999994Y-107752379D01*
D11*
%TO.C,S4*%
X27999998Y-26202382D02*
X27499998Y-26702381D01*
X27999998Y-30702381D02*
X27500000Y-30202378D01*
X30299998Y-30702381D02*
X27999998Y-30702381D01*
X30999999Y-26202382D02*
X27999998Y-26202382D01*
X31499998Y-26702381D02*
X30999999Y-26202382D01*
X31499998Y-26702381D02*
X31499998Y-27622381D01*
X31999998Y-32902381D02*
X31999998Y-32202382D01*
X32019998Y-28202381D02*
X36499998Y-28202383D01*
X36499998Y-28202383D02*
X36499999Y-28802381D01*
X36499998Y-32402381D02*
X36499998Y-32902382D01*
X36499998Y-32902382D02*
X31999998Y-32902381D01*
X30299998Y-30702381D02*
G75*
G02*
X31999998Y-32182380I110000J-1590000D01*
G01*
X32019998Y-28202381D02*
G75*
G02*
X31499998Y-27622381I30000J550000D01*
G01*
D13*
%TO.C,D11*%
X80599995Y-70152382D02*
X81399994Y-70152381D01*
X80999994Y-70752380D02*
X80449994Y-70752383D01*
X80999994Y-70752380D02*
X80599995Y-70152382D01*
X80999994Y-70752380D02*
X81549995Y-70752382D01*
X80999995Y-70152381D02*
X80999995Y-69652382D01*
X80999995Y-71152382D02*
X80999994Y-70752380D01*
X81399994Y-70152381D02*
X80999994Y-70752380D01*
D11*
%TO.C,S7*%
X51499994Y-44702381D02*
X50999994Y-45202380D01*
X51499994Y-49202380D02*
X50999996Y-48702377D01*
X53799994Y-49202380D02*
X51499994Y-49202380D01*
X54499995Y-44702381D02*
X51499994Y-44702381D01*
X54999994Y-45202380D02*
X54499995Y-44702381D01*
X54999994Y-45202380D02*
X54999994Y-46122380D01*
X55499994Y-51402380D02*
X55499994Y-50702381D01*
X55519994Y-46702380D02*
X59999994Y-46702382D01*
X59999994Y-46702382D02*
X59999995Y-47302380D01*
X59999994Y-50902380D02*
X59999994Y-51402381D01*
X59999994Y-51402381D02*
X55499994Y-51402380D01*
X53799994Y-49202380D02*
G75*
G02*
X55499994Y-50682379I110000J-1590000D01*
G01*
X55519994Y-46702380D02*
G75*
G02*
X54999994Y-46122380I30000J550000D01*
G01*
D13*
%TO.C,D24*%
X139100000Y-91652380D02*
X139899999Y-91652379D01*
X139499999Y-92252378D02*
X138949999Y-92252381D01*
X139499999Y-92252378D02*
X139100000Y-91652380D01*
X139499999Y-92252378D02*
X140050000Y-92252380D01*
X139500000Y-91652379D02*
X139500000Y-91152380D01*
X139500000Y-92652380D02*
X139499999Y-92252378D01*
X139899999Y-91652379D02*
X139499999Y-92252378D01*
D11*
%TO.C,S14*%
X90499998Y-92202380D02*
X89999998Y-92702379D01*
X90499998Y-96702379D02*
X90000000Y-96202376D01*
X92799998Y-96702379D02*
X90499998Y-96702379D01*
X93499999Y-92202380D02*
X90499998Y-92202380D01*
X93999998Y-92702379D02*
X93499999Y-92202380D01*
X93999998Y-92702379D02*
X93999998Y-93622379D01*
X94499998Y-98902379D02*
X94499998Y-98202380D01*
X94519998Y-94202379D02*
X98999998Y-94202381D01*
X98999998Y-94202381D02*
X98999999Y-94802379D01*
X98999998Y-98402379D02*
X98999998Y-98902380D01*
X98999998Y-98902380D02*
X94499998Y-98902379D01*
X92799998Y-96702379D02*
G75*
G02*
X94499998Y-98182378I110000J-1590000D01*
G01*
X94519998Y-94202379D02*
G75*
G02*
X93999998Y-93622379I30000J550000D01*
G01*
D13*
%TO.C,D20*%
X119599996Y-88652378D02*
X120399995Y-88652377D01*
X119999995Y-89252376D02*
X119449995Y-89252379D01*
X119999995Y-89252376D02*
X119599996Y-88652378D01*
X119999995Y-89252376D02*
X120549996Y-89252378D01*
X119999996Y-88652377D02*
X119999996Y-88152378D01*
X119999996Y-89652378D02*
X119999995Y-89252376D01*
X120399995Y-88652377D02*
X119999995Y-89252376D01*
%TO.C,D27*%
X139100001Y-36152380D02*
X139900000Y-36152379D01*
X139500000Y-36752378D02*
X138950000Y-36752381D01*
X139500000Y-36752378D02*
X139100001Y-36152380D01*
X139500000Y-36752378D02*
X140050001Y-36752380D01*
X139500001Y-36152379D02*
X139500001Y-35652380D01*
X139500001Y-37152380D02*
X139500000Y-36752378D01*
X139900000Y-36152379D02*
X139500000Y-36752378D01*
%TO.C,D9*%
X80599996Y-107152379D02*
X81399995Y-107152378D01*
X80999995Y-107752377D02*
X80449995Y-107752380D01*
X80999995Y-107752377D02*
X80599996Y-107152379D01*
X80999995Y-107752377D02*
X81549996Y-107752379D01*
X80999996Y-107152378D02*
X80999996Y-106652379D01*
X80999996Y-108152379D02*
X80999995Y-107752377D01*
X81399995Y-107152378D02*
X80999995Y-107752377D01*
%TO.C,D10*%
X80599995Y-88652379D02*
X81399994Y-88652378D01*
X80999994Y-89252377D02*
X80449994Y-89252380D01*
X80999994Y-89252377D02*
X80599995Y-88652379D01*
X80999994Y-89252377D02*
X81549995Y-89252379D01*
X80999995Y-88652378D02*
X80999995Y-88152379D01*
X80999995Y-89652379D02*
X80999994Y-89252377D01*
X81399994Y-88652378D02*
X80999994Y-89252377D01*
D11*
%TO.C,S1*%
X27999993Y-81702378D02*
X27499993Y-82202377D01*
X27999993Y-86202377D02*
X27499995Y-85702374D01*
X30299993Y-86202377D02*
X27999993Y-86202377D01*
X30999994Y-81702378D02*
X27999993Y-81702378D01*
X31499993Y-82202377D02*
X30999994Y-81702378D01*
X31499993Y-82202377D02*
X31499993Y-83122377D01*
X31999993Y-88402377D02*
X31999993Y-87702378D01*
X32019993Y-83702377D02*
X36499993Y-83702379D01*
X36499993Y-83702379D02*
X36499994Y-84302377D01*
X36499993Y-87902377D02*
X36499993Y-88402378D01*
X36499993Y-88402378D02*
X31999993Y-88402377D01*
X30299993Y-86202377D02*
G75*
G02*
X31999993Y-87682376I110000J-1590000D01*
G01*
X32019993Y-83702377D02*
G75*
G02*
X31499993Y-83122377I30000J550000D01*
G01*
%TO.C,S12*%
X71000000Y-39702381D02*
X70500000Y-40202380D01*
X71000000Y-44202380D02*
X70500002Y-43702377D01*
X73300000Y-44202380D02*
X71000000Y-44202380D01*
X74000001Y-39702381D02*
X71000000Y-39702381D01*
X74500000Y-40202380D02*
X74000001Y-39702381D01*
X74500000Y-40202380D02*
X74500000Y-41122380D01*
X75000000Y-46402380D02*
X75000000Y-45702381D01*
X75020000Y-41702380D02*
X79500000Y-41702382D01*
X79500000Y-41702382D02*
X79500001Y-42302380D01*
X79500000Y-45902380D02*
X79500000Y-46402381D01*
X79500000Y-46402381D02*
X75000000Y-46402380D01*
X73300000Y-44202380D02*
G75*
G02*
X75000000Y-45682379I110000J-1590000D01*
G01*
X75020000Y-41702380D02*
G75*
G02*
X74500000Y-41122380I30000J550000D01*
G01*
D13*
%TO.C,D3*%
X37599998Y-56652376D02*
X38399997Y-56652375D01*
X37999997Y-57252374D02*
X37449997Y-57252377D01*
X37999997Y-57252374D02*
X37599998Y-56652376D01*
X37999997Y-57252374D02*
X38549998Y-57252376D01*
X37999998Y-56652375D02*
X37999998Y-56152376D01*
X37999998Y-57652376D02*
X37999997Y-57252374D01*
X38399997Y-56652375D02*
X37999997Y-57252374D01*
D11*
%TO.C,S5*%
X51499997Y-81702380D02*
X50999997Y-82202379D01*
X51499997Y-86202379D02*
X50999999Y-85702376D01*
X53799997Y-86202379D02*
X51499997Y-86202379D01*
X54499998Y-81702380D02*
X51499997Y-81702380D01*
X54999997Y-82202379D02*
X54499998Y-81702380D01*
X54999997Y-82202379D02*
X54999997Y-83122379D01*
X55499997Y-88402379D02*
X55499997Y-87702380D01*
X55519997Y-83702379D02*
X59999997Y-83702381D01*
X59999997Y-83702381D02*
X59999998Y-84302379D01*
X59999997Y-87902379D02*
X59999997Y-88402380D01*
X59999997Y-88402380D02*
X55499997Y-88402379D01*
X53799997Y-86202379D02*
G75*
G02*
X55499997Y-87682378I110000J-1590000D01*
G01*
X55519997Y-83702379D02*
G75*
G02*
X54999997Y-83122379I30000J550000D01*
G01*
%TO.C,S2*%
X27999997Y-63202379D02*
X27499997Y-63702378D01*
X27999997Y-67702378D02*
X27499999Y-67202375D01*
X30299997Y-67702378D02*
X27999997Y-67702378D01*
X30999998Y-63202379D02*
X27999997Y-63202379D01*
X31499997Y-63702378D02*
X30999998Y-63202379D01*
X31499997Y-63702378D02*
X31499997Y-64622378D01*
X31999997Y-69902378D02*
X31999997Y-69202379D01*
X32019997Y-65202378D02*
X36499997Y-65202380D01*
X36499997Y-65202380D02*
X36499998Y-65802378D01*
X36499997Y-69402378D02*
X36499997Y-69902379D01*
X36499997Y-69902379D02*
X31999997Y-69902378D01*
X30299997Y-67702378D02*
G75*
G02*
X31999997Y-69182377I110000J-1590000D01*
G01*
X32019997Y-65202378D02*
G75*
G02*
X31499997Y-64622378I30000J550000D01*
G01*
D13*
%TO.C,D28*%
X147076477Y-110160090D02*
X147414570Y-109435043D01*
X147245523Y-109797566D02*
X146792370Y-109586257D01*
X147414570Y-109435043D02*
X147789309Y-110051139D01*
X147789309Y-110051139D02*
X147076477Y-110160090D01*
X147789309Y-110051139D02*
X147556869Y-110549607D01*
X147789309Y-110051139D02*
X148021747Y-109552667D01*
X148151832Y-110220185D02*
X147789309Y-110051139D01*
%TO.C,D16*%
X100099993Y-67152379D02*
X100899992Y-67152378D01*
X100499992Y-67752377D02*
X99949992Y-67752380D01*
X100499992Y-67752377D02*
X100099993Y-67152379D01*
X100499992Y-67752377D02*
X101049993Y-67752379D01*
X100499993Y-67152378D02*
X100499993Y-66652379D01*
X100499993Y-68152379D02*
X100499992Y-67752377D01*
X100899992Y-67152378D02*
X100499992Y-67752377D01*
D11*
%TO.C,S26*%
X129499995Y-42702384D02*
X128999995Y-43202383D01*
X129499995Y-47202383D02*
X128999997Y-46702380D01*
X131799995Y-47202383D02*
X129499995Y-47202383D01*
X132499996Y-42702384D02*
X129499995Y-42702384D01*
X132999995Y-43202383D02*
X132499996Y-42702384D01*
X132999995Y-43202383D02*
X132999995Y-44122383D01*
X133499995Y-49402383D02*
X133499995Y-48702384D01*
X133519995Y-44702383D02*
X137999995Y-44702385D01*
X137999995Y-44702385D02*
X137999996Y-45302383D01*
X137999995Y-48902383D02*
X137999995Y-49402384D01*
X137999995Y-49402384D02*
X133499995Y-49402383D01*
X131799995Y-47202383D02*
G75*
G02*
X133499995Y-48682382I110000J-1590000D01*
G01*
X133519995Y-44702383D02*
G75*
G02*
X132999995Y-44122383I30000J550000D01*
G01*
D13*
%TO.C,D2*%
X37599993Y-75152380D02*
X38399992Y-75152379D01*
X37999992Y-75752378D02*
X37449992Y-75752381D01*
X37999992Y-75752378D02*
X37599993Y-75152380D01*
X37999992Y-75752378D02*
X38549993Y-75752380D01*
X37999993Y-75152379D02*
X37999993Y-74652380D01*
X37999993Y-76152380D02*
X37999992Y-75752378D01*
X38399992Y-75152379D02*
X37999992Y-75752378D01*
D11*
%TO.C,S25*%
X129499994Y-61202380D02*
X128999994Y-61702379D01*
X129499994Y-65702379D02*
X128999996Y-65202376D01*
X131799994Y-65702379D02*
X129499994Y-65702379D01*
X132499995Y-61202380D02*
X129499994Y-61202380D01*
X132999994Y-61702379D02*
X132499995Y-61202380D01*
X132999994Y-61702379D02*
X132999994Y-62622379D01*
X133499994Y-67902379D02*
X133499994Y-67202380D01*
X133519994Y-63202379D02*
X137999994Y-63202381D01*
X137999994Y-63202381D02*
X137999995Y-63802379D01*
X137999994Y-67402379D02*
X137999994Y-67902380D01*
X137999994Y-67902380D02*
X133499994Y-67902379D01*
X131799994Y-65702379D02*
G75*
G02*
X133499994Y-67182378I110000J-1590000D01*
G01*
X133519994Y-63202379D02*
G75*
G02*
X132999994Y-62622379I30000J550000D01*
G01*
D13*
%TO.C,D7*%
X61099993Y-56652383D02*
X61899992Y-56652382D01*
X61499992Y-57252381D02*
X60949992Y-57252384D01*
X61499992Y-57252381D02*
X61099993Y-56652383D01*
X61499992Y-57252381D02*
X62049993Y-57252383D01*
X61499993Y-56652382D02*
X61499993Y-56152383D01*
X61499993Y-57652383D02*
X61499992Y-57252381D01*
X61899992Y-56652382D02*
X61499992Y-57252381D01*
%TO.C,D22*%
X119599990Y-51652376D02*
X120399989Y-51652375D01*
X119999989Y-52252374D02*
X119449989Y-52252377D01*
X119999989Y-52252374D02*
X119599990Y-51652376D01*
X119999989Y-52252374D02*
X120549990Y-52252376D01*
X119999990Y-51652375D02*
X119999990Y-51152376D01*
X119999990Y-52652376D02*
X119999989Y-52252374D01*
X120399989Y-51652375D02*
X119999989Y-52252374D01*
%TO.C,D21*%
X119599995Y-70152380D02*
X120399994Y-70152379D01*
X119999994Y-70752378D02*
X119449994Y-70752381D01*
X119999994Y-70752378D02*
X119599995Y-70152380D01*
X119999994Y-70752378D02*
X120549995Y-70752380D01*
X119999995Y-70152379D02*
X119999995Y-69652380D01*
X119999995Y-71152380D02*
X119999994Y-70752378D01*
X120399994Y-70152379D02*
X119999994Y-70752378D01*
%TO.C,D4*%
X37599992Y-38152381D02*
X38399991Y-38152380D01*
X37999991Y-38752379D02*
X37449991Y-38752382D01*
X37999991Y-38752379D02*
X37599992Y-38152381D01*
X37999991Y-38752379D02*
X38549992Y-38752381D01*
X37999992Y-38152380D02*
X37999992Y-37652381D01*
X37999992Y-39152381D02*
X37999991Y-38752379D01*
X38399991Y-38152380D02*
X37999991Y-38752379D01*
%TO.C,D14*%
X100099993Y-104152378D02*
X100899992Y-104152377D01*
X100499992Y-104752376D02*
X99949992Y-104752379D01*
X100499992Y-104752376D02*
X100099993Y-104152378D01*
X100499992Y-104752376D02*
X101049993Y-104752378D01*
X100499993Y-104152377D02*
X100499993Y-103652378D01*
X100499993Y-105152378D02*
X100499992Y-104752376D01*
X100899992Y-104152377D02*
X100499992Y-104752376D01*
D11*
%TO.C,S17*%
X90499999Y-36702377D02*
X89999999Y-37202376D01*
X90499999Y-41202376D02*
X90000001Y-40702373D01*
X92799999Y-41202376D02*
X90499999Y-41202376D01*
X93500000Y-36702377D02*
X90499999Y-36702377D01*
X93999999Y-37202376D02*
X93500000Y-36702377D01*
X93999999Y-37202376D02*
X93999999Y-38122376D01*
X94499999Y-43402376D02*
X94499999Y-42702377D01*
X94519999Y-38702376D02*
X98999999Y-38702378D01*
X98999999Y-38702378D02*
X99000000Y-39302376D01*
X98999999Y-42902376D02*
X98999999Y-43402377D01*
X98999999Y-43402377D02*
X94499999Y-43402376D01*
X92799999Y-41202376D02*
G75*
G02*
X94499999Y-42682375I110000J-1590000D01*
G01*
X94519999Y-38702376D02*
G75*
G02*
X93999999Y-38122376I30000J550000D01*
G01*
%TO.C,S13*%
X70999993Y-21202384D02*
X70499993Y-21702383D01*
X70999993Y-25702383D02*
X70499995Y-25202380D01*
X73299993Y-25702383D02*
X70999993Y-25702383D01*
X73999994Y-21202384D02*
X70999993Y-21202384D01*
X74499993Y-21702383D02*
X73999994Y-21202384D01*
X74499993Y-21702383D02*
X74499993Y-22622383D01*
X74999993Y-27902383D02*
X74999993Y-27202384D01*
X75019993Y-23202383D02*
X79499993Y-23202385D01*
X79499993Y-23202385D02*
X79499994Y-23802383D01*
X79499993Y-27402383D02*
X79499993Y-27902384D01*
X79499993Y-27902384D02*
X74999993Y-27902383D01*
X73299993Y-25702383D02*
G75*
G02*
X74999993Y-27182382I110000J-1590000D01*
G01*
X75019993Y-23202383D02*
G75*
G02*
X74499993Y-22622383I30000J550000D01*
G01*
%TO.C,S19*%
X109999997Y-95202382D02*
X109499997Y-95702381D01*
X109999997Y-99702381D02*
X109499999Y-99202378D01*
X112299997Y-99702381D02*
X109999997Y-99702381D01*
X112999998Y-95202382D02*
X109999997Y-95202382D01*
X113499997Y-95702381D02*
X112999998Y-95202382D01*
X113499997Y-95702381D02*
X113499997Y-96622381D01*
X113999997Y-101902381D02*
X113999997Y-101202382D01*
X114019997Y-97202381D02*
X118499997Y-97202383D01*
X118499997Y-97202383D02*
X118499998Y-97802381D01*
X118499997Y-101402381D02*
X118499997Y-101902382D01*
X118499997Y-101902382D02*
X113999997Y-101902381D01*
X112299997Y-99702381D02*
G75*
G02*
X113999997Y-101182380I110000J-1590000D01*
G01*
X114019997Y-97202381D02*
G75*
G02*
X113499997Y-96622381I30000J550000D01*
G01*
%TO.C,S20*%
X109999995Y-76702377D02*
X109499995Y-77202376D01*
X109999995Y-81202376D02*
X109499997Y-80702373D01*
X112299995Y-81202376D02*
X109999995Y-81202376D01*
X112999996Y-76702377D02*
X109999995Y-76702377D01*
X113499995Y-77202376D02*
X112999996Y-76702377D01*
X113499995Y-77202376D02*
X113499995Y-78122376D01*
X113999995Y-83402376D02*
X113999995Y-82702377D01*
X114019995Y-78702376D02*
X118499995Y-78702378D01*
X118499995Y-78702378D02*
X118499996Y-79302376D01*
X118499995Y-82902376D02*
X118499995Y-83402377D01*
X118499995Y-83402377D02*
X113999995Y-83402376D01*
X112299995Y-81202376D02*
G75*
G02*
X113999995Y-82682375I110000J-1590000D01*
G01*
X114019995Y-78702376D02*
G75*
G02*
X113499995Y-78122376I30000J550000D01*
G01*
%TO.C,S3*%
X27999995Y-44702381D02*
X27499995Y-45202380D01*
X27999995Y-49202380D02*
X27499997Y-48702377D01*
X30299995Y-49202380D02*
X27999995Y-49202380D01*
X30999996Y-44702381D02*
X27999995Y-44702381D01*
X31499995Y-45202380D02*
X30999996Y-44702381D01*
X31499995Y-45202380D02*
X31499995Y-46122380D01*
X31999995Y-51402380D02*
X31999995Y-50702381D01*
X32019995Y-46702380D02*
X36499995Y-46702382D01*
X36499995Y-46702382D02*
X36499996Y-47302380D01*
X36499995Y-50902380D02*
X36499995Y-51402381D01*
X36499995Y-51402381D02*
X31999995Y-51402380D01*
X30299995Y-49202380D02*
G75*
G02*
X31999995Y-50682379I110000J-1590000D01*
G01*
X32019995Y-46702380D02*
G75*
G02*
X31499995Y-46122380I30000J550000D01*
G01*
D13*
%TO.C,D15*%
X100099994Y-85652378D02*
X100899993Y-85652377D01*
X100499993Y-86252376D02*
X99949993Y-86252379D01*
X100499993Y-86252376D02*
X100099994Y-85652378D01*
X100499993Y-86252376D02*
X101049994Y-86252378D01*
X100499994Y-85652377D02*
X100499994Y-85152378D01*
X100499994Y-86652378D02*
X100499993Y-86252376D01*
X100899993Y-85652377D02*
X100499993Y-86252376D01*
%TO.C,D26*%
X139099998Y-54652380D02*
X139899997Y-54652379D01*
X139499997Y-55252378D02*
X138949997Y-55252381D01*
X139499997Y-55252378D02*
X139099998Y-54652380D01*
X139499997Y-55252378D02*
X140049998Y-55252380D01*
X139499998Y-54652379D02*
X139499998Y-54152380D01*
X139499998Y-55652380D02*
X139499997Y-55252378D01*
X139899997Y-54652379D02*
X139499997Y-55252378D01*
D11*
%TO.C,S18*%
X90500000Y-18202385D02*
X90000000Y-18702384D01*
X90500000Y-22702384D02*
X90000002Y-22202381D01*
X92800000Y-22702384D02*
X90500000Y-22702384D01*
X93500001Y-18202385D02*
X90500000Y-18202385D01*
X94000000Y-18702384D02*
X93500001Y-18202385D01*
X94000000Y-18702384D02*
X94000000Y-19622384D01*
X94500000Y-24902384D02*
X94500000Y-24202385D01*
X94520000Y-20202384D02*
X99000000Y-20202386D01*
X99000000Y-20202386D02*
X99000001Y-20802384D01*
X99000000Y-24402384D02*
X99000000Y-24902385D01*
X99000000Y-24902385D02*
X94500000Y-24902384D01*
X92800000Y-22702384D02*
G75*
G02*
X94500000Y-24182383I110000J-1590000D01*
G01*
X94520000Y-20202384D02*
G75*
G02*
X94000000Y-19622384I30000J550000D01*
G01*
D13*
%TO.C,D8*%
X61099995Y-38152381D02*
X61899994Y-38152380D01*
X61499994Y-38752379D02*
X60949994Y-38752382D01*
X61499994Y-38752379D02*
X61099995Y-38152381D01*
X61499994Y-38752379D02*
X62049995Y-38752381D01*
X61499995Y-38152380D02*
X61499995Y-37652381D01*
X61499995Y-39152381D02*
X61499994Y-38752379D01*
X61899994Y-38152380D02*
X61499994Y-38752379D01*
D11*
%TO.C,S23*%
X109999994Y-21202378D02*
X109499994Y-21702377D01*
X109999994Y-25702377D02*
X109499996Y-25202374D01*
X112299994Y-25702377D02*
X109999994Y-25702377D01*
X112999995Y-21202378D02*
X109999994Y-21202378D01*
X113499994Y-21702377D02*
X112999995Y-21202378D01*
X113499994Y-21702377D02*
X113499994Y-22622377D01*
X113999994Y-27902377D02*
X113999994Y-27202378D01*
X114019994Y-23202377D02*
X118499994Y-23202379D01*
X118499994Y-23202379D02*
X118499995Y-23802377D01*
X118499994Y-27402377D02*
X118499994Y-27902378D01*
X118499994Y-27902378D02*
X113999994Y-27902377D01*
X112299994Y-25702377D02*
G75*
G02*
X113999994Y-27182376I110000J-1590000D01*
G01*
X114019994Y-23202377D02*
G75*
G02*
X113499994Y-22622377I30000J550000D01*
G01*
%TO.C,S6*%
X51499992Y-63202379D02*
X50999992Y-63702378D01*
X51499992Y-67702378D02*
X50999994Y-67202375D01*
X53799992Y-67702378D02*
X51499992Y-67702378D01*
X54499993Y-63202379D02*
X51499992Y-63202379D01*
X54999992Y-63702378D02*
X54499993Y-63202379D01*
X54999992Y-63702378D02*
X54999992Y-64622378D01*
X55499992Y-69902378D02*
X55499992Y-69202379D01*
X55519992Y-65202378D02*
X59999992Y-65202380D01*
X59999992Y-65202380D02*
X59999993Y-65802378D01*
X59999992Y-69402378D02*
X59999992Y-69902379D01*
X59999992Y-69902379D02*
X55499992Y-69902378D01*
X53799992Y-67702378D02*
G75*
G02*
X55499992Y-69182377I110000J-1590000D01*
G01*
X55519992Y-65202378D02*
G75*
G02*
X54999992Y-64622378I30000J550000D01*
G01*
%TD*%
M02*
