0
SECTION
2
HEADER
9
$INSUNITS
70
4
0
ENDSEC
0
SECTION
2
TABLES
0
TABLE
2
LTYPE
0
LTYPE
72
65
70
64
2
CONTINUOUS
3
______
73
0
40
0
0
ENDTAB
0
TABLE
2
LAYER
0
ENDTAB
0
ENDSEC
0
SECTION
2
ENTITIES
0
LINE
8
0
10
26.5
20
-83
11
53.5
21
-83
0
LINE
8
0
10
53.5
20
-83
11
53.5
21
-100
0
LINE
8
0
10
53.5
20
-100
11
26.5
21
-100
0
LINE
8
0
10
26.5
20
-100
11
26.5
21
-83
0
LINE
8
0
10
26.5
20
-64.5
11
53.5
21
-64.5
0
LINE
8
0
10
53.5
20
-64.5
11
53.5
21
-81.5
0
LINE
8
0
10
53.5
20
-81.5
11
26.5
21
-81.5
0
LINE
8
0
10
26.5
20
-81.5
11
26.5
21
-64.5
0
LINE
8
0
10
26.5
20
-46
11
53.5
21
-46
0
LINE
8
0
10
53.5
20
-46
11
53.5
21
-63
0
LINE
8
0
10
53.5
20
-63
11
26.5
21
-63
0
LINE
8
0
10
26.5
20
-63
11
26.5
21
-46
0
LINE
8
0
10
26.5
20
-27.5
11
53.5
21
-27.5
0
LINE
8
0
10
53.5
20
-27.5
11
53.5
21
-44.5
0
LINE
8
0
10
53.5
20
-44.5
11
26.5
21
-44.5
0
LINE
8
0
10
26.5
20
-44.5
11
26.5
21
-27.5
0
LINE
8
0
10
54.5
20
-83
11
72.5
21
-83
0
LINE
8
0
10
72.5
20
-83
11
72.5
21
-100
0
LINE
8
0
10
72.5
20
-100
11
54.5
21
-100
0
LINE
8
0
10
54.5
20
-100
11
54.5
21
-83
0
LINE
8
0
10
54.5
20
-64.5
11
72.5
21
-64.5
0
LINE
8
0
10
72.5
20
-64.5
11
72.5
21
-81.5
0
LINE
8
0
10
72.5
20
-81.5
11
54.5
21
-81.5
0
LINE
8
0
10
54.5
20
-81.5
11
54.5
21
-64.5
0
LINE
8
0
10
54.5
20
-46
11
72.5
21
-46
0
LINE
8
0
10
72.5
20
-46
11
72.5
21
-63
0
LINE
8
0
10
72.5
20
-63
11
54.5
21
-63
0
LINE
8
0
10
54.5
20
-63
11
54.5
21
-46
0
LINE
8
0
10
54.5
20
-27.5
11
72.5
21
-27.5
0
LINE
8
0
10
72.5
20
-27.5
11
72.5
21
-44.5
0
LINE
8
0
10
72.5
20
-44.5
11
54.5
21
-44.5
0
LINE
8
0
10
54.5
20
-44.5
11
54.5
21
-27.5
0
LINE
8
0
10
74
20
-96.5
11
92
21
-96.5
0
LINE
8
0
10
92
20
-96.5
11
92
21
-113.5
0
LINE
8
0
10
92
20
-113.5
11
74
21
-113.5
0
LINE
8
0
10
74
20
-113.5
11
74
21
-96.5
0
LINE
8
0
10
74
20
-78
11
92
21
-78
0
LINE
8
0
10
92
20
-78
11
92
21
-95
0
LINE
8
0
10
92
20
-95
11
74
21
-95
0
LINE
8
0
10
74
20
-95
11
74
21
-78
0
LINE
8
0
10
74
20
-59.5
11
92
21
-59.5
0
LINE
8
0
10
92
20
-59.5
11
92
21
-76.5
0
LINE
8
0
10
92
20
-76.5
11
74
21
-76.5
0
LINE
8
0
10
74
20
-76.5
11
74
21
-59.5
0
LINE
8
0
10
74
20
-41
11
92
21
-41
0
LINE
8
0
10
92
20
-41
11
92
21
-58
0
LINE
8
0
10
92
20
-58
11
74
21
-58
0
LINE
8
0
10
74
20
-58
11
74
21
-41
0
LINE
8
0
10
74
20
-22.5
11
92
21
-22.5
0
LINE
8
0
10
92
20
-22.5
11
92
21
-39.5
0
LINE
8
0
10
92
20
-39.5
11
74
21
-39.5
0
LINE
8
0
10
74
20
-39.5
11
74
21
-22.5
0
LINE
8
0
10
93.5
20
-93.5
11
111.5
21
-93.5
0
LINE
8
0
10
111.5
20
-93.5
11
111.5
21
-110.5
0
LINE
8
0
10
111.5
20
-110.5
11
93.5
21
-110.5
0
LINE
8
0
10
93.5
20
-110.5
11
93.5
21
-93.5
0
LINE
8
0
10
93.5
20
-75
11
111.5
21
-75
0
LINE
8
0
10
111.5
20
-75
11
111.5
21
-92
0
LINE
8
0
10
111.5
20
-92
11
93.5
21
-92
0
LINE
8
0
10
93.5
20
-92
11
93.5
21
-75
0
LINE
8
0
10
93.5
20
-56.5
11
111.5
21
-56.5
0
LINE
8
0
10
111.5
20
-56.5
11
111.5
21
-73.5
0
LINE
8
0
10
111.5
20
-73.5
11
93.5
21
-73.5
0
LINE
8
0
10
93.5
20
-73.5
11
93.5
21
-56.5
0
LINE
8
0
10
93.5
20
-38
11
111.5
21
-38
0
LINE
8
0
10
111.5
20
-38
11
111.5
21
-55
0
LINE
8
0
10
111.5
20
-55
11
93.5
21
-55
0
LINE
8
0
10
93.5
20
-55
11
93.5
21
-38
0
LINE
8
0
10
93.5
20
-19.5
11
111.5
21
-19.5
0
LINE
8
0
10
111.5
20
-19.5
11
111.5
21
-36.5
0
LINE
8
0
10
111.5
20
-36.5
11
93.5
21
-36.5
0
LINE
8
0
10
93.5
20
-36.5
11
93.5
21
-19.5
0
LINE
8
0
10
113
20
-96.5
11
131
21
-96.5
0
LINE
8
0
10
131
20
-96.5
11
131
21
-113.5
0
LINE
8
0
10
131
20
-113.5
11
113
21
-113.5
0
LINE
8
0
10
113
20
-113.5
11
113
21
-96.5
0
LINE
8
0
10
113
20
-78
11
131
21
-78
0
LINE
8
0
10
131
20
-78
11
131
21
-95
0
LINE
8
0
10
131
20
-95
11
113
21
-95
0
LINE
8
0
10
113
20
-95
11
113
21
-78
0
LINE
8
0
10
113
20
-59.5
11
131
21
-59.5
0
LINE
8
0
10
131
20
-59.5
11
131
21
-76.5
0
LINE
8
0
10
131
20
-76.5
11
113
21
-76.5
0
LINE
8
0
10
113
20
-76.5
11
113
21
-59.5
0
LINE
8
0
10
113
20
-41
11
131
21
-41
0
LINE
8
0
10
131
20
-41
11
131
21
-58
0
LINE
8
0
10
131
20
-58
11
113
21
-58
0
LINE
8
0
10
113
20
-58
11
113
21
-41
0
LINE
8
0
10
113
20
-22.5
11
131
21
-22.5
0
LINE
8
0
10
131
20
-22.5
11
131
21
-39.5
0
LINE
8
0
10
131
20
-39.5
11
113
21
-39.5
0
LINE
8
0
10
113
20
-39.5
11
113
21
-22.5
0
LINE
8
0
10
132.5
20
-81
11
150.5
21
-81
0
LINE
8
0
10
150.5
20
-81
11
150.5
21
-98
0
LINE
8
0
10
150.5
20
-98
11
132.5
21
-98
0
LINE
8
0
10
132.5
20
-98
11
132.5
21
-81
0
LINE
8
0
10
132.5
20
-62.5
11
150.5
21
-62.5
0
LINE
8
0
10
150.5
20
-62.5
11
150.5
21
-79.5
0
LINE
8
0
10
150.5
20
-79.5
11
132.5
21
-79.5
0
LINE
8
0
10
132.5
20
-79.5
11
132.5
21
-62.5
0
LINE
8
0
10
132.5
20
-44
11
150.5
21
-44
0
LINE
8
0
10
150.5
20
-44
11
150.5
21
-61
0
LINE
8
0
10
150.5
20
-61
11
132.5
21
-61
0
LINE
8
0
10
132.5
20
-61
11
132.5
21
-44
0
LINE
8
0
10
132.5
20
-25.5
11
150.5
21
-25.5
0
LINE
8
0
10
150.5
20
-25.5
11
150.5
21
-42.5
0
LINE
8
0
10
150.5
20
-42.5
11
132.5
21
-42.5
0
LINE
8
0
10
132.5
20
-42.5
11
132.5
21
-25.5
0
LINE
8
0
10
134.7158949
20
-119.9654121
11
142.3230236
21
-103.651872
0
LINE
8
0
10
142.3230236
20
-103.651872
11
166.7933339
21
-115.0625651
0
LINE
8
0
10
166.7933339
20
-115.0625651
11
159.1862052
21
-131.3761052
0
LINE
8
0
10
159.1862052
20
-131.3761052
11
134.7158949
21
-119.9654121
0
LINE
8
0
10
152.3888967
20
-128.2064682
11
159.9960254
21
-111.8929281
0
LINE
8
0
10
159.9960254
20
-111.8929281
11
184.4663357
21
-123.3036212
0
LINE
8
0
10
184.4663357
20
-123.3036212
11
176.859207
21
-139.6171613
0
LINE
8
0
10
176.859207
20
-139.6171613
11
152.3888967
21
-128.2064682
0
ENDSEC
0
EOF