<svg width="157.966mm" height="120.117mm" viewBox="0 0 157.966 120.117" xmlns="http://www.w3.org/2000/svg"><g id="svgGroup" stroke-linecap="round" fill-rule="evenodd" font-size="9pt" stroke="#000" stroke-width="0.25mm" fill="none" style="stroke:#000;stroke-width:0.25mm;fill:none"><path d="M 108.216 100.465 L 115.823 84.152 L 140.293 95.563 L 132.686 111.876 L 108.216 100.465 Z M 125.889 108.706 L 133.496 92.393 L 157.966 103.804 L 150.359 120.117 L 125.889 108.706 Z M 0 63.5 L 27 63.5 L 27 80.5 L 0 80.5 L 0 63.5 Z M 0 45 L 27 45 L 27 62 L 0 62 L 0 45 Z M 0 26.5 L 27 26.5 L 27 43.5 L 0 43.5 L 0 26.5 Z M 0 8 L 27 8 L 27 25 L 0 25 L 0 8 Z M 28 63.5 L 46 63.5 L 46 80.5 L 28 80.5 L 28 63.5 Z M 28 45 L 46 45 L 46 62 L 28 62 L 28 45 Z M 28 26.5 L 46 26.5 L 46 43.5 L 28 43.5 L 28 26.5 Z M 28 8 L 46 8 L 46 25 L 28 25 L 28 8 Z M 47.5 77 L 65.5 77 L 65.5 94 L 47.5 94 L 47.5 77 Z M 47.5 58.5 L 65.5 58.5 L 65.5 75.5 L 47.5 75.5 L 47.5 58.5 Z M 47.5 40 L 65.5 40 L 65.5 57 L 47.5 57 L 47.5 40 Z M 47.5 21.5 L 65.5 21.5 L 65.5 38.5 L 47.5 38.5 L 47.5 21.5 Z M 47.5 3 L 65.5 3 L 65.5 20 L 47.5 20 L 47.5 3 Z M 67 74 L 85 74 L 85 91 L 67 91 L 67 74 Z M 67 55.5 L 85 55.5 L 85 72.5 L 67 72.5 L 67 55.5 Z M 67 37 L 85 37 L 85 54 L 67 54 L 67 37 Z M 67 18.5 L 85 18.5 L 85 35.5 L 67 35.5 L 67 18.5 Z M 67 0 L 85 0 L 85 17 L 67 17 L 67 0 Z M 86.5 77 L 104.5 77 L 104.5 94 L 86.5 94 L 86.5 77 Z M 86.5 58.5 L 104.5 58.5 L 104.5 75.5 L 86.5 75.5 L 86.5 58.5 Z M 86.5 40 L 104.5 40 L 104.5 57 L 86.5 57 L 86.5 40 Z M 86.5 21.5 L 104.5 21.5 L 104.5 38.5 L 86.5 38.5 L 86.5 21.5 Z M 86.5 3 L 104.5 3 L 104.5 20 L 86.5 20 L 86.5 3 Z M 106 61.5 L 124 61.5 L 124 78.5 L 106 78.5 L 106 61.5 Z M 106 43 L 124 43 L 124 60 L 106 60 L 106 43 Z M 106 24.5 L 124 24.5 L 124 41.5 L 106 41.5 L 106 24.5 Z M 106 6 L 124 6 L 124 23 L 106 23 L 106 6 Z" vector-effect="non-scaling-stroke"/></g></svg>